<?xml version="1.0" encoding="UTF-8"?>
<!DOCTYPE svg PUBLIC "-//W3C//DTD SVG 1.1//EN" "http://www.w3.org/Graphics/SVG/1.1/DTD/svg11.dtd">
<!-- Creator: CorelDRAW 2017 -->
<svg xmlns="http://www.w3.org/2000/svg" xml:space="preserve" width="50px" height="50px" version="1.1" style="shape-rendering:geometricPrecision; text-rendering:geometricPrecision; image-rendering:optimizeQuality; fill-rule:evenodd; clip-rule:evenodd"
viewBox="0 0 5.48 5.48"
 xmlns:xlink="http://www.w3.org/1999/xlink">
 <defs>
  <style type="text/css">
   <![CDATA[
    .fil1 {fill:#FEFEFE}
    .fil0 {fill:#FEFEFE;fill-rule:nonzero}
   ]]>
  </style>
 </defs>
 <g id="Capa_x0020_1">
  <metadata id="CorelCorpID_0Corel-Layer"/>
  <g id="_1976020602736">
   <polygon class="fil0" points="4.17,2.03 3.41,2.03 3.41,1.73 4.17,1.73 4.17,0.97 4.51,0.97 4.51,1.73 5.27,1.73 5.27,2.03 4.51,2.03 4.51,2.79 4.17,2.79 "/>
   <path class="fil1" d="M0.19 1.09c0,-0.14 0.01,-0.28 0.1,-0.38 0.16,-0.18 0.46,-0.52 0.69,-0.52 0.14,0 0.25,0.06 0.34,0.14 0.17,0.15 0.51,0.58 0.51,0.81 0,0.4 -0.44,0.5 -0.44,0.75 0,0.2 0.05,0.29 0.14,0.46 0.07,0.12 0.15,0.21 0.23,0.31 0.18,0.23 0.25,0.3 0.44,0.49 0.03,0.03 0.04,0.05 0.07,0.07l0.33 0.32c0.19,0.19 0.67,0.55 0.93,0.55 0.23,0 0.28,-0.14 0.46,-0.29 0.11,-0.1 0.17,-0.15 0.34,-0.15 0.19,0 0.47,0.2 0.58,0.3 0.17,0.13 0.38,0.3 0.38,0.54 0,0.24 -0.35,0.54 -0.53,0.7 -0.29,0.27 -1.15,-0.06 -1.39,-0.19l-0.35 -0.18c-0.22,-0.13 -0.64,-0.43 -0.84,-0.6l-0.48 -0.44c-0.03,-0.02 -0.04,-0.04 -0.07,-0.06 -0.02,-0.03 -0.03,-0.05 -0.05,-0.07l-0.38 -0.42c-0.21,-0.26 -0.26,-0.35 -0.44,-0.61 -0.27,-0.4 -0.57,-1.07 -0.57,-1.53zm0.73 -1.09l0.13 0c0.13,0.01 0.27,0.07 0.39,0.17 0.16,0.13 0.37,0.42 0.47,0.6 0.09,0.17 0.15,0.35 0.1,0.55 -0.02,0.13 -0.14,0.27 -0.23,0.36 -0.08,0.08 -0.2,0.17 -0.2,0.26 0,0.19 0.24,0.48 0.36,0.63l0.71 0.75c0.03,0.02 0.04,0.03 0.07,0.06 0.15,0.15 0.61,0.51 0.82,0.51 0.22,0 0.41,-0.69 1.14,-0.34 0.28,0.14 0.8,0.54 0.8,0.88 0,0.26 -0.05,0.33 -0.2,0.52l-0.17 0.18c-0.3,0.31 -0.34,0.35 -0.78,0.35l-0.02 0c-0.38,0 -0.87,-0.23 -1.22,-0.4l-0.34 -0.19c-0.69,-0.43 -1.46,-1.18 -1.93,-1.84 -0.23,-0.32 -0.44,-0.64 -0.59,-1.02l-0.15 -0.39c-0.07,-0.26 -0.08,-0.38 -0.08,-0.62l0 -0.05c0,-0.12 0.06,-0.29 0.12,-0.36 0.05,-0.07 0.33,-0.36 0.41,-0.42l0.14 -0.1c0.08,-0.05 0.16,-0.08 0.25,-0.09z"/>
  </g>
 </g>
</svg>
