<?xml version="1.0" encoding="UTF-8"?>
<!DOCTYPE svg PUBLIC "-//W3C//DTD SVG 1.1//EN" "http://www.w3.org/Graphics/SVG/1.1/DTD/svg11.dtd">
<!-- Creator: CorelDRAW 2017 -->
<svg xmlns="http://www.w3.org/2000/svg" xml:space="preserve" width="58px" height="55px" version="1.1" style="shape-rendering:geometricPrecision; text-rendering:geometricPrecision; image-rendering:optimizeQuality; fill-rule:evenodd; clip-rule:evenodd"
viewBox="0 0 2.53 2.37"
 xmlns:xlink="http://www.w3.org/1999/xlink">
 <defs>
  <style type="text/css">
   <![CDATA[
    .fil0 {fill:#9D9E9E}
   ]]>
  </style>
 </defs>
 <g id="Capa_x0020_1">
  <metadata id="CorelCorpID_0Corel-Layer"/>
  <g id="_1975879293136">
   <path class="fil0" d="M0 0.7l0 1.46c0,0.05 0.04,0.11 0.07,0.14 0.03,0.04 0.09,0.07 0.14,0.07l2.1 0c0.09,0 0.21,-0.11 0.21,-0.21l0 -1.46c0,-0.04 -0.06,-0.05 -0.08,-0.02 0,0.02 0,0.04 0,0.06l0 1.29c0,0.14 -0.01,0.27 -0.2,0.27l-1.96 0c-0.19,0 -0.2,-0.12 -0.2,-0.27 0,-0.08 0,-1.32 0,-1.34 -0.02,-0.03 -0.08,-0.03 -0.08,0.01z"/>
   <path class="fil0" d="M0.63 0.04l0 0.15c-0.09,0 -0.38,-0.01 -0.46,0.02 -0.02,0.01 -0.06,0.02 -0.08,0.04 -0.04,0.04 -0.08,0.11 -0.08,0.16l0 0.25c0,0.03 0.01,0.04 0.04,0.04l2.44 0c0.02,0 0.04,-0.01 0.04,-0.04l0 -0.25c0,-0.05 -0.05,-0.13 -0.09,-0.16 -0.1,-0.08 -0.27,-0.06 -0.41,-0.06 -0.07,0 -0.08,0.09 -0.01,0.09 0.1,0 0.27,-0.02 0.34,0.02 0.02,0.01 0.03,0.02 0.05,0.04 0.05,0.06 0.04,0.18 0.04,0.28l-2.36 0c0,-0.11 -0.02,-0.23 0.04,-0.29 0.04,-0.04 0.08,-0.05 0.15,-0.05l0.35 0 0 0.18c0,0.06 0.09,0.06 0.09,0l0 -0.42c0,-0.02 -0.02,-0.04 -0.03,-0.04l-0.03 0c-0.01,0 -0.03,0.02 -0.03,0.04z"/>
   <path class="fil0" d="M1.81 0.04l0 0.15 -0.96 0c-0.08,0 -0.07,0.09 -0.02,0.09l0.98 0 0 0.18c0,0.06 0.09,0.06 0.09,0l0 -0.42c0,-0.02 -0.02,-0.04 -0.03,-0.04l-0.02 0c-0.02,0 -0.04,0.02 -0.04,0.04z"/>
  </g>
 </g>
</svg>
