<?xml version="1.0" encoding="UTF-8"?>
<!DOCTYPE svg PUBLIC "-//W3C//DTD SVG 1.1//EN" "http://www.w3.org/Graphics/SVG/1.1/DTD/svg11.dtd">
<!-- Creator: CorelDRAW X7 -->
<svg xmlns="http://www.w3.org/2000/svg" xml:space="preserve" width="4.941mm" height="4.6451mm" version="1.1" style="shape-rendering:geometricPrecision; text-rendering:geometricPrecision; image-rendering:optimizeQuality; fill-rule:evenodd; clip-rule:evenodd"
viewBox="0 0 51 48"
 xmlns:xlink="http://www.w3.org/1999/xlink">
 <defs>
  <style type="text/css">
   <![CDATA[
    .fil0 {fill:#9D9E9E}
   ]]>
  </style>
 </defs>
 <g id="Capa_x0020_1">
  <metadata id="CorelCorpID_0Corel-Layer"/>
  <g id="_2258848065680">
   <path class="fil0" d="M0 14l0 29c0,1 1,3 1,3 1,1 2,2 3,2l42 0c2,0 4,-3 4,-5l0 -29c0,-1 -1,-1 -1,0 0,0 0,0 0,1l0 26c0,2 0,5 -4,5l-39 0c-4,0 -4,-2 -4,-5 0,-2 0,-27 0,-27 -1,-1 -2,-1 -2,0z"/>
   <path class="fil0" d="M13 1l0 3c-2,0 -8,0 -10,0 0,0 -1,1 -1,1 -1,1 -2,2 -2,3l0 5c0,1 0,1 1,1l49 0c0,0 1,0 1,-1l0 -5c0,-1 -1,-2 -2,-3 -2,-2 -6,-1 -8,-1 -2,0 -2,2 -1,2 2,0 6,-1 7,0 1,0 1,0 1,1 1,1 1,3 1,5l-47 0c0,-2 -1,-4 1,-5 0,-1 1,-1 3,-1l7 0 0 3c0,1 1,1 1,0l0 -8c0,-1 0,-1 0,-1l-1 0c0,0 0,0 0,1z"/>
   <path class="fil0" d="M36 1l0 3 -19 0c-2,0 -1,2 0,2l19 0 0 3c0,1 2,1 2,0l0 -8c0,-1 0,-1 -1,-1l0 0c0,0 -1,0 -1,1z"/>
  </g>
 </g>
</svg>
