<?xml version="1.0" encoding="UTF-8"?>
<!DOCTYPE svg PUBLIC "-//W3C//DTD SVG 1.1//EN" "http://www.w3.org/Graphics/SVG/1.1/DTD/svg11.dtd">
<!-- Creator: CorelDRAW 2017 -->
<svg xmlns="http://www.w3.org/2000/svg" xml:space="preserve" width="88px" height="81px" version="1.1" style="shape-rendering:geometricPrecision; text-rendering:geometricPrecision; image-rendering:optimizeQuality; fill-rule:evenodd; clip-rule:evenodd"
viewBox="0 0 2.34 2.15"
 xmlns:xlink="http://www.w3.org/1999/xlink">
 <defs>
  <style type="text/css">
   <![CDATA[
    .str0 {stroke:#FEFEFE;stroke-width:0.06;stroke-miterlimit:22.9256}
    .fil0 {fill:#FEFEFE}
    .fil1 {fill:#2B2A29;fill-rule:nonzero}
   ]]>
  </style>
 </defs>
 <g id="Capa_x0020_1">
  <metadata id="CorelCorpID_0Corel-Layer"/>
  <path class="fil0 str0" d="M0.14 0.03l2.06 0c0.06,0 0.1,0.05 0.1,0.11l0 1.87c0,0.06 -0.04,0.11 -0.1,0.11l-2.06 0c-0.06,0 -0.11,-0.05 -0.11,-0.11l0 -1.87c0,-0.06 0.05,-0.11 0.11,-0.11z"/>
  <path class="fil1" d="M0.87 1.35l0.03 0.03c-0.07,0.07 -0.16,0.1 -0.27,0.1 -0.11,0 -0.21,-0.04 -0.29,-0.12 -0.08,-0.08 -0.12,-0.17 -0.12,-0.29 0,-0.11 0.04,-0.2 0.12,-0.28 0.08,-0.08 0.18,-0.12 0.29,-0.12 0.11,0 0.2,0.03 0.27,0.1l-0.03 0.03c-0.07,-0.06 -0.15,-0.09 -0.24,-0.09 -0.1,0 -0.19,0.04 -0.26,0.11 -0.07,0.07 -0.1,0.15 -0.1,0.25 0,0.11 0.03,0.19 0.1,0.26 0.07,0.07 0.16,0.11 0.26,0.11 0.09,0 0.17,-0.03 0.24,-0.09z"/>
  <path id="1" class="fil1" d="M1.15 0.68c0.13,0 0.23,0.03 0.31,0.11 0.08,0.08 0.12,0.17 0.12,0.28 0,0.12 -0.04,0.21 -0.12,0.29 -0.08,0.08 -0.18,0.11 -0.31,0.11l-0.15 0 0 -0.79 0.15 0zm-0.1 0.04l0 0.71 0.1 0c0.12,0 0.21,-0.03 0.27,-0.1 0.07,-0.07 0.11,-0.15 0.11,-0.26 0,-0.1 -0.04,-0.18 -0.11,-0.25 -0.06,-0.07 -0.15,-0.1 -0.27,-0.1l-0.1 0z"/>
  <path id="2" class="fil1" d="M1.72 0.72l0 0.43 0.13 0c0.06,0 0.11,-0.02 0.16,-0.06 0.04,-0.04 0.06,-0.09 0.06,-0.15 0,-0.06 -0.02,-0.11 -0.06,-0.16 -0.05,-0.04 -0.1,-0.06 -0.16,-0.06l-0.13 0zm0.15 0.48l-0.15 0 0 0.27 -0.05 0 0 -0.79 0.21 0c0.06,0 0.12,0.03 0.16,0.07 0.05,0.05 0.07,0.11 0.07,0.19 0,0.07 -0.02,0.13 -0.07,0.18 -0.04,0.04 -0.08,0.06 -0.12,0.07l0.18 0.28 -0.05 0 -0.18 -0.27z"/>
 </g>
</svg>
