<?xml version="1.0" encoding="UTF-8"?>
<!DOCTYPE svg PUBLIC "-//W3C//DTD SVG 1.1//EN" "http://www.w3.org/Graphics/SVG/1.1/DTD/svg11.dtd">
<!-- Creator: CorelDRAW 2017 -->
<svg xmlns="http://www.w3.org/2000/svg" xml:space="preserve" width="85px" height="78px" version="1.1" style="shape-rendering:geometricPrecision; text-rendering:geometricPrecision; image-rendering:optimizeQuality; fill-rule:evenodd; clip-rule:evenodd"
viewBox="0 0 2.2 2.02"
 xmlns:xlink="http://www.w3.org/1999/xlink">
 <defs>
  <style type="text/css">
   <![CDATA[
    .fil0 {fill:#2B2A29}
   ]]>
  </style>
 </defs>
 <g id="Capa_x0020_1">
  <metadata id="CorelCorpID_0Corel-Layer"/>
  <path class="fil0" d="M0.1 0l2 0c0.05,0 0.1,0.05 0.1,0.1l0 1.82c0,0.05 -0.05,0.1 -0.1,0.1l-2 0c-0.05,0 -0.1,-0.05 -0.1,-0.1l0 -1.82c0,-0.05 0.05,-0.1 0.1,-0.1zm0.71 1.27l0.03 0.03c-0.07,0.07 -0.16,0.1 -0.26,0.1 -0.11,0 -0.2,-0.04 -0.28,-0.11 -0.08,-0.08 -0.12,-0.17 -0.12,-0.28 0,-0.11 0.04,-0.2 0.12,-0.28 0.08,-0.08 0.17,-0.12 0.28,-0.12 0.1,0 0.19,0.04 0.26,0.11l-0.03 0.03c-0.07,-0.06 -0.14,-0.09 -0.23,-0.09 -0.1,0 -0.18,0.03 -0.25,0.1 -0.07,0.07 -0.1,0.15 -0.1,0.25 0,0.1 0.03,0.18 0.1,0.25 0.07,0.07 0.15,0.1 0.25,0.1 0.09,0 0.16,-0.03 0.23,-0.09zm0.27 -0.65c0.13,0 0.23,0.04 0.3,0.11 0.07,0.08 0.11,0.17 0.11,0.28 0,0.11 -0.04,0.2 -0.11,0.28 -0.07,0.07 -0.17,0.1 -0.3,0.1l-0.14 0 0 -0.77 0.14 0zm-0.1 0.05l0 0.68 0.1 0c0.11,0 0.2,-0.03 0.26,-0.09 0.07,-0.07 0.11,-0.15 0.11,-0.25 0,-0.1 -0.04,-0.18 -0.11,-0.25 -0.06,-0.06 -0.15,-0.09 -0.26,-0.09l-0.1 0zm0.65 0l0 0.41 0.13 0c0.06,0 0.11,-0.02 0.15,-0.06 0.04,-0.04 0.06,-0.09 0.06,-0.15 0,-0.05 -0.02,-0.1 -0.06,-0.14 -0.04,-0.04 -0.09,-0.06 -0.15,-0.06l-0.13 0zm0.15 0.46l-0.15 0 0 0.26 -0.04 0 0 -0.77 0.2 0c0.06,0.01 0.11,0.04 0.15,0.08 0.05,0.05 0.07,0.11 0.07,0.17 0,0.07 -0.02,0.13 -0.07,0.18 -0.03,0.04 -0.07,0.06 -0.12,0.07l0.18 0.27 -0.05 0 -0.17 -0.26z"/>
 </g>
</svg>
