<?xml version="1.0" encoding="UTF-8"?>
<!DOCTYPE svg PUBLIC "-//W3C//DTD SVG 1.1//EN" "http://www.w3.org/Graphics/SVG/1.1/DTD/svg11.dtd">
<!-- Creator: CorelDRAW 2017 -->
<svg xmlns="http://www.w3.org/2000/svg" xml:space="preserve" width="778px" height="714px" version="1.1" style="shape-rendering:geometricPrecision; text-rendering:geometricPrecision; image-rendering:optimizeQuality; fill-rule:evenodd; clip-rule:evenodd"
viewBox="0 0 748.17 686.91"
 xmlns:xlink="http://www.w3.org/1999/xlink">
 <defs>
  <style type="text/css">
   <![CDATA[
    .fil0 {fill:#D9DADA}
   ]]>
  </style>
 </defs>
 <g id="Capa_x0020_1">
  <metadata id="CorelCorpID_0Corel-Layer"/>
  <path class="fil0" d="M34.11 0l679.95 0c18.76,0 34.11,15.35 34.11,34.11l0 618.69c0,18.76 -15.35,34.11 -34.11,34.11l-679.95 0c-18.76,0 -34.11,-15.35 -34.11,-34.11l0 -618.69c0,-18.76 15.35,-34.11 34.11,-34.11zm242.05 432.95l11.35 10.02c-25.67,23.26 -55.78,34.92 -90.45,34.92 -37.26,0 -68.96,-13.12 -95.19,-39.3 -26.18,-26.17 -39.24,-57.86 -39.24,-95.13 0,-37.01 13.06,-68.7 39.24,-95.01 26.23,-26.3 57.93,-39.42 95.19,-39.42 34.67,0 64.78,11.66 90.45,35.05l-11.35 10.08c-22.5,-19.97 -48.86,-29.92 -79.1,-29.92 -32.96,0 -61.03,11.6 -84.42,34.92 -23.32,23.27 -34.99,51.34 -34.99,84.3 0,33.02 11.67,61.22 34.99,84.49 23.39,23.26 51.46,34.85 84.42,34.85 30.24,0 56.6,-9.95 79.1,-29.85zm92.28 -220.81c43.16,0.25 76.69,12.36 100.46,36.25 26.24,26.37 39.36,58.06 39.36,95.07 0,37.27 -13.12,69.02 -39.36,95.26 -23.77,23.77 -57.3,35.75 -100.46,36l-48.67 0 0 -262.58 48.67 0zm-33.78 15.46l0 231.91 33.59 0c37.78,0 67.5,-10.52 89.3,-31.56 23.26,-23.27 34.93,-51.47 34.93,-84.49 0,-32.96 -11.67,-61.1 -34.93,-84.49 -21.8,-20.91 -51.52,-31.37 -89.3,-31.37l-33.59 0zm220.75 -0.38l0 141.47 44.56 0c19.39,0 36.06,-6.91 49.94,-20.73 13.82,-13.75 20.79,-30.49 20.79,-50.2 0,-19.58 -6.97,-36.19 -20.79,-49.94 -13.88,-13.75 -30.55,-20.6 -49.94,-20.6l-44.56 0zm49 156.49l-49 0 0 91.01 -14.89 0 0 -262.58 68.89 0c20.03,2.72 37.08,11.09 51.09,25.1 16.67,16.85 25.03,37.01 25.03,60.52 0,23.77 -8.36,43.99 -25.03,60.72 -11.67,11.66 -24.98,19.27 -39.93,22.82l60.53 93.42 -18.2 0 -58.49 -91.01z"/>
 </g>
</svg>
