<?xml version="1.0" encoding="UTF-8"?>
<!DOCTYPE svg PUBLIC "-//W3C//DTD SVG 1.1//EN" "http://www.w3.org/Graphics/SVG/1.1/DTD/svg11.dtd">
<!-- Creator: CorelDRAW 2017 -->
<svg xmlns="http://www.w3.org/2000/svg" xml:space="preserve" width="38px" height="38px" version="1.1" style="shape-rendering:geometricPrecision; text-rendering:geometricPrecision; image-rendering:optimizeQuality; fill-rule:evenodd; clip-rule:evenodd"
viewBox="0 0 0.57 0.57"
 xmlns:xlink="http://www.w3.org/1999/xlink">
 <defs>
  <style type="text/css">
   <![CDATA[
    .str0 {stroke:white;stroke-width:0.02;stroke-miterlimit:22.9256}
    .fil0 {fill:#FEFEFE}
   ]]>
  </style>
 </defs>
 <g id="Capa_x0020_1">
  <metadata id="CorelCorpID_0Corel-Layer"/>
  <g id="_1975879256816">
   <path class="fil0 str0" d="M0.03 0.29c0,-0.04 0,-0.08 0.02,-0.11 0.01,-0.02 0.01,-0.03 0.02,-0.04l0.03 -0.04c0.02,-0.02 0.05,-0.03 0.07,-0.05 0.11,-0.05 0.25,-0.01 0.32,0.09 0.05,0.07 0.06,0.17 0.02,0.25 -0.02,0.04 -0.04,0.07 -0.08,0.1 -0.07,0.05 -0.17,0.06 -0.25,0.02 -0.02,-0.01 -0.04,-0.02 -0.06,-0.03 -0.02,-0.02 -0.03,-0.02 -0.04,-0.05 -0.03,-0.04 -0.05,-0.09 -0.05,-0.14zm0.24 -0.28l0.02 0c0.02,0 0.04,0 0.06,0.01 0.03,0.01 0.07,0.02 0.09,0.04l0.04 0.03c0,0 0,0 0,0.01l0.03 0.03c0,0 0,0.01 0.01,0.01 0.01,0.01 0.01,0.01 0.01,0.03 0.02,0.03 0.02,0.06 0.03,0.09l0 0.04c0,0.02 -0.01,0.03 -0.01,0.05 -0.01,0.04 -0.03,0.08 -0.06,0.11 0,0.01 -0.01,0.01 -0.01,0.02 -0.02,0.02 -0.06,0.04 -0.08,0.05 -0.04,0.02 -0.07,0.02 -0.1,0.03l-0.04 0c-0.03,-0.01 -0.06,-0.01 -0.09,-0.03 -0.03,-0.01 -0.07,-0.04 -0.09,-0.06 0,-0.01 0,-0.01 -0.01,-0.01 -0.02,-0.02 -0.03,-0.06 -0.05,-0.08 -0.01,-0.04 -0.01,-0.07 -0.01,-0.11 0,-0.04 0.02,-0.1 0.04,-0.13 0.01,-0.02 0.03,-0.04 0.05,-0.06 0.02,-0.02 0.03,-0.03 0.07,-0.04 0,-0.01 0.01,-0.01 0.02,-0.02 0.02,0 0.05,-0.01 0.08,-0.01z"/>
   <path class="fil0 str0" d="M0.27 0.08l0 0.2 -0.13 0c-0.01,0 -0.01,0.01 -0.01,0.01 0,0.01 0,0.01 0.01,0.01l0.14 0c0.01,0 0.01,0 0.01,-0.01l0 -0.21c0,-0.01 0,-0.01 -0.01,-0.02 0,0.01 -0.01,0.01 -0.01,0.02z"/>
  </g>
 </g>
</svg>
