<?xml version="1.0" encoding="UTF-8"?>
<!DOCTYPE svg PUBLIC "-//W3C//DTD SVG 1.1//EN" "http://www.w3.org/Graphics/SVG/1.1/DTD/svg11.dtd">
<!-- Creator: CorelDRAW 2017 -->
<svg xmlns="http://www.w3.org/2000/svg" xml:space="preserve" width="163px" height="25px" version="1.1" style="shape-rendering:geometricPrecision; text-rendering:geometricPrecision; image-rendering:optimizeQuality; fill-rule:evenodd; clip-rule:evenodd"
viewBox="0 0 12.52 1.94"
 xmlns:xlink="http://www.w3.org/1999/xlink">
 <defs>
  <style type="text/css">
   <![CDATA[
    .fil0 {fill:#2B2A29;fill-rule:nonzero}
   ]]>
  </style>
 </defs>
 <g id="Capa_x0020_1">
  <metadata id="CorelCorpID_0Corel-Layer"/>
  <path class="fil0" d="M0.97 1.86c-0.24,0 -0.45,-0.09 -0.62,-0.26 -0.18,-0.18 -0.26,-0.38 -0.26,-0.63 0,-0.24 0.08,-0.45 0.26,-0.62 0.17,-0.18 0.38,-0.26 0.62,-0.26 0.23,0 0.42,0.07 0.59,0.22l0.07 -0.06c-0.19,-0.17 -0.41,-0.25 -0.66,-0.25 -0.27,0 -0.5,0.1 -0.68,0.29 -0.19,0.18 -0.29,0.41 -0.29,0.68 0,0.27 0.1,0.5 0.29,0.69 0.18,0.19 0.41,0.28 0.68,0.28 0.25,0 0.47,-0.08 0.66,-0.25l-0.07 -0.06c-0.17,0.15 -0.36,0.23 -0.59,0.23z"/>
  <polygon id="1" class="fil0" points="1.85,1.9 1.94,1.9 1.94,0.01 1.85,0.01 "/>
  <path id="2" class="fil0" d="M2.89 0.62c-0.17,0 -0.31,0.06 -0.43,0.18 -0.12,0.12 -0.18,0.27 -0.18,0.44 0,0.17 0.06,0.31 0.18,0.44 0.12,0.12 0.26,0.18 0.43,0.18 0.17,0 0.32,-0.06 0.44,-0.18 0.12,-0.13 0.18,-0.27 0.18,-0.44 0,-0.17 -0.06,-0.32 -0.18,-0.44 -0.12,-0.12 -0.27,-0.18 -0.44,-0.18zm0 1.32c-0.19,0 -0.36,-0.07 -0.49,-0.2 -0.14,-0.14 -0.21,-0.31 -0.21,-0.5 0,-0.2 0.07,-0.36 0.21,-0.5 0.13,-0.14 0.3,-0.21 0.49,-0.21 0.2,0 0.36,0.07 0.5,0.21 0.14,0.14 0.21,0.3 0.21,0.5 0,0.19 -0.07,0.36 -0.21,0.5 -0.14,0.13 -0.3,0.2 -0.5,0.2z"/>
  <path id="3" class="fil0" d="M4.33 1.94c-0.15,0 -0.28,-0.05 -0.38,-0.16 -0.11,-0.11 -0.17,-0.23 -0.17,-0.38l0 -0.82 0.09 0 0 0.82c0,0.12 0.05,0.23 0.14,0.32 0.09,0.09 0.2,0.14 0.32,0.14 0.13,0 0.24,-0.05 0.33,-0.14 0.09,-0.09 0.13,-0.2 0.13,-0.32l0 -0.82 0.09 0 0 0.82c0,0.15 -0.05,0.27 -0.16,0.38 -0.11,0.11 -0.24,0.16 -0.39,0.16z"/>
  <path id="4" class="fil0" d="M5.78 1.86c-0.17,0 -0.31,-0.06 -0.43,-0.18 -0.12,-0.13 -0.18,-0.27 -0.18,-0.44 0,-0.17 0.06,-0.32 0.18,-0.44 0.12,-0.12 0.26,-0.18 0.43,-0.18 0.18,0 0.32,0.06 0.44,0.18 0.12,0.12 0.18,0.27 0.18,0.44 0,0.17 -0.06,0.31 -0.18,0.44 -0.12,0.12 -0.26,0.18 -0.44,0.18zm0.62 -1.85l0 0.89c-0.06,-0.11 -0.14,-0.2 -0.25,-0.26 -0.11,-0.07 -0.23,-0.11 -0.37,-0.11 -0.19,0 -0.36,0.07 -0.49,0.21 -0.14,0.14 -0.21,0.3 -0.21,0.5 0,0.19 0.07,0.36 0.21,0.5 0.13,0.13 0.3,0.2 0.49,0.2 0.14,0 0.26,-0.03 0.37,-0.1 0.11,-0.06 0.19,-0.15 0.25,-0.26l0 0.32 0.09 0 0 -1.89 -0.09 0z"/>
  <polygon id="5" class="fil0" points="7.34,0.01 7.34,0.1 7.92,0.1 7.92,1.9 8,1.9 8,0.1 8.58,0.1 8.58,0.01 "/>
  <path id="6" class="fil0" d="M10.43 1.86c-0.17,0 -0.31,-0.06 -0.44,-0.18 -0.12,-0.13 -0.18,-0.27 -0.18,-0.44 0,-0.17 0.06,-0.32 0.18,-0.44 0.13,-0.12 0.27,-0.18 0.44,-0.18 0.17,0 0.32,0.06 0.44,0.18 0.12,0.12 0.18,0.27 0.18,0.44 0,0.17 -0.06,0.31 -0.18,0.44 -0.12,0.12 -0.27,0.18 -0.44,0.18zm-1.33 0c-0.17,0 -0.31,-0.06 -0.43,-0.18 -0.12,-0.13 -0.18,-0.27 -0.18,-0.44 0,-0.17 0.06,-0.32 0.18,-0.44 0.12,-0.12 0.26,-0.18 0.43,-0.18 0.18,0 0.32,0.06 0.44,0.18 0.12,0.12 0.18,0.27 0.18,0.44 0,0.17 -0.06,0.31 -0.18,0.44 -0.12,0.12 -0.26,0.18 -0.44,0.18zm1.33 -1.33c-0.15,0 -0.29,0.05 -0.41,0.14 -0.12,0.08 -0.2,0.19 -0.25,0.33 -0.05,-0.14 -0.14,-0.25 -0.26,-0.33 -0.12,-0.09 -0.25,-0.14 -0.41,-0.14 -0.19,0 -0.36,0.07 -0.49,0.21 -0.14,0.14 -0.21,0.3 -0.21,0.5 0,0.19 0.07,0.36 0.21,0.5 0.13,0.13 0.3,0.2 0.49,0.2 0.16,0 0.29,-0.04 0.41,-0.13 0.12,-0.08 0.21,-0.2 0.26,-0.33 0.05,0.13 0.13,0.25 0.25,0.33 0.12,0.09 0.26,0.13 0.41,0.13 0.2,0 0.36,-0.07 0.5,-0.2 0.14,-0.14 0.21,-0.31 0.21,-0.5 0,-0.2 -0.07,-0.36 -0.21,-0.5 -0.14,-0.14 -0.3,-0.21 -0.5,-0.21z"/>
  <polygon id="7" class="fil0" points="11.36,1.9 11.45,1.9 11.45,0.01 11.36,0.01 "/>
  <path id="8" class="fil0" d="M12.11 1.94c-0.17,0 -0.31,-0.06 -0.42,-0.18l0.06 -0.06c0.07,0.07 0.15,0.12 0.25,0.14 0.05,0.02 0.09,0.02 0.13,0.02 0.08,-0.01 0.15,-0.04 0.21,-0.08 0.06,-0.06 0.09,-0.13 0.08,-0.23 0,-0.07 -0.03,-0.13 -0.08,-0.17 -0.06,-0.04 -0.14,-0.07 -0.26,-0.09 -0.25,-0.05 -0.38,-0.17 -0.39,-0.35 -0.01,-0.11 0.02,-0.2 0.09,-0.27 0.07,-0.08 0.16,-0.12 0.26,-0.13 0.05,0 0.1,0 0.16,0.02 0.12,0.02 0.21,0.08 0.3,0.16l-0.07 0.06c-0.11,-0.11 -0.24,-0.17 -0.38,-0.15 -0.08,0 -0.15,0.04 -0.2,0.09 -0.05,0.06 -0.08,0.13 -0.07,0.21 0.01,0.14 0.11,0.23 0.31,0.27 0.12,0.02 0.22,0.06 0.28,0.1 0.09,0.06 0.13,0.14 0.14,0.25 0.01,0.12 -0.03,0.21 -0.11,0.29 -0.07,0.06 -0.16,0.1 -0.27,0.1 0,0 -0.01,0 -0.02,0z"/>
 </g>
</svg>
