<?xml version="1.0" encoding="UTF-8"?>
<!DOCTYPE svg PUBLIC "-//W3C//DTD SVG 1.1//EN" "http://www.w3.org/Graphics/SVG/1.1/DTD/svg11.dtd">
<!-- Creator: CorelDRAW X7 -->
<svg xmlns="http://www.w3.org/2000/svg" xml:space="preserve" width="7.4366mm" height="6.5897mm" version="1.1" style="shape-rendering:geometricPrecision; text-rendering:geometricPrecision; image-rendering:optimizeQuality; fill-rule:evenodd; clip-rule:evenodd"
viewBox="0 0 51 45"
 xmlns:xlink="http://www.w3.org/1999/xlink">
 <defs>
  <style type="text/css">
   <![CDATA[
    .fil0 {fill:#727271}
   ]]>
  </style>
 </defs>
 <g id="Capa_x0020_1">
  <metadata id="CorelCorpID_0Corel-Layer"/>
  <g id="_2258845794336">
   <path class="fil0" d="M5 28c0,1 0,4 1,5 0,0 0,0 0,1 0,0 0,2 0,2 -1,0 -3,2 -4,2 -1,2 -2,2 -2,3l0 3c0,1 2,2 2,0 0,-3 0,-2 1,-4 3,-1 3,-1 4,-2 2,-1 1,-2 1,-4 0,-1 0,-1 0,-2 0,0 0,0 0,0 0,0 -1,0 -1,-1l0 -3c0,-2 2,-3 4,-2 1,0 2,1 2,2l0 4c0,0 -1,0 -1,1l0 4c0,1 1,1 3,2l2 2c1,0 1,0 1,1 0,1 0,4 1,3 1,0 1,-2 1,-3 0,-1 0,-2 0,-2 -1,-1 -5,-4 -6,-4 0,0 0,-2 0,-2 0,-1 1,-1 1,-2l0 -5c0,-1 -1,-3 -3,-3 -3,-1 -7,1 -7,4z"/>
   <path class="fil0" d="M36 27c0,2 0,5 0,6 1,0 1,0 1,1 0,0 0,2 0,2 -1,0 -3,2 -4,2 0,1 -1,1 -1,2 -1,1 -1,2 -1,4 0,1 0,1 1,1 1,0 1,-1 1,-3 0,-1 0,-1 2,-2 0,-1 2,-2 3,-2 1,0 1,-1 1,-1l0 -4c0,-1 -1,-1 -1,-1l0 -4c0,-3 6,-3 6,0l0 4c0,0 -1,0 -1,1 0,2 0,4 0,5 1,0 3,1 4,2 1,1 2,1 2,2 0,2 0,3 1,3 0,0 1,0 1,0 0,0 0,0 0,-1l0 -3c0,-1 -1,-2 -2,-3 -1,0 -3,-2 -4,-2 0,0 0,-2 0,-2 0,-1 1,-1 1,-2l0 -4c0,-4 -4,-5 -7,-4 -1,0 -1,0 -1,1 -1,0 -2,1 -2,2z"/>
   <path class="fil0" d="M21 4l0 4c0,1 0,2 0,2 0,4 1,2 -4,5 -2,2 -2,2 -2,6 0,1 3,1 3,-1 0,-3 -1,-2 1,-3l1 -1c1,0 1,-1 2,-1 2,-1 2,-1 2,-5 0,-1 -1,-1 -1,-2l0 -4c0,-1 1,-2 2,-2l1 0c1,0 2,1 2,2l0 4c0,1 0,1 0,1l0 4c0,1 0,1 0,1 3,2 3,2 5,3 1,1 0,2 1,4 0,1 2,1 2,-1 0,-3 0,-3 -3,-5 -1,-1 -1,-1 -2,-2 -2,-1 -1,0 -1,-3 0,0 0,-1 0,-2l0 -4c0,-1 0,-2 -1,-3 -2,-1 -5,-1 -7,0 0,1 -1,2 -1,3z"/>
   <g>
    <path class="fil0" d="M23 22c3,0 7,0 10,0 1,1 1,12 0,11l-10 0 0 -11zm3 1l5 0c0,0 0,1 0,1l0 1c0,0 0,0 0,0l-5 0c-1,0 -1,0 -1,0l0 -1c0,0 0,-1 1,-1zm0 8c0,0 1,0 1,0 0,1 -1,1 -1,1 0,0 -1,0 -1,-1 0,0 1,0 1,0zm2 0c1,0 1,0 1,0 0,1 0,1 -1,1 0,0 0,0 0,-1 0,0 0,0 0,0zm2 0c1,0 1,0 1,0 0,1 0,1 -1,1 0,0 0,0 0,-1 0,0 0,0 0,0zm0 -3c1,0 1,1 1,1 0,0 0,1 -1,1 0,0 0,-1 0,-1 0,0 0,-1 0,-1zm-4 0c0,0 1,1 1,1 0,0 -1,1 -1,1 0,0 -1,-1 -1,-1 0,0 1,-1 1,-1zm2 0c1,0 1,1 1,1 0,0 0,1 -1,1 0,0 0,-1 0,-1 0,0 0,-1 0,-1zm0 -2c1,0 1,1 1,1 0,0 0,1 -1,1 0,0 0,-1 0,-1 0,0 0,-1 0,-1zm-2 0c0,0 1,1 1,1 0,0 -1,1 -1,1 0,0 -1,-1 -1,-1 0,0 1,-1 1,-1zm4 0c1,0 1,1 1,1 0,0 0,1 -1,1 0,0 0,-1 0,-1 0,0 0,-1 0,-1z"/>
    <rect class="fil0" x="19" y="21" width="3.7407" height="13.2436" rx="1" ry="1"/>
    <path class="fil0" d="M17 22l1 0 0 11c0,0 0,0 -1,0 -1,-1 -1,-10 0,-11z"/>
   </g>
  </g>
 </g>
</svg>
