<?xml version="1.0" encoding="UTF-8"?>
<!DOCTYPE svg PUBLIC "-//W3C//DTD SVG 1.1//EN" "http://www.w3.org/Graphics/SVG/1.1/DTD/svg11.dtd">
<!-- Creator: CorelDRAW X7 -->
<svg xmlns="http://www.w3.org/2000/svg" xml:space="preserve" width="4.3142mm" height="3.4688mm" version="1.1" style="shape-rendering:geometricPrecision; text-rendering:geometricPrecision; image-rendering:optimizeQuality; fill-rule:evenodd; clip-rule:evenodd"
viewBox="0 0 48 39"
 xmlns:xlink="http://www.w3.org/1999/xlink">
 <defs>
  <style type="text/css">
   <![CDATA[
    .str0 {stroke:#FEFEFE;stroke-width:2.23234}
    .fil1 {fill:none}
    .fil0 {fill:#FEFEFE;fill-rule:nonzero}
   ]]>
  </style>
 </defs>
 <g id="Capa_x0020_1">
  <metadata id="CorelCorpID_0Corel-Layer"/>
  <g id="_2258848033904">
   <path class="fil0" d="M0 0c5,0 10,2 14,6 3,3 5,8 5,13 0,6 -2,11 -5,14 -4,4 -9,6 -14,6l0 -2c5,0 9,-2 12,-5 3,-4 5,-8 5,-13 0,-4 -2,-9 -5,-12 -3,-3 -7,-5 -12,-5l0 -2z"/>
   <line class="fil1 str0" x1="19" y1="19" x2="48" y2= "20" />
  </g>
 </g>
</svg>
