<?xml version="1.0" encoding="UTF-8"?>
<!DOCTYPE svg PUBLIC "-//W3C//DTD SVG 1.1//EN" "http://www.w3.org/Graphics/SVG/1.1/DTD/svg11.dtd">
<!-- Creator: CorelDRAW X7 -->
<svg xmlns="http://www.w3.org/2000/svg" xml:space="preserve" width="8.4337mm" height="7.4732mm" version="1.1" style="shape-rendering:geometricPrecision; text-rendering:geometricPrecision; image-rendering:optimizeQuality; fill-rule:evenodd; clip-rule:evenodd"
viewBox="0 0 25 22"
 xmlns:xlink="http://www.w3.org/1999/xlink">
 <defs>
  <style type="text/css">
   <![CDATA[
    .fil0 {fill:#FEFEFE}
   ]]>
  </style>
 </defs>
 <g id="Capa_x0020_1">
  <metadata id="CorelCorpID_0Corel-Layer"/>
  <g id="_2258708165088">
   <path class="fil0" d="M3 14c0,0 0,2 0,2 0,0 0,0 0,1 0,0 0,1 0,1 0,0 -1,1 -2,1 -1,1 -1,1 -1,2l0 1c0,0 1,1 1,0 0,-2 0,-1 1,-2 1,-1 1,-1 2,-1 0,-1 0,-1 0,-2 0,-1 0,-1 0,-1 0,0 0,0 0,0 0,0 0,0 0,0l0 -2c0,-1 1,-1 1,-1 1,0 1,0 1,1l0 2c0,0 0,0 0,0l0 2c0,1 1,1 1,1l2 1c0,0 0,0 0,1 0,0 0,2 1,1 0,0 0,0 0,-1 0,-1 0,-1 0,-1 -1,-1 -3,-2 -3,-2 0,0 0,-1 0,-1 0,-1 0,-1 0,-1l0 -2c0,-1 0,-2 -1,-2 -2,-1 -3,0 -3,2z"/>
   <path class="fil0" d="M18 14c0,0 0,2 0,2 0,0 0,1 0,1 0,0 0,1 0,1 0,0 -1,1 -2,1 0,0 0,0 0,1 -1,0 -1,1 -1,2 0,0 0,0 1,0 0,0 0,0 0,-1 0,-1 0,-1 1,-1 1,0 1,-1 2,-1 0,0 0,0 0,-1l0 -2c0,0 0,0 0,0l0 -2c0,-2 3,-2 3,0l0 2c0,0 -1,0 -1,0 0,1 0,2 0,3 1,0 2,0 2,1 1,0 1,0 1,1 0,1 0,1 1,1 0,0 0,0 0,0 0,0 0,0 0,0l0 -2c0,0 0,-1 -1,-1 0,0 -1,-1 -2,-1 0,0 0,-1 0,-1 0,-1 1,-1 1,-1l0 -2c0,-2 -2,-3 -4,-2 0,0 0,0 0,0 -1,0 -1,1 -1,2z"/>
   <path class="fil0" d="M10 2l0 2c0,1 1,1 1,1 0,2 0,1 -2,3 -2,0 -1,1 -1,2 0,1 1,1 1,0 0,-1 0,-1 0,-2l1 0c0,0 0,0 1,-1 1,0 1,0 1,-2 0,-1 -1,-1 -1,-1l0 -2c0,0 1,-1 1,-1l1 0c1,0 1,1 1,1l0 2c0,0 0,0 0,1l0 2c0,0 0,0 0,0 1,1 1,1 2,2 1,0 0,1 1,1 0,1 1,1 1,0 0,-2 0,-2 -1,-3 -1,0 -1,0 -2,0 0,-1 0,0 0,-2 0,0 0,0 0,-1l0 -2c0,-1 0,-1 -1,-1 -1,-1 -2,-1 -3,0 0,0 -1,0 -1,1z"/>
   <g>
    <path class="fil0" d="M12 11c1,0 3,0 4,0 1,0 1,6 0,6l-4 0 0 -6zm1 1l2 0c0,0 0,0 0,0l0 0c0,0 0,0 0,0l-2 0c0,0 0,0 0,0l0 0c0,0 0,0 0,0zm0 3c0,0 0,0 0,0 0,1 0,1 0,1 0,0 0,0 0,-1 0,0 0,0 0,0zm1 0c0,0 0,0 0,0 0,1 0,1 0,1 0,0 0,0 0,-1 0,0 0,0 0,0zm1 0c0,0 0,0 0,0 0,1 0,1 0,1 0,0 0,0 0,-1 0,0 0,0 0,0zm0 -1c0,0 0,0 0,0 0,1 0,1 0,1 0,0 0,0 0,-1 0,0 0,0 0,0zm-2 0c0,0 0,0 0,0 0,1 0,1 0,1 0,0 0,0 0,-1 0,0 0,0 0,0zm1 0c0,0 0,0 0,0 0,1 0,1 0,1 0,0 0,0 0,-1 0,0 0,0 0,0zm0 -1c0,0 0,0 0,0 0,1 0,1 0,1 0,0 0,0 0,-1 0,0 0,0 0,0zm-1 0c0,0 0,0 0,0 0,1 0,1 0,1 0,0 0,0 0,-1 0,0 0,0 0,0zm2 0c0,0 0,0 0,0 0,1 0,1 0,1 0,0 0,0 0,-1 0,0 0,0 0,0z"/>
    <rect class="fil0" x="9" y="10" width="1.85017" height="6.55036"/>
    <path class="fil0" d="M9 11l0 0 0 6c0,0 0,0 0,0 -1,-1 -1,-6 0,-6z"/>
   </g>
  </g>
 </g>
</svg>
