<?xml version="1.0" encoding="UTF-8"?>
<!DOCTYPE svg PUBLIC "-//W3C//DTD SVG 1.1//EN" "http://www.w3.org/Graphics/SVG/1.1/DTD/svg11.dtd">
<!-- Creator: CorelDRAW X7 -->
<svg xmlns="http://www.w3.org/2000/svg" xml:space="preserve" width="13.6022mm" height="6.4508mm" version="1.1" style="shape-rendering:geometricPrecision; text-rendering:geometricPrecision; image-rendering:optimizeQuality; fill-rule:evenodd; clip-rule:evenodd"
viewBox="0 0 1744 827"
 xmlns:xlink="http://www.w3.org/1999/xlink">
 <defs>
  <style type="text/css">
   <![CDATA[
    .fil0 {fill:#898989}
   ]]>
  </style>
 </defs>
 <g id="Capa_x0020_1">
  <metadata id="CorelCorpID_0Corel-Layer"/>
  <g id="_2258857500896">
   <g>
    <path class="fil0" d="M178 121l0 133c0,22 9,34 21,47 5,5 4,9 4,19 -1,31 0,61 0,92 -7,2 -52,28 -61,33 -28,16 -60,38 -85,57 -32,24 -56,39 -56,88 0,17 -3,77 3,87 8,10 25,9 28,-9 6,-32 -9,-85 10,-113 3,-6 27,-23 33,-28 37,-27 91,-62 132,-83 16,-7 28,-10 28,-34l0 -105c0,-20 -6,-17 -15,-27 -7,-8 -11,-18 -11,-32l0 -115c0,-59 42,-100 103,-100 42,0 64,4 91,31 20,21 26,49 26,80l0 99c0,14 -3,25 -9,33 -5,9 -17,12 -17,25l0 113c0,26 20,27 52,45 48,28 75,45 119,79 6,5 13,10 18,15 14,16 13,24 13,53 0,14 -2,55 0,66 5,19 32,18 32,-8l0 -72c0,-53 -30,-69 -68,-97 -38,-29 -64,-42 -102,-65 -5,-3 -10,-5 -16,-8 -5,-3 -9,-6 -16,-8 0,-30 0,-60 0,-90 0,-19 -1,-15 3,-20 4,-5 6,-5 11,-12 6,-10 10,-21 10,-36l0 -133c0,-17 -5,-36 -11,-48 -15,-29 -32,-46 -61,-61 -17,-9 -33,-11 -49,-12l-38 0c-24,0 -51,11 -68,23 -15,11 -13,10 -23,22 -3,3 -4,4 -7,8 -13,17 -24,44 -24,68z"/>
    <path class="fil0" d="M305 507l25 1 10 227c2,37 6,31 -11,46 -4,3 -7,7 -12,10l-11 -9c-3,-3 -7,-5 -10,-10 -5,-6 -2,-25 -1,-35l10 -230zm14 320l-4 0c-6,-1 -10,-6 -15,-9 -6,-5 -8,-8 -13,-12 -8,-7 -25,-18 -25,-27l2 -47c0,-8 -1,-17 0,-24 1,-8 2,-13 2,-23 -1,-21 3,-55 3,-69l3 -68c1,-8 0,-17 0,-25 0,-7 2,-11 2,-21 0,-11 1,-12 -4,-20 -11,-19 -13,-46 7,-46 21,0 12,23 24,34 3,3 8,7 13,7 35,0 24,-22 33,-34 10,-15 41,-6 23,33 -4,9 -9,9 -9,20l6 165c1,9 2,16 2,27l3 55c3,57 -3,39 -37,74 -7,6 -11,9 -16,10z"/>
    <path class="fil0" d="M295 737c-1,10 -4,29 1,35 3,5 7,7 10,10l11 9c5,-3 8,-7 12,-10 17,-15 13,-9 11,-46l-10 -227 -25 -1 -10 230z"/>
   </g>
   <g>
    <path class="fil0" d="M732 121l0 133c0,22 9,34 21,47 5,5 3,9 3,19 0,31 0,61 0,92 -7,2 -51,28 -61,33 -27,16 -59,38 -85,57 -31,24 -56,39 -56,88 0,17 -3,77 4,87 7,10 25,9 28,-9 6,-32 -10,-85 9,-113 4,-6 27,-23 34,-28 37,-27 91,-62 132,-83 15,-7 27,-10 27,-34l0 -105c0,-20 -6,-17 -15,-27 -7,-8 -10,-18 -10,-32l0 -115c0,-59 42,-100 103,-100 41,0 63,4 90,31 21,21 26,49 26,80l0 99c0,14 -2,25 -8,33 -6,9 -18,12 -18,25l0 113c0,26 20,27 52,45 48,28 75,45 120,79 5,5 13,10 18,15 14,16 12,24 12,53 0,14 -1,55 1,66 4,19 32,18 32,-8l0 -72c0,-53 -31,-69 -68,-97 -38,-29 -64,-42 -102,-65 -6,-3 -11,-5 -16,-8 -5,-3 -9,-6 -16,-8 0,-30 0,-60 0,-90 0,-19 -2,-15 3,-20 4,-5 5,-5 10,-12 6,-10 11,-21 11,-36l0 -133c0,-17 -6,-36 -12,-48 -14,-29 -31,-46 -60,-61 -18,-9 -33,-11 -50,-12l-38 0c-23,0 -51,11 -67,23 -15,11 -13,10 -24,22 -3,3 -4,4 -6,8 -13,17 -24,44 -24,68z"/>
    <path class="fil0" d="M858 507l25 1 10 227c2,37 6,31 -11,46 -4,3 -7,7 -11,10l-11 -9c-4,-3 -7,-5 -10,-10 -6,-6 -2,-25 -2,-35l10 -230zm15 320l-5 0c-5,-1 -10,-6 -15,-9 -5,-5 -8,-8 -12,-12 -8,-7 -25,-18 -25,-27l2 -47c0,-8 -1,-17 0,-24 0,-8 1,-13 1,-23 0,-21 3,-55 3,-69l4 -68c0,-8 -1,-17 0,-25 0,-7 1,-11 1,-21 0,-11 2,-12 -3,-20 -12,-19 -14,-46 6,-46 21,0 12,23 24,34 3,3 9,7 14,7 35,0 24,-22 32,-34 11,-15 41,-6 24,33 -4,9 -9,9 -10,20l7 165c1,9 2,16 2,27l3 55c3,57 -4,39 -38,74 -6,6 -11,9 -15,10z"/>
    <path class="fil0" d="M848 737c0,10 -4,29 2,35 3,5 6,7 10,10l11 9c4,-3 7,-7 11,-10 17,-15 13,-9 11,-46l-10 -227 -25 -1 -10 230z"/>
   </g>
   <g>
    <path class="fil0" d="M1285 121l0 133c0,22 9,34 21,47 5,5 4,9 4,19 -1,31 0,61 0,92 -7,2 -52,28 -61,33 -28,16 -60,38 -85,57 -32,24 -56,39 -56,88 0,17 -3,77 3,87 8,10 25,9 28,-9 6,-32 -9,-85 10,-113 3,-6 27,-23 33,-28 37,-27 91,-62 132,-83 16,-7 28,-10 28,-34l0 -105c0,-20 -6,-17 -15,-27 -7,-8 -11,-18 -11,-32l0 -115c0,-59 42,-100 104,-100 41,0 63,4 90,31 20,21 26,49 26,80l0 99c0,14 -3,25 -8,33 -6,9 -18,12 -18,25l0 113c0,26 20,27 52,45 48,28 75,45 119,79 6,5 13,10 18,15 14,16 13,24 13,53 0,14 -2,55 1,66 4,19 31,18 31,-8l0 -72c0,-53 -30,-69 -68,-97 -38,-29 -64,-42 -102,-65 -5,-3 -10,-5 -15,-8 -6,-3 -10,-6 -17,-8 0,-30 0,-60 0,-90 0,-19 -1,-15 3,-20 4,-5 6,-5 11,-12 6,-10 11,-21 11,-36l0 -133c0,-17 -6,-36 -12,-48 -15,-29 -32,-46 -61,-61 -17,-9 -33,-11 -49,-12l-38 0c-24,0 -51,11 -68,23 -15,11 -13,10 -23,22 -3,3 -4,4 -7,8 -13,17 -24,44 -24,68z"/>
    <path class="fil0" d="M1412 507l25 1 10 227c2,37 6,31 -11,46 -4,3 -7,7 -12,10l-11 -9c-3,-3 -6,-5 -10,-10 -5,-6 -2,-25 -1,-35l10 -230zm14 320l-4 0c-6,-1 -10,-6 -15,-9 -6,-5 -8,-8 -13,-12 -8,-7 -25,-18 -25,-27l2 -47c0,-8 0,-17 0,-24 1,-8 2,-13 2,-23 0,-21 3,-55 3,-69l3 -68c1,-8 0,-17 0,-25 1,-7 2,-11 2,-21 0,-11 1,-12 -4,-20 -11,-19 -13,-46 7,-46 21,0 12,23 24,34 3,3 8,7 13,7 36,0 24,-22 33,-34 11,-15 41,-6 23,33 -4,9 -9,9 -9,20l7 165c0,9 1,16 1,27l3 55c3,57 -3,39 -37,74 -6,6 -11,9 -16,10z"/>
    <path class="fil0" d="M1402 737c-1,10 -4,29 1,35 4,5 7,7 10,10l11 9c5,-3 8,-7 12,-10 17,-15 13,-9 11,-46l-10 -227 -25 -1 -10 230z"/>
   </g>
  </g>
 </g>
</svg>
