<?xml version="1.0" encoding="UTF-8"?>
<!DOCTYPE svg PUBLIC "-//W3C//DTD SVG 1.1//EN" "http://www.w3.org/Graphics/SVG/1.1/DTD/svg11.dtd">
<!-- Creator: CorelDRAW 2017 -->
<svg xmlns="http://www.w3.org/2000/svg" xml:space="preserve" width="116px" height="84px" version="1.1" style="shape-rendering:geometricPrecision; text-rendering:geometricPrecision; image-rendering:optimizeQuality; fill-rule:evenodd; clip-rule:evenodd"
viewBox="0 0 7.09 5.12"
 xmlns:xlink="http://www.w3.org/1999/xlink">
 <defs>
  <style type="text/css">
   <![CDATA[
    .fil0 {fill:#9D9E9E}
   ]]>
  </style>
 </defs>
 <g id="Capa_x0020_1">
  <metadata id="CorelCorpID_0Corel-Layer"/>
  <path class="fil0" d="M1.56 3.08c0.35,0 0.24,-0.05 0.46,0.17l0.36 0.36c0.04,0.05 0.13,0.15 0.18,0.18 0.1,-0.07 0.68,-0.71 0.73,-0.71 0.3,0 0.55,-0.02 0.81,0.18 0.2,0.15 0.31,0.31 0.38,0.55 0.01,0.05 0.03,0.1 0.01,0.14l-0.17 0.2c-0.05,0.07 -0.32,0.33 -0.39,0.35l0 -0.41 -0.18 0 0 0.54 -0.24 0.11c-0.22,0.11 -0.6,0.2 -0.85,0.2 -0.32,0 -0.49,-0.01 -0.79,-0.1 -0.14,-0.04 -0.26,-0.09 -0.38,-0.15 -0.04,-0.02 -0.08,-0.05 -0.12,-0.06l0 -0.54 -0.18 0 0 0.41c-0.1,-0.03 -0.46,-0.39 -0.56,-0.54 -0.02,-0.03 -0.02,-0.03 -0.01,-0.06 0.01,-0.07 0.04,-0.16 0.06,-0.22 0.03,-0.08 0.09,-0.17 0.14,-0.23 0.04,-0.06 0.13,-0.14 0.19,-0.18 0.11,-0.09 0.34,-0.19 0.55,-0.19zm0.85 -3.08l0.28 0c0.29,0.02 0.58,0.08 0.86,0.19 0.19,0.08 0.52,0.28 0.67,0.41 0.18,0.17 0.2,0.18 0.37,0.4 0.08,0.1 0.24,0.34 0.29,0.47 0.01,0.04 0.03,0.07 0.05,0.11 0.17,0.46 0.19,0.57 0.19,1.1 0,0.33 -0.12,0.7 -0.25,0.98l-0.26 0.43c-0.07,0.11 -0.15,0.19 -0.24,0.29 -0.43,0.42 -1.08,0.74 -1.7,0.74l-0.02 0c-0.46,0 -0.57,-0.02 -0.98,-0.16 -0.08,-0.02 -0.14,-0.05 -0.21,-0.09 -0.07,-0.03 -0.14,-0.06 -0.2,-0.1 -0.28,-0.17 -0.45,-0.32 -0.66,-0.56l-0.13 -0.17c-0.05,-0.07 -0.19,-0.3 -0.23,-0.38 -0.03,-0.08 -0.06,-0.15 -0.09,-0.22l-0.07 -0.23c-0.07,-0.27 -0.08,-0.41 -0.08,-0.64l0 -0.01 0 -0.08 0 -0.03c0,-0.24 0.07,-0.57 0.15,-0.78 0.11,-0.26 0.2,-0.45 0.39,-0.68 0.13,-0.17 0.21,-0.25 0.37,-0.39l0.17 -0.14c0.11,-0.08 0.19,-0.11 0.29,-0.17 0.03,-0.02 0.06,-0.04 0.1,-0.05 0.18,-0.08 0.21,-0.11 0.44,-0.16 0.17,-0.05 0.34,-0.07 0.5,-0.08zm-0.95 1.35c0,-0.1 -0.02,-0.1 0.07,-0.18 0.02,-0.03 0.05,-0.06 0.08,-0.08 0.3,-0.2 0.53,0.02 0.73,0.02 0.18,0 0.28,-0.01 0.43,-0.11 0.09,-0.06 0.17,-0.15 0.22,-0.24 0.05,0.01 0.15,0.06 0.2,0.08 0.07,0.04 0.12,0.07 0.18,0.11 0.05,0.04 0.29,0.23 0.29,0.29 0,0.36 -0.1,0.71 -0.29,0.99 -0.09,0.14 -0.15,0.21 -0.28,0.31 -0.14,0.1 -0.28,0.08 -0.28,0.32 0,0.2 0.17,0.2 0.2,0.22l-0.45 0.45 -0.45 -0.45c0.03,-0.01 0.05,-0.01 0.08,-0.02 0.02,-0.01 0.04,-0.03 0.06,-0.05 0.04,-0.04 0.06,-0.09 0.06,-0.16 0,-0.22 -0.14,-0.22 -0.28,-0.31 -0.33,-0.23 -0.57,-0.83 -0.57,-1.19zm0.06 -0.42l0 0zm0 0c0.01,-0.14 0.22,-0.42 0.36,-0.52 0.02,-0.01 0.04,-0.03 0.06,-0.05 0.47,-0.31 1.15,-0.22 1.49,0.24 0.04,0.06 0.14,0.21 0.16,0.29 -0.12,-0.08 -0.1,-0.1 -0.32,-0.21 -0.11,-0.06 -0.24,-0.11 -0.38,-0.14 -0.07,0.12 -0.06,0.18 -0.2,0.29 -0.08,0.06 -0.23,0.12 -0.39,0.1 -0.16,-0.03 -0.37,-0.18 -0.69,-0.04 -0.04,0.01 -0.06,0.03 -0.09,0.04zm1.94 -0.57c0.08,0.02 0.34,0.16 0.42,0.22 0.29,0.2 0.61,0.52 0.76,0.83 0.02,0.04 0.04,0.07 0.06,0.11 0.02,0.04 0.03,0.07 0.05,0.11 0.12,0.28 0.21,0.66 0.19,1.09 -0.01,0.09 -0.03,0.2 -0.04,0.28 -0.03,0.18 -0.15,0.53 -0.25,0.69 -0.01,0.02 0,0.01 -0.01,0.02 -0.03,-0.14 -0.14,-0.29 -0.22,-0.4 -0.08,-0.1 -0.22,-0.21 -0.34,-0.28 -0.49,-0.25 -0.76,-0.07 -1.08,-0.14 -0.01,-0.04 -0.01,-0.03 -0.01,-0.08 0.01,-0.01 0.02,-0.02 0.03,-0.02 0.01,-0.01 0.02,-0.02 0.04,-0.02 0.03,-0.01 0.05,-0.03 0.08,-0.04 0.54,-0.34 0.81,-1.2 0.66,-1.79 -0.06,-0.2 -0.16,-0.36 -0.28,-0.52 -0.03,-0.02 -0.04,-0.03 -0.06,-0.06zm-1.8 0c-0.04,0.06 -0.1,0.09 -0.2,0.26 -0.06,0.09 -0.11,0.2 -0.14,0.32 -0.07,0.27 -0.05,0.57 0.02,0.81 0.11,0.37 0.35,0.85 0.71,1.02l0.08 0.04c0,0.05 0,0.04 -0.01,0.08 -0.24,0.05 -0.52,-0.05 -0.87,0.05 -0.29,0.09 -0.53,0.29 -0.68,0.55 -0.04,0.07 -0.07,0.14 -0.09,0.22l-0.06 -0.1c-0.08,-0.15 -0.17,-0.43 -0.2,-0.6 -0.09,-0.53 -0.04,-0.94 0.14,-1.38 0.2,-0.46 0.62,-0.94 1.07,-1.17 0.07,-0.03 0.15,-0.08 0.23,-0.1zm1.8 0l0 0zm-1.8 0l0 0z"/>
  <g id="_1976020636464">
   <path class="fil0" d="M5.68 3.22c0.42,0 0.85,0 1.27,0 0.22,0.15 0.14,1.67 0,1.58l-1.27 0 0 -1.58zm0.31 0.18l0.72 0c0.03,0 0.05,0.02 0.05,0.04l0 0.15c0,0.02 -0.02,0.05 -0.05,0.05l-0.72 0c-0.03,0 -0.05,-0.03 -0.05,-0.05l0 -0.15c0,-0.02 0.02,-0.04 0.05,-0.04zm0.36 0.41c0.05,0 0.09,0.04 0.09,0.09 0,0.05 -0.04,0.09 -0.09,0.09 -0.05,0 -0.09,-0.04 -0.09,-0.09 0,-0.05 0.04,-0.09 0.09,-0.09zm0 0.3c0.05,0 0.09,0.04 0.09,0.09 0,0.05 -0.04,0.09 -0.09,0.09 -0.05,0 -0.09,-0.04 -0.09,-0.09 0,-0.05 0.04,-0.09 0.09,-0.09zm-0.31 0.3c0.05,0 0.09,0.04 0.09,0.09 0,0.05 -0.04,0.1 -0.09,0.1 -0.05,0 -0.09,-0.05 -0.09,-0.1 0,-0.05 0.04,-0.09 0.09,-0.09zm0.3 0c0.05,0 0.09,0.04 0.09,0.09 0,0.05 -0.04,0.1 -0.09,0.1 -0.05,0 -0.09,-0.05 -0.09,-0.1 0,-0.05 0.04,-0.09 0.09,-0.09zm0.31 0c0.05,0 0.09,0.04 0.09,0.1 0,0.05 -0.04,0.09 -0.09,0.09 -0.05,0 -0.09,-0.04 -0.09,-0.09 0,-0.06 0.04,-0.1 0.09,-0.1zm0 -0.6c0.05,0 0.09,0.04 0.09,0.09 0,0.05 -0.04,0.09 -0.09,0.09 -0.05,0 -0.09,-0.04 -0.09,-0.09 0,-0.05 0.04,-0.09 0.09,-0.09zm0 0.3c0.05,0 0.09,0.04 0.09,0.09 0,0.05 -0.04,0.09 -0.09,0.09 -0.05,0 -0.09,-0.04 -0.09,-0.09 0,-0.05 0.04,-0.09 0.09,-0.09zm-0.6 -0.31c0.05,0 0.09,0.04 0.09,0.1 0,0.05 -0.04,0.09 -0.09,0.09 -0.05,0 -0.09,-0.04 -0.09,-0.09 0,-0.06 0.04,-0.1 0.09,-0.1zm-0.01 0.3c0.05,0 0.09,0.04 0.09,0.1 0,0.05 -0.04,0.09 -0.09,0.09 -0.05,0 -0.09,-0.04 -0.09,-0.09 0,-0.06 0.04,-0.1 0.09,-0.1z"/>
   <rect class="fil0" x="5.06" y="3.09" width="0.53" height="1.86" rx="0.13" ry="0.13"/>
   <path class="fil0" d="M4.85 3.22l0.12 0 0 1.59c-0.04,0 -0.08,0 -0.12,0 -0.15,-0.23 -0.15,-1.51 0,-1.59z"/>
  </g>
 </g>
</svg>
