<?xml version="1.0" encoding="UTF-8"?>
<!DOCTYPE svg PUBLIC "-//W3C//DTD SVG 1.1//EN" "http://www.w3.org/Graphics/SVG/1.1/DTD/svg11.dtd">
<!-- Creator: CorelDRAW 2017 -->
<svg xmlns="http://www.w3.org/2000/svg" xml:space="preserve" width="86px" height="86px" version="1.1" style="shape-rendering:geometricPrecision; text-rendering:geometricPrecision; image-rendering:optimizeQuality; fill-rule:evenodd; clip-rule:evenodd"
viewBox="0 0 2.23 2.23"
 xmlns:xlink="http://www.w3.org/1999/xlink">
 <defs>
  <style type="text/css">
   <![CDATA[
    .str0 {stroke:#1F1B20;stroke-width:0.08;stroke-miterlimit:22.9256}
    .fil1 {fill:none}
    .fil0 {fill:#2B2A29}
   ]]>
  </style>
 </defs>
 <g id="Capa_x0020_1">
  <metadata id="CorelCorpID_0Corel-Layer"/>
  <path class="fil0" d="M0.87 0.78l0 0.21c0,0.04 0.04,0.08 0.04,0.09 0,0.19 0.04,0.07 -0.22,0.26 -0.11,0.08 -0.09,0.1 -0.09,0.28 0,0.05 0.11,0.08 0.11,-0.03 0,-0.14 -0.02,-0.11 0.06,-0.17l0.07 -0.05c0.02,-0.02 0.04,-0.03 0.07,-0.04 0.12,-0.07 0.11,-0.04 0.11,-0.26 0,-0.07 -0.04,-0.06 -0.04,-0.1l0 -0.18c0,-0.06 0.05,-0.12 0.1,-0.12l0.06 0c0.06,0 0.11,0.06 0.11,0.12l0 0.18c0,0.04 -0.04,0.04 -0.04,0.07l0 0.2c0,0.03 0.03,0.04 0.05,0.05 0.12,0.07 0.13,0.07 0.24,0.16 0.04,0.03 0,0.09 0.02,0.17 0.01,0.06 0.11,0.08 0.11,-0.04 0,-0.17 -0.01,-0.17 -0.12,-0.25 -0.05,-0.04 -0.09,-0.07 -0.14,-0.1 -0.06,-0.03 -0.05,0.01 -0.05,-0.15 0,-0.02 0.04,-0.04 0.04,-0.1l0 -0.21c0,-0.06 -0.04,-0.11 -0.08,-0.15 -0.08,-0.08 -0.25,-0.08 -0.33,0 -0.04,0.03 -0.08,0.09 -0.08,0.16z"/>
  <circle class="fil1 str0" cx="1.11" cy="1.11" r="1.08"/>
 </g>
</svg>
