<?xml version="1.0" encoding="UTF-8"?>
<!DOCTYPE svg PUBLIC "-//W3C//DTD SVG 1.1//EN" "http://www.w3.org/Graphics/SVG/1.1/DTD/svg11.dtd">
<!-- Creator: CorelDRAW 2017 -->
<svg xmlns="http://www.w3.org/2000/svg" xml:space="preserve" width="47px" height="47px" version="1.1" style="shape-rendering:geometricPrecision; text-rendering:geometricPrecision; image-rendering:optimizeQuality; fill-rule:evenodd; clip-rule:evenodd"
viewBox="0 0 4.18 4.18"
 xmlns:xlink="http://www.w3.org/1999/xlink">
 <defs>
  <style type="text/css">
   <![CDATA[
    .fil1 {fill:#FEFEFE}
    .fil0 {fill:#834E98}
   ]]>
  </style>
 </defs>
 <g id="Capa_x0020_1">
  <metadata id="CorelCorpID_0Corel-Layer"/>
  <circle class="fil0" cx="2.09" cy="2.09" r="2.09"/>
  <g id="_1975963289808">
   <path class="fil1" d="M1.23 3.38l0 -1.79c0,-0.05 0.02,-0.07 0.07,-0.07l1.23 0c0.03,0 0.07,0.02 0.07,0.05l0 1.83c0,0.03 -0.02,0.04 -0.04,0.04 -0.2,0 -1.21,0.02 -1.32,-0.01 -0.01,-0.02 -0.01,-0.02 -0.01,-0.05zm-0.16 -1.78l0 1.77c0,0.12 0.09,0.23 0.2,0.23l1.29 0c0.11,0 0.2,-0.09 0.2,-0.2l0 -1.83c0,-0.15 -0.14,-0.21 -0.29,-0.21l-1.11 0c-0.08,0 -0.16,0.02 -0.21,0.05 -0.04,0.04 -0.08,0.11 -0.08,0.19z"/>
   <path class="fil1" d="M1.55 1.1c0,0.1 0.1,0.1 0.13,0.06 0.05,-0.05 0,-0.12 0.13,-0.12l1.17 0c0.06,0 0.11,0.02 0.11,0.08l0 1.78c0,0.12 -0.14,0.04 -0.14,0.15 0,0.14 0.3,0.09 0.3,-0.16l0 -1.76c0,-0.12 -0.09,-0.23 -0.2,-0.23l-1.29 0c-0.11,0 -0.21,0.09 -0.21,0.2z"/>
  </g>
 </g>
</svg>
