<?xml version="1.0" encoding="UTF-8"?>
<!DOCTYPE svg PUBLIC "-//W3C//DTD SVG 1.1//EN" "http://www.w3.org/Graphics/SVG/1.1/DTD/svg11.dtd">
<!-- Creator: CorelDRAW 2017 -->
<svg xmlns="http://www.w3.org/2000/svg" xml:space="preserve" width="52px" height="42px" version="1.1" style="shape-rendering:geometricPrecision; text-rendering:geometricPrecision; image-rendering:optimizeQuality; fill-rule:evenodd; clip-rule:evenodd"
viewBox="0 0 1.84 1.51"
 xmlns:xlink="http://www.w3.org/1999/xlink">
 <defs>
  <style type="text/css">
   <![CDATA[
    .fil1 {fill:#FEFEFE}
    .fil0 {fill:#E31E24}
   ]]>
  </style>
 </defs>
 <g id="Capa_x0020_1">
  <metadata id="CorelCorpID_0Corel-Layer"/>
  <path class="fil0" d="M0.13 0l1.58 0c0.07,0 0.13,0.06 0.13,0.13l0 1.25c0,0.07 -0.06,0.13 -0.13,0.13l-1.58 0c-0.07,0 -0.13,-0.06 -0.13,-0.13l0 -1.25c0,-0.07 0.06,-0.13 0.13,-0.13z"/>
  <g id="_1976020651824">
   <path class="fil1" d="M0.78 0.39c0,0.02 -0.01,0.06 0.02,0.05 0.02,-0.01 0,-0.04 0.01,-0.07 0,-0.01 0.01,-0.01 0.02,-0.01l0.18 0c0.02,0 0.03,0.01 0.03,0.03l0 0.11 -0.53 0c-0.01,0 -0.02,0 -0.02,0.01l0 0c0,0.01 0.01,0.02 0.02,0.02l0.1 0 0 0.6c0,0.01 0.01,0.03 0.01,0.03 0.01,0.01 0.02,0.02 0.04,0.02l0.53 0c0.02,0 0.05,-0.03 0.05,-0.05l0 -0.54c0,-0.01 -0.03,-0.02 -0.03,0.01l0 0.5c0,0.01 0,0.03 -0.01,0.04 0,0 -0.01,0.01 -0.02,0.01l-0.52 0c-0.01,0 -0.02,-0.01 -0.02,-0.02l0 -0.6 0.7 0c0,0 0.01,-0.01 0.01,-0.02l0 0c0,-0.01 -0.01,-0.01 -0.01,-0.01l-0.27 0 0 -0.11c0,-0.02 -0.01,-0.03 -0.02,-0.05 -0.01,0 -0.02,-0.01 -0.04,-0.01l-0.18 0c-0.01,0 -0.03,0.01 -0.04,0.01 -0.01,0.02 -0.01,0.03 -0.01,0.05z"/>
   <path class="fil1" d="M0.91 0.65l0 0.37c0,0.03 0.03,0.03 0.03,0l0 -0.37c0,-0.02 -0.03,-0.02 -0.03,0z"/>
   <path class="fil1" d="M1.05 0.72l0 0.24c0,0.03 0.03,0.02 0.03,0.01l0 -0.26c0,-0.01 -0.03,-0.02 -0.03,0.01z"/>
   <path class="fil1" d="M0.76 0.71l0 0.26c0,0.01 0.03,0.02 0.03,-0.01l0 -0.24c0,-0.03 -0.03,-0.02 -0.03,-0.01z"/>
  </g>
 </g>
</svg>
