<?xml version="1.0" encoding="UTF-8"?>
<!DOCTYPE svg PUBLIC "-//W3C//DTD SVG 1.1//EN" "http://www.w3.org/Graphics/SVG/1.1/DTD/svg11.dtd">
<!-- Creator: CorelDRAW 2017 -->
<svg xmlns="http://www.w3.org/2000/svg" xml:space="preserve" width="24px" height="24px" version="1.1" style="shape-rendering:geometricPrecision; text-rendering:geometricPrecision; image-rendering:optimizeQuality; fill-rule:evenodd; clip-rule:evenodd"
viewBox="0 0 0.39 0.39"
 xmlns:xlink="http://www.w3.org/1999/xlink">
 <defs>
  <style type="text/css">
   <![CDATA[
    .fil0 {fill:#FEFEFE}
   ]]>
  </style>
 </defs>
 <g id="Capa_x0020_1">
  <metadata id="CorelCorpID_0Corel-Layer"/>
  <g id="_1975963250640">
   <path class="fil0" d="M0.13 0.03c0,0.01 0,0.03 0.01,0.02 0.01,0 0,-0.02 0,-0.03 0.01,0 0.01,-0.01 0.01,-0.01l0.08 0c0.01,0 0.02,0.01 0.02,0.02l0 0.05 -0.24 0c-0.01,0 -0.01,0 -0.01,0l0 0.01c0,0 0,0 0.01,0l0.04 0 0 0.27c0,0.01 0.01,0.02 0.01,0.02 0,0 0.01,0.01 0.01,0.01l0.24 0c0.01,0 0.03,-0.01 0.03,-0.03l0 -0.24c0,0 -0.02,-0.01 -0.02,0.01l0 0.22c0,0.01 0,0.01 0,0.02 0,0 0,0 -0.01,0l-0.23 0c-0.01,0 -0.01,0 -0.01,-0.01l0 -0.27 0.31 0c0.01,0 0.01,0 0.01,0l0 -0.01c0,0 0,0 -0.01,0l-0.12 0 0 -0.05c0,-0.01 0,-0.02 -0.01,-0.02 0,-0.01 -0.01,-0.01 -0.02,-0.01l-0.08 0c0,0 -0.01,0 -0.01,0.01 -0.01,0 -0.01,0.01 -0.01,0.02z"/>
   <path class="fil0" d="M0.19 0.15l0 0.17c0,0.01 0.01,0.01 0.01,0l0 -0.17c0,-0.01 -0.01,-0.01 -0.01,0z"/>
   <path class="fil0" d="M0.25 0.18l0 0.11c0,0.01 0.02,0.01 0.02,0l0 -0.12c0,0 -0.02,-0.01 -0.02,0.01z"/>
   <path class="fil0" d="M0.12 0.17l0 0.12c0,0.01 0.02,0.01 0.02,0l0 -0.11c0,-0.02 -0.02,-0.01 -0.02,-0.01z"/>
  </g>
 </g>
</svg>
