<?xml version="1.0" encoding="UTF-8"?>
<!DOCTYPE svg PUBLIC "-//W3C//DTD SVG 1.1//EN" "http://www.w3.org/Graphics/SVG/1.1/DTD/svg11.dtd">
<!-- Creator: CorelDRAW X7 -->
<svg xmlns="http://www.w3.org/2000/svg" xml:space="preserve" width="2.0433mm" height="2.0433mm" version="1.1" style="shape-rendering:geometricPrecision; text-rendering:geometricPrecision; image-rendering:optimizeQuality; fill-rule:evenodd; clip-rule:evenodd"
viewBox="0 0 5 5"
 xmlns:xlink="http://www.w3.org/1999/xlink">
 <defs>
  <style type="text/css">
   <![CDATA[
    .fil0 {fill:#FEFEFE}
   ]]>
  </style>
 </defs>
 <g id="Capa_x0020_1">
  <metadata id="CorelCorpID_0Corel-Layer"/>
  <g id="_2258857524832">
   <path class="fil0" d="M2 0c0,0 0,1 0,1 0,0 0,-1 0,-1 0,0 0,0 0,0l1 0c0,0 0,0 0,0l0 1 -3 0c0,0 0,0 0,0l0 0c0,0 0,0 0,0l1 0 0 4c0,0 0,0 0,0 0,0 0,0 0,0l3 0c0,0 0,0 0,0l0 -3c0,-1 0,-1 0,0l0 2c0,0 0,1 0,1 0,0 0,0 0,0l-3 0c0,0 0,0 0,0l0 -4 4 0c0,0 0,0 0,0l0 0c0,0 0,0 0,0l-2 0 0 -1c0,0 0,0 0,0 0,0 0,0 0,0l-1 0c0,0 0,0 0,0 0,0 0,0 0,0z"/>
   <path class="fil0" d="M2 2l0 2c0,0 1,0 1,0l0 -2c0,0 -1,0 -1,0z"/>
   <path class="fil0" d="M3 2l0 2c0,0 0,0 0,0l0 -2c0,0 0,0 0,0z"/>
   <path class="fil0" d="M2 2l0 2c0,0 0,0 0,0l0 -2c0,0 0,0 0,0z"/>
  </g>
 </g>
</svg>
