<?xml version="1.0" encoding="UTF-8"?>
<!DOCTYPE svg PUBLIC "-//W3C//DTD SVG 1.1//EN" "http://www.w3.org/Graphics/SVG/1.1/DTD/svg11.dtd">
<!-- Creator: CorelDRAW X7 -->
<svg xmlns="http://www.w3.org/2000/svg" xml:space="preserve" width="3.7594mm" height="3.4944mm" version="1.1" style="shape-rendering:geometricPrecision; text-rendering:geometricPrecision; image-rendering:optimizeQuality; fill-rule:evenodd; clip-rule:evenodd"
viewBox="0 0 18 16"
 xmlns:xlink="http://www.w3.org/1999/xlink">
 <defs>
  <style type="text/css">
   <![CDATA[
    .fil0 {fill:#898989}
   ]]>
  </style>
 </defs>
 <g id="Capa_x0020_1">
  <metadata id="CorelCorpID_0Corel-Layer"/>
  <g id="_2258848048016">
   <path class="fil0" d="M0 8l0 5c0,1 0,2 1,2 1,1 1,1 2,1l11 0c2,0 3,-1 3,-2 1,0 1,-1 1,-1l0 -5c0,0 -1,0 -1,0 -1,0 0,2 0,2 0,1 0,3 -1,4 0,0 0,0 0,1 -1,0 -1,0 -2,0l-11 0c-1,0 -1,0 -2,-1 0,0 0,0 0,-1 0,0 0,-3 0,-4 0,0 0,-1 0,-1 0,0 -1,0 -1,0z"/>
   <path class="fil0" d="M8 11c0,0 0,-1 0,-1l-2 -1c0,0 0,-1 0,-1 -1,0 -1,1 -1,1 0,0 1,1 1,1 0,0 2,2 2,2 1,0 1,0 1,0 0,0 1,0 1,0l2 -3c1,0 0,-1 0,-1 0,0 -1,1 -1,1 0,0 -2,2 -2,2l0 -10c0,0 0,-1 0,-1 0,0 0,0 -1,0 0,0 0,2 0,2l0 9z"/>
  </g>
 </g>
</svg>
