<?xml version="1.0" encoding="UTF-8"?>
<!DOCTYPE svg PUBLIC "-//W3C//DTD SVG 1.1//EN" "http://www.w3.org/Graphics/SVG/1.1/DTD/svg11.dtd">
<!-- Creator: CorelDRAW X7 -->
<svg xmlns="http://www.w3.org/2000/svg" xml:space="preserve" width="3.3431mm" height="2.3767mm" version="1.1" style="shape-rendering:geometricPrecision; text-rendering:geometricPrecision; image-rendering:optimizeQuality; fill-rule:evenodd; clip-rule:evenodd"
viewBox="0 0 17 12"
 xmlns:xlink="http://www.w3.org/1999/xlink">
 <defs>
  <style type="text/css">
   <![CDATA[
    .fil0 {fill:#9D9E9E}
   ]]>
  </style>
 </defs>
 <g id="Capa_x0020_1">
  <metadata id="CorelCorpID_0Corel-Layer"/>
  <path class="fil0" d="M3 9c0,0 0,0 0,0 0,0 1,0 1,0l2 -2c0,0 0,0 0,0 0,0 1,-1 1,-1 0,1 1,2 2,1 0,0 1,0 1,0 0,-1 0,-1 0,-1 1,0 1,1 1,1l3 2c0,0 0,0 0,0 0,0 0,0 0,0 0,0 0,-1 -1,-1l-2 -2c0,0 0,0 0,0 0,0 1,-1 1,-1 0,0 0,0 0,0l1 -1c0,0 0,0 0,0l2 -1c0,0 0,0 0,0l2 -2c0,0 0,0 0,0l0 10c0,0 -1,1 -1,1l-15 0c0,0 0,-1 0,-1l0 -10c0,0 0,0 0,0l2 2c0,0 0,0 0,0l0 0c0,0 0,0 0,1 1,0 1,0 1,0l0 0c0,0 0,0 0,0 0,0 0,0 0,0l2 2c0,0 0,0 0,0 0,0 0,0 0,0 0,0 0,1 -1,1 0,0 0,0 0,0 0,0 0,0 0,0l-2 2c0,0 0,0 0,0zm-2 -8c0,0 0,0 0,0l15 0c0,0 0,0 0,0 0,0 -1,0 -1,1l-3 2c-1,1 -2,2 -2,2l-1 0c0,1 0,1 0,1 0,0 -1,0 -1,0 0,0 0,0 0,-1l-1 -1c-1,0 -1,0 -1,0l-2 -2c-1,0 -2,-1 -2,-2 0,0 -1,0 -1,0zm-1 0l0 10c0,1 1,1 1,1l15 0c0,0 1,0 1,-1l0 -10c0,0 0,0 0,-1 0,0 -1,0 -1,0l-15 0c0,0 -1,1 -1,1z"/>
 </g>
</svg>
