<?xml version="1.0" encoding="UTF-8"?>
<!DOCTYPE svg PUBLIC "-//W3C//DTD SVG 1.1//EN" "http://www.w3.org/Graphics/SVG/1.1/DTD/svg11.dtd">
<!-- Creator: CorelDRAW 2017 -->
<svg xmlns="http://www.w3.org/2000/svg" xml:space="preserve" width="72px" height="90px" version="1.1" style="shape-rendering:geometricPrecision; text-rendering:geometricPrecision; image-rendering:optimizeQuality; fill-rule:evenodd; clip-rule:evenodd"
viewBox="0 0 42.39 52.64"
 xmlns:xlink="http://www.w3.org/1999/xlink">
 <defs>
  <style type="text/css">
   <![CDATA[
    .fil0 {fill:#E31E24}
   ]]>
  </style>
 </defs>
 <g id="Capa_x0020_1">
  <metadata id="CorelCorpID_0Corel-Layer"/>
  <path class="fil0" d="M13.88 24.06c-0.54,-0.29 -0.43,-0.17 -0.41,-1.02 0.04,-2.93 0.11,-14.44 -0.11,-15.94 -0.46,-3.3 -5.67,-3.96 -6.24,0.43 -0.12,0.95 -0.05,14.24 -0.02,17.05 0,0.55 0.13,1.23 -0.42,1.23 -0.6,0 -0.41,-1.25 -0.41,-1.85l0 -6.79c0,-2.22 0.45,-4.26 -1.32,-5.47 -2.28,-1.56 -4.95,0.25 -4.95,2.49l0 23.85c0,1.01 0.15,2.38 0.33,3.27 0.22,1.04 0.41,1.95 0.76,2.94 1.25,3.58 3.66,6.2 7.23,7.38 2.98,0.99 4.9,1.01 8.03,1.01l0.15 0 0.16 0c2.39,0 5.73,-0.94 7.67,-2.09 0.77,-0.46 1.29,-0.8 1.98,-1.31 2.07,-1.55 3.16,-3.19 4.44,-5.33 1.66,-2.78 4,-6.14 5.71,-8.99 0.64,-1.08 2.58,-4.38 3.2,-5.03 0.52,-0.54 1.18,-1.08 1.63,-1.66 1.08,-1.38 1.66,-3.27 0.31,-4.54 -1.45,-1.35 -5.07,0.19 -6.42,1.21 -3.53,2.65 -3.5,3.97 -4.72,5.36 -0.41,0.47 -0.43,0.34 -0.95,0.59l0 -18.72c0,-2.51 0.12,-3.73 -1.26,-5.01 -0.54,-0.5 -1.22,-0.8 -2.19,-0.9 -1.55,-0.15 -3.04,0.94 -3.59,2.48 -0.34,0.95 -0.16,10.35 -0.16,12.38l0.01 2.37c-0.04,0.41 -0.04,0.41 -0.32,0.51 -0.13,0.08 0.21,0.18 -0.25,0.03 -0.37,-0.12 -0.27,-0.61 -0.26,-1.06l-0.02 -19.21c-0.13,-1.28 -0.28,-1.71 -0.95,-2.55 -0.56,-0.72 -1.46,-1.11 -2.39,-1.17l-0.49 0c-1.7,0.11 -3.37,1.31 -3.35,3.7l0 19.02c0.01,0.79 0.08,1.01 -0.41,1.34z"/>
 </g>
</svg>
