<?xml version="1.0" encoding="UTF-8" standalone="no"?>
<!-- Creator: CorelDRAW X7 -->

<svg
   xmlns:dc="http://purl.org/dc/elements/1.1/"
   xmlns:cc="http://creativecommons.org/ns#"
   xmlns:rdf="http://www.w3.org/1999/02/22-rdf-syntax-ns#"
   xmlns:svg="http://www.w3.org/2000/svg"
   xmlns="http://www.w3.org/2000/svg"
   xmlns:sodipodi="http://sodipodi.sourceforge.net/DTD/sodipodi-0.dtd"
   xmlns:inkscape="http://www.inkscape.org/namespaces/inkscape"
   xml:space="preserve"
   width="9.8868mm"
   height="9.8095mm"
   version="1.1"
   style="shape-rendering:geometricPrecision; text-rendering:geometricPrecision; image-rendering:optimizeQuality; fill-rule:evenodd; clip-rule:evenodd"
   viewBox="0 0 37 36"
   id="svg3374"
   inkscape:version="0.91 r13725"
   sodipodi:docname="exit.svg"><metadata
     id="metadata3389"><rdf:RDF><cc:Work
         rdf:about=""><dc:format>image/svg+xml</dc:format><dc:type
           rdf:resource="http://purl.org/dc/dcmitype/StillImage" /><dc:title></dc:title></cc:Work></rdf:RDF></metadata><sodipodi:namedview
     pagecolor="#ffffff"
     bordercolor="#666666"
     borderopacity="1"
     objecttolerance="10"
     gridtolerance="10"
     guidetolerance="10"
     inkscape:pageopacity="0"
     inkscape:pageshadow="2"
     inkscape:window-width="1366"
     inkscape:window-height="705"
     id="namedview3387"
     showgrid="false"
     inkscape:zoom="15.47842"
     inkscape:cx="-11.321537"
     inkscape:cy="17.379035"
     inkscape:window-x="-8"
     inkscape:window-y="-8"
     inkscape:window-maximized="1"
     inkscape:current-layer="svg3374" /><defs
     id="defs3376"><style
       type="text/css"
       id="style3378"><![CDATA[
    .fil0 {fill:#FEFEFE}
   ]]></style></defs><g
     id="Capa_x0020_1"><metadata
       id="CorelCorpID_0Corel-Layer" /><g
       id="_2588712880928"><path
         class="fil0"
         d="M0 1l0 35c0,0 0,0 1,0l22 0c0,0 1,0 1,0l0 -9 -2 0 0 8 -21 0 0 -34 21 0 0 10 2 0 0 -10c0,-1 -1,-1 -1,-1l-22 0c-1,0 -1,0 -1,1z"
         id="path3383" /><path
         class="fil0"
         d="M30 12l4 6 -20 0 0 2 20 0c0,0 0,0 0,0 0,1 -1,1 -1,1 0,1 -1,1 -1,1l-2 3c0,1 1,1 1,1 0,0 1,-1 1,-2 1,0 1,-1 2,-1 0,-1 3,-4 3,-4l0 0c0,-1 -2,-2 -2,-2l-3 -4c0,0 -1,-1 -1,-2 0,1 0,0 0,1l-1 0z"
         id="path3385" /></g></g></svg>