<?xml version="1.0" encoding="UTF-8"?>
<!DOCTYPE svg PUBLIC "-//W3C//DTD SVG 1.1//EN" "http://www.w3.org/Graphics/SVG/1.1/DTD/svg11.dtd">
<!-- Creator: CorelDRAW 2017 -->
<svg xmlns="http://www.w3.org/2000/svg" xml:space="preserve" width="65px" height="52px" version="1.1" style="shape-rendering:geometricPrecision; text-rendering:geometricPrecision; image-rendering:optimizeQuality; fill-rule:evenodd; clip-rule:evenodd"
viewBox="0 0 1.51 1.2"
 xmlns:xlink="http://www.w3.org/1999/xlink">
 <defs>
  <style type="text/css">
   <![CDATA[
    .fil0 {fill:#E31E24}
   ]]>
  </style>
 </defs>
 <g id="Capa_x0020_1">
  <metadata id="CorelCorpID_0Corel-Layer"/>
  <path class="fil0" d="M0.61 0.09c0.27,0 0.54,0 0.82,-0.01 0.14,0.1 0.09,1.08 0,1.02l-0.82 0 0 -1.01zm0.19 0.11l0.47 0c0.02,0 0.03,0.01 0.03,0.03l0 0.09c0,0.02 -0.01,0.03 -0.03,0.03l-0.47 0c-0.01,0 -0.03,-0.01 -0.03,-0.03l0 -0.09c0,-0.02 0.02,-0.03 0.03,-0.03zm0.24 0.26c0.03,0 0.05,0.03 0.05,0.06 0,0.03 -0.02,0.06 -0.05,0.06 -0.03,0 -0.06,-0.03 -0.06,-0.06 0,-0.03 0.03,-0.06 0.06,-0.06zm0 0.19c0.03,0 0.05,0.03 0.05,0.06 0,0.04 -0.02,0.06 -0.05,0.06 -0.04,0 -0.06,-0.02 -0.06,-0.06 0,-0.03 0.02,-0.06 0.06,-0.06zm-0.2 0.2c0.03,0 0.06,0.03 0.06,0.06 0,0.03 -0.03,0.06 -0.06,0.06 -0.03,0 -0.06,-0.03 -0.06,-0.06 0,-0.03 0.03,-0.06 0.06,-0.06zm0.19 0c0.04,0 0.06,0.03 0.06,0.06 0,0.03 -0.02,0.06 -0.06,0.06 -0.03,0 -0.05,-0.03 -0.05,-0.06 0,-0.03 0.02,-0.06 0.05,-0.06zm0.2 0c0.03,0 0.06,0.03 0.06,0.06 0,0.03 -0.03,0.06 -0.06,0.06 -0.03,0 -0.06,-0.03 -0.06,-0.06 0,-0.03 0.03,-0.06 0.06,-0.06zm0 -0.39c0.03,0 0.06,0.03 0.06,0.06 0,0.03 -0.03,0.06 -0.06,0.06 -0.03,0 -0.06,-0.03 -0.06,-0.06 0,-0.03 0.03,-0.06 0.06,-0.06zm0 0.19c0.03,0 0.06,0.03 0.06,0.06 0,0.04 -0.03,0.06 -0.06,0.06 -0.03,0 -0.06,-0.02 -0.06,-0.06 0,-0.03 0.03,-0.06 0.06,-0.06zm-0.39 -0.19c0.03,0 0.06,0.03 0.06,0.06 0,0.03 -0.03,0.06 -0.06,0.06 -0.03,0 -0.06,-0.03 -0.06,-0.06 0,-0.03 0.03,-0.06 0.06,-0.06zm0 0.19c0.03,0 0.06,0.03 0.06,0.06 0,0.03 -0.03,0.06 -0.06,0.06 -0.03,0 -0.06,-0.03 -0.06,-0.06 0,-0.03 0.03,-0.06 0.06,-0.06z"/>
  <rect class="fil0" x="0.21" width="0.34" height="1.2" rx="0.09" ry="0.09"/>
  <path class="fil0" d="M0.07 0.09l0.08 0 0 1.02c-0.02,0 -0.05,0 -0.08,0 -0.09,-0.15 -0.09,-0.97 0,-1.02z"/>
 </g>
</svg>
