<?xml version="1.0" encoding="UTF-8"?>
<!DOCTYPE svg PUBLIC "-//W3C//DTD SVG 1.1//EN" "http://www.w3.org/Graphics/SVG/1.1/DTD/svg11.dtd">
<!-- Creator: CorelDRAW X7 -->
<svg xmlns="http://www.w3.org/2000/svg" xml:space="preserve" width="7.7906mm" height="6.1544mm" version="1.1" style="shape-rendering:geometricPrecision; text-rendering:geometricPrecision; image-rendering:optimizeQuality; fill-rule:evenodd; clip-rule:evenodd"
viewBox="0 0 366 289"
 xmlns:xlink="http://www.w3.org/1999/xlink">
 <defs>
  <style type="text/css">
   <![CDATA[
    .fil0 {fill:#9D9E9E}
   ]]>
  </style>
 </defs>
 <g id="Capa_x0020_1">
  <metadata id="CorelCorpID_0Corel-Layer"/>
  <g id="_2258845794144">
   <path class="fil0" d="M147 21c66,0 132,0 198,-1 34,24 22,261 0,247l-198 0 0 -246zm48 27l112 0c4,0 8,3 8,7l0 23c0,4 -4,7 -8,7l-112 0c-4,0 -8,-3 -8,-7l0 -23c0,-4 4,-7 8,-7zm56 64c8,0 14,6 14,14 0,8 -6,15 -14,15 -8,0 -14,-7 -14,-15 0,-8 6,-14 14,-14zm0 46c7,0 14,7 14,15 0,8 -7,14 -14,14 -8,0 -14,-6 -14,-14 0,-8 6,-15 14,-15zm-48 48c8,0 14,6 14,14 0,8 -6,15 -14,15 -7,0 -14,-7 -14,-15 0,-8 7,-14 14,-14zm47 0c8,0 14,6 14,14 0,8 -6,15 -14,15 -8,0 -14,-7 -14,-15 0,-8 6,-14 14,-14zm47 0c8,0 14,7 14,15 0,8 -6,14 -14,14 -8,0 -14,-6 -14,-14 0,-8 6,-15 14,-15zm1 -94c7,0 14,6 14,14 0,8 -7,15 -14,15 -8,0 -14,-7 -14,-15 0,-8 6,-14 14,-14zm-1 46c8,0 14,7 14,15 0,8 -6,14 -14,14 -8,0 -14,-6 -14,-14 0,-8 6,-15 14,-15zm-93 -47c8,0 14,7 14,15 0,8 -6,14 -14,14 -8,0 -14,-6 -14,-14 0,-8 6,-15 14,-15zm-1 47c8,0 14,6 14,14 0,8 -6,15 -14,15 -7,0 -14,-7 -14,-15 0,-8 7,-14 14,-14z"/>
   <rect class="fil0" x="50" width="81.7623" height="289.472" rx="21" ry="21"/>
   <path class="fil0" d="M18 21l19 0 0 247c-7,0 -13,0 -19,0 -24,-35 -24,-234 0,-247z"/>
  </g>
 </g>
</svg>
