<?xml version="1.0" encoding="UTF-8"?>
<!DOCTYPE svg PUBLIC "-//W3C//DTD SVG 1.1//EN" "http://www.w3.org/Graphics/SVG/1.1/DTD/svg11.dtd">
<!-- Creator: CorelDRAW 2017 -->
<svg xmlns="http://www.w3.org/2000/svg" xml:space="preserve" width="161px" height="56px" version="1.1" style="shape-rendering:geometricPrecision; text-rendering:geometricPrecision; image-rendering:optimizeQuality; fill-rule:evenodd; clip-rule:evenodd"
viewBox="0 0 7.63 2.65"
 xmlns:xlink="http://www.w3.org/1999/xlink">
 <defs>
  <style type="text/css">
   <![CDATA[
    .str0 {stroke:#FEFEFE;stroke-width:0.11;stroke-linecap:round;stroke-miterlimit:22.9256}
    .fil1 {fill:none}
    .fil0 {fill:#FEFEFE}
   ]]>
  </style>
 </defs>
 <g id="Capa_x0020_1">
  <metadata id="CorelCorpID_0Corel-Layer"/>
  <g id="_1976020615568">
   <path class="fil0" d="M5.53 0.51c0,0.08 0.02,0.13 0.1,0.15 0.05,0.02 0.12,0 0.18,-0.02 0.05,-0.01 0.11,-0.03 0.17,-0.04 0.04,-0.01 0.16,-0.04 0.19,-0.04 0,0 0.09,0.1 0.1,0.11l0.1 0.11 -0.28 0.29c-0.01,0.02 -0.02,0.03 -0.04,0.05 -0.01,0.01 -0.02,0.02 -0.03,0.04 -0.02,0.01 -0.03,0.03 -0.04,0.04l-0.13 0.13c-0.01,0.02 -0.02,0.03 -0.04,0.05 -0.04,0.04 -0.05,0.07 -0.05,0.13 0,0.04 0.01,0.07 0.03,0.1 0.02,0.01 0.06,0.04 0.09,0.05 0.14,0.07 0.36,0.18 0.49,0.25 0.02,0.01 0.03,0.02 0.05,0.02l-0.25 0.41c-0.04,0.07 -0.13,0.17 -0.03,0.27 0.02,0.02 0.02,0.02 0.04,0.03 0.07,0.03 0.13,0.01 0.17,-0.04 0.03,-0.02 0.31,-0.49 0.32,-0.5 0.04,-0.07 0.11,-0.16 0.11,-0.22 0,-0.07 -0.03,-0.11 -0.07,-0.13 -0.08,-0.05 -0.3,-0.15 -0.41,-0.21l0.39 -0.41c0.01,-0.01 0.01,-0.02 0.03,-0.03l0.28 0.24c0.05,0.04 0.06,0.06 0.14,0.06 0.05,0 0.11,-0.06 0.14,-0.09l0.19 -0.18c0.01,-0.01 0.02,-0.01 0.03,-0.02 0.1,-0.1 0.13,-0.1 0.13,-0.21 0,-0.06 -0.06,-0.11 -0.11,-0.12 -0.08,-0.02 -0.11,0.02 -0.16,0.06l-0.06 0.05c-0.01,0.01 -0.01,0.02 -0.02,0.03l-0.1 0.09c-0.02,0.01 -0.04,0.04 -0.06,0.05 -0.03,-0.02 -0.05,-0.05 -0.08,-0.08l-0.09 -0.08c-0.02,-0.02 -0.03,-0.02 -0.04,-0.04l-0.17 -0.16c-0.02,-0.02 -0.03,-0.02 -0.05,-0.04 -0.02,-0.03 -0.05,-0.06 -0.08,-0.08l-0.17 -0.16c-0.21,-0.21 -0.15,-0.18 -0.45,-0.12 -0.06,0.02 -0.36,0.08 -0.4,0.11 -0.03,0.02 -0.06,0.06 -0.06,0.1z"/>
   <path class="fil0" d="M4.77 2.09c0,0.05 0,0.09 0.04,0.12 0.07,0.07 0.17,0.03 0.26,0.02l0.46 -0.09c0.09,-0.02 0.13,-0.1 0.19,-0.18l0.17 -0.21c-0.04,-0.02 -0.1,-0.04 -0.13,-0.07 -0.02,-0.01 -0.04,-0.03 -0.05,-0.05 -0.01,-0.02 -0.03,-0.05 -0.03,-0.08 -0.02,0.01 -0.03,0.03 -0.05,0.05 -0.01,0.01 -0.02,0.03 -0.04,0.05l-0.13 0.17c-0.04,0.04 -0.03,0.04 -0.09,0.05 -0.03,0 -0.06,0.01 -0.08,0.01 -0.06,0.02 -0.41,0.07 -0.45,0.1 -0.03,0.01 -0.07,0.06 -0.07,0.11z"/>
   <path class="fil0" d="M6.7 0.35c0,0.11 0.01,0.18 0.09,0.26 0.16,0.16 0.42,0.1 0.51,-0.08 0.1,-0.21 -0.04,-0.47 -0.29,-0.47 -0.08,0 -0.17,0.04 -0.21,0.09 -0.05,0.05 -0.1,0.12 -0.1,0.2z"/>
   <path class="fil0" d="M2.98 0.17c0.56,0 1.11,0 1.66,0 0.27,0.2 -0.08,2.18 -0.25,2.06l-1.66 0 0.25 -2.06zm0.38 0.23l0.94 0c0.03,0 0.06,0.03 0.05,0.06l-0.02 0.19c0,0.03 -0.04,0.06 -0.07,0.06l-0.94 0c-0.03,0 -0.06,-0.03 -0.05,-0.06l0.02 -0.19c0,-0.03 0.04,-0.06 0.07,-0.06zm-0.09 1.32c0.06,0 0.11,0.05 0.1,0.12 -0.01,0.07 -0.07,0.12 -0.13,0.12 -0.07,0 -0.11,-0.05 -0.1,-0.12 0.01,-0.07 0.06,-0.12 0.13,-0.12zm0.39 0c0.06,0 0.11,0.05 0.1,0.12 -0.01,0.07 -0.07,0.12 -0.13,0.12 -0.07,0 -0.11,-0.05 -0.1,-0.12 0.01,-0.07 0.06,-0.12 0.13,-0.12zm0.39 0c0.07,0 0.11,0.06 0.1,0.12 0,0.07 -0.06,0.12 -0.13,0.12 -0.06,0 -0.11,-0.05 -0.1,-0.12 0.01,-0.06 0.07,-0.12 0.13,-0.12zm0.05 -0.4c0.07,0 0.11,0.06 0.1,0.12 -0.01,0.07 -0.06,0.12 -0.13,0.12 -0.06,0 -0.11,-0.05 -0.1,-0.12 0.01,-0.06 0.07,-0.12 0.13,-0.12zm-0.78 0c0.06,0 0.11,0.05 0.1,0.12 -0.01,0.07 -0.07,0.12 -0.13,0.12 -0.07,0 -0.11,-0.05 -0.1,-0.12 0.01,-0.07 0.06,-0.12 0.13,-0.12zm0.39 0c0.07,0 0.11,0.06 0.1,0.12 0,0.07 -0.06,0.12 -0.13,0.12 -0.06,0 -0.11,-0.05 -0.1,-0.12 0.01,-0.06 0.07,-0.12 0.13,-0.12zm0.05 -0.39c0.07,0 0.11,0.06 0.11,0.12 -0.01,0.07 -0.07,0.12 -0.14,0.12 -0.06,0 -0.11,-0.05 -0.1,-0.12 0.01,-0.06 0.07,-0.12 0.13,-0.12zm-0.39 0c0.06,0 0.11,0.05 0.1,0.12 -0.01,0.07 -0.07,0.12 -0.13,0.12 -0.06,0 -0.11,-0.05 -0.1,-0.12 0.01,-0.07 0.07,-0.12 0.13,-0.12zm0.78 0c0.07,0 0.11,0.06 0.1,0.12 0,0.07 -0.06,0.12 -0.13,0.12 -0.06,0 -0.11,-0.05 -0.1,-0.12 0.01,-0.06 0.07,-0.12 0.13,-0.12z"/>
   <rect class="fil0" transform="matrix(0.0349987 -0 -0.00438922 0.0356083 2.2015 -9.11153E-06)" width="19.53" height="67.95" rx="4.93" ry="4.93"/>
   <path class="fil0" d="M1.88 0.18l0.15 0 -0.25 2.06c-0.05,0 -0.11,0 -0.16,0 -0.16,-0.3 0.05,-1.96 0.26,-2.06z"/>
   <line class="fil1 str0" x1="0.56" y1="0.41" x2="1.29" y2= "0.41" />
   <line class="fil1 str0" x1="0.11" y1="0.96" x2="0.84" y2= "0.96" />
   <line class="fil1 str0" x1="0.51" y1="1.52" x2="1.25" y2= "1.52" />
   <line class="fil1 str0" x1="0.06" y1="2.07" x2="0.79" y2= "2.07" />
  </g>
 </g>
</svg>
