<?xml version="1.0" encoding="UTF-8"?>
<!DOCTYPE svg PUBLIC "-//W3C//DTD SVG 1.1//EN" "http://www.w3.org/Graphics/SVG/1.1/DTD/svg11.dtd">
<!-- Creator: CorelDRAW 2017 -->
<svg xmlns="http://www.w3.org/2000/svg" xml:space="preserve" width="172px" height="55px" version="1.1" style="shape-rendering:geometricPrecision; text-rendering:geometricPrecision; image-rendering:optimizeQuality; fill-rule:evenodd; clip-rule:evenodd"
viewBox="0 0 8.7 2.77"
 xmlns:xlink="http://www.w3.org/1999/xlink">
 <defs>
  <style type="text/css">
   <![CDATA[
    .str0 {stroke:#2B2A29;stroke-width:0.12;stroke-linecap:round;stroke-miterlimit:22.9256}
    .fil1 {fill:none}
    .fil0 {fill:#2B2A29}
   ]]>
  </style>
 </defs>
 <g id="Capa_x0020_1">
  <metadata id="CorelCorpID_0Corel-Layer"/>
  <g id="_1975879254352">
   <path class="fil0" d="M6.45 0.48c0,0.08 0.03,0.14 0.1,0.16 0.06,0.02 0.14,-0.01 0.2,-0.02 0.06,-0.02 0.12,-0.03 0.19,-0.04 0.04,-0.01 0.16,-0.05 0.19,-0.05 0,0 0.1,0.11 0.11,0.12l0.11 0.11 -0.3 0.32c-0.01,0.02 -0.02,0.03 -0.04,0.05 -0.01,0.02 -0.02,0.03 -0.04,0.04 -0.02,0.02 -0.02,0.03 -0.04,0.05l-0.13 0.14c-0.02,0.01 -0.02,0.03 -0.04,0.04 -0.05,0.05 -0.06,0.08 -0.06,0.15 0,0.04 0.01,0.08 0.04,0.1 0.01,0.02 0.06,0.04 0.08,0.06 0.15,0.08 0.39,0.18 0.53,0.26 0.02,0.01 0.03,0.02 0.06,0.03l-0.27 0.43c-0.05,0.08 -0.14,0.19 -0.03,0.3 0.01,0.01 0.02,0.02 0.04,0.03 0.07,0.02 0.13,0.01 0.18,-0.05 0.03,-0.02 0.33,-0.52 0.34,-0.54 0.04,-0.07 0.12,-0.16 0.12,-0.23 0,-0.07 -0.04,-0.11 -0.08,-0.14 -0.08,-0.05 -0.32,-0.16 -0.43,-0.22l0.41 -0.44c0.01,-0.01 0.02,-0.02 0.03,-0.03l0.3 0.25c0.06,0.05 0.07,0.07 0.15,0.07 0.06,0 0.12,-0.07 0.15,-0.1l0.2 -0.19c0.02,-0.01 0.02,-0.01 0.04,-0.03 0.1,-0.1 0.14,-0.1 0.14,-0.21 0,-0.07 -0.07,-0.12 -0.12,-0.13 -0.09,-0.02 -0.12,0.02 -0.17,0.06l-0.06 0.06c-0.01,0.01 -0.02,0.02 -0.03,0.03l-0.1 0.09c-0.03,0.02 -0.04,0.04 -0.07,0.06 -0.03,-0.03 -0.06,-0.06 -0.09,-0.09l-0.09 -0.08c-0.02,-0.02 -0.03,-0.03 -0.05,-0.05l-0.18 -0.17c-0.01,-0.02 -0.03,-0.02 -0.04,-0.04 -0.03,-0.03 -0.06,-0.06 -0.09,-0.09l-0.19 -0.17c-0.22,-0.23 -0.16,-0.19 -0.48,-0.12 -0.06,0.01 -0.38,0.08 -0.42,0.11 -0.03,0.02 -0.07,0.06 -0.07,0.11z"/>
   <path class="fil0" d="M5.64 2.17c0,0.05 0,0.09 0.05,0.13 0.07,0.07 0.17,0.03 0.27,0.01l0.49 -0.09c0.1,-0.02 0.14,-0.1 0.21,-0.19l0.17 -0.22c-0.04,-0.02 -0.1,-0.05 -0.14,-0.08 -0.01,-0.01 -0.03,-0.03 -0.05,-0.05 -0.01,-0.02 -0.03,-0.06 -0.03,-0.09 -0.02,0.01 -0.03,0.03 -0.05,0.05 -0.01,0.02 -0.02,0.03 -0.04,0.05l-0.15 0.19c-0.03,0.04 -0.02,0.04 -0.09,0.05 -0.03,0 -0.06,0.01 -0.09,0.02 -0.06,0.01 -0.43,0.07 -0.48,0.1 -0.03,0.01 -0.07,0.07 -0.07,0.12z"/>
   <path class="fil0" d="M7.7 0.31c0,0.12 0.01,0.19 0.1,0.28 0.17,0.17 0.45,0.11 0.55,-0.09 0.1,-0.23 -0.05,-0.5 -0.31,-0.5 -0.1,0 -0.18,0.04 -0.23,0.09 -0.06,0.06 -0.11,0.13 -0.11,0.22z"/>
  </g>
  <g id="_1975879255312">
   <path class="fil0" d="M3.19 0.19c0.59,0 1.18,0 1.77,-0.01 0.28,0.21 -0.09,2.33 -0.27,2.2l-1.77 0.01 0.27 -2.2zm0.4 0.24l1 0c0.04,0 0.06,0.03 0.06,0.07l-0.02 0.2c-0.01,0.03 -0.04,0.06 -0.08,0.06l-1 0c-0.04,0 -0.06,-0.03 -0.06,-0.06l0.02 -0.2c0.01,-0.04 0.04,-0.07 0.08,-0.07zm-0.1 1.41c0.07,0 0.12,0.06 0.11,0.13 -0.01,0.07 -0.07,0.13 -0.14,0.13 -0.07,0 -0.12,-0.06 -0.11,-0.13 0.01,-0.07 0.07,-0.13 0.14,-0.13zm0.42 0c0.07,0 0.12,0.06 0.11,0.13 -0.01,0.07 -0.07,0.13 -0.14,0.13 -0.07,0 -0.12,-0.06 -0.11,-0.13 0.01,-0.07 0.07,-0.13 0.14,-0.13zm0.42 0c0.07,0 0.12,0.06 0.11,0.13 -0.01,0.07 -0.07,0.13 -0.14,0.13 -0.07,0 -0.12,-0.06 -0.11,-0.13 0.01,-0.07 0.07,-0.13 0.14,-0.13zm0.05 -0.43c0.07,0 0.12,0.06 0.11,0.13 -0.01,0.07 -0.07,0.13 -0.14,0.13 -0.07,0 -0.12,-0.06 -0.11,-0.13 0.01,-0.07 0.07,-0.13 0.14,-0.13zm-0.83 0c0.06,0 0.11,0.06 0.1,0.13 0,0.07 -0.07,0.13 -0.14,0.13 -0.07,0 -0.11,-0.06 -0.11,-0.13 0.01,-0.07 0.08,-0.13 0.15,-0.13zm0.42 0c0.06,0 0.11,0.06 0.1,0.13 0,0.07 -0.07,0.13 -0.14,0.13 -0.07,0 -0.11,-0.06 -0.11,-0.13 0.01,-0.07 0.08,-0.13 0.15,-0.13zm0.05 -0.41c0.07,0 0.12,0.06 0.11,0.13 -0.01,0.07 -0.07,0.13 -0.14,0.13 -0.07,0 -0.12,-0.06 -0.11,-0.13 0.01,-0.07 0.07,-0.13 0.14,-0.13zm-0.42 -0.01c0.07,0 0.12,0.06 0.11,0.13 -0.01,0.07 -0.07,0.13 -0.14,0.13 -0.07,0 -0.12,-0.06 -0.11,-0.13 0.01,-0.07 0.07,-0.13 0.14,-0.13zm0.84 0.01c0.07,0 0.11,0.06 0.11,0.13 -0.01,0.07 -0.08,0.13 -0.15,0.13 -0.06,0 -0.11,-0.06 -0.1,-0.13 0,-0.07 0.07,-0.13 0.14,-0.13z"/>
   <rect class="fil0" transform="matrix(0.0349987 -0 -0.00438922 0.0356083 2.35192 0.0012447)" width="20.86" height="72.6" rx="5.27" ry="5.27"/>
   <path class="fil0" d="M2 0.19l0.17 0 -0.27 2.21c-0.06,0 -0.11,0 -0.17,0 -0.17,-0.32 0.05,-2.1 0.27,-2.21z"/>
  </g>
  <line class="fil1 str0" x1="0.6" y1="0.44" x2="1.38" y2= "0.44" />
  <line class="fil1 str0" x1="0.11" y1="1.03" x2="0.9" y2= "1.03" />
  <line class="fil1 str0" x1="0.55" y1="1.62" x2="1.33" y2= "1.62" />
  <line class="fil1 str0" x1="0.06" y1="2.22" x2="0.84" y2= "2.22" />
 </g>
</svg>
