<?xml version="1.0" encoding="UTF-8"?>
<!DOCTYPE svg PUBLIC "-//W3C//DTD SVG 1.1//EN" "http://www.w3.org/Graphics/SVG/1.1/DTD/svg11.dtd">
<!-- Creator: CorelDRAW X7 -->
<svg xmlns="http://www.w3.org/2000/svg" xml:space="preserve" width="12.202mm" height="4.6977mm" version="1.1" style="shape-rendering:geometricPrecision; text-rendering:geometricPrecision; image-rendering:optimizeQuality; fill-rule:evenodd; clip-rule:evenodd"
viewBox="0 0 52 20"
 xmlns:xlink="http://www.w3.org/1999/xlink">
 <defs>
  <style type="text/css">
   <![CDATA[
    .fil0 {fill:#2B2A29}
   ]]>
  </style>
 </defs>
 <g id="Capa_x0020_1">
  <metadata id="CorelCorpID_0Corel-Layer"/>
  <g id="_2258857526976">
   <g>
    <path class="fil0" d="M36 4c0,0 0,1 1,1 0,0 1,0 1,0 1,0 1,-1 2,-1 0,0 1,0 1,0 0,0 1,1 1,1l1 1 -3 2c0,0 0,0 0,0 0,0 0,1 0,1 0,0 0,0 0,0l-1 1c-1,0 -1,0 -1,0 0,1 0,1 0,1 0,1 0,1 0,1 0,0 1,0 1,0 1,1 3,2 4,2 0,0 0,1 0,1l-2 3c0,0 -1,1 0,2 0,0 0,0 0,0 1,0 1,0 1,0 1,0 3,-4 3,-4 0,-1 1,-1 1,-2 0,0 -1,-1 -1,-1 0,0 -2,-1 -3,-1l3 -4c0,0 0,0 0,0l2 2c1,0 1,0 1,0 1,0 1,0 2,0l1 -2c0,0 0,0 0,0 1,0 1,0 1,-1 0,-1 0,-1 -1,-1 0,0 -1,0 -1,0l0 1c0,0 0,0 -1,0l0 0c0,1 -1,1 -1,1 0,0 0,0 0,-1l-1 0c0,0 0,0 0,-1l-2 -1c0,0 0,0 0,0 0,0 0,-1 -1,-1l-1 -1c-2,-2 -1,-1 -3,-1 -1,0 -3,1 -3,1 -1,0 -1,0 -1,1z"/>
    <path class="fil0" d="M30 16c0,0 0,0 1,1 0,0 1,0 2,0l3 -1c1,0 1,-1 2,-1l1 -2c0,0 -1,0 -1,0 0,0 0,-1 0,-1 -1,0 -1,0 -1,0 0,0 0,0 0,0 0,0 0,0 0,0l-1 2c-1,0 -1,0 -1,0 0,0 -1,0 -1,0 0,0 -3,1 -3,1 0,0 -1,0 -1,1z"/>
    <path class="fil0" d="M45 2c0,1 0,2 1,2 1,2 3,1 4,0 0,-2 -1,-4 -3,-4 0,0 -1,1 -1,1 -1,0 -1,1 -1,1z"/>
   </g>
   <path class="fil0" d="M30 6c0,0 0,0 1,0l1 2c0,0 -6,0 -6,0 0,0 0,0 0,0l0 0c0,0 0,0 0,0 0,1 0,0 1,0 1,0 3,0 5,0l0 1c-1,0 -1,1 -1,1 -1,0 -1,0 -1,0 0,1 0,1 1,1 0,0 0,-1 0,-1l2 -1c0,-1 0,-1 0,-1 0,0 0,0 0,0 0,0 0,0 -1,0l-1 -2c0,0 0,0 0,0 -1,0 -1,0 -1,0z"/>
   <g>
    <path class="fil0" d="M10 1c4,0 8,0 12,0 2,2 2,17 0,16l-12 0 0 -16zm3 2l7 0c0,0 0,0 0,1l0 1c0,0 0,0 0,0l-7 0c-1,0 -1,0 -1,0l0 -1c0,-1 0,-1 1,-1zm0 10c1,0 1,1 1,1 0,1 0,1 -1,1 0,0 -1,0 -1,-1 0,0 1,-1 1,-1zm3 0c1,0 1,1 1,1 0,1 0,1 -1,1 0,0 -1,0 -1,-1 0,0 1,-1 1,-1zm3 0c1,0 1,1 1,1 0,1 0,1 -1,1 0,0 -1,0 -1,-1 0,0 1,-1 1,-1zm0 -3c1,0 1,1 1,1 0,1 0,1 -1,1 0,0 -1,0 -1,-1 0,0 1,-1 1,-1zm-6 0c1,0 1,1 1,1 0,1 0,1 -1,1 0,0 -1,0 -1,-1 0,0 1,-1 1,-1zm3 0c1,0 1,1 1,1 0,1 0,1 -1,1 0,0 -1,0 -1,-1 0,0 1,-1 1,-1zm0 -3c1,0 1,1 1,1 0,1 0,1 -1,1 0,0 -1,0 -1,-1 0,0 1,-1 1,-1zm-3 0c1,0 1,1 1,1 0,1 0,1 -1,1 0,0 -1,0 -1,-1 0,0 1,-1 1,-1zm6 0c1,0 1,1 1,1 0,1 0,1 -1,1 0,0 -1,0 -1,-1 0,0 1,-1 1,-1z"/>
    <rect class="fil0" x="3" width="5.22905" height="18.513" rx="1" ry="1"/>
    <path class="fil0" d="M1 1l1 0 0 16c0,0 0,0 -1,0 -1,-2 -1,-15 0,-16z"/>
   </g>
  </g>
 </g>
</svg>
