<?xml version="1.0" encoding="UTF-8"?>
<!DOCTYPE svg PUBLIC "-//W3C//DTD SVG 1.1//EN" "http://www.w3.org/Graphics/SVG/1.1/DTD/svg11.dtd">
<!-- Creator: CorelDRAW X7 -->
<svg xmlns="http://www.w3.org/2000/svg" xml:space="preserve" width="24.7815mm" height="9.5408mm" version="1.1" style="shape-rendering:geometricPrecision; text-rendering:geometricPrecision; image-rendering:optimizeQuality; fill-rule:evenodd; clip-rule:evenodd"
viewBox="0 0 331 127"
 xmlns:xlink="http://www.w3.org/1999/xlink">
 <defs>
  <style type="text/css">
   <![CDATA[
    .fil0 {fill:#9D9E9E}
   ]]>
  </style>
 </defs>
 <g id="Capa_x0020_1">
  <metadata id="CorelCorpID_0Corel-Layer"/>
  <g id="_2224200666608">
   <g>
    <path class="fil0" d="M229 24c0,3 1,6 5,7 2,1 6,-1 8,-1 3,-1 6,-2 9,-2 2,-1 7,-2 9,-2 0,0 4,5 5,5l5 5 -14 15c0,1 -1,1 -2,2 0,1 -1,1 -1,2 -1,1 -2,1 -2,2l-6 6c-1,1 -1,2 -2,2 -2,3 -3,4 -3,7 0,2 1,4 2,5 1,0 3,1 4,2 7,4 17,9 24,12 1,1 1,1 2,1l-12 20c-2,4 -6,9 -1,13 0,1 1,1 2,2 3,1 6,0 8,-2 1,-1 15,-24 15,-25 2,-3 6,-7 6,-10 0,-3 -2,-5 -4,-7 -4,-2 -14,-7 -19,-10l18 -20c1,0 1,0 2,-1l13 12c3,2 3,2 7,2 3,0 5,-2 7,-4l9 -8c0,-1 1,-1 1,-2 5,-4 7,-4 7,-10 0,-3 -3,-5 -6,-6 -3,0 -5,1 -7,3l-3 3c-1,0 -1,1 -1,1l-5 4c-1,1 -2,2 -3,3 -1,-1 -3,-2 -4,-4l-4 -4c-1,0 -1,-1 -2,-2l-8 -7c-1,-1 -2,-1 -3,-2 -1,-2 -2,-3 -4,-4l-8 -8c-10,-10 -7,-9 -22,-6 -3,1 -17,4 -19,5 -1,1 -3,3 -3,6z"/>
    <path class="fil0" d="M192 100c0,2 0,4 2,6 4,3 8,2 13,1l22 -5c4,0 6,-4 9,-8l8 -10c-2,-1 -5,-2 -6,-4 -1,0 -2,-1 -2,-2 -1,-1 -2,-3 -2,-4 -1,0 -1,1 -2,2 -1,1 -1,2 -2,3l-7 8c-1,2 -1,2 -4,2 -1,0 -3,1 -4,1 -3,1 -20,3 -22,4 -1,1 -3,4 -3,6z"/>
    <path class="fil0" d="M285 16c0,5 1,8 5,12 8,8 20,5 25,-4 5,-10 -2,-22 -14,-22 -4,0 -8,2 -11,4 -2,2 -5,6 -5,10z"/>
   </g>
   <path class="fil0" d="M192 38c0,1 1,1 1,2l11 10c-1,0 -37,0 -38,0 0,1 -1,1 -1,2l0 0c0,1 0,1 1,1 0,1 2,1 3,1 12,0 23,0 35,0l-4 4c-2,1 -5,4 -7,6 0,1 -1,1 -1,2 0,1 1,2 2,2 1,0 2,-2 2,-2l12 -12c1,-1 1,-1 1,-2 0,-1 -1,-2 -1,-2 -1,-1 -1,-2 -2,-2l-10 -10c-1,-1 -1,-2 -2,-2 -1,0 -2,1 -2,2z"/>
   <g>
    <path class="fil0" d="M61 8c27,0 54,0 80,0 14,10 9,106 0,100l-80 0 0 -100zm19 11l46 0c2,0 3,2 3,3l0 10c0,1 -1,3 -3,3l-46 0c-1,0 -3,-2 -3,-3l0 -10c0,-1 2,-3 3,-3zm4 64c3,0 6,3 6,6 0,3 -3,6 -6,6 -3,0 -6,-3 -6,-6 0,-3 3,-6 6,-6zm19 0c3,0 6,3 6,6 0,3 -3,6 -6,6 -3,0 -6,-3 -6,-6 0,-3 3,-6 6,-6zm19 1c3,0 6,2 6,5 0,4 -3,6 -6,6 -3,0 -6,-2 -6,-6 0,-3 3,-5 6,-5zm0 -20c3,0 6,3 6,6 0,3 -3,6 -6,6 -3,0 -6,-3 -6,-6 0,-3 3,-6 6,-6zm-38 0c3,0 6,3 6,6 0,3 -3,6 -6,6 -3,0 -6,-3 -6,-6 0,-3 3,-6 6,-6zm19 0c3,0 6,3 6,6 0,3 -3,6 -6,6 -3,0 -6,-3 -6,-6 0,-3 3,-6 6,-6zm0 -19c3,0 6,3 6,6 0,3 -3,6 -6,6 -3,0 -5,-3 -5,-6 0,-3 2,-6 5,-6zm-19 0c3,0 6,3 6,6 0,3 -3,6 -6,6 -3,0 -6,-3 -6,-6 0,-3 3,-6 6,-6zm38 0c3,0 6,3 6,6 0,3 -3,6 -6,6 -3,0 -6,-3 -6,-6 0,-3 3,-6 6,-6z"/>
    <rect class="fil0" x="22" width="33.1294" height="117.292" rx="8" ry="9"/>
    <path class="fil0" d="M7 9l8 0 0 100c-3,0 -5,0 -8,0 -9,-15 -9,-95 0,-100z"/>
   </g>
  </g>
 </g>
</svg>
