<?xml version="1.0" encoding="UTF-8"?>
<!DOCTYPE svg PUBLIC "-//W3C//DTD SVG 1.1//EN" "http://www.w3.org/Graphics/SVG/1.1/DTD/svg11.dtd">
<!-- Creator: CorelDRAW X7 -->
<svg xmlns="http://www.w3.org/2000/svg" xml:space="preserve" width="4.5748mm" height="1.7488mm" version="1.1" style="shape-rendering:geometricPrecision; text-rendering:geometricPrecision; image-rendering:optimizeQuality; fill-rule:evenodd; clip-rule:evenodd"
viewBox="0 0 37 14"
 xmlns:xlink="http://www.w3.org/1999/xlink">
 <defs>
  <style type="text/css">
   <![CDATA[
    .fil0 {fill:#FEFEFE}
   ]]>
  </style>
 </defs>
 <g id="Capa_x0020_1">
  <metadata id="CorelCorpID_0Corel-Layer"/>
  <path class="fil0" d="M34 5c1,1 1,2 1,2 0,2 1,4 0,5 -1,1 -1,1 -2,1 -1,0 -4,-1 -5,-1 -2,-2 0,-4 -1,-5 -1,-1 -2,-1 -3,-1 0,0 -1,0 -2,0 -1,-1 -2,-1 -3,-1 0,0 -1,0 -1,0l-2 0c-2,0 -5,1 -6,2 -1,1 0,2 -1,3 0,1 0,1 0,2 -1,0 -3,1 -4,1 -1,0 -2,0 -3,-1 -1,-1 -1,-3 -1,-5 0,-2 5,-4 6,-4l2 -1c2,0 4,-1 6,-1l3 0c0,0 1,0 1,0 0,0 0,0 0,0l3 0c2,0 3,1 4,1 3,0 7,2 8,3zm2 7l-1 1c0,0 -1,1 -2,1 -1,0 -3,0 -4,-1 -1,0 -2,0 -2,-1 -1,-1 -1,-2 -1,-3 0,0 0,-1 0,-1 -1,-1 -3,-1 -4,-1l-6 -1c0,1 0,1 0,1 -1,0 -4,0 -5,1 -1,1 1,4 -3,5 -2,1 -5,1 -7,0 -1,-1 -1,-1 -1,-3l0 -1c0,-2 0,-3 2,-4l0 0c1,-2 4,-3 6,-4l2 0c4,-1 10,-1 14,-1 3,1 4,1 7,2l2 1c1,1 1,1 2,2l0 0c1,1 1,2 1,2 1,1 1,3 0,3l0 1c0,1 0,1 0,1z"/>
 </g>
</svg>
