<?xml version="1.0" encoding="UTF-8"?>
<!DOCTYPE svg PUBLIC "-//W3C//DTD SVG 1.1//EN" "http://www.w3.org/Graphics/SVG/1.1/DTD/svg11.dtd">
<!-- Creator: CorelDRAW 2017 -->
<svg xmlns="http://www.w3.org/2000/svg" xml:space="preserve" width="54px" height="21px" version="1.1" style="shape-rendering:geometricPrecision; text-rendering:geometricPrecision; image-rendering:optimizeQuality; fill-rule:evenodd; clip-rule:evenodd"
viewBox="0 0 4.77 1.82"
 xmlns:xlink="http://www.w3.org/1999/xlink">
 <defs>
  <style type="text/css">
   <![CDATA[
    .fil0 {fill:#FEFEFE}
   ]]>
  </style>
 </defs>
 <g id="Capa_x0020_1">
  <metadata id="CorelCorpID_0Corel-Layer"/>
  <path class="fil0" d="M4.48 0.72c0.07,0.07 0.14,0.14 0.14,0.23 0.01,0.17 0.04,0.49 -0.08,0.61 -0.07,0.07 -0.15,0.1 -0.24,0.1 -0.16,0.02 -0.54,-0.03 -0.66,-0.15 -0.2,-0.19 -0.03,-0.46 -0.16,-0.59 -0.1,-0.09 -0.17,-0.12 -0.3,-0.15 -0.09,-0.03 -0.18,-0.04 -0.27,-0.05 -0.21,-0.02 -0.27,-0.02 -0.46,-0.02 -0.03,0 -0.05,0 -0.07,0l-0.33 0.01c-0.19,0 -0.61,0.06 -0.74,0.2 -0.11,0.11 -0.06,0.2 -0.08,0.37 -0.01,0.11 -0.01,0.16 -0.1,0.25 -0.09,0.09 -0.33,0.13 -0.43,0.14 -0.16,0.02 -0.34,0.04 -0.46,-0.08 -0.12,-0.12 -0.1,-0.44 -0.1,-0.61 0.02,-0.28 0.61,-0.55 0.8,-0.61l0.26 -0.08c0.18,-0.05 0.53,-0.12 0.72,-0.13l0.46 -0.02c0.02,0 0.04,0 0.06,0 0.03,0 0.04,0 0.07,0l0.39 0.02c0.24,0.03 0.31,0.04 0.53,0.08 0.33,0.07 0.82,0.25 1.05,0.48zm0.19 0.91l-0.07 0.06c-0.07,0.06 -0.17,0.1 -0.27,0.11 -0.15,0.02 -0.4,-0.02 -0.54,-0.06 -0.14,-0.04 -0.25,-0.1 -0.33,-0.22 -0.05,-0.08 -0.07,-0.21 -0.07,-0.3 0,-0.08 0.02,-0.18 -0.03,-0.22 -0.09,-0.1 -0.36,-0.12 -0.49,-0.14l-0.73 -0.01c-0.03,0 -0.04,0 -0.07,0 -0.15,0 -0.56,0.05 -0.67,0.16 -0.1,0.11 0.15,0.55 -0.39,0.74 -0.21,0.07 -0.67,0.13 -0.84,-0.04 -0.13,-0.13 -0.14,-0.19 -0.16,-0.35l-0.01 -0.18c0,-0.31 0,-0.34 0.21,-0.56l0.01 -0.01c0.2,-0.2 0.55,-0.33 0.81,-0.42l0.27 -0.07c0.56,-0.14 1.32,-0.15 1.88,-0.06 0.28,0.04 0.54,0.1 0.81,0.21l0.27 0.12c0.17,0.09 0.23,0.15 0.35,0.27l0.03 0.02c0.06,0.06 0.11,0.18 0.12,0.24 0.01,0.06 0.02,0.35 0,0.42l-0.01 0.12c-0.02,0.06 -0.05,0.12 -0.08,0.17z"/>
 </g>
</svg>
