<?xml version="1.0" encoding="UTF-8"?>
<!DOCTYPE svg PUBLIC "-//W3C//DTD SVG 1.1//EN" "http://www.w3.org/Graphics/SVG/1.1/DTD/svg11.dtd">
<!-- Creator: CorelDRAW X7 -->
<svg xmlns="http://www.w3.org/2000/svg" xml:space="preserve" width="4.4639mm" height="4.3026mm" version="1.1" style="shape-rendering:geometricPrecision; text-rendering:geometricPrecision; image-rendering:optimizeQuality; fill-rule:evenodd; clip-rule:evenodd"
viewBox="0 0 50 48"
 xmlns:xlink="http://www.w3.org/1999/xlink">
 <defs>
  <style type="text/css">
   <![CDATA[
    .fil0 {fill:#00A0E3}
    .fil1 {fill:#008DD2}
    .fil2 {fill:#008DD2;fill-rule:nonzero}
   ]]>
  </style>
 </defs>
 <g id="Capa_x0020_1">
  <metadata id="CorelCorpID_0Corel-Layer"/>
  <g id="_2224200676144">
   <path class="fil0" d="M2 14c0,-1 0,-2 0,-3 2,-2 4,-4 6,-4 1,0 2,0 2,1 2,1 4,4 4,6 0,3 -3,4 -3,6 0,2 0,2 1,4 1,1 1,1 2,2 1,2 2,2 3,4 1,0 1,0 1,1l3 2c1,2 5,4 7,4 2,0 2,-1 3,-2 1,-1 2,-1 3,-1 2,0 4,2 5,2 1,1 3,3 3,5 0,1 -3,4 -4,5 -3,2 -10,0 -11,-1l-3 -2c-2,-1 -5,-3 -7,-5l-4 -3c0,0 0,0 0,-1 0,0 0,0 -1,0l-3 -3c-1,-2 -2,-3 -3,-5 -2,-3 -4,-9 -4,-12zm5 -9l1 0c1,0 2,1 3,1 2,2 3,4 4,5 1,2 1,3 1,5 0,1 -1,2 -2,2 -1,1 -2,2 -2,2 0,2 2,4 3,5l6 6c0,0 0,1 0,1 2,1 5,4 7,4 2,0 3,-6 9,-3 2,1 6,4 6,7 0,2 0,3 -1,4l-2 2c-2,2 -2,2 -6,2l0 0c-3,0 -7,-1 -10,-3l-2 -1c-6,-4 -12,-10 -16,-15 -1,-2 -3,-5 -4,-8l-1 -3c-1,-2 -1,-3 -1,-5l0 0c0,-1 0,-3 1,-3 0,-1 3,-3 3,-3l1 -1c1,-1 2,-1 2,-1z"/>
   <circle class="fil1" cx="47" cy="3" r="3"/>
   <circle class="fil1" cx="35" cy="15" r="3"/>
   <circle class="fil1" cx="41" cy="9" r="3"/>
   <polygon class="fil2" points="35,20 36,21 26,25 29,15 30,16 28,23 "/>
  </g>
 </g>
</svg>
