<?xml version="1.0" encoding="UTF-8"?>
<!DOCTYPE svg PUBLIC "-//W3C//DTD SVG 1.1//EN" "http://www.w3.org/Graphics/SVG/1.1/DTD/svg11.dtd">
<!-- Creator: CorelDRAW 2017 -->
<svg xmlns="http://www.w3.org/2000/svg" xml:space="preserve" width="37px" height="35px" version="1.1" style="shape-rendering:geometricPrecision; text-rendering:geometricPrecision; image-rendering:optimizeQuality; fill-rule:evenodd; clip-rule:evenodd"
viewBox="0 0 2.18 2.06"
 xmlns:xlink="http://www.w3.org/1999/xlink">
 <defs>
  <style type="text/css">
   <![CDATA[
    .fil1 {fill:#090409}
    .fil0 {fill:#090509}
   ]]>
  </style>
 </defs>
 <g id="Capa_x0020_1">
  <metadata id="CorelCorpID_0Corel-Layer"/>
  <g id="_1976020621808">
   <path class="fil0" d="M1.35 1.81l-0.18 0c0.02,-0.06 0.05,-0.13 0.07,-0.19 0.01,-0.06 0.03,-0.13 0.05,-0.2l0.12 -0.4 0.24 0 0.18 0.6c0.02,0.06 0.04,0.14 0.07,0.19l-0.2 0c0,-0.03 -0.04,-0.17 -0.06,-0.2l-0.23 0c-0.01,0.05 -0.04,0.17 -0.06,0.2zm0.83 -1.02l0 1.1c0,0.1 -0.01,0.16 -0.01,0.16 -0.02,0.02 -1.16,0.01 -1.28,0.01 0,-0.02 0,-0.02 0,-0.04 0,-0.18 -0.02,-1.15 0,-1.24 0.01,-0.01 0.03,-0.01 0.05,-0.01 0.17,0 1.15,-0.01 1.24,0.01l0 0 0 0.01z"/>
   <path class="fil0" d="M0 1.29c0.09,0.02 0.68,0.01 0.82,0.01 0,-0.3 0.02,-0.26 -0.07,-0.33 -0.03,-0.02 -0.05,-0.05 -0.08,-0.07 -0.02,0.02 -0.16,0.16 -0.27,0.22 -0.02,-0.04 -0.05,-0.09 -0.06,-0.11l0.19 -0.15c0.03,-0.02 0.04,-0.04 0.07,-0.06 -0.05,-0.08 -0.16,-0.25 -0.17,-0.36 0.05,0 0.08,-0.02 0.12,-0.02 0.06,0.11 0.04,0.1 0.13,0.28 0.03,-0.02 0.08,-0.1 0.1,-0.13 0.02,-0.05 0.05,-0.11 0.05,-0.18l-0.52 0 0 -0.13 0.29 0 0 -0.09 0.13 0 0 0.09 0.3 0 0 0.13c-0.08,0 -0.06,0 -0.07,0.05 -0.03,0.18 -0.16,0.3 -0.19,0.37l0 0.01c0.03,0.03 0.02,0.03 0.05,0.03 0,-0.14 0.03,-0.14 0.18,-0.14l0.23 0c0.04,0 0.06,0.01 0.06,-0.03 0,-0.12 0.02,-0.59 -0.01,-0.68 -0.11,0 -1.26,-0.01 -1.27,0.01 -0.01,0 -0.01,0.07 -0.01,0.17l0 1.09 0 0.01 0 0.01z"/>
   <path class="fil1" d="M0.38 1.36c0,0.31 -0.02,0.25 0.07,0.34 0.02,0.02 0.06,0.07 0.09,0.07l0.31 0 0 -0.17 -0.29 0 0 -0.26c-0.11,0 -0.18,-0.02 -0.18,0.02z"/>
   <path class="fil0" d="M1.44 1.48l0.18 0 -0.09 -0.32c0,0 -0.01,-0.01 -0.01,-0.01l-0.08 0.33z"/>
  </g>
 </g>
</svg>
