<?xml version="1.0" encoding="UTF-8"?>
<!DOCTYPE svg PUBLIC "-//W3C//DTD SVG 1.1//EN" "http://www.w3.org/Graphics/SVG/1.1/DTD/svg11.dtd">
<!-- Creator: CorelDRAW X7 -->
<svg xmlns="http://www.w3.org/2000/svg" xml:space="preserve" width="3.1034mm" height="2.94mm" version="1.1" style="shape-rendering:geometricPrecision; text-rendering:geometricPrecision; image-rendering:optimizeQuality; fill-rule:evenodd; clip-rule:evenodd"
viewBox="0 0 18 17"
 xmlns:xlink="http://www.w3.org/1999/xlink">
 <defs>
  <style type="text/css">
   <![CDATA[
    .fil1 {fill:#090409}
    .fil0 {fill:#090509}
   ]]>
  </style>
 </defs>
 <g id="Capa_x0020_1">
  <metadata id="CorelCorpID_0Corel-Layer"/>
  <g id="_2224200662736">
   <path class="fil0" d="M11 15l-1 0c0,0 0,-1 0,-1 1,-1 1,-1 1,-2l1 -3 2 0 1 5c1,0 1,1 1,1l-2 0c0,0 0,-1 0,-1l-2 0c0,0 0,1 -1,1zm7 -8l0 9c0,1 0,1 0,1 0,1 -9,0 -10,0 0,0 -1,0 -1,0 0,-1 0,-10 1,-10 0,0 0,-1 0,-1 1,0 10,0 10,1l0 0 0 0z"/>
   <path class="fil0" d="M0 11c1,0 6,0 7,0 0,-3 0,-2 -1,-3 0,0 0,0 0,0 -1,0 -2,1 -3,1 0,0 0,0 0,0l2 -2c0,0 0,0 0,0 0,-1 -1,-2 -1,-3 0,0 0,0 1,0 0,0 0,0 1,2 0,0 0,-1 1,-1 0,-1 0,-1 0,-2l-4 0 0 -1 2 0 0 -1 1 0 0 1 3 0 0 1c-1,0 -1,0 -1,1 0,1 -1,2 -2,3l1 0c0,0 0,0 0,0 0,-1 0,-1 1,-1l2 0c1,0 1,0 1,0 0,-1 0,-5 0,-6 -1,0 -11,0 -11,0 0,0 0,1 0,1l0 10 0 0 0 0z"/>
   <path class="fil1" d="M3 12c0,2 0,2 1,2 0,1 0,1 1,1l2 0 0 -1 -2 0 0 -3c-1,0 -2,0 -2,1z"/>
   <path class="fil0" d="M12 13l2 0 -1 -3c0,0 0,0 0,0l-1 3z"/>
  </g>
 </g>
</svg>
