<?xml version="1.0" encoding="UTF-8"?>
<!DOCTYPE svg PUBLIC "-//W3C//DTD SVG 1.1//EN" "http://www.w3.org/Graphics/SVG/1.1/DTD/svg11.dtd">
<!-- Creator: CorelDRAW X7 -->
<svg xmlns="http://www.w3.org/2000/svg" xml:space="preserve" width="3.5705mm" height="3.5705mm" version="1.1" style="shape-rendering:geometricPrecision; text-rendering:geometricPrecision; image-rendering:optimizeQuality; fill-rule:evenodd; clip-rule:evenodd"
viewBox="0 0 19 19"
 xmlns:xlink="http://www.w3.org/1999/xlink">
 <defs>
  <style type="text/css">
   <![CDATA[
    .fil0 {fill:#9D9E9E}
   ]]>
  </style>
 </defs>
 <g id="Capa_x0020_1">
  <metadata id="CorelCorpID_0Corel-Layer"/>
  <g id="_2258848012784">
   <path class="fil0" d="M10 16c-1,0 -1,-1 -1,-1l-4 -5c0,-1 0,-1 0,-1 -1,0 -1,-2 -1,-3 0,-1 1,-2 1,-3l1 -1c0,0 0,0 0,0 1,-1 1,-1 2,-1 1,0 2,0 4,0 0,0 1,1 1,1l0 0c1,0 1,0 1,0l0 1c0,1 1,1 1,2 0,2 0,3 -1,4 0,0 0,0 0,1 0,0 0,0 0,0l-4 6c0,0 0,0 0,0zm0 2c0,0 1,-3 2,-3l2 -4c1,-1 1,-1 1,-2 1,-1 1,-1 1,-1 0,-1 0,-2 -1,-4 0,0 0,-1 -1,-2 0,0 0,0 0,0 -1,-1 -3,-2 -4,-2 -2,0 -2,0 -3,1 0,0 -1,0 -1,0 0,0 0,0 -1,1 0,0 0,0 0,0l-1 1c0,0 0,1 0,1 -1,2 -1,3 0,5 0,1 1,2 2,3 0,0 0,0 0,0 0,0 0,1 1,1l1 3c0,0 0,0 0,0 1,0 1,0 1,1l0 0c0,0 0,1 1,1z"/>
   <path class="fil0" d="M0 16l0 1c0,0 1,1 1,1 1,0 2,1 3,1 0,0 0,0 1,0 0,0 1,0 1,0 1,0 2,0 3,0l1 0c1,0 2,0 3,0 2,0 4,0 5,-1 0,0 1,-1 1,-1l0 0c0,-1 0,-1 0,-1 0,0 0,-1 -1,-1 -1,0 -2,-1 -4,-1 0,0 0,0 -1,0 0,0 0,0 0,0 0,1 1,1 1,1 1,0 1,0 2,0 0,0 1,0 1,1 2,0 2,1 0,2 -2,0 -5,1 -7,1 -2,0 -3,0 -6,-1 -1,0 -1,0 -2,0 -1,-1 -2,-2 0,-2 1,-1 2,-1 3,-1 0,0 1,0 1,-1 0,0 0,0 0,0 -1,0 -3,0 -4,1 -1,0 -1,0 -1,0 0,0 -1,1 -1,1z"/>
   <path class="fil0" d="M8 6c0,-1 1,-1 2,-1 1,0 2,1 1,2 0,0 0,0 0,0 -1,1 -3,0 -3,-1zm-1 0c0,1 1,1 1,2 1,1 2,1 3,0 1,-1 1,-2 0,-3l0 -1c0,0 0,0 0,0 -1,0 -2,0 -2,0 -1,0 -1,0 -1,1 0,0 -1,1 -1,1z"/>
  </g>
 </g>
</svg>
