<?xml version="1.0" encoding="UTF-8"?>
<!DOCTYPE svg PUBLIC "-//W3C//DTD SVG 1.1//EN" "http://www.w3.org/Graphics/SVG/1.1/DTD/svg11.dtd">
<!-- Creator: CorelDRAW 2017 -->
<svg xmlns="http://www.w3.org/2000/svg" xml:space="preserve" width="617px" height="378px" version="1.1" style="shape-rendering:geometricPrecision; text-rendering:geometricPrecision; image-rendering:optimizeQuality; fill-rule:evenodd; clip-rule:evenodd"
viewBox="0 0 1131.59 693.4"
 xmlns:xlink="http://www.w3.org/1999/xlink">
 <defs>
  <style type="text/css">
   <![CDATA[
    .fil2 {fill:#727271}
    .fil1 {fill:#B0CB1F}
    .fil0 {fill:#B0CB1F;fill-rule:nonzero}
   ]]>
  </style>
 </defs>
 <g id="Capa_x0020_1">
  <metadata id="CorelCorpID_0Corel-Layer"/>
  <polygon class="fil0" points="269.46,361.33 287.13,361.33 287.13,538.07 269.46,538.07 269.46,391.12 212.65,468.13 156.35,391.37 156.35,538.07 138.67,538.07 138.67,361.33 156.35,361.33 212.65,438.34 "/>
  <path id="1" class="fil0" d="M398.98 481.26l0 -69.43 17.68 0 0 69.43c0,7.74 -1.47,15.06 -4.42,21.97 -2.95,6.9 -6.99,12.91 -12.12,18.05 -5.13,5.13 -11.15,9.21 -18.05,12.24 -4.21,1.85 -8.59,3.2 -13.13,4.04l0.25 57.06 -17.92 0 -0.26 -57.06c-4.54,-0.84 -8.83,-2.19 -12.87,-4.04 -6.9,-3.03 -12.92,-7.11 -18.06,-12.24 -5.13,-5.14 -9.21,-11.15 -12.24,-18.05 -3.03,-6.91 -4.55,-14.23 -4.55,-21.97l0 -0.25 -0.25 -69.18 18.18 0 0.25 69.18 0 0.25c0,5.39 1.01,10.44 3.03,15.15 2.02,4.71 4.8,8.79 8.33,12.24 3.54,3.45 7.62,6.19 12.25,8.21 4.63,2.02 9.64,3.03 15.02,3.03 5.39,0 10.44,-1.01 15.15,-3.03 4.71,-2.02 8.84,-4.76 12.37,-8.21 3.54,-3.45 6.31,-7.53 8.33,-12.24 2.02,-4.71 3.03,-9.76 3.03,-15.15z"/>
  <path id="2" class="fil0" d="M538.86 525.19c-10.94,8.59 -25.67,12.88 -44.18,12.88l-57.82 0 0 -176.74 47.46 0c18.18,0 32.49,4.21 42.93,12.62 10.1,8.59 15.15,20.29 15.15,35.1 0,7.57 -1.31,14.22 -3.92,19.94 -2.61,5.73 -6.35,10.78 -11.23,15.15 -0.34,0.34 -0.68,0.59 -1.01,0.76 4.71,1.85 8.92,4.21 12.62,7.07 5.22,4.88 9.18,10.23 11.87,16.03 2.69,5.81 4.04,12.75 4.04,20.83 0,14.98 -5.3,27.1 -15.91,36.36zm-14.39 -13.17c7.24,-6.06 10.86,-13.84 10.86,-23.31 0,-10.14 -3.62,-18.1 -10.86,-23.82 -6.56,-5.6 -16.41,-8.37 -29.54,-8.37l-40.4 0 0 63.87 40.4 0c13.13,0 22.98,-2.77 29.54,-8.37zm-11.11 -80.75c6.73,-5.39 10.1,-12.8 10.1,-22.22 0,-9.26 -3.37,-16.75 -10.1,-22.47 -7.24,-5.39 -16.75,-8.08 -28.53,-8.08l-30.3 0 0 60.85 37.87 0c7.75,0 14.73,-2.7 20.96,-8.08z"/>
  <path id="3" class="fil0" d="M585.82 474.7c0,7.06 1.35,13.76 4.04,20.07 2.7,6.31 6.4,11.82 11.11,16.53 4.71,4.72 10.23,8.42 16.54,11.11 6.31,2.7 13,4.04 20.07,4.04 7.07,0 13.76,-1.34 20.07,-4.04 6.32,-2.69 11.83,-6.39 16.54,-11.11 3.37,-3.36 6.23,-7.23 8.59,-11.61l19.44 0 -0.76 2.02c-3.53,8.42 -8.46,15.78 -14.77,22.09 -6.31,6.31 -13.68,11.28 -22.09,14.9 -8.42,3.62 -17.42,5.43 -27.02,5.43 -9.59,0 -18.6,-1.81 -27.01,-5.43 -8.42,-3.62 -15.78,-8.59 -22.1,-14.9 -6.31,-6.31 -11.27,-13.67 -14.89,-22.09 -3.62,-8.42 -5.43,-17.42 -5.43,-27.01 0,-9.6 1.81,-18.6 5.43,-27.02 3.62,-8.42 8.58,-15.78 14.89,-22.09 6.32,-6.32 13.68,-11.28 22.1,-14.9 8.41,-3.62 17.42,-5.43 27.01,-5.43 9.6,0 18.6,1.81 27.02,5.43 8.41,3.62 15.78,8.58 22.09,14.9 6.31,6.31 11.24,13.67 14.77,22.09l0.76 1.77 -19.7 0c-2.18,-4.21 -4.96,-8 -8.33,-11.37 -4.71,-4.71 -10.22,-8.41 -16.54,-11.11 -6.31,-2.69 -13,-4.03 -20.07,-4.03 -7.07,0 -13.76,1.34 -20.07,4.03 -6.31,2.7 -11.83,6.4 -16.54,11.11 -4.71,4.72 -8.41,10.23 -11.11,16.54 -2.69,6.31 -4.04,13.01 -4.04,20.08z"/>
  <path class="fil1" d="M696.19 297.8c14.12,0 18.25,-8.22 27.07,-17.14 58.31,-58.94 144.9,-77.64 226.27,-50.56 145.72,48.51 200.01,243.63 83.16,359.98 -37.28,37.12 -92.43,65.75 -148.63,65.75l-665.26 0c-172.69,0 -256.71,-229 -101.69,-338.17 72.76,-51.23 117.81,-13.97 129.19,-45.42 14.08,-38.91 14.26,-56.94 45.43,-100.44 21.41,-29.92 41.63,-53.19 72.92,-75.15 119.2,-83.66 258.44,-78.61 374.52,7.88 14.03,10.46 41.42,40.27 51.37,52.5 6.07,7.45 18.15,23.35 20.58,32.47 -49,11.41 -87.61,38.3 -121.07,71.21 -18.9,18.6 -9.56,37.09 6.14,37.09zm-696.19 161.33l0 2.17c0.08,45.27 2.78,71.54 24.28,112.78 44.81,85.95 125.8,119.32 221.05,119.32l601.16 0c79.58,0 141.27,-13.71 198.39,-64.61l24.32 -24.3c35.5,-39.87 62.39,-95.82 62.39,-154.2l0 -2.91c-0.07,-60.24 -2.48,-68.39 -25.56,-124.03 -11.68,-28.16 -31.44,-50.45 -52.35,-71.42 -47.97,-48.14 -108.03,-71.27 -191.73,-71.27 -5.97,0 -6.09,1.05 -11.05,2.2 -67.51,-127.6 -218.5,-206.93 -368.55,-176.27 -57,11.64 -90.57,27.22 -132.71,55.16 -18.71,12.39 -35.03,26.54 -50.73,42.08 -5.12,5.07 -5.77,5.94 -10.31,11.8 -11.84,15.22 -15.46,16.04 -30.93,39.8 -12.82,19.68 -22.42,38.19 -31.63,61.19l-8.36 24.79c-3.08,8.11 1.32,4.21 -6.04,7.22 -21.58,8.79 -125.8,-4.12 -194,133.11 -9.09,18.31 -17.64,49.8 -17.64,77.39z"/>
  <g id="_1975808656688">
   <path class="fil2" d="M942.33 442.38c0,5.01 -0.08,7.49 2.23,12.2 0.64,1.31 1.2,2.22 2.02,3.26 2.6,3.3 4.74,5.28 8.73,7.15 21.19,9.92 43.28,-17.02 25.9,-36.01l-0.94 -0.98c-0.13,-0.13 -0.82,-0.75 -1.01,-0.91 -14.9,-12.8 -36.93,-0.47 -36.93,15.29z"/>
   <path class="fil2" d="M852.88 513.55c0,-5 0.08,-7.49 -2.23,-12.19 -2.26,-4.63 -6.12,-8.25 -10.75,-10.42 -15.43,-7.22 -34.94,5.48 -31.62,24.89 3.08,17.96 27.44,25.39 39.87,9.83 2.07,-2.58 4.73,-7.62 4.73,-12.11z"/>
   <path class="fil2" d="M875 578.48c0,6.29 2.47,12.15 6.78,16.3l1.76 1.6c3.16,2.77 7.38,4.32 11.76,4.7l4.33 0c3.02,-0.26 5.97,-1.06 8.57,-2.39l5.47 -4.15c0.07,-0.07 0.17,-0.17 0.24,-0.24 16.76,-17.38 -2.44,-45.89 -24.96,-36.5 -2.97,1.23 -4.69,2.41 -6.99,4.55 -3.62,3.36 -6.96,9.41 -6.96,16.13z"/>
   <path class="fil2" d="M875 444.3c0,20.42 24.58,30.04 38.61,16.01 9.58,-9.58 8.89,-25.58 -2.95,-34.35 -14.04,-10.41 -35.66,-0.41 -35.66,18.34z"/>
   <path class="fil2" d="M829.8 466.91c13.2,0 23.08,-10.09 23.08,-20.68 0,-6.46 -0.3,-10.07 -4.52,-15.68 -5.25,-6.98 -14.74,-10.24 -23.56,-8.08 -3.43,0.84 -7.31,3.06 -9.87,5.53 -3.17,3.07 -5.3,6.43 -6.48,11.31 -3.28,13.65 7.2,27.6 21.35,27.6z"/>
   <path class="fil2" d="M852.88 379.86c0,-5.53 0.35,-7.26 -2.23,-12.67 -0.61,-1.27 -0.95,-2.04 -1.75,-3.06 -2.62,-3.32 -4.2,-4.96 -8.03,-6.88 -2.59,-1.29 -5.17,-2.06 -7.67,-2.4l-5.73 0c-16.66,2.25 -27.57,23.75 -12.95,38.36 10.68,10.68 29.2,8.67 36.61,-6.92 0.65,-1.37 1.75,-4.69 1.75,-6.43z"/>
   <path class="fil2" d="M942.33 509.71c0,6.45 0.29,10.07 4.52,15.68 7.3,9.71 22.29,11.7 31.89,3.9 3.97,-3.23 6.71,-7.25 8.02,-12.67 1.16,-4.85 0.52,-10.11 -1.23,-14.04 -6.81,-15.27 -27.47,-19.01 -38.95,-4.49 -0.82,1.04 -1.38,1.95 -2.02,3.27 -1,2.04 -2.23,5.55 -2.23,8.35z"/>
   <path class="fil2" d="M875 376.98c0,12.5 9.25,22.35 22.25,22.81 20.14,0.7 30.73,-24.63 16.18,-38.64 -3.8,-3.65 -8.5,-5.75 -13.33,-6.3l-5.1 0c-5.03,0.57 -9.89,2.83 -13.7,6.78 -3.78,3.92 -6.3,9.56 -6.3,15.35z"/>
   <path class="fil2" d="M942.33 374.57c0,4.44 -0.34,7.09 1.59,11.39 2.46,5.48 6.6,9.91 12.29,12.24 17.05,6.98 36.46,-8.93 29.71,-28.75 -1.33,-3.91 -3.82,-7.29 -6.76,-9.59 -3.58,-2.81 -7.66,-4.5 -11.85,-5.01l-5.27 0c-2.51,0.31 -4.99,1.05 -7.38,2.24 -1.31,0.66 -1.97,0.89 -3.06,1.75 -3.76,2.96 -2.27,1.61 -5.07,5.03 -0.96,1.18 -1.16,1.66 -1.81,2.99 -0.76,1.57 -2.39,5.49 -2.39,7.71z"/>
   <path class="fil2" d="M875 511.15c0,2.95 0.84,7.08 1.77,9.29 1.41,3.35 3.55,6.18 6.2,8.23 0.76,0.59 0.92,0.81 1.58,1.31 0.73,0.54 2.69,1.73 3.63,2.14 7.43,3.21 15.68,2.6 22.2,-1.94 0.79,-0.56 0.91,-0.76 1.59,-1.3 16.07,-12.76 7.16,-39.85 -14.85,-39.85 -12.2,0 -22.12,10.54 -22.12,22.12z"/>
  </g>
 </g>
</svg>
