<?xml version="1.0" encoding="UTF-8"?>
<!DOCTYPE svg PUBLIC "-//W3C//DTD SVG 1.1//EN" "http://www.w3.org/Graphics/SVG/1.1/DTD/svg11.dtd">
<!-- Creator: CorelDRAW 2017 -->
<svg xmlns="http://www.w3.org/2000/svg" xml:space="preserve" width="62px" height="67px" version="1.1" style="shape-rendering:geometricPrecision; text-rendering:geometricPrecision; image-rendering:optimizeQuality; fill-rule:evenodd; clip-rule:evenodd"
viewBox="0 0 1.16 1.25"
 xmlns:xlink="http://www.w3.org/1999/xlink">
 <defs>
  <style type="text/css">
   <![CDATA[
    .fil0 {fill:#FEFEFE}
   ]]>
  </style>
 </defs>
 <g id="Capa_x0020_1">
  <metadata id="CorelCorpID_0Corel-Layer"/>
  <g id="_1975879266480">
   <path class="fil0" d="M0 0.26l0 0.73c0,0.05 0,0.07 0.01,0.11 0.03,0.08 0.12,0.15 0.21,0.15l0.35 0c0.03,0 0.05,-0.07 -0.03,-0.07l-0.27 0c-0.06,0 -0.1,0 -0.14,-0.04 -0.04,-0.04 -0.06,-0.07 -0.06,-0.14l0 -0.75c0,-0.08 0.04,-0.14 0.11,-0.17 0.03,-0.01 0.05,-0.01 0.08,-0.01l0.28 0c0.04,0 0.06,0 0.06,-0.04 0,-0.01 -0.02,-0.03 -0.03,-0.03l-0.34 0c-0.07,0 -0.13,0.03 -0.17,0.08 -0.05,0.04 -0.06,0.11 -0.06,0.18z"/>
   <path class="fil0" d="M1.04 0.59l-0.7 0c-0.03,0 -0.06,0 -0.06,0.04 0,0.04 0.05,0.03 0.06,0.03l0.7 0c-0.01,0.01 -0.14,0.14 -0.16,0.17 -0.03,0.03 -0.01,0.06 0.01,0.06 0.03,0 0.03,-0.01 0.05,-0.03l0.2 -0.19c0.04,-0.05 0.02,-0.06 -0.03,-0.12l-0.17 -0.16c-0.02,-0.02 -0.02,-0.03 -0.04,-0.03 -0.03,0 -0.05,0.04 -0.03,0.06 0.02,0.02 0.04,0.04 0.06,0.06 0.01,0.02 0.1,0.1 0.11,0.11z"/>
  </g>
 </g>
</svg>
