<?xml version="1.0" encoding="UTF-8"?>
<!DOCTYPE svg PUBLIC "-//W3C//DTD SVG 1.1//EN" "http://www.w3.org/Graphics/SVG/1.1/DTD/svg11.dtd">
<!-- Creator: CorelDRAW 2017 -->
<svg xmlns="http://www.w3.org/2000/svg" xml:space="preserve" width="2474px" height="466px" version="1.1" style="shape-rendering:geometricPrecision; text-rendering:geometricPrecision; image-rendering:optimizeQuality; fill-rule:evenodd; clip-rule:evenodd"
viewBox="0 0 2467.98 465.12"
 xmlns:xlink="http://www.w3.org/1999/xlink">
 <defs>
  <style type="text/css">
   <![CDATA[
    .fil0 {fill:#A8CF45}
    .fil2 {fill:#96989A;fill-rule:nonzero}
    .fil1 {fill:#A8CF45;fill-rule:nonzero}
   ]]>
  </style>
 </defs>
 <g id="Capa_x0020_1">
  <metadata id="CorelCorpID_0Corel-Layer"/>
  <path class="fil0" d="M2346.61 211.09c-22.75,22.47 -22.92,50.39 -0.45,73.13 16.21,16.41 46.28,17.28 68.29,-4.46 16.4,-16.21 17.28,-46.28 -4.46,-68.29 -15.47,-15.65 -47.73,-15.85 -63.38,-0.38z"/>
  <path class="fil1" d="M683.52 225.27c0,-9.57 -1.79,-18.53 -5.38,-26.9 -3.58,-8.37 -8.52,-15.69 -14.79,-21.97 -6.28,-6.28 -13.6,-11.21 -21.97,-14.8 -8.37,-3.58 -17.19,-5.38 -26.45,-5.38 -9.27,0 -18.09,1.95 -26.45,5.83 -8.37,3.89 -15.7,9.04 -21.97,15.47 -6.28,6.43 -11.29,13.82 -15.02,22.19 -3.74,8.37 -5.61,16.89 -5.61,25.56l0.45 134.5 -31.83 0 0 -224.17 31.38 0 0 20.62c2.99,-4.78 7.03,-9.19 12.11,-13.22 5.08,-4.04 10.68,-7.48 16.81,-10.32 6.13,-2.83 12.63,-5 19.5,-6.5 6.88,-1.49 13.75,-2.24 20.63,-2.24 13.75,0 26.75,2.69 39,8.07 12.26,5.38 22.94,12.63 32.06,21.75 9.12,9.11 16.36,19.87 21.74,32.28 5.38,12.4 8.07,25.48 8.07,39.23l0.45 134.5 -32.28 0 -0.45 -134.5z"/>
  <path id="1" class="fil1" d="M922.49 258.89l0 -123.29 31.38 0 0 123.29c0,13.75 -2.61,26.75 -7.84,39.01 -5.23,12.25 -12.41,22.94 -21.52,32.05 -9.12,9.12 -19.81,16.37 -32.06,21.75 -7.47,3.29 -15.24,5.68 -23.31,7.17l0.44 101.33 -31.83 0 -0.45 -101.33c-8.07,-1.49 -15.69,-3.88 -22.86,-7.17 -12.26,-5.38 -22.94,-12.63 -32.06,-21.75 -9.11,-9.11 -16.36,-19.8 -21.74,-32.05 -5.38,-12.26 -8.07,-25.26 -8.07,-39.01l0 -0.45 -0.45 -122.84 32.28 0 0.45 122.84 0 0.45c0,9.57 1.79,18.53 5.38,26.9 3.58,8.37 8.52,15.62 14.79,21.75 6.28,6.13 13.53,10.98 21.75,14.57 8.22,3.59 17.11,5.38 26.67,5.38 9.57,0 18.54,-1.79 26.9,-5.38 8.37,-3.59 15.7,-8.44 21.97,-14.57 6.28,-6.13 11.21,-13.38 14.8,-21.75 3.58,-8.37 5.38,-17.33 5.38,-26.9z"/>
  <path id="2" class="fil1" d="M1326.44 135.6l32.29 0 0 133.6c0,14.05 -2.62,27.2 -7.85,39.46 -5.23,12.25 -12.48,22.94 -21.75,32.05 -9.26,9.12 -20.02,16.37 -32.28,21.75 -12.25,5.38 -25.25,8.07 -39,8.07 -17.94,0 -34.3,-4.19 -49.09,-12.55 -14.8,-8.37 -26.68,-19.73 -35.65,-34.08 -9.26,14.35 -21.29,25.71 -36.09,34.08 -14.8,8.36 -31.01,12.55 -48.64,12.55 -14.05,0 -27.13,-2.69 -39.24,-8.07 -12.1,-5.38 -22.64,-12.63 -31.6,-21.75 -8.97,-9.11 -16.07,-19.8 -21.3,-32.05 -5.23,-12.26 -7.84,-25.41 -7.84,-39.46l0 -133.6 31.38 0 0 133.6c0,9.57 1.79,18.54 5.38,26.9 3.59,8.37 8.44,15.7 14.57,21.97 6.13,6.28 13.38,11.21 21.75,14.8 8.36,3.59 17.33,5.38 26.9,5.38 9.26,0 18.08,-1.79 26.45,-5.38 8.37,-3.59 15.69,-8.52 21.97,-14.8 6.27,-6.27 11.28,-13.6 15.02,-21.97 3.73,-8.36 5.6,-17.33 5.6,-26.9l0 -133.6 32.28 0 0 133.6c0.3,10.17 2.32,19.43 6.05,27.8 3.74,8.37 8.67,15.62 14.8,21.75 6.13,6.12 13.22,10.91 21.29,14.34 8.07,3.44 16.74,5.16 26.01,5.16 9.56,0 18.53,-1.79 26.9,-5.38 8.37,-3.59 15.62,-8.52 21.74,-14.8 6.13,-6.27 10.99,-13.6 14.57,-21.97 3.59,-8.36 5.38,-17.33 5.38,-26.9l0 -133.6z"/>
  <path id="3" class="fil1" d="M1376.21 45.93l32.28 0 0 109.4c3.59,-4.79 7.85,-9.12 12.78,-13.01 4.93,-3.88 10.46,-7.17 16.59,-9.86 6.13,-2.69 12.48,-4.78 19.05,-6.28 6.58,-1.49 13.15,-2.24 19.73,-2.24 13.75,0 26.75,2.69 39.01,8.07 12.25,5.38 22.94,12.63 32.05,21.75 9.12,9.11 16.37,19.8 21.75,32.05 5.38,12.26 8.07,25.26 8.07,39.01l0 0.45 0.44 134.5 -32.28 0 -0.44 -134.5 0 -0.45c0,-9.57 -1.8,-18.53 -5.38,-26.9 -3.59,-8.37 -8.52,-15.62 -14.8,-21.75 -6.28,-6.12 -13.6,-10.98 -21.97,-14.57 -8.37,-3.58 -17.19,-5.38 -26.45,-5.38 -8.97,0 -17.56,1.95 -25.78,5.83 -8.22,3.89 -15.39,9.04 -21.52,15.47 -6.13,6.43 -11.06,13.75 -14.8,21.97 -3.73,8.22 -5.6,16.81 -5.6,25.78l0 134.5 -32.73 0 0 -313.84z"/>
  <path id="4" class="fil1" d="M1639.39 247.24c0,12.55 2.39,24.43 7.17,35.64 4.78,11.21 11.36,21 19.73,29.37 8.37,8.36 18.16,14.94 29.36,19.72 11.21,4.78 23.09,7.18 35.65,7.18 12.55,0 24.43,-2.4 35.64,-7.18 11.21,-4.78 21,-11.36 29.37,-19.72 5.97,-5.98 11.06,-12.86 15.24,-20.63l34.52 0 -1.34 3.59c-6.28,14.94 -15.02,28.02 -26.23,39.23 -11.21,11.21 -24.29,20.02 -39.23,26.45 -14.94,6.43 -30.94,9.64 -47.97,9.64 -17.04,0 -33.03,-3.21 -47.98,-9.64 -14.94,-6.43 -28.02,-15.24 -39.22,-26.45 -11.21,-11.21 -20.03,-24.29 -26.46,-39.23 -6.42,-14.95 -9.64,-30.94 -9.64,-47.97 0,-17.04 3.22,-33.03 9.64,-47.98 6.43,-14.94 15.25,-28.02 26.46,-39.23 11.2,-11.21 24.28,-20.02 39.22,-26.45 14.95,-6.42 30.94,-9.64 47.98,-9.64 17.03,0 33.03,3.22 47.97,9.64 14.94,6.43 28.02,15.24 39.23,26.45 11.21,11.21 19.95,24.29 26.23,39.23 5.38,12.26 8.52,25.11 9.41,38.56l-214.3 0c-0.3,3.29 -0.45,6.43 -0.45,9.42zm156.92 -65.01c-8.37,-8.37 -18.16,-14.95 -29.37,-19.73 -11.21,-4.78 -23.09,-7.17 -35.64,-7.17 -12.56,0 -24.44,2.39 -35.65,7.17 -11.2,4.78 -20.99,11.36 -29.36,19.73 -7.18,7.17 -13,15.24 -17.49,24.21l164.54 0c-4.48,-8.97 -10.16,-17.04 -17.03,-24.21z"/>
  <path id="5" class="fil1" d="M1881.94 135.6l30.94 0 0 42.59c1.49,-2.99 3.13,-5.38 4.93,-7.17 11.35,-11.36 24.51,-20.25 39.45,-26.68 14.94,-6.42 30.94,-9.64 47.97,-9.64l0 31.39c-12.55,0 -24.43,2.39 -35.64,7.17 -11.21,4.78 -21,11.36 -29.37,19.73 -8.37,8.37 -14.94,18.15 -19.72,29.36 -4.79,11.21 -7.18,23.09 -7.18,35.65l0 101.77 -30.93 0 -0.45 -224.17z"/>
  <path id="6" class="fil1" d="M2030.79 247.24c0,12.55 2.39,24.43 7.17,35.64 4.78,11.21 11.36,21 19.73,29.37 8.37,8.36 18.16,14.94 29.37,19.72 11.2,4.78 23.09,7.18 35.64,7.18 12.55,0 24.43,-2.4 35.64,-7.18 11.21,-4.78 21,-11.36 29.37,-19.72 5.98,-5.98 11.06,-12.86 15.24,-20.63l34.52 0 -1.34 3.59c-6.28,14.94 -15.02,28.02 -26.23,39.23 -11.21,11.21 -24.28,20.02 -39.23,26.45 -14.94,6.43 -30.93,9.64 -47.97,9.64 -17.04,0 -33.03,-3.21 -47.97,-9.64 -14.95,-6.43 -28.03,-15.24 -39.23,-26.45 -11.21,-11.21 -20.03,-24.29 -26.46,-39.23 -6.42,-14.95 -9.64,-30.94 -9.64,-47.97 0,-17.04 3.22,-33.03 9.64,-47.98 6.43,-14.94 15.25,-28.02 26.46,-39.23 11.2,-11.21 24.28,-20.02 39.23,-26.45 14.94,-6.42 30.93,-9.64 47.97,-9.64 17.04,0 33.03,3.22 47.97,9.64 14.95,6.43 28.02,15.24 39.23,26.45 11.21,11.21 19.95,24.29 26.23,39.23 5.38,12.26 8.52,25.11 9.41,38.56l-214.3 0c-0.3,3.29 -0.45,6.43 -0.45,9.42zm156.92 -65.01c-8.37,-8.37 -18.16,-14.95 -29.37,-19.73 -11.21,-4.78 -23.09,-7.17 -35.64,-7.17 -12.55,0 -24.44,2.39 -35.64,7.17 -11.21,4.78 -21,11.36 -29.37,19.73 -7.17,7.17 -13,15.24 -17.49,24.21l164.55 0c-4.49,-8.97 -10.17,-17.04 -17.04,-24.21z"/>
  <path class="fil1" d="M0 228.54c0,-31.58 5.96,-61.22 17.87,-88.92 11.91,-27.7 28.25,-51.94 49.03,-72.72 20.78,-20.78 45.02,-37.12 72.72,-49.03 27.7,-11.91 57.34,-17.87 88.92,-17.87 31.58,0 61.22,5.96 88.93,17.87 27.7,11.91 51.94,28.25 72.71,49.03 20.78,20.78 37.13,45.02 49.04,72.72 11.91,27.7 17.87,57.34 17.87,88.92l0 208.6 -58.18 0 0 -55.68c-2.77,2.77 -5.82,5.82 -9.14,9.14 -20.5,20.5 -44.6,36.71 -72.3,48.62 -27.71,11.91 -57.35,17.87 -88.93,17.87 -31.58,0 -61.22,-5.96 -88.92,-17.87 -27.7,-11.91 -51.94,-28.26 -72.72,-49.04 -20.78,-20.77 -37.12,-45.01 -49.03,-72.71 -11.91,-27.71 -17.87,-57.35 -17.87,-88.93zm58.17 0c0,23.27 4.44,45.3 13.3,66.07 8.86,20.78 21.05,38.92 36.57,54.44 15.51,15.51 33.66,27.7 54.43,36.56 20.78,8.87 42.8,13.3 66.07,13.3 23.27,0 45.3,-4.43 66.07,-13.3 20.78,-8.86 38.92,-21.05 54.44,-36.56 15.51,-15.52 27.7,-33.52 36.56,-54.02 7.76,-18.84 12.19,-38.51 13.3,-59.01l0 -7.48c0,-23.27 -4.43,-45.29 -13.3,-66.07 -8.86,-20.77 -21.05,-38.92 -36.56,-54.43 -15.52,-15.52 -33.66,-27.7 -54.44,-36.57 -20.77,-8.86 -42.8,-13.3 -66.07,-13.3 -23.27,0 -45.29,4.44 -66.07,13.3 -20.77,8.87 -38.92,21.05 -54.43,36.57 -15.52,15.51 -27.71,33.66 -36.57,54.43 -8.86,20.78 -13.3,42.8 -13.3,66.07z"/>
  <path class="fil2" d="M1048.43 458.79c-3.66,2.87 -8.59,4.31 -14.79,4.31l-19.35 0 0 -59.15 15.89 0c6.08,0 10.87,1.41 14.36,4.23 3.38,2.87 5.07,6.79 5.07,11.74 0,2.54 -0.44,4.76 -1.31,6.68 -0.87,1.91 -2.12,3.6 -3.76,5.07 -0.11,0.11 -0.22,0.19 -0.34,0.25 1.58,0.62 2.99,1.41 4.23,2.37 1.74,1.63 3.07,3.42 3.97,5.36 0.9,1.94 1.35,4.27 1.35,6.97 0,5.01 -1.77,9.07 -5.32,12.17zm-4.82 -4.41c2.42,-2.03 3.64,-4.63 3.64,-7.8 0,-3.4 -1.22,-6.06 -3.64,-7.97 -2.19,-1.87 -5.49,-2.8 -9.88,-2.8l-13.52 0 0 21.37 13.52 0c4.39,0 7.69,-0.93 9.88,-2.8zm-3.72 -27.02c2.26,-1.81 3.38,-4.28 3.38,-7.44 0,-3.1 -1.12,-5.6 -3.38,-7.52 -2.42,-1.8 -5.6,-2.7 -9.54,-2.7l-10.14 0 0 20.36 12.67 0c2.59,0 4.93,-0.9 7.01,-2.7z"/>
  <path id="1" class="fil2" d="M1090.93 444.09l0 -23.24 5.91 0 0 23.24c0,2.59 -0.49,5.04 -1.48,7.35 -0.98,2.31 -2.34,4.32 -4.05,6.04 -1.72,1.72 -3.74,3.08 -6.04,4.09 -2.31,1.02 -4.76,1.53 -7.35,1.53 -2.6,0 -5.05,-0.51 -7.36,-1.53 -2.3,-1.01 -4.32,-2.37 -6.04,-4.09 -1.71,-1.72 -3.08,-3.73 -4.09,-6.04 -1.02,-2.31 -1.52,-4.76 -1.52,-7.35l0 -0.09 -0.09 -23.15 6.08 0 0.09 23.15 0 0.09c0,1.8 0.34,3.49 1.01,5.06 0.68,1.58 1.61,2.95 2.79,4.1 1.18,1.16 2.55,2.07 4.1,2.75 1.55,0.68 3.22,1.01 5.03,1.01 1.8,0 3.49,-0.33 5.06,-1.01 1.58,-0.68 2.96,-1.59 4.14,-2.75 1.19,-1.15 2.12,-2.52 2.79,-4.1 0.68,-1.57 1.02,-3.26 1.02,-5.06z"/>
  <path id="2" class="fil2" d="M1126.41 452.46c0.06,-1.91 -0.29,-3.4 -1.05,-4.46 -0.76,-1.07 -1.88,-1.94 -3.34,-2.62 -1.47,-0.67 -3.3,-1.29 -5.49,-1.86 -2.2,-0.56 -4.23,-1.24 -6.09,-2.01 -1.85,-0.79 -3.46,-1.97 -4.81,-3.55 -1.35,-1.58 -2.17,-3.53 -2.45,-5.9 -0.23,-1.86 0.03,-3.56 0.76,-5.14 0.73,-1.58 1.76,-2.97 3.08,-4.18 1.33,-1.2 2.92,-2.18 4.78,-2.94 1.85,-0.77 3.77,-1.15 5.74,-1.15 2.25,0 4.21,0.37 5.87,1.1 1.67,0.73 3.06,1.68 4.19,2.83 1.12,1.16 2.01,2.33 2.66,3.51 0.64,1.18 1.02,2.2 1.14,3.04l-6.34 0c-0.51,-1.63 -1.46,-2.89 -2.87,-3.76 -1.41,-0.87 -2.96,-1.31 -4.65,-1.31 -1.13,0 -2.34,0.23 -3.63,0.68 -1.3,0.45 -2.49,1.35 -3.59,2.7 -1.1,1.35 -1.51,2.79 -1.23,4.31 0.28,1.35 0.95,2.39 1.99,3.13 1.04,0.73 2.42,1.41 4.14,2.02 1.72,0.62 3.62,1.27 5.7,1.95 2.08,0.67 4.04,1.59 5.87,2.74 1.83,1.16 3.26,2.61 4.27,4.35 1.01,1.75 1.52,3.95 1.52,6.59 0,1.98 -0.41,3.75 -1.23,5.33 -0.81,1.57 -1.91,2.9 -3.29,3.97 -1.38,1.07 -2.98,1.89 -4.82,2.45 -1.83,0.56 -3.73,0.84 -5.7,0.84 -1.97,0 -3.91,-0.35 -5.83,-1.05 -1.91,-0.71 -3.6,-1.69 -5.07,-2.96 -1.46,-1.27 -2.63,-2.79 -3.5,-4.56 -0.88,-1.78 -1.29,-3.87 -1.23,-6.3l5.91 0c0,1.45 0.3,2.81 0.89,4.06 0.59,1.25 1.68,2.41 3.23,3.44 1.56,1.02 3.54,1.52 5.98,1.46 2.78,0 4.86,-0.66 6.24,-1.99 1.39,-1.32 2.14,-2.9 2.25,-4.76z"/>
  <path id="3" class="fil2" d="M1137.48 420.85l5.91 0 0 42.25 -5.91 0 0 -42.25zm-0.51 -13.35c0,-1.01 0.34,-1.86 1.02,-2.53 0.67,-0.68 1.52,-1.02 2.53,-1.02 1.02,0 1.86,0.34 2.54,1.02 0.67,0.67 1.01,1.52 1.01,2.53 0,1.02 -0.34,1.86 -1.01,2.54 -0.68,0.67 -1.52,1.01 -2.54,1.01 -1.01,0 -1.86,-0.34 -2.53,-1.01 -0.68,-0.68 -1.02,-1.52 -1.02,-2.54z"/>
  <path id="4" class="fil2" d="M1181.25 437.75c0,-1.8 -0.34,-3.49 -1.02,-5.07 -0.67,-1.58 -1.6,-2.96 -2.79,-4.14 -1.18,-1.18 -2.56,-2.11 -4.14,-2.79 -1.57,-0.67 -3.24,-1.01 -4.98,-1.01 -1.75,0 -3.41,0.36 -4.99,1.1 -1.57,0.73 -2.95,1.7 -4.14,2.91 -1.18,1.21 -2.12,2.61 -2.83,4.18 -0.7,1.58 -1.05,3.19 -1.05,4.82l0.08 25.35 -6 0 0 -42.25 5.92 0 0 3.89c0.56,-0.9 1.32,-1.73 2.28,-2.49 0.96,-0.76 2.01,-1.41 3.17,-1.95 1.15,-0.53 2.38,-0.94 3.67,-1.22 1.3,-0.29 2.59,-0.43 3.89,-0.43 2.59,0 5.04,0.51 7.35,1.52 2.31,1.02 4.32,2.39 6.04,4.1 1.72,1.72 3.08,3.75 4.1,6.09 1.01,2.33 1.52,4.8 1.52,7.39l0.08 25.35 -6.08 0 -0.08 -25.35z"/>
  <path id="5" class="fil2" d="M1198.48 441.89c0,2.36 0.45,4.6 1.35,6.72 0.9,2.11 2.14,3.95 3.72,5.53 1.58,1.58 3.42,2.82 5.54,3.72 2.11,0.9 4.35,1.35 6.71,1.35 2.37,0 4.61,-0.45 6.72,-1.35 2.11,-0.9 3.96,-2.14 5.53,-3.72 1.13,-1.13 2.09,-2.42 2.88,-3.89l6.5 0 -0.25 0.68c-1.19,2.82 -2.83,5.28 -4.95,7.39 -2.11,2.11 -4.57,3.78 -7.39,4.99 -2.81,1.21 -5.83,1.81 -9.04,1.81 -3.21,0 -6.22,-0.6 -9.04,-1.81 -2.81,-1.21 -5.28,-2.88 -7.39,-4.99 -2.11,-2.11 -3.78,-4.57 -4.99,-7.39 -1.21,-2.82 -1.81,-5.83 -1.81,-9.04 0,-3.21 0.6,-6.22 1.81,-9.04 1.21,-2.82 2.88,-5.28 4.99,-7.39 2.11,-2.12 4.58,-3.78 7.39,-4.99 2.82,-1.21 5.83,-1.82 9.04,-1.82 3.21,0 6.23,0.61 9.04,1.82 2.82,1.21 5.28,2.87 7.39,4.99 2.12,2.11 3.76,4.57 4.95,7.39 1.01,2.31 1.6,4.73 1.77,7.26l-40.38 0c-0.06,0.62 -0.09,1.22 -0.09,1.78zm29.57 -12.25c-1.57,-1.58 -3.42,-2.82 -5.53,-3.72 -2.11,-0.9 -4.35,-1.35 -6.72,-1.35 -2.36,0 -4.6,0.45 -6.71,1.35 -2.12,0.9 -3.96,2.14 -5.54,3.72 -1.35,1.35 -2.45,2.87 -3.29,4.56l31 0c-0.84,-1.69 -1.91,-3.21 -3.21,-4.56z"/>
  <path id="6" class="fil2" d="M1267.51 452.46c0.06,-1.91 -0.3,-3.4 -1.06,-4.46 -0.76,-1.07 -1.87,-1.94 -3.33,-2.62 -1.47,-0.67 -3.3,-1.29 -5.5,-1.86 -2.19,-0.56 -4.22,-1.24 -6.08,-2.01 -1.86,-0.79 -3.46,-1.97 -4.82,-3.55 -1.35,-1.58 -2.16,-3.53 -2.44,-5.9 -0.23,-1.86 0.02,-3.56 0.76,-5.14 0.73,-1.58 1.76,-2.97 3.08,-4.18 1.32,-1.2 2.91,-2.18 4.77,-2.94 1.86,-0.77 3.78,-1.15 5.75,-1.15 2.25,0 4.21,0.37 5.87,1.1 1.66,0.73 3.06,1.68 4.18,2.83 1.13,1.16 2.02,2.33 2.66,3.51 0.65,1.18 1.03,2.2 1.14,3.04l-6.33 0c-0.51,-1.63 -1.47,-2.89 -2.87,-3.76 -1.41,-0.87 -2.96,-1.31 -4.65,-1.31 -1.13,0 -2.34,0.23 -3.63,0.68 -1.3,0.45 -2.5,1.35 -3.6,2.7 -1.09,1.35 -1.5,2.79 -1.22,4.31 0.28,1.35 0.94,2.39 1.98,3.13 1.05,0.73 2.43,1.41 4.14,2.02 1.72,0.62 3.62,1.27 5.71,1.95 2.08,0.67 4.04,1.59 5.87,2.74 1.83,1.16 3.25,2.61 4.27,4.35 1.01,1.75 1.52,3.95 1.52,6.59 0,1.98 -0.41,3.75 -1.23,5.33 -0.81,1.57 -1.91,2.9 -3.29,3.97 -1.38,1.07 -2.99,1.89 -4.82,2.45 -1.83,0.56 -3.73,0.84 -5.7,0.84 -1.97,0 -3.92,-0.35 -5.83,-1.05 -1.92,-0.71 -3.61,-1.69 -5.07,-2.96 -1.47,-1.27 -2.63,-2.79 -3.51,-4.56 -0.87,-1.78 -1.28,-3.87 -1.22,-6.3l5.91 0c0,1.45 0.3,2.81 0.89,4.06 0.59,1.25 1.67,2.41 3.22,3.44 1.57,1.02 3.55,1.52 5.99,1.46 2.77,0 4.86,-0.66 6.24,-1.99 1.39,-1.32 2.14,-2.9 2.25,-4.76z"/>
  <path id="7" class="fil2" d="M1302.57 452.46c0.06,-1.91 -0.29,-3.4 -1.05,-4.46 -0.76,-1.07 -1.88,-1.94 -3.34,-2.62 -1.47,-0.67 -3.3,-1.29 -5.49,-1.86 -2.2,-0.56 -4.23,-1.24 -6.09,-2.01 -1.85,-0.79 -3.46,-1.97 -4.81,-3.55 -1.35,-1.58 -2.17,-3.53 -2.45,-5.9 -0.23,-1.86 0.03,-3.56 0.76,-5.14 0.73,-1.58 1.76,-2.97 3.08,-4.18 1.33,-1.2 2.92,-2.18 4.78,-2.94 1.85,-0.77 3.77,-1.15 5.74,-1.15 2.25,0 4.21,0.37 5.87,1.1 1.67,0.73 3.06,1.68 4.19,2.83 1.12,1.16 2.01,2.33 2.66,3.51 0.64,1.18 1.02,2.2 1.14,3.04l-6.34 0c-0.51,-1.63 -1.46,-2.89 -2.87,-3.76 -1.41,-0.87 -2.96,-1.31 -4.65,-1.31 -1.13,0 -2.34,0.23 -3.63,0.68 -1.3,0.45 -2.49,1.35 -3.59,2.7 -1.1,1.35 -1.51,2.79 -1.23,4.31 0.28,1.35 0.95,2.39 1.99,3.13 1.04,0.73 2.42,1.41 4.14,2.02 1.72,0.62 3.62,1.27 5.7,1.95 2.08,0.67 4.04,1.59 5.87,2.74 1.83,1.16 3.26,2.61 4.27,4.35 1.01,1.75 1.52,3.95 1.52,6.59 0,1.98 -0.41,3.75 -1.23,5.33 -0.81,1.57 -1.91,2.9 -3.29,3.97 -1.38,1.07 -2.98,1.89 -4.82,2.45 -1.83,0.56 -3.73,0.84 -5.7,0.84 -1.97,0 -3.91,-0.35 -5.83,-1.05 -1.91,-0.71 -3.6,-1.69 -5.07,-2.96 -1.46,-1.27 -2.63,-2.79 -3.5,-4.56 -0.88,-1.78 -1.29,-3.87 -1.23,-6.3l5.91 0c0,1.45 0.3,2.81 0.89,4.06 0.59,1.25 1.68,2.41 3.23,3.44 1.56,1.02 3.54,1.52 5.98,1.46 2.78,0 4.86,-0.66 6.24,-1.99 1.39,-1.32 2.14,-2.9 2.25,-4.76z"/>
  <path id="8" class="fil2" d="M1331.21 445.44c0,1.91 0.36,3.71 1.06,5.4 0.7,1.69 1.68,3.16 2.91,4.4 1.24,1.24 2.71,2.21 4.4,2.91 1.69,0.71 3.49,1.06 5.41,1.06 1.91,0 3.71,-0.35 5.4,-1.06 1.69,-0.7 3.16,-1.67 4.4,-2.91 1.24,-1.24 2.21,-2.71 2.91,-4.4 0.71,-1.69 1.06,-3.49 1.06,-5.4l0 -41.49 5.91 0 0 41.49c0,2.76 -0.51,5.33 -1.52,7.73 -1.01,2.39 -2.41,4.48 -4.18,6.25 -1.78,1.78 -3.86,3.17 -6.25,4.18 -2.4,1.02 -4.97,1.52 -7.73,1.52 -2.76,0 -5.34,-0.5 -7.74,-1.52 -2.39,-1.01 -4.47,-2.4 -6.25,-4.18 -1.77,-1.77 -3.17,-3.86 -4.18,-6.25 -1.01,-2.4 -1.52,-4.97 -1.52,-7.73l0 -41.49 5.91 0 0 41.49z"/>
  <path id="9" class="fil2" d="M1402.35 437.75c0,-1.8 -0.33,-3.49 -1.01,-5.07 -0.68,-1.58 -1.6,-2.96 -2.79,-4.14 -1.18,-1.18 -2.56,-2.11 -4.14,-2.79 -1.57,-0.67 -3.24,-1.01 -4.98,-1.01 -1.75,0 -3.41,0.36 -4.99,1.1 -1.57,0.73 -2.95,1.7 -4.14,2.91 -1.18,1.21 -2.12,2.61 -2.83,4.18 -0.7,1.58 -1.05,3.19 -1.05,4.82l0.08 25.35 -6 0 0 -42.25 5.92 0 0 3.89c0.56,-0.9 1.32,-1.73 2.28,-2.49 0.95,-0.76 2.01,-1.41 3.17,-1.95 1.15,-0.53 2.38,-0.94 3.67,-1.22 1.3,-0.29 2.59,-0.43 3.89,-0.43 2.59,0 5.04,0.51 7.35,1.52 2.31,1.02 4.32,2.39 6.04,4.1 1.72,1.72 3.08,3.75 4.1,6.09 1.01,2.33 1.52,4.8 1.52,7.39l0.08 25.35 -6.08 0 -0.09 -25.35z"/>
  <path id="10" class="fil2" d="M1414.1 420.85l5.91 0 0 42.25 -5.91 0 0 -42.25zm-0.51 -13.35c0,-1.01 0.34,-1.86 1.02,-2.53 0.67,-0.68 1.52,-1.02 2.53,-1.02 1.01,0 1.86,0.34 2.54,1.02 0.67,0.67 1.01,1.52 1.01,2.53 0,1.02 -0.34,1.86 -1.01,2.54 -0.68,0.67 -1.53,1.01 -2.54,1.01 -1.01,0 -1.86,-0.34 -2.53,-1.01 -0.68,-0.68 -1.02,-1.52 -1.02,-2.54z"/>
  <path id="11" class="fil2" d="M1448.06 431.67l-10.73 0 0 31.43 -6.08 0 0 -31.43 -4.31 0 0 -5.92 4.31 0 0 -10.47c0,-1.58 0.3,-3.06 0.89,-4.44 0.59,-1.38 1.39,-2.58 2.4,-3.59 1.02,-1.01 2.22,-1.82 3.6,-2.41 1.38,-0.59 2.85,-0.89 4.43,-0.89 1.58,0 3.06,0.3 4.44,0.89 1.38,0.59 2.59,1.4 3.63,2.41 1.04,1.01 1.86,2.21 2.45,3.59 0.59,1.38 0.89,2.86 0.89,4.44l-5.92 0c0,-1.5 -0.53,-2.77 -1.6,-3.82 -1.07,-1.06 -2.34,-1.59 -3.8,-1.59 -1.47,0 -2.72,0.52 -3.76,1.57 -1.05,1.05 -1.57,2.3 -1.57,3.78l0 10.53 16.65 0 0 37.35 -5.92 0 0 -31.43z"/>
  <path id="12" class="fil2" d="M1465.21 441.89c0,2.36 0.46,4.6 1.36,6.72 0.9,2.11 2.14,3.95 3.71,5.53 1.58,1.58 3.43,2.82 5.54,3.72 2.11,0.9 4.35,1.35 6.71,1.35 2.37,0 4.61,-0.45 6.72,-1.35 2.11,-0.9 3.96,-2.14 5.54,-3.72 1.12,-1.13 2.08,-2.42 2.87,-3.89l6.5 0 -0.25 0.68c-1.18,2.82 -2.83,5.28 -4.94,7.39 -2.11,2.11 -4.58,3.78 -7.39,4.99 -2.82,1.21 -5.83,1.81 -9.05,1.81 -3.21,0 -6.22,-0.6 -9.04,-1.81 -2.81,-1.21 -5.28,-2.88 -7.39,-4.99 -2.11,-2.11 -3.77,-4.57 -4.98,-7.39 -1.21,-2.82 -1.82,-5.83 -1.82,-9.04 0,-3.21 0.61,-6.22 1.82,-9.04 1.21,-2.82 2.87,-5.28 4.98,-7.39 2.11,-2.12 4.58,-3.78 7.39,-4.99 2.82,-1.21 5.83,-1.82 9.04,-1.82 3.22,0 6.23,0.61 9.05,1.82 2.81,1.21 5.28,2.87 7.39,4.99 2.11,2.11 3.76,4.57 4.94,7.39 1.01,2.31 1.61,4.73 1.77,7.26l-40.38 0c-0.06,0.62 -0.09,1.22 -0.09,1.78zm29.58 -12.25c-1.58,-1.58 -3.43,-2.82 -5.54,-3.72 -2.11,-0.9 -4.35,-1.35 -6.72,-1.35 -2.36,0 -4.6,0.45 -6.71,1.35 -2.11,0.9 -3.96,2.14 -5.54,3.72 -1.35,1.35 -2.45,2.87 -3.29,4.56l31.01 0c-0.85,-1.69 -1.92,-3.21 -3.21,-4.56z"/>
  <path id="13" class="fil2" d="M1554.94 441.89c0,3.21 -0.6,6.22 -1.81,9.04 -1.22,2.82 -2.88,5.28 -4.99,7.39 -2.11,2.11 -4.58,3.78 -7.39,4.99 -2.82,1.21 -5.83,1.81 -9.04,1.81 -3.21,0 -6.23,-0.6 -9.04,-1.81 -2.82,-1.21 -5.28,-2.88 -7.39,-4.99 -2.12,-2.11 -3.78,-4.57 -4.99,-7.39 -1.21,-2.82 -1.82,-5.83 -1.82,-9.04 0,-3.21 0.61,-6.22 1.82,-9.04 1.21,-2.82 2.87,-5.28 4.99,-7.39 2.11,-2.12 4.57,-3.78 7.39,-4.99 2.81,-1.21 5.83,-1.82 9.04,-1.82 3.21,0 6.5,0.86 9.88,2.58 3.38,1.72 5.86,3.85 7.44,6.38l0 -23.66 5.91 0 0 37.94zm-5.91 0c0,-2.37 -0.45,-4.61 -1.35,-6.72 -0.9,-2.11 -2.14,-3.96 -3.72,-5.53 -1.58,-1.58 -3.42,-2.82 -5.54,-3.72 -2.11,-0.9 -4.35,-1.35 -6.71,-1.35 -2.37,0 -4.61,0.45 -6.72,1.35 -2.11,0.9 -3.96,2.14 -5.53,3.72 -1.58,1.57 -2.82,3.42 -3.72,5.53 -0.9,2.11 -1.35,4.35 -1.35,6.72 0,2.36 0.45,4.6 1.35,6.72 0.9,2.11 2.14,3.95 3.72,5.53 1.57,1.58 3.42,2.82 5.53,3.72 2.11,0.9 4.35,1.35 6.72,1.35 2.36,0 4.6,-0.45 6.71,-1.35 2.12,-0.9 3.96,-2.14 5.54,-3.72 1.58,-1.58 2.82,-3.42 3.72,-5.53 0.9,-2.12 1.35,-4.36 1.35,-6.72z"/>
  <path id="14" class="fil2" d="M1577.5 433.48c0,3.49 0.68,6.82 2.03,9.94 1.35,3.13 3.19,5.88 5.53,8.21 2.34,2.34 5.07,4.2 8.2,5.55 3.12,1.35 6.43,2.03 9.93,2.03 3.49,0 6.78,-0.68 9.88,-2.03 3.1,-1.35 5.8,-3.18 8.11,-5.49 1.02,-1.01 1.95,-2.11 2.79,-3.3l7.01 0c-1.46,2.76 -3.29,5.24 -5.49,7.44 -2.87,2.87 -6.22,5.14 -10.05,6.8 -3.83,1.66 -7.92,2.49 -12.25,2.49 -4.34,0 -8.42,-0.83 -12.26,-2.49 -3.83,-1.66 -7.18,-3.93 -10.05,-6.8 -2.87,-2.87 -5.14,-6.22 -6.8,-10.05 -1.66,-3.83 -2.49,-7.92 -2.49,-12.26 0,-4.33 0.83,-8.42 2.49,-12.25 1.66,-3.83 3.93,-7.18 6.8,-10.05 2.87,-2.87 6.22,-5.14 10.05,-6.8 3.84,-1.66 7.92,-2.49 12.26,-2.49 4.33,0 8.42,0.83 12.25,2.49 3.83,1.66 7.18,3.93 10.05,6.8 2.2,2.2 4.03,4.67 5.49,7.43l-7.09 0c-0.79,-1.14 -1.69,-2.18 -2.71,-3.15 -2.31,-2.38 -5.01,-4.25 -8.11,-5.62 -3.1,-1.36 -6.39,-2.04 -9.88,-2.04 -3.5,0 -6.81,0.68 -9.93,2.03 -3.13,1.35 -5.86,3.21 -8.2,5.55 -2.34,2.33 -4.18,5.05 -5.53,8.16 -1.35,3.1 -2.03,6.41 -2.03,9.9z"/>
  <path id="15" class="fil2" d="M1635.97 441.89c0,-3.21 0.6,-6.22 1.82,-9.04 1.21,-2.82 2.87,-5.28 4.98,-7.39 2.11,-2.12 4.58,-3.78 7.39,-4.99 2.82,-1.21 5.83,-1.82 9.04,-1.82 3.21,0 6.23,0.61 9.04,1.82 2.82,1.21 5.28,2.87 7.4,4.99 2.11,2.11 3.77,4.57 4.98,7.39 1.21,2.82 1.82,5.83 1.82,9.04 0,3.21 -0.61,6.22 -1.82,9.04 -1.21,2.82 -2.87,5.28 -4.98,7.39 -2.12,2.11 -4.58,3.78 -7.4,4.99 -2.81,1.21 -5.83,1.81 -9.04,1.81 -3.21,0 -6.22,-0.6 -9.04,-1.81 -2.81,-1.21 -5.28,-2.88 -7.39,-4.99 -2.11,-2.11 -3.77,-4.57 -4.98,-7.39 -1.22,-2.82 -1.82,-5.83 -1.82,-9.04zm5.91 0c0,2.36 0.45,4.6 1.35,6.72 0.91,2.11 2.14,3.95 3.72,5.53 1.58,1.58 3.42,2.82 5.54,3.72 2.11,0.9 4.35,1.35 6.71,1.35 2.37,0 4.61,-0.45 6.72,-1.35 2.11,-0.9 3.96,-2.14 5.53,-3.72 1.58,-1.58 2.82,-3.42 3.72,-5.53 0.9,-2.12 1.35,-4.36 1.35,-6.72 0,-2.37 -0.45,-4.61 -1.35,-6.72 -0.9,-2.11 -2.14,-3.96 -3.72,-5.53 -1.57,-1.58 -3.42,-2.82 -5.53,-3.72 -2.11,-0.9 -4.35,-1.35 -6.72,-1.35 -2.36,0 -4.6,0.45 -6.71,1.35 -2.12,0.9 -3.96,2.14 -5.54,3.72 -1.58,1.57 -2.81,3.42 -3.72,5.53 -0.9,2.11 -1.35,4.35 -1.35,6.72z"/>
  <path id="16" class="fil2" d="M1688.1 420.85l6.08 0 0 3.8c1.35,-1.8 3.2,-3.25 5.54,-4.35 2.33,-1.1 4.77,-1.65 7.3,-1.65 3.33,0 6.33,0.81 9,2.41 2.68,1.61 4.89,3.73 6.63,6.38 1.69,-2.65 3.99,-4.77 6.89,-6.38 2.9,-1.6 6.04,-2.41 9.42,-2.41 2.59,0 5.04,0.51 7.35,1.52 2.31,1.02 4.33,2.39 6.04,4.1 1.72,1.72 3.07,3.75 4.06,6.09 0.98,2.33 1.48,4.8 1.48,7.39l0.08 25.35 -6.08 0 -0.09 -25.35c0,-1.8 -0.33,-3.49 -1.01,-5.07 -0.68,-1.58 -1.59,-2.96 -2.75,-4.14 -1.15,-1.18 -2.5,-2.11 -4.05,-2.79 -1.55,-0.67 -3.23,-1.01 -5.03,-1.01 -1.8,0 -3.48,0.34 -5.03,1.01 -1.55,0.68 -2.91,1.61 -4.09,2.79 -1.19,1.18 -2.12,2.56 -2.79,4.14 -0.68,1.58 -1.02,3.27 -1.02,5.07l0.09 25.35 -6.09 0 -0.08 -25.35c-0.11,-1.86 -0.52,-3.59 -1.22,-5.2 -0.71,-1.6 -1.64,-2.98 -2.79,-4.14 -1.16,-1.15 -2.49,-2.05 -4.02,-2.7 -1.52,-0.65 -3.15,-0.97 -4.9,-0.97 -1.74,0 -3.39,0.36 -4.94,1.1 -1.55,0.73 -2.91,1.7 -4.1,2.91 -1.18,1.21 -2.11,2.59 -2.78,4.14 -0.68,1.55 -1.02,3.17 -1.02,4.86l0.09 25.35 -6.09 0 -0.08 -42.25z"/>
  <path id="17" class="fil2" d="M1764.48 420.85l6.08 0 0 3.8c1.35,-1.8 3.2,-3.25 5.53,-4.35 2.34,-1.1 4.78,-1.65 7.31,-1.65 3.33,0 6.33,0.81 9,2.41 2.68,1.61 4.89,3.73 6.63,6.38 1.69,-2.65 3.99,-4.77 6.89,-6.38 2.9,-1.6 6.04,-2.41 9.42,-2.41 2.59,0 5.04,0.51 7.35,1.52 2.31,1.02 4.32,2.39 6.04,4.1 1.72,1.72 3.07,3.75 4.06,6.09 0.98,2.33 1.48,4.8 1.48,7.39l0.08 25.35 -6.08 0 -0.09 -25.35c0,-1.8 -0.34,-3.49 -1.01,-5.07 -0.68,-1.58 -1.59,-2.96 -2.75,-4.14 -1.15,-1.18 -2.5,-2.11 -4.05,-2.79 -1.55,-0.67 -3.23,-1.01 -5.03,-1.01 -1.8,0 -3.48,0.34 -5.03,1.01 -1.55,0.68 -2.91,1.61 -4.09,2.79 -1.19,1.18 -2.12,2.56 -2.79,4.14 -0.68,1.58 -1.02,3.27 -1.02,5.07l0.09 25.35 -6.09 0 -0.08 -25.35c-0.11,-1.86 -0.52,-3.59 -1.23,-5.2 -0.7,-1.6 -1.63,-2.98 -2.78,-4.14 -1.16,-1.15 -2.5,-2.05 -4.02,-2.7 -1.52,-0.65 -3.15,-0.97 -4.9,-0.97 -1.74,0 -3.39,0.36 -4.94,1.1 -1.55,0.73 -2.91,1.7 -4.1,2.91 -1.18,1.21 -2.11,2.59 -2.79,4.14 -0.67,1.55 -1.01,3.17 -1.01,4.86l0.08 25.35 -6.08 0 -0.08 -42.25z"/>
  <path id="18" class="fil2" d="M1869.58 444.09l0 -23.24 5.92 0 0 23.24c0,2.59 -0.5,5.04 -1.48,7.35 -0.99,2.31 -2.34,4.32 -4.06,6.04 -1.72,1.72 -3.73,3.08 -6.04,4.09 -2.31,1.02 -4.76,1.53 -7.35,1.53 -2.59,0 -5.04,-0.51 -7.35,-1.53 -2.31,-1.01 -4.32,-2.37 -6.04,-4.09 -1.72,-1.72 -3.08,-3.73 -4.1,-6.04 -1.01,-2.31 -1.52,-4.76 -1.52,-7.35l0 -0.09 -0.08 -23.15 6.08 0 0.08 23.15 0 0.09c0,1.8 0.34,3.49 1.02,5.06 0.67,1.58 1.6,2.95 2.79,4.1 1.18,1.16 2.55,2.07 4.09,2.75 1.55,0.68 3.23,1.01 5.03,1.01 1.8,0 3.49,-0.33 5.07,-1.01 1.58,-0.68 2.96,-1.59 4.14,-2.75 1.18,-1.15 2.11,-2.52 2.79,-4.1 0.67,-1.57 1.01,-3.26 1.01,-5.06z"/>
  <path id="19" class="fil2" d="M1913.52 437.75c0,-1.8 -0.34,-3.49 -1.02,-5.07 -0.67,-1.58 -1.6,-2.96 -2.79,-4.14 -1.18,-1.18 -2.56,-2.11 -4.13,-2.79 -1.58,-0.67 -3.24,-1.01 -4.99,-1.01 -1.75,0 -3.41,0.36 -4.98,1.1 -1.58,0.73 -2.96,1.7 -4.14,2.91 -1.19,1.21 -2.13,2.61 -2.83,4.18 -0.71,1.58 -1.06,3.19 -1.06,4.82l0.08 25.35 -6 0 0 -42.25 5.92 0 0 3.89c0.56,-0.9 1.32,-1.73 2.28,-2.49 0.96,-0.76 2.01,-1.41 3.17,-1.95 1.15,-0.53 2.38,-0.94 3.67,-1.22 1.3,-0.29 2.59,-0.43 3.89,-0.43 2.59,0 5.04,0.51 7.35,1.52 2.31,1.02 4.32,2.39 6.04,4.1 1.72,1.72 3.09,3.75 4.1,6.09 1.01,2.33 1.52,4.8 1.52,7.39l0.08 25.35 -6.08 0 -0.08 -25.35z"/>
  <path id="20" class="fil2" d="M1925.26 420.85l5.92 0 0 42.25 -5.92 0 0 -42.25zm-0.51 -13.35c0,-1.01 0.34,-1.86 1.02,-2.53 0.67,-0.68 1.52,-1.02 2.53,-1.02 1.02,0 1.86,0.34 2.54,1.02 0.67,0.67 1.01,1.52 1.01,2.53 0,1.02 -0.34,1.86 -1.01,2.54 -0.68,0.67 -1.52,1.01 -2.54,1.01 -1.01,0 -1.86,-0.34 -2.53,-1.01 -0.68,-0.68 -1.02,-1.52 -1.02,-2.54z"/>
  <path id="21" class="fil2" d="M1942.07 441.89c0,2.36 0.46,4.6 1.36,6.72 0.9,2.11 2.14,3.95 3.71,5.53 1.58,1.58 3.43,2.82 5.54,3.72 2.11,0.9 4.35,1.35 6.72,1.35 2.36,0 4.6,-0.45 6.71,-1.35 2.11,-0.9 3.96,-2.14 5.54,-3.72 1.12,-1.13 2.08,-2.42 2.87,-3.89l6.5 0 -0.25 0.68c-1.18,2.82 -2.83,5.28 -4.94,7.39 -2.11,2.11 -4.58,3.78 -7.39,4.99 -2.82,1.21 -5.83,1.81 -9.04,1.81 -3.22,0 -6.23,-0.6 -9.05,-1.81 -2.81,-1.21 -5.28,-2.88 -7.39,-4.99 -2.11,-2.11 -3.77,-4.57 -4.98,-7.39 -1.21,-2.82 -1.82,-5.83 -1.82,-9.04 0,-3.21 0.61,-6.22 1.82,-9.04 1.21,-2.82 2.87,-5.28 4.98,-7.39 2.11,-2.12 4.58,-3.78 7.39,-4.99 2.82,-1.21 5.83,-1.82 9.05,-1.82 3.21,0 6.22,0.61 9.04,1.82 2.81,1.21 5.28,2.87 7.39,4.99 2.11,2.11 3.76,4.57 4.94,7.39l0.25 0.59 -6.59 0c-0.73,-1.41 -1.66,-2.68 -2.78,-3.8 -1.58,-1.58 -3.43,-2.82 -5.54,-3.72 -2.11,-0.9 -4.35,-1.35 -6.71,-1.35 -2.37,0 -4.61,0.45 -6.72,1.35 -2.11,0.9 -3.96,2.14 -5.54,3.72 -1.57,1.57 -2.81,3.42 -3.71,5.53 -0.9,2.11 -1.36,4.35 -1.36,6.72z"/>
  <path id="22" class="fil2" d="M1985.08 441.89c0,-3.21 0.61,-6.22 1.82,-9.04 1.21,-2.82 2.87,-5.28 4.98,-7.39 2.11,-2.12 4.58,-3.78 7.39,-4.99 2.82,-1.21 5.83,-1.82 9.04,-1.82 3.22,0 6.23,0.61 9.04,1.82 2.82,1.21 5.28,2.87 7.4,4.99 2.11,2.11 3.77,4.57 4.98,7.39 1.21,2.82 1.82,5.83 1.82,9.04l0 21.21 -5.92 0 0 -5.66c-0.28,0.28 -0.59,0.59 -0.93,0.92 -2.08,2.09 -4.53,3.74 -7.35,4.95 -2.81,1.21 -5.82,1.81 -9.04,1.81 -3.21,0 -6.22,-0.6 -9.04,-1.81 -2.81,-1.21 -5.28,-2.88 -7.39,-4.99 -2.11,-2.11 -3.77,-4.57 -4.98,-7.39 -1.21,-2.82 -1.82,-5.83 -1.82,-9.04zm5.91 0c0,2.36 0.45,4.6 1.36,6.72 0.9,2.11 2.14,3.95 3.71,5.53 1.58,1.58 3.42,2.82 5.54,3.72 2.11,0.9 4.35,1.35 6.71,1.35 2.37,0 4.61,-0.45 6.72,-1.35 2.11,-0.9 3.96,-2.14 5.54,-3.72 1.57,-1.58 2.81,-3.41 3.71,-5.49 0.79,-1.92 1.24,-3.92 1.35,-6l0 -0.76c0,-2.37 -0.45,-4.61 -1.35,-6.72 -0.9,-2.11 -2.14,-3.96 -3.71,-5.53 -1.58,-1.58 -3.43,-2.82 -5.54,-3.72 -2.11,-0.9 -4.35,-1.35 -6.72,-1.35 -2.36,0 -4.6,0.45 -6.71,1.35 -2.12,0.9 -3.96,2.14 -5.54,3.72 -1.57,1.57 -2.81,3.42 -3.71,5.53 -0.91,2.11 -1.36,4.35 -1.36,6.72z"/>
  <polygon id="23" class="fil2" points="2033.83,426.77 2033.83,420.85 2038.14,420.85 2038.14,403.95 2044.05,403.95 2044.05,420.85 2055.12,420.85 2055.12,426.77 2044.05,426.77 2044.05,463.1 2038.14,463.1 2038.14,426.77 "/>
  <path id="24" class="fil2" d="M2060.27 420.85l5.92 0 0 42.25 -5.92 0 0 -42.25zm-0.5 -13.35c0,-1.01 0.34,-1.86 1.01,-2.53 0.68,-0.68 1.52,-1.02 2.54,-1.02 1.01,0 1.85,0.34 2.53,1.02 0.68,0.67 1.01,1.52 1.01,2.53 0,1.02 -0.33,1.86 -1.01,2.54 -0.68,0.67 -1.52,1.01 -2.53,1.01 -1.02,0 -1.86,-0.34 -2.54,-1.01 -0.67,-0.68 -1.01,-1.52 -1.01,-2.54z"/>
  <path id="25" class="fil2" d="M2071.17 441.89c0,-3.21 0.61,-6.22 1.82,-9.04 1.21,-2.82 2.87,-5.28 4.99,-7.39 2.11,-2.12 4.57,-3.78 7.39,-4.99 2.81,-1.21 5.83,-1.82 9.04,-1.82 3.21,0 6.22,0.61 9.04,1.82 2.81,1.21 5.28,2.87 7.39,4.99 2.11,2.11 3.78,4.57 4.99,7.39 1.21,2.82 1.81,5.83 1.81,9.04 0,3.21 -0.6,6.22 -1.81,9.04 -1.21,2.82 -2.88,5.28 -4.99,7.39 -2.11,2.11 -4.58,3.78 -7.39,4.99 -2.82,1.21 -5.83,1.81 -9.04,1.81 -3.21,0 -6.23,-0.6 -9.04,-1.81 -2.82,-1.21 -5.28,-2.88 -7.39,-4.99 -2.12,-2.11 -3.78,-4.57 -4.99,-7.39 -1.21,-2.82 -1.82,-5.83 -1.82,-9.04zm5.92 0c0,2.36 0.45,4.6 1.35,6.72 0.9,2.11 2.14,3.95 3.72,5.53 1.58,1.58 3.42,2.82 5.53,3.72 2.11,0.9 4.35,1.35 6.72,1.35 2.36,0 4.6,-0.45 6.72,-1.35 2.11,-0.9 3.95,-2.14 5.53,-3.72 1.58,-1.58 2.82,-3.42 3.72,-5.53 0.9,-2.12 1.35,-4.36 1.35,-6.72 0,-2.37 -0.45,-4.61 -1.35,-6.72 -0.9,-2.11 -2.14,-3.96 -3.72,-5.53 -1.58,-1.58 -3.42,-2.82 -5.53,-3.72 -2.12,-0.9 -4.36,-1.35 -6.72,-1.35 -2.37,0 -4.61,0.45 -6.72,1.35 -2.11,0.9 -3.95,2.14 -5.53,3.72 -1.58,1.57 -2.82,3.42 -3.72,5.53 -0.9,2.11 -1.35,4.35 -1.35,6.72z"/>
  <path id="26" class="fil2" d="M2155.07 437.75c0,-1.8 -0.34,-3.49 -1.01,-5.07 -0.68,-1.58 -1.61,-2.96 -2.79,-4.14 -1.18,-1.18 -2.56,-2.11 -4.14,-2.79 -1.58,-0.67 -3.24,-1.01 -4.98,-1.01 -1.75,0 -3.41,0.36 -4.99,1.1 -1.58,0.73 -2.96,1.7 -4.14,2.91 -1.18,1.21 -2.13,2.61 -2.83,4.18 -0.7,1.58 -1.06,3.19 -1.06,4.82l0.09 25.35 -6 0 0 -42.25 5.91 0 0 3.89c0.57,-0.9 1.33,-1.73 2.28,-2.49 0.96,-0.76 2.02,-1.41 3.17,-1.95 1.16,-0.53 2.38,-0.94 3.68,-1.22 1.29,-0.29 2.59,-0.43 3.89,-0.43 2.59,0 5.04,0.51 7.35,1.52 2.31,1.02 4.32,2.39 6.04,4.1 1.71,1.72 3.08,3.75 4.09,6.09 1.02,2.33 1.53,4.8 1.53,7.39l0.08 25.35 -6.08 0 -0.09 -25.35z"/>
  <path id="27" class="fil2" d="M2190.81 452.46c0.06,-1.91 -0.29,-3.4 -1.05,-4.46 -0.77,-1.07 -1.88,-1.94 -3.34,-2.62 -1.47,-0.67 -3.3,-1.29 -5.49,-1.86 -2.2,-0.56 -4.23,-1.24 -6.09,-2.01 -1.86,-0.79 -3.46,-1.97 -4.81,-3.55 -1.36,-1.58 -2.17,-3.53 -2.45,-5.9 -0.23,-1.86 0.02,-3.56 0.76,-5.14 0.73,-1.58 1.76,-2.97 3.08,-4.18 1.32,-1.2 2.92,-2.18 4.77,-2.94 1.86,-0.77 3.78,-1.15 5.75,-1.15 2.25,0 4.21,0.37 5.87,1.1 1.66,0.73 3.06,1.68 4.18,2.83 1.13,1.16 2.02,2.33 2.66,3.51 0.65,1.18 1.03,2.2 1.15,3.04l-6.34 0c-0.51,-1.63 -1.47,-2.89 -2.87,-3.76 -1.41,-0.87 -2.96,-1.31 -4.65,-1.31 -1.13,0 -2.34,0.23 -3.63,0.68 -1.3,0.45 -2.5,1.35 -3.59,2.7 -1.1,1.35 -1.51,2.79 -1.23,4.31 0.28,1.35 0.94,2.39 1.99,3.13 1.04,0.73 2.42,1.41 4.14,2.02 1.71,0.62 3.62,1.27 5.7,1.95 2.08,0.67 4.04,1.59 5.87,2.74 1.83,1.16 3.25,2.61 4.27,4.35 1.01,1.75 1.52,3.95 1.52,6.59 0,1.98 -0.41,3.75 -1.23,5.33 -0.81,1.57 -1.91,2.9 -3.29,3.97 -1.38,1.07 -2.99,1.89 -4.82,2.45 -1.83,0.56 -3.73,0.84 -5.7,0.84 -1.97,0 -3.92,-0.35 -5.83,-1.05 -1.92,-0.71 -3.61,-1.69 -5.07,-2.96 -1.46,-1.27 -2.63,-2.79 -3.51,-4.56 -0.87,-1.78 -1.28,-3.87 -1.22,-6.3l5.91 0c0,1.45 0.3,2.81 0.89,4.06 0.59,1.25 1.68,2.41 3.23,3.44 1.56,1.02 3.54,1.52 5.98,1.46 2.77,0 4.86,-0.66 6.24,-1.99 1.39,-1.32 2.14,-2.9 2.25,-4.76z"/>
  <g id="_2094566186800">
   <path class="fil0" d="M2451.85 203.32l-0.97 -0.96c-1.08,-1.07 -11.45,-0.53 -13.49,-0.51l-13.48 0.21c-0.99,-4.87 1.12,-25.21 -1.38,-27.68 -1.57,-1.55 -3.75,-1.53 -5.3,0.04 -1.81,1.83 -0.99,13.83 -0.97,16.86 0.02,2.92 0.04,5.5 0.05,8.42 0.07,10.51 -0.07,9.51 11.02,9.44l19.26 -0.13c1.23,-0.01 5.47,0.43 5.86,-3.29 0.05,-0.49 -0.2,-2 -0.6,-2.4z"/>
   <path class="fil0" d="M2434.95 195.73l31.32 -31.75c3.71,-3.76 -1,-9.65 -6.05,-4.54l-29.65 30.06c-5.12,5.18 1.16,9.49 4.38,6.23z"/>
  </g>
  <g id="_2094566185424">
   <path class="fil0" d="M2330.62 173.4l-0.96 0.97c-1.07,1.08 -0.52,11.45 -0.51,13.49l0.21 13.48c-4.87,0.99 -25.21,-1.12 -27.68,1.39 -1.54,1.56 -1.53,3.75 0.04,5.29 1.83,1.81 13.83,0.99 16.86,0.97 2.92,-0.02 5.5,-0.03 8.42,-0.05 10.51,-0.07 9.51,0.07 9.44,-11.02l-0.13 -19.26c-0.01,-1.23 0.43,-5.47 -3.28,-5.86 -0.5,-0.05 -2.01,0.2 -2.41,0.6z"/>
   <path class="fil0" d="M2323.03 190.31l-31.75 -31.33c-3.76,-3.71 -9.65,1 -4.53,6.05l30.05 29.65c5.18,5.12 9.49,-1.16 6.23,-4.37z"/>
  </g>
  <g id="_2094566188048">
   <path class="fil0" d="M2422.11 320.45l0.95 -0.97c1.07,-1.08 0.53,-11.45 0.52,-13.49l-0.21 -13.48c4.86,-0.99 25.2,1.12 27.67,-1.39 1.55,-1.56 1.54,-3.75 -0.03,-5.29 -1.84,-1.81 -13.83,-0.99 -16.86,-0.97 -2.93,0.02 -5.5,0.03 -8.43,0.05 -10.5,0.07 -9.51,-0.07 -9.43,11.02l0.13 19.26c0,1.23 -0.44,5.47 3.28,5.86 0.5,0.05 2.01,-0.2 2.41,-0.6z"/>
   <path class="fil0" d="M2429.7 303.54l31.75 31.33c3.75,3.71 9.65,-1 4.53,-6.05l-30.05 -29.65c-5.19,-5.12 -9.49,1.16 -6.23,4.37z"/>
  </g>
  <g id="_2094566196176">
   <path class="fil0" d="M2301.65 290.53l0.97 0.96c1.08,1.07 11.45,0.53 13.48,0.51l13.48 -0.21c1,4.87 -1.11,25.21 1.39,27.68 1.57,1.55 3.75,1.53 5.3,-0.04 1.81,-1.83 0.99,-13.82 0.97,-16.86 -0.02,-2.92 -0.04,-5.49 -0.06,-8.42 -0.07,-10.51 0.08,-9.51 -11.01,-9.44l-19.26 0.13c-1.23,0.01 -5.48,-0.43 -5.86,3.29 -0.06,0.49 0.19,2.01 0.6,2.4z"/>
   <path class="fil0" d="M2318.55 298.13l-31.33 31.74c-3.7,3.76 1,9.65 6.05,4.54l29.66 -30.05c5.11,-5.19 -1.16,-9.49 -4.38,-6.23z"/>
  </g>
 </g>
</svg>
