<?xml version="1.0" encoding="UTF-8"?>
<!DOCTYPE svg PUBLIC "-//W3C//DTD SVG 1.1//EN" "http://www.w3.org/Graphics/SVG/1.1/DTD/svg11.dtd">
<!-- Creator: CorelDRAW X7 -->
<svg xmlns="http://www.w3.org/2000/svg" xml:space="preserve" width="13.5994mm" height="9.6683mm" version="1.1" style="shape-rendering:geometricPrecision; text-rendering:geometricPrecision; image-rendering:optimizeQuality; fill-rule:evenodd; clip-rule:evenodd"
viewBox="0 0 415 295"
 xmlns:xlink="http://www.w3.org/1999/xlink">
 <defs>
  <style type="text/css">
   <![CDATA[
    .fil0 {fill:#9D9E9E}
   ]]>
  </style>
 </defs>
 <g id="Capa_x0020_1">
  <metadata id="CorelCorpID_0Corel-Layer"/>
  <path class="fil0" d="M72 220c0,3 0,7 6,8 6,1 13,-8 17,-13l44 -40c4,-3 7,-8 11,-11 4,-3 8,-8 11,-10 18,16 35,36 61,25 7,-3 21,-15 27,-20 1,-2 3,-3 5,-5 3,3 6,7 11,10l65 61c2,2 4,3 7,3 6,-1 6,-5 6,-8 0,-3 -16,-18 -19,-20l-49 -47c-4,-2 -9,-5 -10,-10 3,0 29,-24 34,-28 1,-1 2,-2 4,-4l8 -7c2,-2 3,-2 5,-4l37 -33c2,-1 3,-2 5,-4l42 -36c0,3 1,3 1,7l0 227c0,12 -9,20 -19,20l-349 0c-10,0 -19,-8 -19,-20l0 -227c0,-4 1,-4 1,-7l50 43c2,2 2,2 4,4l9 7c1,2 2,2 4,4 3,3 5,4 8,7l9 8c2,1 2,2 4,3 2,2 2,2 4,4l34 29c2,2 7,7 9,7 -1,5 -6,7 -9,10 -4,3 -6,7 -10,10 -2,2 -3,2 -5,4 -2,2 -3,3 -5,5l-40 37c-2,3 -9,7 -9,11zm-47 -205c3,0 5,-1 9,-1l347 0c4,0 6,1 9,1 -3,5 -21,19 -27,25l-72 63c-13,12 -37,31 -50,43l-11 10c-3,2 -3,3 -6,5 -10,8 -22,8 -33,0 -2,-2 -3,-3 -5,-5l-28 -24c-2,-2 -3,-3 -5,-5l-56 -48c-15,-14 -41,-34 -55,-48 -4,-4 -15,-12 -17,-16zm-25 14l0 237c0,13 16,29 29,29l357 0c13,0 29,-16 29,-29l0 -237c0,-7 -6,-16 -9,-20 -4,-3 -13,-9 -20,-9l-357 0c-13,0 -29,16 -29,29z"/>
 </g>
</svg>
