<?xml version="1.0" encoding="UTF-8"?>
<!DOCTYPE svg PUBLIC "-//W3C//DTD SVG 1.1//EN" "http://www.w3.org/Graphics/SVG/1.1/DTD/svg11.dtd">
<!-- Creator: CorelDRAW 2017 -->
<svg xmlns="http://www.w3.org/2000/svg" xml:space="preserve" width="107px" height="108px" version="1.1" style="shape-rendering:geometricPrecision; text-rendering:geometricPrecision; image-rendering:optimizeQuality; fill-rule:evenodd; clip-rule:evenodd"
viewBox="0 0 4.27 4.3"
 xmlns:xlink="http://www.w3.org/1999/xlink">
 <defs>
  <style type="text/css">
   <![CDATA[
    .fil1 {fill:#FEFEFE}
    .fil0 {fill:#834E98}
   ]]>
  </style>
 </defs>
 <g id="Capa_x0020_1">
  <metadata id="CorelCorpID_0Corel-Layer"/>
  <ellipse class="fil0" cx="2.13" cy="2.15" rx="2.13" ry="2.15"/>
  <path class="fil1" d="M1.26 1.99c0,0.05 -0.01,0.16 0.01,0.19 0.01,0.02 0.02,0.02 0.02,0.03 0,0.02 0,0.08 0,0.1 -0.02,0.01 -0.11,0.07 -0.14,0.08 -0.07,0.06 -0.09,0.08 -0.09,0.13l0 0.1c0,0.05 0.08,0.07 0.08,-0.01 0,-0.11 -0.02,-0.09 0.04,-0.13 0.09,-0.07 0.09,-0.06 0.16,-0.1 0.05,-0.03 0.03,-0.09 0.03,-0.17 0,-0.02 0,-0.03 -0.01,-0.04 0,-0.01 0,-0.01 0,-0.01 -0.01,-0.01 -0.02,-0.01 -0.02,-0.03l0 -0.13c0,-0.08 0.07,-0.1 0.14,-0.09 0.03,0.01 0.07,0.04 0.07,0.08l0 0.15c0,0.02 -0.03,0.02 -0.03,0.05l0 0.15c0,0.03 0.05,0.04 0.1,0.07l0.1 0.08c0.03,0.01 0.03,0.01 0.03,0.05 0,0.03 -0.01,0.14 0.05,0.12 0.05,-0.01 0.04,-0.07 0.04,-0.12 0,-0.03 -0.01,-0.06 -0.03,-0.09 -0.03,-0.03 -0.17,-0.13 -0.21,-0.14 0,-0.02 0,-0.07 0,-0.09 0.01,-0.02 0.03,-0.03 0.03,-0.07l0 -0.18c0,-0.05 -0.05,-0.11 -0.11,-0.13 -0.12,-0.05 -0.26,0.02 -0.26,0.15z"/>
  <path class="fil1" d="M2.67 1.95c0,0.04 0,0.17 0.01,0.21 0.01,0.01 0.02,0.02 0.02,0.03 0,0.01 0,0.08 0,0.1 -0.03,0 -0.12,0.06 -0.14,0.08 -0.03,0.02 -0.05,0.03 -0.07,0.06 -0.03,0.03 -0.02,0.09 -0.02,0.14 0,0.04 0.01,0.06 0.04,0.06 0.05,0 0.04,-0.06 0.04,-0.11 0,-0.05 -0.01,-0.04 0.06,-0.09 0.03,-0.02 0.1,-0.06 0.14,-0.08 0.01,-0.01 0.03,-0.02 0.03,-0.04l0 -0.15c0,-0.03 -0.03,-0.02 -0.03,-0.05l0 -0.15c0,-0.11 0.21,-0.12 0.21,0.01l0 0.14c0,0.03 -0.03,0.02 -0.03,0.06 0,0.06 -0.01,0.15 0.02,0.17 0.03,0.02 0.09,0.05 0.15,0.09 0.04,0.03 0.07,0.04 0.07,0.08 0,0.07 -0.02,0.12 0.04,0.12 0.01,0 0.02,0 0.02,-0.01 0.01,0 0.01,-0.01 0.02,-0.03l0 -0.1c0,-0.06 -0.06,-0.09 -0.1,-0.12 -0.02,-0.02 -0.11,-0.08 -0.13,-0.08 0,-0.03 -0.01,-0.09 0,-0.1 0,-0.02 0.02,-0.03 0.02,-0.08l0 -0.14c0,-0.15 -0.16,-0.2 -0.26,-0.16 -0.03,0.01 -0.03,0.01 -0.05,0.03 -0.02,0.02 -0.06,0.07 -0.06,0.11z"/>
  <path class="fil1" d="M1.97 1.98l0 0.16c0,0.03 0.03,0.06 0.03,0.07 0,0.14 0.03,0.05 -0.16,0.2 -0.09,0.06 -0.07,0.07 -0.07,0.21 0,0.04 0.08,0.06 0.08,-0.02 0,-0.11 -0.01,-0.09 0.04,-0.13l0.06 -0.04c0.02,-0.01 0.03,-0.02 0.05,-0.03 0.1,-0.06 0.08,-0.03 0.08,-0.19 0,-0.06 -0.03,-0.05 -0.03,-0.08l0 -0.14c0,-0.05 0.04,-0.09 0.08,-0.09l0.05 0c0.04,0 0.08,0.04 0.08,0.09l0 0.14c0,0.03 -0.03,0.02 -0.03,0.05l0 0.15c0,0.02 0.02,0.03 0.04,0.04 0.09,0.05 0.09,0.06 0.18,0.12 0.03,0.03 0,0.07 0.02,0.13 0.01,0.05 0.08,0.06 0.08,-0.03 0,-0.13 -0.01,-0.13 -0.09,-0.19 -0.04,-0.03 -0.07,-0.05 -0.11,-0.08 -0.04,-0.02 -0.04,0.01 -0.04,-0.11 0,-0.01 0.03,-0.03 0.03,-0.07l0 -0.17c0,-0.04 -0.03,-0.08 -0.06,-0.11 -0.06,-0.06 -0.19,-0.06 -0.25,0 -0.03,0.03 -0.06,0.07 -0.06,0.12z"/>
  <path class="fil1" d="M2.57 1.61c0.04,0 0.05,-0.03 0.08,-0.05 0.17,-0.17 0.41,-0.22 0.65,-0.15 0.41,0.14 0.57,0.7 0.23,1.03 -0.1,0.11 -0.26,0.19 -0.42,0.19l-1.9 0c-0.5,0 -0.74,-0.65 -0.29,-0.97 0.2,-0.14 0.33,-0.04 0.37,-0.13 0.04,-0.11 0.04,-0.16 0.13,-0.28 0.06,-0.09 0.11,-0.15 0.2,-0.22 0.35,-0.24 0.74,-0.22 1.08,0.03 0.04,0.03 0.11,0.11 0.14,0.15 0.02,0.02 0.05,0.06 0.06,0.09 -0.14,0.03 -0.25,0.11 -0.35,0.2 -0.05,0.06 -0.02,0.11 0.02,0.11zm-1.99 0.46l0 0.01c0,0.12 0.01,0.2 0.07,0.32 0.13,0.24 0.36,0.34 0.63,0.34l1.72 0c0.23,0 0.41,-0.04 0.57,-0.19l0.07 -0.07c0.1,-0.11 0.18,-0.27 0.18,-0.44l0 0c0,-0.18 -0.01,-0.2 -0.08,-0.36 -0.03,-0.08 -0.09,-0.14 -0.15,-0.2 -0.13,-0.14 -0.3,-0.21 -0.54,-0.21 -0.02,0 -0.02,0.01 -0.04,0.01 -0.19,-0.37 -0.62,-0.59 -1.05,-0.5 -0.16,0.03 -0.26,0.07 -0.38,0.15 -0.05,0.04 -0.1,0.08 -0.14,0.12 -0.02,0.02 -0.02,0.02 -0.03,0.04 -0.04,0.04 -0.05,0.04 -0.09,0.11 -0.04,0.06 -0.07,0.11 -0.09,0.18l-0.03 0.07c0,0.02 0.01,0.01 -0.01,0.02 -0.06,0.02 -0.36,-0.01 -0.56,0.38 -0.02,0.05 -0.05,0.14 -0.05,0.22z"/>
 </g>
</svg>
