<?xml version="1.0" encoding="UTF-8"?>
<!DOCTYPE svg PUBLIC "-//W3C//DTD SVG 1.1//EN" "http://www.w3.org/Graphics/SVG/1.1/DTD/svg11.dtd">
<!-- Creator: CorelDRAW 2017 -->
<svg xmlns="http://www.w3.org/2000/svg" xml:space="preserve" width="97px" height="64px" version="1.1" style="shape-rendering:geometricPrecision; text-rendering:geometricPrecision; image-rendering:optimizeQuality; fill-rule:evenodd; clip-rule:evenodd"
viewBox="0 0 2.85 1.86"
 xmlns:xlink="http://www.w3.org/1999/xlink">
 <defs>
  <style type="text/css">
   <![CDATA[
    .fil0 {fill:#2B2A29}
   ]]>
  </style>
 </defs>
 <g id="Capa_x0020_1">
  <metadata id="CorelCorpID_0Corel-Layer"/>
  <path class="fil0" d="M0.64 1.16c0,0.04 -0.01,0.14 0.01,0.18 0,0.01 0.01,0.02 0.01,0.03 0,0.01 0,0.07 0,0.09 -0.02,0 -0.1,0.06 -0.12,0.08 -0.07,0.04 -0.09,0.06 -0.09,0.11l0 0.1c0,0.04 0.07,0.06 0.07,-0.01 0,-0.11 -0.01,-0.09 0.04,-0.13 0.08,-0.06 0.09,-0.05 0.15,-0.09 0.04,-0.03 0.03,-0.08 0.03,-0.16 0,-0.02 0,-0.03 -0.01,-0.04 0,0 0,0 0,0 -0.01,-0.01 -0.02,-0.01 -0.02,-0.03l0 -0.12c0,-0.08 0.07,-0.1 0.14,-0.09 0.02,0.01 0.06,0.04 0.06,0.08l0 0.14c0,0.02 -0.03,0.02 -0.03,0.04l0 0.14c0,0.03 0.05,0.05 0.09,0.07l0.1 0.07c0.02,0.02 0.03,0.02 0.03,0.05 0,0.03 -0.02,0.13 0.05,0.12 0.04,-0.01 0.03,-0.07 0.03,-0.11 0,-0.04 -0.01,-0.07 -0.03,-0.09 -0.03,-0.03 -0.16,-0.12 -0.19,-0.13 0,-0.03 0,-0.06 0,-0.09 0,-0.02 0.02,-0.03 0.02,-0.06l0 -0.17c0,-0.05 -0.04,-0.11 -0.1,-0.13 -0.11,-0.04 -0.24,0.03 -0.24,0.15z"/>
  <path class="fil0" d="M1.96 1.12c0,0.04 0,0.16 0.01,0.19 0,0.01 0.01,0.02 0.01,0.03 0.01,0.01 0.01,0.08 0.01,0.09 -0.03,0.01 -0.12,0.07 -0.14,0.09 -0.02,0.01 -0.04,0.02 -0.06,0.04 -0.03,0.04 -0.02,0.1 -0.02,0.14 0,0.04 0.01,0.06 0.04,0.06 0.04,0 0.04,-0.06 0.04,-0.1 0,-0.05 -0.01,-0.04 0.05,-0.09 0.03,-0.02 0.1,-0.06 0.13,-0.07 0.01,-0.01 0.03,-0.02 0.03,-0.04l0 -0.14c0,-0.03 -0.02,-0.03 -0.02,-0.05l0 -0.14c0,-0.1 0.19,-0.11 0.19,0.01l0 0.12c0,0.03 -0.03,0.03 -0.03,0.07 0,0.05 -0.01,0.14 0.02,0.16 0.03,0.02 0.08,0.04 0.14,0.08 0.04,0.03 0.06,0.03 0.06,0.07 0,0.07 -0.01,0.12 0.05,0.12 0.01,0 0.01,0 0.02,-0.01 0,-0.01 0.01,-0.02 0.01,-0.03l0 -0.1c0,-0.05 -0.05,-0.08 -0.09,-0.11 -0.02,-0.01 -0.11,-0.07 -0.13,-0.08 0,-0.02 0,-0.07 0,-0.09 0,-0.02 0.03,-0.03 0.03,-0.07l0 -0.14c0,-0.13 -0.15,-0.18 -0.25,-0.14 -0.02,0.01 -0.03,0.01 -0.05,0.03 -0.02,0.01 -0.05,0.06 -0.05,0.1z"/>
  <path class="fil0" d="M1.3 1.15l0 0.15c0,0.03 0.03,0.05 0.03,0.06 0,0.14 0.03,0.05 -0.15,0.19 -0.08,0.06 -0.07,0.07 -0.07,0.19 0,0.04 0.08,0.07 0.08,-0.01 0,-0.11 -0.01,-0.08 0.04,-0.13l0.05 -0.03c0.02,-0.01 0.03,-0.02 0.05,-0.03 0.09,-0.05 0.08,-0.03 0.08,-0.18 0,-0.05 -0.03,-0.05 -0.03,-0.07l0 -0.14c0,-0.04 0.04,-0.08 0.07,-0.08l0.05 0c0.04,0 0.07,0.04 0.07,0.09l0 0.13c0,0.02 -0.02,0.02 -0.02,0.05l0 0.14c0,0.02 0.02,0.03 0.03,0.04 0.08,0.04 0.09,0.05 0.17,0.1 0.03,0.03 0,0.07 0.02,0.13 0.01,0.04 0.07,0.05 0.07,-0.03 0,-0.12 0,-0.12 -0.08,-0.18 -0.03,-0.03 -0.06,-0.05 -0.1,-0.07 -0.04,-0.02 -0.04,0 -0.04,-0.11 0,-0.01 0.03,-0.03 0.03,-0.07l0 -0.15c0,-0.04 -0.03,-0.08 -0.05,-0.1 -0.06,-0.06 -0.18,-0.06 -0.24,0 -0.03,0.02 -0.06,0.06 -0.06,0.11z"/>
  <path class="fil0" d="M1.75 0.8c0.04,0 0.05,-0.02 0.07,-0.05 0.15,-0.16 0.37,-0.21 0.57,-0.13 0.37,0.13 0.51,0.65 0.21,0.96 -0.09,0.1 -0.23,0.18 -0.37,0.18l-1.68 0c-0.43,0 -0.65,-0.62 -0.26,-0.91 0.19,-0.14 0.3,-0.04 0.33,-0.12 0.04,-0.1 0.04,-0.15 0.11,-0.27 0.06,-0.08 0.11,-0.14 0.19,-0.2 0.3,-0.23 0.65,-0.21 0.94,0.02 0.04,0.03 0.11,0.11 0.13,0.14 0.02,0.02 0.05,0.06 0.05,0.09 -0.12,0.03 -0.22,0.1 -0.3,0.19 -0.05,0.05 -0.03,0.1 0.01,0.1zm-1.75 0.43l0 0.01c0,0.12 0.01,0.19 0.06,0.3 0.11,0.23 0.32,0.32 0.56,0.32l1.51 0c0.2,0 0.36,-0.04 0.5,-0.17l0.06 -0.07c0.09,-0.11 0.16,-0.26 0.16,-0.41l0 -0.01c0,-0.16 -0.01,-0.18 -0.06,-0.33 -0.03,-0.08 -0.08,-0.14 -0.14,-0.19 -0.12,-0.13 -0.27,-0.2 -0.48,-0.2 -0.01,0 -0.01,0.01 -0.03,0.01 -0.17,-0.34 -0.55,-0.55 -0.93,-0.47 -0.14,0.03 -0.22,0.07 -0.33,0.15 -0.05,0.03 -0.09,0.07 -0.13,0.11 -0.01,0.01 -0.01,0.01 -0.02,0.03 -0.03,0.04 -0.04,0.04 -0.08,0.11 -0.03,0.05 -0.06,0.1 -0.08,0.16l-0.02 0.07c-0.01,0.02 0,0.01 -0.02,0.02 -0.05,0.02 -0.31,-0.01 -0.49,0.35 -0.02,0.05 -0.04,0.14 -0.04,0.21z"/>
 </g>
</svg>
