<?xml version="1.0" encoding="UTF-8"?>
<!DOCTYPE svg PUBLIC "-//W3C//DTD SVG 1.1//EN" "http://www.w3.org/Graphics/SVG/1.1/DTD/svg11.dtd">
<!-- Creator: CorelDRAW 2017 -->
<svg xmlns="http://www.w3.org/2000/svg" xml:space="preserve" width="812px" height="498px" version="1.1" style="shape-rendering:geometricPrecision; text-rendering:geometricPrecision; image-rendering:optimizeQuality; fill-rule:evenodd; clip-rule:evenodd"
viewBox="0 0 693.74 425.1"
 xmlns:xlink="http://www.w3.org/1999/xlink">
 <defs>
  <style type="text/css">
   <![CDATA[
    .fil0 {fill:#834E98}
   ]]>
  </style>
 </defs>
 <g id="Capa_x0020_1">
  <metadata id="CorelCorpID_0Corel-Layer"/>
  <path class="fil0" d="M145.63 265.3c0,10.29 -1.37,33.02 1.89,40.17 1.4,3.07 3.36,4.46 3.81,6.92 0.7,3.77 0.08,16.66 0.08,21.37 -4.75,1.27 -24.07,13.93 -28.87,17.32 -15.95,11.28 -19.83,15.58 -20.62,26.22l0 23.27c0,9.02 17.03,12.98 17.36,-3.26 0.48,-23.58 -3.69,-18.95 9.27,-28.68 18.87,-14.16 19.81,-12.41 34.59,-21.49 9.23,-5.67 6.41,-18.27 6.41,-35.65 0,-4.32 -0.68,-7.14 -2.95,-9.42 -0.12,-0.12 -0.31,-0.27 -0.43,-0.39 -1.92,-1.84 -3.22,-2.6 -3.22,-7.51l0 -27.22c0,-17.41 14.83,-22.45 30.32,-19.6 6.73,1.24 14.22,8.88 14.22,17.13l0 32.99c0,3.66 -5.77,4.01 -5.77,9.9l0 31.34c0,7.41 10.15,10.24 20.58,16.53l22.54 15.4c5.2,3.84 6.49,3.36 6.39,11.75 -0.07,6.18 -3.12,29.18 10.93,25.87 9.19,-2.17 7.19,-14.38 7.19,-25.01 0,-8.11 -1.55,-14.75 -5.56,-19.19 -6.61,-7.3 -37.06,-28.51 -44.75,-30.3 0,-5.61 -0.55,-14.61 -0.01,-19.8 0.56,-5.34 5.78,-7.03 5.78,-14.84l0 -37.94c0,-11.1 -10.88,-25.05 -23.79,-29.82 -24.76,-9.15 -55.39,5.74 -55.39,33.94z"/>
  <path class="fil0" d="M448.43 255.41c0,9.73 -1.27,38.02 1.63,44.56 1.08,2.45 3.36,4.52 3.93,6.79 0.73,2.93 0.21,17.16 0.21,21.23 -5.42,1.27 -25.63,14.67 -30.87,18.62 -5.35,4.03 -8.93,6.46 -13.48,11.27 -7.22,7.64 -5.96,21.16 -5.96,31.97 0,8.48 2.79,12.37 9.9,12.37 9.95,0 8.29,-13.01 8.24,-23.09 -0.06,-11.85 -1.19,-8.72 12.85,-19.32 6.67,-5.04 21.55,-13.9 29.24,-17.78 3.33,-1.68 7.4,-4.18 7.4,-9.09l0 -31.34c0,-6.11 -5.77,-5.43 -5.77,-11.55l0 -31.34c0,-23.61 44.54,-25.95 44.54,2.48l0 28.04c0,6.36 -6.6,5.35 -6.6,14.85 0,12.2 -2.34,31.36 4.45,35.96 6.73,4.57 19.02,9.8 30.89,18.6 10.08,7.47 15.01,8.38 15.02,17.14 0.01,15.01 -3.01,26.44 9.85,26.44 2.32,0 3.44,-0.6 4.75,-1.85 1.46,-1.4 2.26,-3.81 2.67,-6.8l0 -22.69c0,-11.55 -11.9,-19.39 -20.62,-25.56 -4.53,-3.2 -24.15,-16.23 -28.87,-17.33 0,-4.7 -0.62,-17.6 0.08,-21.37 0.66,-3.61 5.7,-6.11 5.7,-15.74l0 -31.34c0,-31.17 -34.07,-42.18 -55.99,-33.72 -5.87,2.27 -6.51,3.13 -10.84,6.48 -4.72,3.65 -12.35,14.96 -12.35,23.11z"/>
  <path class="fil0" d="M298.12 262.12l0 34.64c0,7.23 5.77,12.82 5.77,14.85 0,30.99 6.49,11.79 -34.87,42.65 -17.89,13.35 -14.61,16.28 -14.61,44.77 0,9.06 17.26,13.82 17.35,-4.08 0.13,-23.33 -2.98,-18.65 9.74,-28.2l11.19 -7.79c4.25,-2.78 7.17,-4.73 11.75,-7.22 20.38,-11.14 17.6,-6.34 17.6,-40.96 0,-11.81 -6.6,-10.03 -6.6,-16.5l0 -30.51c0,-8.99 8.32,-18.15 17.32,-18.15l9.9 0c9.6,0 17.32,9.05 17.32,18.97l0 29.69c0,6.12 -5.78,5.44 -5.78,11.55l0 32.17c0,4.61 3.87,6.72 7.16,8.52 19.36,10.59 20.96,11.61 38.71,24.79 7.82,5.81 1.25,15.34 3.92,28.25 2.03,9.77 17.85,12.84 17.85,-6.3 0,-27.73 -0.9,-28.06 -18.74,-41.48 -8.3,-6.24 -15.32,-10.38 -23.99,-15.6 -9.31,-5.6 -7.59,1.11 -7.59,-24.57 0,-2.5 5.78,-6.59 5.78,-15.68l0 -35.46c0,-8.82 -6.51,-17.84 -12.15,-23.32 -13.33,-12.95 -41.43,-12.61 -54.47,-0.41 -5.76,5.4 -12.56,14.64 -12.56,25.38z"/>
  <path class="fil0" d="M426.81 182.57c8.66,0 11.19,-5.04 16.6,-10.51 35.74,-36.13 88.83,-47.6 138.72,-30.99 89.33,29.74 122.62,149.36 50.98,220.69 -22.86,22.76 -56.67,40.31 -91.12,40.31l-407.85 0c-105.87,0 -157.38,-140.39 -62.34,-207.32 44.6,-31.41 72.22,-8.57 79.2,-27.85 8.63,-23.86 8.74,-34.9 27.85,-61.57 13.13,-18.35 25.52,-32.61 44.7,-46.08 73.08,-51.28 158.44,-48.19 229.61,4.83 8.6,6.41 25.39,24.69 31.49,32.19 3.72,4.57 11.13,14.31 12.62,19.9 -30.04,7 -53.71,23.48 -74.22,43.66 -11.59,11.41 -5.87,22.74 3.76,22.74zm-426.81 98.9l0 1.34c0.05,27.75 1.7,43.85 14.88,69.14 27.48,52.69 77.13,73.15 135.52,73.15l368.55 0c48.79,0 86.61,-8.41 121.63,-39.61l14.91 -14.9c21.77,-24.44 38.25,-58.74 38.25,-94.54l0 -1.78c-0.04,-36.93 -1.52,-41.93 -15.67,-76.04 -7.16,-17.26 -19.27,-30.93 -32.09,-43.78 -29.41,-29.51 -66.23,-43.7 -117.55,-43.7 -3.66,0 -3.73,0.65 -6.77,1.36 -41.39,-78.23 -133.96,-126.87 -225.95,-108.07 -34.94,7.14 -55.52,16.69 -81.36,33.81 -11.46,7.6 -21.47,16.28 -31.1,25.8 -3.14,3.11 -3.53,3.65 -6.32,7.24 -7.26,9.33 -9.48,9.83 -18.96,24.4 -7.86,12.07 -13.75,23.41 -19.39,37.52l-5.13 15.19c-1.89,4.97 0.81,2.58 -3.7,4.43 -13.23,5.39 -77.13,-2.53 -118.93,81.6 -5.58,11.23 -10.82,30.53 -10.82,47.44z"/>
 </g>
</svg>
