<?xml version="1.0" encoding="UTF-8"?>
<!DOCTYPE svg PUBLIC "-//W3C//DTD SVG 1.1//EN" "http://www.w3.org/Graphics/SVG/1.1/DTD/svg11.dtd">
<!-- Creator: CorelDRAW X7 -->
<svg xmlns="http://www.w3.org/2000/svg" xml:space="preserve" width="4.5748mm" height="3.6801mm" version="1.1" style="shape-rendering:geometricPrecision; text-rendering:geometricPrecision; image-rendering:optimizeQuality; fill-rule:evenodd; clip-rule:evenodd"
viewBox="0 0 53 42"
 xmlns:xlink="http://www.w3.org/1999/xlink">
 <defs>
  <style type="text/css">
   <![CDATA[
    .fil0 {fill:#E31E24}
    .fil1 {fill:#E31E24;fill-rule:nonzero}
   ]]>
  </style>
 </defs>
 <g id="Capa_x0020_1">
  <metadata id="CorelCorpID_0Corel-Layer"/>
  <g id="_2258845797504">
   <path class="fil0" d="M49 30c1,1 2,2 2,3 0,2 0,5 -1,6 -1,1 -2,1 -3,1 -1,1 -6,0 -7,-1 -2,-2 0,-5 -2,-7 -1,-1 -2,-1 -3,-1 -1,-1 -2,-1 -3,-1 -2,0 -3,0 -5,0 0,0 -1,0 -1,0l-3 0c-3,0 -7,1 -9,2 -1,1 0,2 0,4 -1,1 -1,2 -2,3 -1,1 -3,1 -4,2 -2,0 -4,0 -5,-1 -2,-2 -2,-5 -1,-7 0,-3 6,-6 8,-7l3 -1c2,0 6,-1 8,-1l5 0c0,0 1,0 1,0 0,0 0,0 1,0l4 0c3,0 3,0 6,1 3,1 9,3 11,5zm2 10l0 1c-1,0 -2,1 -3,1 -2,0 -5,0 -6,-1 -2,0 -3,-1 -4,-2 0,-1 -1,-2 -1,-3 0,-1 0,-2 0,-3 -1,-1 -4,-1 -5,-1l-8 0c-1,0 -1,0 -1,0 -2,0 -6,0 -8,1 -1,1 2,6 -4,8 -2,1 -7,2 -9,0 -2,-1 -2,-2 -2,-4l0 -2c0,-3 0,-4 2,-6l0 0c3,-2 7,-4 9,-5l3 -1c6,-1 15,-1 21,0 3,0 6,1 9,2l3 1c2,1 2,2 4,3l0 1c1,0 1,2 1,2 0,1 1,4 0,5l0 1c0,1 0,2 -1,2z"/>
   <ellipse class="fil0" transform="matrix(-0.0298192 1.23707 -1.0121 -0.0243964 33.3608 10.6155)" rx="2" ry="3"/>
   <ellipse class="fil0" transform="matrix(-0.0298192 1.23707 -1.0121 -0.0243964 21.5404 9.60846)" rx="2" ry="3"/>
   <ellipse class="fil0" transform="matrix(-0.0298192 1.23707 -1.0121 -0.0243964 27.2873 15.9291)" rx="2" ry="3"/>
   <polygon class="fil1" points="16,9 15,10 11,0 21,3 20,4 13,2 "/>
   <ellipse class="fil0" transform="matrix(-0.0298192 1.23707 -1.0121 -0.0243964 39.4331 5.23758)" rx="2" ry="3"/>
  </g>
 </g>
</svg>
