<?xml version="1.0" encoding="UTF-8"?>
<!DOCTYPE svg PUBLIC "-//W3C//DTD SVG 1.1//EN" "http://www.w3.org/Graphics/SVG/1.1/DTD/svg11.dtd">
<!-- Creator: CorelDRAW 2017 -->
<svg xmlns="http://www.w3.org/2000/svg" xml:space="preserve" width="36px" height="45px" version="1.1" style="shape-rendering:geometricPrecision; text-rendering:geometricPrecision; image-rendering:optimizeQuality; fill-rule:evenodd; clip-rule:evenodd"
viewBox="0 0 1.09 1.34"
 xmlns:xlink="http://www.w3.org/1999/xlink">
 <defs>
  <style type="text/css">
   <![CDATA[
    .fil0 {fill:#FEFEFE}
   ]]>
  </style>
 </defs>
 <g id="Capa_x0020_1">
  <metadata id="CorelCorpID_0Corel-Layer"/>
  <g id="_1975906459776">
   <path class="fil0" d="M0.35 0.77l0 -0.48c0,-0.04 0,-0.07 0.01,-0.1 0.06,-0.17 0.29,-0.2 0.38,-0.03 0.01,0.02 0.02,0.05 0.02,0.08l0 0.58c0,0.03 -0.01,0.06 -0.02,0.08 0,0.01 -0.01,0.02 -0.02,0.03 -0.07,0.09 -0.19,0.11 -0.29,0.04 -0.06,-0.05 -0.08,-0.11 -0.08,-0.2zm0.19 -0.77l0.03 0c0.04,0 0.07,0.01 0.1,0.03 0.08,0.04 0.14,0.12 0.14,0.22l0 0.56c0,0.08 -0.04,0.14 -0.08,0.18 -0.07,0.07 -0.18,0.09 -0.28,0.05 -0.01,-0.01 -0.03,-0.01 -0.04,-0.02 -0.01,-0.01 -0.02,-0.02 -0.03,-0.03 -0.05,-0.04 -0.08,-0.11 -0.08,-0.17l0 -0.57c0,-0.08 0.04,-0.14 0.07,-0.17 0.02,-0.02 0.05,-0.05 0.07,-0.06 0.03,-0.01 0.07,-0.02 0.1,-0.02z"/>
   <path class="fil0" d="M0.19 0.67c0,0.1 -0.02,0.2 0.03,0.29 0.04,0.08 0.09,0.14 0.17,0.18 0.03,0.02 0.09,0.04 0.14,0.04l0 0.11 -0.11 0c-0.04,0 -0.03,0.05 -0.01,0.05l0.29 0c0.02,0 0.03,-0.05 0,-0.05l-0.12 0 0 -0.11c0.07,0 0.14,-0.04 0.19,-0.07 0.02,-0.02 0.03,-0.03 0.05,-0.04 0.05,-0.05 0.08,-0.11 0.09,-0.17 0.02,-0.07 0.01,-0.16 0.01,-0.24 0,-0.01 -0.04,-0.03 -0.04,0.01l0 0.11c0,0.04 -0.01,0.1 -0.02,0.13l-0.02 0.04c0,0.01 -0.01,0.02 -0.02,0.03 -0.08,0.14 -0.28,0.2 -0.43,0.1 -0.01,0 -0.02,-0.01 -0.03,-0.02 -0.01,0 -0.02,-0.01 -0.03,-0.02 -0.01,-0.01 -0.03,-0.04 -0.04,-0.06 -0.03,-0.04 -0.05,-0.09 -0.05,-0.15l-0.01 -0.1c0,-0.06 0.01,-0.08 -0.02,-0.08 -0.02,0 -0.02,0 -0.02,0.02z"/>
   <path class="fil0" d="M0.39 0.81c0.02,0 0.03,-0.01 0.06,-0.05l0.28 -0.27c0,-0.01 0.01,-0.02 0.01,-0.03 0,-0.01 -0.01,-0.02 -0.02,-0.02 -0.02,0 -0.09,0.07 -0.1,0.08l-0.23 0.23c-0.01,0.01 -0.02,0.02 -0.02,0.03 0,0.01 0.01,0.03 0.02,0.03z"/>
   <path class="fil0" d="M0.83 0.32c0,0.02 0.01,0.03 0.03,0.03 0.01,0 0.1,-0.1 0.12,-0.11 0.01,-0.02 0.11,-0.11 0.11,-0.12 0,-0.02 -0.01,-0.03 -0.03,-0.03 -0.01,0 -0.05,0.04 -0.06,0.05l-0.14 0.15c-0.01,0.01 -0.03,0.02 -0.03,0.03z"/>
   <path class="fil0" d="M0 1.15c0,0.02 0.01,0.03 0.03,0.03 0.01,0 0.06,-0.06 0.08,-0.08 0.01,-0.01 0.1,-0.09 0.1,-0.1l0 -0.01c0,-0.02 -0.02,-0.02 -0.03,-0.02 -0.01,0 -0.02,0.01 -0.03,0.02 -0.02,0.02 -0.03,0.04 -0.05,0.05 -0.02,0.02 -0.04,0.04 -0.05,0.06 -0.02,0.02 -0.05,0.04 -0.05,0.05z"/>
  </g>
 </g>
</svg>
