<?xml version="1.0" encoding="UTF-8"?>
<!DOCTYPE svg PUBLIC "-//W3C//DTD SVG 1.1//EN" "http://www.w3.org/Graphics/SVG/1.1/DTD/svg11.dtd">
<!-- Creator: CorelDRAW 2017 -->
<svg xmlns="http://www.w3.org/2000/svg" xml:space="preserve" width="7.1149mm" height="5.8794mm" version="1.1" style="shape-rendering:geometricPrecision; text-rendering:geometricPrecision; image-rendering:optimizeQuality; fill-rule:evenodd; clip-rule:evenodd"
viewBox="0 0 18.13 14.98"
 xmlns:xlink="http://www.w3.org/1999/xlink">
 <defs>
  <style type="text/css">
   <![CDATA[
    .fil0 {fill:#FEFEFE}
   ]]>
  </style>
 </defs>
 <g id="Capa_x0020_1">
  <metadata id="CorelCorpID_0Corel-Layer"/>
  <g id="_1975956193488">
   <path class="fil0" d="M9.02 3.04c2.74,-0.01 5.48,-0.01 8.22,-0.02 1.42,0.97 0.9,10.79 0,10.2l-8.22 0.02 0 -10.2zm1.99 1.12l4.65 0c0.17,0 0.31,0.14 0.31,0.31l0 0.92c0,0.17 -0.14,0.31 -0.31,0.31l-4.65 0c-0.17,0 -0.31,-0.14 -0.31,-0.31l0 -0.92c0,-0.17 0.14,-0.31 0.31,-0.31zm0.36 6.53c0.32,0 0.58,0.27 0.58,0.6 0,0.33 -0.26,0.6 -0.58,0.6 -0.32,0 -0.58,-0.27 -0.58,-0.6 0,-0.33 0.26,-0.6 0.58,-0.6zm1.93 0c0.32,0 0.58,0.27 0.58,0.6 0,0.33 -0.26,0.6 -0.58,0.6 -0.32,0 -0.58,-0.27 -0.58,-0.6 0,-0.33 0.26,-0.6 0.58,-0.6zm1.95 0.02c0.32,0 0.58,0.27 0.58,0.6 0,0.33 -0.26,0.6 -0.58,0.6 -0.32,0 -0.58,-0.27 -0.58,-0.6 0,-0.33 0.26,-0.6 0.58,-0.6zm-0 -1.98c0.32,0 0.58,0.27 0.58,0.6 0,0.33 -0.26,0.6 -0.58,0.6 -0.32,0 -0.58,-0.27 -0.58,-0.6 0,-0.33 0.26,-0.6 0.58,-0.6zm-3.88 -0.02c0.32,0 0.58,0.27 0.58,0.6 0,0.33 -0.26,0.6 -0.58,0.6 -0.32,0 -0.58,-0.27 -0.58,-0.6 0,-0.33 0.26,-0.6 0.58,-0.6zm1.95 0.02c0.32,0 0.58,0.27 0.58,0.6 0,0.33 -0.26,0.6 -0.58,0.6 -0.32,0 -0.58,-0.27 -0.58,-0.6 0,-0.33 0.26,-0.6 0.58,-0.6zm0.02 -1.93c0.32,0 0.58,0.27 0.58,0.6 0,0.33 -0.26,0.6 -0.58,0.6 -0.32,0 -0.58,-0.27 -0.58,-0.6 0,-0.33 0.26,-0.6 0.58,-0.6zm-1.95 -0.02c0.32,0 0.58,0.27 0.58,0.6 0,0.33 -0.26,0.6 -0.58,0.6 -0.32,0 -0.58,-0.27 -0.58,-0.6 0,-0.33 0.26,-0.6 0.58,-0.6zm3.88 0.02c0.32,0 0.58,0.27 0.58,0.6 0,0.33 -0.26,0.6 -0.58,0.6 -0.32,0 -0.58,-0.27 -0.58,-0.6 0,-0.33 0.26,-0.6 0.58,-0.6z"/>
   <path class="fil0" d="M1.54 7.65c0,-0.61 -0.01,-0.75 0.13,-1.35 0.33,0.22 1,0.97 1.33,1.3l2.03 2.02c0.35,0.35 0.08,0.51 0.2,1.15 0.12,0.67 0.72,1.23 1.45,1.24l0 1.35c-1.35,-0.03 -2.67,-0.98 -3.55,-1.85 -0.81,-0.8 -1.59,-2.29 -1.59,-3.87zm7.01 -7.58l0 3.67c-0.55,0.12 -1.21,0.05 -1.8,0.05 0,2.39 0.24,2.25 -2.25,2.25l0 1.41 4.05 0 0 7.44c-0.46,0.05 -0.94,0.07 -1.48,0.07 -1.86,0 -3.71,-0.98 -4.9,-2.17 -0.67,-0.67 -1.02,-1.2 -1.46,-2.07 -0.65,-1.29 -0.71,-2.2 -0.71,-3.66 0,-1.39 0.64,-2.93 1.38,-3.96 0.56,-0.78 0.7,-0.82 1.27,-1.36 1.43,-1.36 3.87,-1.98 5.9,-1.69z"/>
  </g>
 </g>
</svg>
