<?xml version="1.0" encoding="UTF-8"?>
<!DOCTYPE svg PUBLIC "-//W3C//DTD SVG 1.1//EN" "http://www.w3.org/Graphics/SVG/1.1/DTD/svg11.dtd">
<!-- Creator: CorelDRAW 2017 -->
<svg xmlns="http://www.w3.org/2000/svg" xml:space="preserve" width="52px" height="42px" version="1.1" style="shape-rendering:geometricPrecision; text-rendering:geometricPrecision; image-rendering:optimizeQuality; fill-rule:evenodd; clip-rule:evenodd"
viewBox="0 0 3.16 2.58"
 xmlns:xlink="http://www.w3.org/1999/xlink">
 <defs>
  <style type="text/css">
   <![CDATA[
    .fil1 {fill:#FEFEFE}
    .fil0 {fill:#3FA53B}
   ]]>
  </style>
 </defs>
 <g id="Capa_x0020_1">
  <metadata id="CorelCorpID_0Corel-Layer"/>
  <path class="fil0" d="M0.52 0l2.48 0c0.09,0 0.16,0.07 0.16,0.15l0 2.28c0,0.08 -0.07,0.15 -0.16,0.15l-2.48 0c-0.28,0 -0.52,-0.23 -0.52,-0.52l0 -1.54c0,-0.28 0.24,-0.52 0.52,-0.52z"/>
  <path class="fil1" d="M0.44 0.71c0,-0.05 0.01,-0.1 0.04,-0.13 0.05,-0.07 0.16,-0.19 0.25,-0.19 0.04,0 0.08,0.02 0.12,0.05 0.06,0.05 0.18,0.21 0.18,0.29 0,0.14 -0.16,0.18 -0.16,0.27 0,0.07 0.02,0.1 0.05,0.16 0.03,0.04 0.05,0.08 0.08,0.11 0.07,0.08 0.09,0.11 0.16,0.18 0.01,0.01 0.01,0.01 0.02,0.02l0.12 0.12c0.07,0.06 0.24,0.19 0.33,0.19 0.08,0 0.1,-0.05 0.17,-0.1 0.04,-0.04 0.06,-0.06 0.12,-0.06 0.07,0 0.17,0.08 0.21,0.11 0.06,0.05 0.13,0.11 0.13,0.2 0,0.08 -0.12,0.19 -0.19,0.25 -0.1,0.09 -0.41,-0.03 -0.49,-0.07l-0.13 -0.07c-0.08,-0.04 -0.23,-0.15 -0.3,-0.21l-0.17 -0.16c-0.01,-0.01 -0.01,-0.01 -0.02,-0.02 -0.01,-0.01 -0.01,-0.02 -0.02,-0.03l-0.14 -0.15c-0.07,-0.09 -0.09,-0.12 -0.15,-0.21 -0.1,-0.15 -0.21,-0.38 -0.21,-0.55zm0.26 -0.39l0.05 0c0.05,0.01 0.09,0.03 0.14,0.06 0.05,0.05 0.13,0.15 0.17,0.22 0.03,0.06 0.05,0.12 0.03,0.19 -0.01,0.05 -0.05,0.1 -0.08,0.13 -0.03,0.03 -0.07,0.06 -0.07,0.09 0,0.07 0.08,0.17 0.13,0.23l0.25 0.27c0.01,0 0.02,0.01 0.03,0.02 0.05,0.05 0.21,0.18 0.29,0.18 0.08,0 0.14,-0.25 0.4,-0.12 0.11,0.05 0.29,0.19 0.29,0.31 0,0.1 -0.02,0.12 -0.07,0.19l-0.06 0.06c-0.11,0.11 -0.12,0.13 -0.28,0.13l-0.01 0c-0.13,0 -0.31,-0.08 -0.43,-0.14l-0.12 -0.07c-0.25,-0.16 -0.53,-0.43 -0.69,-0.66 -0.09,-0.11 -0.16,-0.23 -0.22,-0.36l-0.05 -0.14c-0.02,-0.09 -0.03,-0.14 -0.03,-0.22l0 -0.02c0,-0.04 0.03,-0.11 0.05,-0.13 0.01,-0.02 0.11,-0.13 0.14,-0.15l0.05 -0.04c0.03,-0.01 0.06,-0.02 0.09,-0.03z"/>
 </g>
</svg>
