<?xml version="1.0" encoding="UTF-8"?>
<!DOCTYPE svg PUBLIC "-//W3C//DTD SVG 1.1//EN" "http://www.w3.org/Graphics/SVG/1.1/DTD/svg11.dtd">
<!-- Creator: CorelDRAW 2017 -->
<svg xmlns="http://www.w3.org/2000/svg" xml:space="preserve" width="128px" height="131px" version="1.1" style="shape-rendering:geometricPrecision; text-rendering:geometricPrecision; image-rendering:optimizeQuality; fill-rule:evenodd; clip-rule:evenodd"
viewBox="0 0 6.16 6.32"
 xmlns:xlink="http://www.w3.org/1999/xlink">
 <defs>
  <style type="text/css">
   <![CDATA[
    .fil1 {fill:#FEFEFE}
    .fil2 {fill:#D0AAD0}
    .fil0 {fill:#834E98}
   ]]>
  </style>
 </defs>
 <g id="Capa_x0020_1">
  <metadata id="CorelCorpID_0Corel-Layer"/>
  <ellipse class="fil0" cx="2.6" cy="2.62" rx="2.6" ry="2.62"/>
  <path class="fil1" d="M1.53 2.43c0,0.05 0,0.18 0.02,0.22 0,0.02 0.01,0.03 0.02,0.04 0,0.02 0,0.1 0,0.12 -0.03,0.01 -0.14,0.08 -0.17,0.1 -0.09,0.07 -0.11,0.09 -0.11,0.15l0 0.13c0,0.06 0.09,0.08 0.09,-0.01 0.01,-0.14 -0.02,-0.11 0.06,-0.17 0.1,-0.08 0.11,-0.07 0.19,-0.12 0.06,-0.03 0.04,-0.1 0.04,-0.2 0,-0.03 0,-0.04 -0.02,-0.06 0,0 0,0 0,0 -0.01,-0.01 -0.02,-0.01 -0.02,-0.04l0 -0.15c0,-0.1 0.09,-0.13 0.17,-0.12 0.04,0.01 0.09,0.05 0.09,0.1l0 0.19c0,0.02 -0.04,0.02 -0.04,0.06l0 0.17c0,0.05 0.06,0.06 0.12,0.1l0.13 0.08c0.03,0.03 0.03,0.02 0.03,0.07 0,0.04 -0.01,0.17 0.07,0.15 0.05,-0.01 0.04,-0.08 0.04,-0.14 0,-0.05 -0.01,-0.09 -0.03,-0.11 -0.04,-0.04 -0.22,-0.16 -0.26,-0.18 0,-0.03 0,-0.08 0,-0.11 0,-0.03 0.03,-0.04 0.03,-0.08l0 -0.22c0,-0.06 -0.06,-0.14 -0.13,-0.17 -0.14,-0.05 -0.32,0.04 -0.32,0.2z"/>
  <path class="fil1" d="M3.25 2.37c0,0.06 0,0.22 0.01,0.25 0.01,0.02 0.02,0.03 0.02,0.04 0.01,0.02 0.01,0.1 0.01,0.12 -0.03,0.01 -0.15,0.09 -0.18,0.11 -0.03,0.02 -0.05,0.03 -0.08,0.06 -0.04,0.05 -0.03,0.12 -0.03,0.18 0,0.05 0.02,0.07 0.06,0.07 0.05,0 0.04,-0.07 0.04,-0.13 0,-0.06 0,-0.05 0.08,-0.11 0.03,-0.03 0.12,-0.08 0.16,-0.1 0.02,-0.01 0.04,-0.02 0.04,-0.05l0 -0.18c0,-0.03 -0.03,-0.03 -0.03,-0.06l0 -0.18c0,-0.14 0.25,-0.15 0.25,0.01l0 0.16c0,0.04 -0.03,0.03 -0.03,0.09 0,0.07 -0.02,0.17 0.02,0.2 0.04,0.03 0.11,0.06 0.18,0.11 0.05,0.04 0.08,0.04 0.08,0.09 0,0.09 -0.01,0.15 0.06,0.15 0.01,0 0.02,0 0.03,-0.01 0,0 0.01,-0.02 0.01,-0.04l0 -0.12c0,-0.07 -0.07,-0.11 -0.12,-0.15 -0.02,-0.02 -0.13,-0.09 -0.16,-0.1 0,-0.02 0,-0.1 0,-0.12 0,-0.02 0.03,-0.03 0.03,-0.09l0 -0.18c0,-0.17 -0.19,-0.24 -0.32,-0.19 -0.03,0.02 -0.03,0.02 -0.06,0.04 -0.02,0.02 -0.07,0.08 -0.07,0.13z"/>
  <path class="fil1" d="M2.4 2.41l0 0.19c0,0.05 0.03,0.08 0.03,0.09 0,0.18 0.04,0.07 -0.2,0.24 -0.1,0.08 -0.08,0.09 -0.08,0.26 0,0.05 0.1,0.07 0.1,-0.03 0,-0.13 -0.02,-0.1 0.06,-0.16l0.06 -0.04c0.02,-0.02 0.04,-0.03 0.07,-0.04 0.11,-0.07 0.1,-0.04 0.1,-0.24 0,-0.06 -0.04,-0.05 -0.04,-0.09l0 -0.17c0,-0.05 0.05,-0.11 0.1,-0.11l0.05 0c0.06,0 0.1,0.06 0.1,0.11l0 0.17c0,0.04 -0.03,0.03 -0.03,0.07l0 0.18c0,0.03 0.02,0.04 0.04,0.05 0.11,0.06 0.12,0.06 0.22,0.14 0.04,0.03 0.01,0.09 0.02,0.16 0.01,0.05 0.1,0.07 0.1,-0.04 0,-0.15 0,-0.16 -0.1,-0.23 -0.05,-0.04 -0.09,-0.06 -0.14,-0.09 -0.05,-0.03 -0.04,0 -0.04,-0.14 0,-0.02 0.03,-0.04 0.03,-0.09l0 -0.2c0,-0.05 -0.04,-0.1 -0.07,-0.13 -0.08,-0.08 -0.23,-0.08 -0.31,-0.01 -0.03,0.03 -0.07,0.09 -0.07,0.15z"/>
  <path class="fil1" d="M3.13 1.96c0.05,0 0.06,-0.03 0.09,-0.06 0.21,-0.21 0.51,-0.27 0.79,-0.18 0.51,0.17 0.7,0.85 0.29,1.25 -0.13,0.13 -0.32,0.23 -0.52,0.23l-2.31 0c-0.6,0 -0.89,-0.79 -0.35,-1.17 0.25,-0.18 0.41,-0.05 0.44,-0.16 0.05,-0.14 0.05,-0.2 0.16,-0.35 0.08,-0.11 0.15,-0.19 0.26,-0.26 0.41,-0.29 0.9,-0.28 1.3,0.02 0.05,0.04 0.14,0.14 0.18,0.19 0.02,0.02 0.06,0.08 0.07,0.11 -0.17,0.04 -0.3,0.13 -0.42,0.25 -0.07,0.06 -0.03,0.13 0.02,0.13zm-2.42 0.56l0 0.01c0,0.15 0.01,0.24 0.08,0.39 0.16,0.3 0.44,0.41 0.77,0.41l2.09 0c0.28,0 0.5,-0.04 0.69,-0.22l0.09 -0.09c0.12,-0.13 0.22,-0.33 0.22,-0.53l0 -0.01c0,-0.21 -0.01,-0.24 -0.09,-0.43 -0.04,-0.1 -0.11,-0.18 -0.19,-0.25 -0.16,-0.17 -0.37,-0.25 -0.66,-0.25 -0.02,0 -0.02,0 -0.04,0.01 -0.24,-0.45 -0.76,-0.72 -1.28,-0.62 -0.2,0.04 -0.32,0.1 -0.47,0.2 -0.06,0.04 -0.12,0.09 -0.17,0.14 -0.02,0.02 -0.02,0.02 -0.04,0.04 -0.04,0.06 -0.05,0.06 -0.11,0.14 -0.04,0.07 -0.07,0.13 -0.11,0.21l-0.02 0.09c-0.02,0.03 0,0.02 -0.03,0.03 -0.07,0.03 -0.43,-0.02 -0.67,0.46 -0.03,0.06 -0.06,0.17 -0.06,0.27z"/>
  <path class="fil2" d="M3.58 4.99c0,-0.06 0,-0.11 0.05,-0.17 0.04,-0.05 0.1,-0.1 0.18,-0.1l0.76 0 0 -0.75c0,-0.06 0.03,-0.12 0.06,-0.16 0.03,-0.03 0.11,-0.07 0.15,-0.07 0.06,0 0.12,0 0.17,0.05 0.04,0.03 0.03,0.01 0.06,0.05 0.01,0.01 0.01,0.03 0.02,0.04 0.01,0.02 0.02,0.06 0.02,0.09l0 0.75 0.76 0c0.03,0 0.09,0.03 0.12,0.05 0.04,0.02 0.06,0.05 0.08,0.09 0.04,0.07 0.04,0.15 0,0.22 -0.01,0.01 -0.01,0.02 -0.02,0.03 -0.05,0.06 -0.11,0.1 -0.18,0.1l-0.76 0 0 0.76c0,0.03 -0.01,0.06 -0.02,0.09 -0.02,0.04 -0.06,0.08 -0.11,0.11 -0.11,0.06 -0.23,0.02 -0.31,-0.08 -0.02,-0.02 -0.04,-0.09 -0.04,-0.12l0 -0.76 -0.76 0c-0.12,0 -0.23,-0.12 -0.23,-0.22zm2.58 -0.04l0 0.05c0,0.08 -0.04,0.16 -0.1,0.23 -0.06,0.05 -0.15,0.11 -0.25,0.11l-0.63 0 0 0.63c0,0.1 -0.06,0.19 -0.11,0.24 -0.07,0.08 -0.16,0.11 -0.28,0.11 -0.18,0 -0.35,-0.17 -0.35,-0.35l0 -0.63 -0.63 0c-0.1,0 -0.2,-0.06 -0.25,-0.11 -0.07,-0.07 -0.1,-0.15 -0.11,-0.24l0 -0.04c0.01,-0.09 0.04,-0.18 0.11,-0.25 0.05,-0.05 0.15,-0.1 0.25,-0.1l0.63 0 0 -0.63c0,-0.1 0.05,-0.2 0.11,-0.25 0.07,-0.07 0.15,-0.11 0.27,-0.11 0.19,0 0.36,0.17 0.36,0.36l0 0.63 0.63 0c0.2,0 0.34,0.17 0.35,0.35z"/>
 </g>
</svg>
