<?xml version="1.0" encoding="UTF-8"?>
<!DOCTYPE svg PUBLIC "-//W3C//DTD SVG 1.1//EN" "http://www.w3.org/Graphics/SVG/1.1/DTD/svg11.dtd">
<!-- Creator: CorelDRAW 2017 -->
<svg xmlns="http://www.w3.org/2000/svg" xml:space="preserve" width="331px" height="106px" version="1.1" style="shape-rendering:geometricPrecision; text-rendering:geometricPrecision; image-rendering:optimizeQuality; fill-rule:evenodd; clip-rule:evenodd"
viewBox="0 0 45.69 14.59"
 xmlns:xlink="http://www.w3.org/1999/xlink">
 <defs>
  <style type="text/css">
   <![CDATA[
    .str0 {stroke:#B2B3B3;stroke-width:0.33;stroke-linecap:round;stroke-miterlimit:22.9256}
    .fil1 {fill:none}
    .fil0 {fill:#B0CB1F}
   ]]>
  </style>
 </defs>
 <g id="Capa_x0020_1">
  <metadata id="CorelCorpID_0Corel-Layer"/>
  <g id="_1975909202080">
   <path class="fil0" d="M33.85 2.55c0,0.4 0.14,0.7 0.55,0.83 0.3,0.1 0.72,-0.04 1.02,-0.11 0.32,-0.08 0.65,-0.16 1,-0.24 0.2,-0.04 0.87,-0.23 1.02,-0.23 0.02,0 0.54,0.55 0.59,0.61l0.58 0.62 -1.57 1.67c-0.09,0.1 -0.12,0.16 -0.22,0.26 -0.08,0.08 -0.14,0.13 -0.22,0.21 -0.09,0.1 -0.12,0.16 -0.22,0.26l-0.69 0.72c-0.1,0.09 -0.13,0.16 -0.22,0.25 -0.26,0.25 -0.33,0.39 -0.33,0.75 0,0.23 0.09,0.42 0.22,0.54 0.1,0.11 0.32,0.23 0.46,0.3 0.79,0.43 2.05,1 2.8,1.41 0.1,0.06 0.15,0.11 0.27,0.14l-1.41 2.28c-0.25,0.43 -0.72,1 -0.16,1.55 0.08,0.08 0.11,0.11 0.23,0.16 0.37,0.14 0.68,0.05 0.95,-0.22 0.16,-0.15 1.73,-2.76 1.78,-2.85 0.22,-0.37 0.62,-0.87 0.62,-1.23 0,-0.37 -0.17,-0.59 -0.4,-0.73 -0.43,-0.25 -1.68,-0.85 -2.27,-1.16l2.17 -2.33c0.06,-0.08 0.07,-0.1 0.16,-0.16l1.58 1.34c0.29,0.23 0.33,0.33 0.78,0.33 0.32,0 0.63,-0.33 0.81,-0.51l1.04 -0.98c0.07,-0.06 0.11,-0.08 0.18,-0.15 0.55,-0.54 0.74,-0.53 0.74,-1.16 0,-0.34 -0.33,-0.63 -0.61,-0.69 -0.46,-0.08 -0.65,0.11 -0.9,0.35l-0.33 0.3c-0.06,0.06 -0.1,0.1 -0.15,0.16l-0.53 0.48c-0.13,0.1 -0.22,0.23 -0.35,0.31 -0.16,-0.14 -0.3,-0.29 -0.46,-0.45l-0.49 -0.45c-0.1,-0.1 -0.15,-0.13 -0.25,-0.22l-0.94 -0.92c-0.1,-0.09 -0.16,-0.12 -0.26,-0.21 -0.15,-0.16 -0.31,-0.34 -0.47,-0.48l-0.97 -0.91c-1.18,-1.18 -0.86,-1 -2.53,-0.62 -0.35,0.07 -2.02,0.42 -2.25,0.58 -0.16,0.11 -0.35,0.34 -0.35,0.6z"/>
   <path class="fil0" d="M29.58 11.42c0,0.27 0.01,0.49 0.24,0.7 0.39,0.37 0.93,0.17 1.44,0.07l2.61 -0.5c0.48,-0.09 0.73,-0.53 1.09,-0.99l0.91 -1.17c-0.22,-0.11 -0.57,-0.25 -0.73,-0.4 -0.1,-0.08 -0.21,-0.19 -0.27,-0.29 -0.07,-0.1 -0.16,-0.29 -0.17,-0.44 -0.13,0.04 -0.17,0.14 -0.26,0.25 -0.08,0.1 -0.13,0.18 -0.22,0.28l-0.77 0.98c-0.19,0.24 -0.14,0.19 -0.5,0.26 -0.13,0.03 -0.31,0.06 -0.45,0.09 -0.35,0.06 -2.3,0.39 -2.53,0.52 -0.18,0.1 -0.39,0.38 -0.39,0.64z"/>
   <path class="fil0" d="M40.43 1.64c0,0.63 0.07,1 0.52,1.46 0.9,0.89 2.38,0.57 2.89,-0.48 0.57,-1.18 -0.25,-2.62 -1.62,-2.62 -0.49,0 -0.96,0.23 -1.22,0.48 -0.29,0.29 -0.57,0.7 -0.57,1.16z"/>
  </g>
  <g id="_1975909206336">
   <path class="fil0" d="M16.66 0.99c3.12,-0.01 6.23,-0.01 9.35,-0.02 1.47,1.1 -0.49,12.26 -1.43,11.59l-9.35 0.02 1.43 -11.59zm2.11 1.28l5.29 0c0.19,0 0.33,0.15 0.3,0.35l-0.13 1.05c-0.02,0.19 -0.2,0.35 -0.39,0.35l-5.29 0c-0.19,0 -0.33,-0.16 -0.31,-0.35l0.13 -1.05c0.03,-0.2 0.2,-0.35 0.4,-0.35zm-0.51 7.42c0.36,0 0.62,0.31 0.57,0.68 -0.04,0.38 -0.37,0.68 -0.74,0.68 -0.36,0 -0.62,-0.3 -0.57,-0.68 0.04,-0.37 0.38,-0.68 0.74,-0.68zm2.2 0c0.36,0 0.62,0.31 0.57,0.68 -0.04,0.38 -0.38,0.68 -0.74,0.68 -0.36,0 -0.62,-0.3 -0.58,-0.68 0.05,-0.37 0.38,-0.68 0.75,-0.68zm2.21 0.02c0.36,0 0.62,0.31 0.58,0.68 -0.05,0.38 -0.38,0.68 -0.75,0.68 -0.36,0 -0.62,-0.3 -0.57,-0.68 0.04,-0.37 0.38,-0.68 0.74,-0.68zm0.28 -2.25c0.36,0 0.62,0.3 0.57,0.68 -0.05,0.37 -0.38,0.68 -0.74,0.68 -0.37,0 -0.62,-0.31 -0.58,-0.68 0.05,-0.38 0.38,-0.68 0.75,-0.68zm-4.41 -0.02c0.36,0 0.62,0.3 0.57,0.68 -0.04,0.37 -0.38,0.68 -0.74,0.68 -0.36,0 -0.62,-0.31 -0.57,-0.68 0.04,-0.38 0.37,-0.68 0.74,-0.68zm2.21 0.02c0.37,0 0.62,0.3 0.58,0.68 -0.05,0.37 -0.38,0.68 -0.75,0.68 -0.36,0 -0.62,-0.31 -0.57,-0.68 0.05,-0.38 0.38,-0.68 0.74,-0.68zm0.29 -2.2c0.37,0 0.62,0.3 0.58,0.68 -0.05,0.38 -0.38,0.68 -0.75,0.68 -0.36,0 -0.62,-0.3 -0.57,-0.68 0.05,-0.38 0.38,-0.68 0.74,-0.68zm-2.21 -0.02c0.36,0 0.62,0.31 0.57,0.68 -0.04,0.38 -0.38,0.68 -0.74,0.68 -0.36,0 -0.62,-0.3 -0.57,-0.68 0.04,-0.37 0.37,-0.68 0.74,-0.68zm4.41 0.02c0.36,0 0.62,0.3 0.57,0.68 -0.05,0.38 -0.38,0.68 -0.74,0.68 -0.37,0 -0.62,-0.3 -0.58,-0.68 0.05,-0.38 0.38,-0.68 0.75,-0.68z"/>
   <rect class="fil0" transform="matrix(0.0676069 -0 -0.00847864 0.0687844 12.2466 0.00639861)" width="56.93" height="198.12" rx="14.38" ry="14.38"/>
   <path class="fil0" d="M10.41 1l0.89 0 -1.43 11.63c-0.3,0 -0.6,0 -0.89,0 -0.91,-1.67 0.25,-11.04 1.43,-11.63z"/>
  </g>
  <line class="fil1 str0" x1="3.01" y1="2.31" x2="7.14" y2= "2.31" />
  <line class="fil1 str0" x1="0.44" y1="5.43" x2="4.57" y2= "5.43" />
  <line class="fil1 str0" x1="2.73" y1="8.56" x2="6.86" y2= "8.56" />
  <line class="fil1 str0" x1="0.16" y1="11.68" x2="4.29" y2= "11.68" />
 </g>
</svg>
