<?xml version="1.0" encoding="UTF-8"?>
<!DOCTYPE svg PUBLIC "-//W3C//DTD SVG 1.1//EN" "http://www.w3.org/Graphics/SVG/1.1/DTD/svg11.dtd">
<!-- Creator: CorelDRAW 2017 -->
<svg xmlns="http://www.w3.org/2000/svg" xml:space="preserve" width="758px" height="758px" version="1.1" style="shape-rendering:geometricPrecision; text-rendering:geometricPrecision; image-rendering:optimizeQuality; fill-rule:evenodd; clip-rule:evenodd"
viewBox="0 0 303.03 303.03"
 xmlns:xlink="http://www.w3.org/1999/xlink">
 <defs>
  <style type="text/css">
   <![CDATA[
    .fil0 {fill:#B0CB1F}
   ]]>
  </style>
 </defs>
 <g id="Capa_x0020_1">
  <metadata id="CorelCorpID_0Corel-Layer"/>
  <path class="fil0" d="M92.33 182.29c20.87,0 14.28,-2.58 27.08,10.21l21.3 21.31c2.76,2.76 8.04,8.65 10.81,10.5 5.92,-3.97 40.4,-42.02 43.2,-42.02 18.08,0 32.71,-0.86 48.29,10.9 11.72,8.85 18.13,18.42 22.22,32.23 0.95,3.21 2.05,6.26 0.7,8.51l-9.83 12.11c-3.24,3.87 -19.24,19.16 -23.5,20.3l0 -24.27 -10.65 0 0 31.96 -14.01 6.71c-12.91,6.22 -35.37,11.64 -50.51,11.64 -18.68,0 -28.97,-0.32 -46.83,-5.84 -7.91,-2.45 -15.17,-5.4 -22.43,-8.94 -2.43,-1.19 -4.44,-2.95 -7.09,-3.57l0 -31.96 -10.65 0 0 24.27c-6.12,-1.64 -27.18,-23.19 -33.09,-32.06 -1.19,-1.8 -1.04,-1.43 -0.77,-3.52 0.47,-3.77 2.49,-9.5 3.76,-12.88 1.69,-4.5 5.42,-10.05 8.19,-13.7 2.64,-3.48 7.62,-7.94 11.17,-10.73 6.88,-5.41 20.41,-11.16 32.64,-11.16zm50.36 -182.29l16.39 0c17.48,0.94 34.72,4.88 51.38,11.49 11.08,4.39 30.71,16.31 39.16,24.17 10.89,10.15 12,10.8 22.23,23.34 4.84,5.93 14.11,20.63 17.06,27.92 0.92,2.27 2.05,4.01 2.95,6.52 9.89,27.5 11.17,33.77 11.17,65.18 0,19.39 -6.89,41.53 -14.45,58.35l-15.39 25.45c-4.57,6.1 -9.32,11.29 -14.69,16.67 -25.29,25.28 -63.95,43.94 -100.47,43.94l-1.29 0c-26.77,-0.03 -33.63,-1 -57.68,-9.09 -4.79,-1.62 -8.16,-3.44 -12.48,-5.28 -4.55,-1.95 -8.17,-3.99 -12.04,-6.31 -16.71,-10.01 -26.32,-18.66 -39.17,-33.04l-7.72 -10.03c-2.93,-3.92 -11.27,-17.8 -13.37,-22.73 -1.85,-4.33 -3.87,-8.63 -5.33,-13.02l-4.21 -13.55c-4.28,-16.16 -4.71,-23.9 -4.74,-37.67l0 -0.75 0 -4.83 0 -1.72c0,-14.03 4.12,-33.79 9.04,-46 6.37,-15.77 11.76,-26.84 22.66,-40.67 7.7,-9.76 12.55,-14.5 22.02,-22.97l10.37 -7.98c6.3,-4.72 11.04,-6.78 16.88,-10.34 2.04,-1.24 3.63,-1.99 5.95,-2.93 10.96,-4.44 12.8,-6.16 26.47,-9.63 9.77,-2.48 19.56,-3.96 29.3,-4.49zm-56.28 79.9c0,-5.76 -0.85,-5.79 3.98,-10.81 1.67,-1.73 3.01,-3.19 5,-4.48 17.87,-11.62 31.17,1.09 43.11,1.09 10.77,0 16.49,-0.56 25.81,-6.74 5.28,-3.51 9.71,-8.4 12.66,-13.98 3.06,0.71 9,3.38 11.71,4.86 4.13,2.25 7.13,3.81 10.77,6.39 3.02,2.13 17.17,13.73 17.17,17.16 0,21.38 -5.78,41.82 -16.92,58.84 -5.31,8.11 -9.07,12.52 -16.72,18.2 -8.14,6.03 -16.67,4.46 -16.67,18.84 0,11.85 10.2,12.24 11.84,13.02l-26.49 26.78 -26.92 -26.63c1.77,-0.93 2.97,-0.66 4.8,-1.41 1.24,-0.51 2.73,-1.63 3.81,-2.7 2.48,-2.47 3.37,-5.28 3.37,-9.65 0,-12.95 -8.44,-12.65 -16.23,-18.1 -19.61,-13.7 -34.08,-49.59 -34.08,-70.68zm3.55 -24.86l0 0zm0 0c0.7,-8.43 13.3,-24.69 21.39,-30.69 1.23,-0.92 2.39,-1.89 3.73,-2.78 27.89,-18.56 67.64,-13.06 87.85,14.02 2.61,3.5 8.5,12.6 9.55,17.09 -7.24,-4.85 -5.86,-5.9 -18.55,-12.24 -7.03,-3.51 -14.56,-6.54 -22.88,-8.48 -3.81,7.2 -3.47,10.77 -11.74,17.26 -4.61,3.61 -13.69,7.28 -22.96,5.6 -9.6,-1.75 -21.89,-10.7 -41.24,-2.32 -1.98,0.86 -3.4,2.07 -5.15,2.54zm114.82 -33.73c5.01,1.16 20.07,9.52 24.95,12.93 17.13,11.97 36,30.62 45.29,49.41 1.21,2.43 2.34,3.85 3.33,6.13 1.12,2.58 1.91,4.11 2.96,6.52 7.34,16.98 12.44,39.25 11.07,64.69 -0.3,5.53 -1.47,11.69 -2.28,16.66 -1.76,10.81 -8.63,31.33 -14.72,40.91 -0.72,1.13 -0.23,0.41 -0.76,1.02 -1.85,-7.94 -7.85,-17.25 -12.67,-23.43 -4.65,-5.94 -13.23,-12.86 -20.27,-16.43 -29.34,-14.88 -45.16,-4.25 -64.12,-8.67 -0.49,-2.09 -0.59,-1.95 -0.59,-4.74 0.8,-0.53 0.98,-0.82 1.7,-1.25 0.78,-0.47 1.6,-0.77 2.42,-1.14 1.67,-0.74 3.04,-1.48 4.65,-2.45 32.45,-19.68 48.36,-71.11 39.17,-105.84 -3.18,-12.05 -9.08,-21.48 -16.75,-30.6 -1.31,-1.55 -2.27,-2.07 -3.38,-3.72zm-106.53 0c-2.26,3.37 -5.95,5.27 -11.95,15.27 -3.44,5.74 -6.31,11.97 -8.18,19.05 -4.19,15.84 -2.68,33.5 1.53,48.2 6.18,21.62 20.53,50.15 41.88,59.92l4.54 2.56c0,2.79 -0.11,2.65 -0.6,4.74 -14.06,3.27 -30.77,-2.67 -51.16,3.28 -17.43,5.09 -31.7,16.86 -40.39,32.41 -2.25,4.03 -4.37,7.96 -5.51,12.84l-3.52 -5.95c-4.61,-8.87 -10.24,-25.61 -11.88,-35.47 -5.23,-31.54 -2.35,-55.38 8.54,-81.44 11.55,-27.63 36.61,-56.12 63.28,-69.3 4.29,-2.12 8.56,-4.98 13.42,-6.11zm106.53 0l0 0zm-106.53 0l0 0z"/>
 </g>
</svg>
