<?xml version="1.0" encoding="UTF-8"?>
<!DOCTYPE svg PUBLIC "-//W3C//DTD SVG 1.1//EN" "http://www.w3.org/Graphics/SVG/1.1/DTD/svg11.dtd">
<!-- Creator: CorelDRAW 2017 -->
<svg xmlns="http://www.w3.org/2000/svg" xml:space="preserve" width="184px" height="179px" version="1.1" style="shape-rendering:geometricPrecision; text-rendering:geometricPrecision; image-rendering:optimizeQuality; fill-rule:evenodd; clip-rule:evenodd"
viewBox="0 0 16.09 15.71"
 xmlns:xlink="http://www.w3.org/1999/xlink">
 <defs>
  <style type="text/css">
   <![CDATA[
    .fil0 {fill:#A8CF45}
   ]]>
  </style>
 </defs>
 <g id="Capa_x0020_1">
  <metadata id="CorelCorpID_0Corel-Layer"/>
  <path class="fil0" d="M5.43 4.71c-2,1.97 -2.01,4.42 -0.04,6.42 1.43,1.44 4.07,1.52 6,-0.39 1.44,-1.42 1.52,-4.06 -0.39,-6 -1.36,-1.37 -4.19,-1.39 -5.57,-0.03z"/>
  <g id="_2283411864736">
   <path class="fil0" d="M14.67 4.03l-0.08 -0.09c-0.1,-0.09 -1.01,-0.04 -1.19,-0.04l-1.18 0.02c-0.09,-0.43 0.1,-2.22 -0.12,-2.43 -0.14,-0.14 -0.33,-0.14 -0.47,0 -0.16,0.16 -0.08,1.21 -0.08,1.48 0,0.26 0,0.48 0,0.74 0.01,0.92 0,0.84 0.97,0.83l1.69 -0.01c0.11,0 0.48,0.04 0.52,-0.29 0,-0.04 -0.02,-0.18 -0.06,-0.21z"/>
   <path class="fil0" d="M13.19 3.36l2.75 -2.79c0.32,-0.33 -0.09,-0.84 -0.53,-0.39l-2.61 2.63c-0.44,0.46 0.11,0.84 0.39,0.55z"/>
  </g>
  <g id="_2283411864864">
   <path class="fil0" d="M4.03 1.4l-0.09 0.09c-0.09,0.09 -0.04,1 -0.04,1.18l0.02 1.18c-0.43,0.09 -2.22,-0.09 -2.43,0.13 -0.14,0.13 -0.14,0.33 0,0.46 0.16,0.16 1.21,0.09 1.48,0.09 0.26,-0.01 0.48,-0.01 0.74,-0.01 0.92,0 0.84,0.01 0.83,-0.97l-0.01 -1.69c0,-0.11 0.04,-0.48 -0.29,-0.51 -0.04,-0.01 -0.18,0.02 -0.21,0.05z"/>
   <path class="fil0" d="M3.36 2.89l-2.79 -2.76c-0.33,-0.32 -0.84,0.09 -0.39,0.54l2.63 2.6c0.46,0.45 0.84,-0.1 0.55,-0.38z"/>
  </g>
  <g id="_2283411867552">
   <path class="fil0" d="M12.06 14.31l0.09 -0.08c0.09,-0.1 0.04,-1.01 0.04,-1.19l-0.02 -1.18c0.43,-0.09 2.22,0.1 2.43,-0.12 0.14,-0.14 0.14,-0.33 0,-0.47 -0.16,-0.16 -1.22,-0.08 -1.48,-0.08 -0.26,0 -0.48,0 -0.74,0 -0.92,0.01 -0.84,0 -0.83,0.97l0.01 1.69c0,0.11 -0.04,0.48 0.29,0.52 0.04,0 0.18,-0.02 0.21,-0.06z"/>
   <path class="fil0" d="M12.73 12.83l2.79 2.75c0.33,0.32 0.84,-0.09 0.39,-0.53l-2.64 -2.61c-0.45,-0.44 -0.83,0.11 -0.54,0.39z"/>
  </g>
  <g id="_2283411866112">
   <path class="fil0" d="M1.48 11.69l0.09 0.08c0.09,0.09 1,0.05 1.18,0.05l1.19 -0.02c0.08,0.42 -0.1,2.21 0.12,2.43 0.14,0.13 0.33,0.13 0.46,-0.01 0.16,-0.16 0.09,-1.21 0.09,-1.48 0,-0.25 0,-0.48 -0.01,-0.74 0,-0.92 0.01,-0.83 -0.96,-0.83l-1.69 0.02c-0.11,0 -0.48,-0.04 -0.52,0.28 0,0.05 0.02,0.18 0.05,0.22z"/>
   <path class="fil0" d="M2.97 12.35l-2.75 2.79c-0.33,0.33 0.09,0.85 0.53,0.4l2.6 -2.64c0.45,-0.46 -0.1,-0.83 -0.38,-0.55z"/>
  </g>
 </g>
</svg>
