<?xml version="1.0" encoding="UTF-8"?>
<!DOCTYPE svg PUBLIC "-//W3C//DTD SVG 1.1//EN" "http://www.w3.org/Graphics/SVG/1.1/DTD/svg11.dtd">
<!-- Creator: CorelDRAW 2017 -->
<svg xmlns="http://www.w3.org/2000/svg" xml:space="preserve" width="942px" height="848px" version="1.1" style="shape-rendering:geometricPrecision; text-rendering:geometricPrecision; image-rendering:optimizeQuality; fill-rule:evenodd; clip-rule:evenodd"
viewBox="0 0 1080.11 971.92"
 xmlns:xlink="http://www.w3.org/1999/xlink">
 <defs>
  <style type="text/css">
   <![CDATA[
    .str0 {stroke:#EB6087;stroke-width:54.16;stroke-miterlimit:22.9256}
    .str1 {stroke:#EB6087;stroke-width:54.16;stroke-linecap:round;stroke-miterlimit:22.9256}
    .fil0 {fill:none}
   ]]>
  </style>
 </defs>
 <g id="Capa_x0020_1">
  <metadata id="CorelCorpID_0Corel-Layer"/>
  <path class="fil0 str0" d="M303.09 360.48c68.34,0 123.76,55.41 123.76,123.77 0,68.36 -55.42,123.77 -123.76,123.77 -68.35,0 -123.76,-55.41 -123.76,-123.77 0,-68.36 55.41,-123.77 123.76,-123.77zm472.36 -2.53c68.34,0 123.76,55.41 123.76,123.77 0,68.36 -55.42,123.77 -123.76,123.77 -68.35,0 -123.76,-55.41 -123.76,-123.77 0,-68.36 55.41,-123.77 123.76,-123.77zm-472.36 250.07l472.36 -2.53"/>
  <rect class="fil0 str0" x="107.32" y="86.41" width="863.88" height="793.15" rx="39.39" ry="39.39"/>
  <line class="fil0 str1" x1="27.08" y1="944.84" x2="1053.03" y2= "27.08" />
 </g>
</svg>
