<?xml version="1.0" encoding="UTF-8"?>
<!DOCTYPE svg PUBLIC "-//W3C//DTD SVG 1.1//EN" "http://www.w3.org/Graphics/SVG/1.1/DTD/svg11.dtd">
<!-- Creator: CorelDRAW 2017 -->
<svg xmlns="http://www.w3.org/2000/svg" xml:space="preserve" width="29px" height="40px" version="1.1" style="shape-rendering:geometricPrecision; text-rendering:geometricPrecision; image-rendering:optimizeQuality; fill-rule:evenodd; clip-rule:evenodd"
viewBox="0 0 1.02 1.42"
 xmlns:xlink="http://www.w3.org/1999/xlink">
 <defs>
  <style type="text/css">
   <![CDATA[
    .fil0 {fill:#FEFEFE}
   ]]>
  </style>
 </defs>
 <g id="Capa_x0020_1">
  <metadata id="CorelCorpID_0Corel-Layer"/>
  <g id="_1975879274672">
   <path class="fil0" d="M0.73 1.25l0 -1.08c0,-0.02 0.01,-0.06 0.02,-0.07 0.03,-0.05 0.16,-0.05 0.19,0 0.01,0.01 0.01,0.05 0.01,0.07l0 1.08c0,0.02 0,0.06 -0.01,0.07 -0.03,0.05 -0.16,0.05 -0.19,0 -0.01,-0.01 -0.02,-0.05 -0.02,-0.07zm0.06 -1.25l0.11 0c0.06,0 0.12,0.07 0.12,0.14l0 1.14c0,0.04 -0.01,0.07 -0.03,0.1 -0.03,0.03 -0.06,0.04 -0.09,0.04l-0.11 0c-0.07,0 -0.12,-0.07 -0.12,-0.14l0 -1.14c0,-0.04 0.01,-0.07 0.03,-0.09 0.03,-0.04 0.06,-0.05 0.09,-0.05z"/>
   <path class="fil0" d="M0.07 1.25l0 -1.08c0,-0.12 0.07,-0.1 0.15,-0.1 0.05,0 0.07,0.05 0.07,0.1l0 1.08c0,0.12 -0.07,0.1 -0.15,0.1 -0.06,0 -0.07,-0.05 -0.07,-0.1zm0.05 -1.25l0.11 0c0.04,0 0.06,0.01 0.09,0.05 0.02,0.02 0.04,0.05 0.04,0.09l0 1.14c0,0.04 -0.02,0.07 -0.04,0.1 -0.03,0.03 -0.05,0.04 -0.09,0.04l-0.11 0c-0.06,0 -0.12,-0.07 -0.12,-0.14l0 -1.14c0,-0.07 0.06,-0.14 0.12,-0.14z"/>
  </g>
 </g>
</svg>
