<?xml version="1.0" encoding="UTF-8"?>
<!DOCTYPE svg PUBLIC "-//W3C//DTD SVG 1.1//EN" "http://www.w3.org/Graphics/SVG/1.1/DTD/svg11.dtd">
<!-- Creator: CorelDRAW X7 -->
<svg xmlns="http://www.w3.org/2000/svg" xml:space="preserve" width="6.9622mm" height="6.9622mm" version="1.1" style="shape-rendering:geometricPrecision; text-rendering:geometricPrecision; image-rendering:optimizeQuality; fill-rule:evenodd; clip-rule:evenodd"
viewBox="0 0 121 121"
 xmlns:xlink="http://www.w3.org/1999/xlink">
 <defs>
  <style type="text/css">
   <![CDATA[
    .fil0 {fill:#9D9E9E}
   ]]>
  </style>
 </defs>
 <g id="Capa_x0020_1">
  <metadata id="CorelCorpID_0Corel-Layer"/>
  <path class="fil0" d="M4 24c0,-3 0,-6 2,-8 4,-4 10,-12 16,-12 3,0 5,2 7,3 4,3 11,13 11,18 0,9 -9,11 -9,17 0,4 1,6 3,10 1,2 3,4 5,7 4,5 5,6 10,10 0,1 0,1 1,2l7 7c5,4 15,12 21,12 5,0 6,-3 10,-6 2,-2 4,-4 8,-4 4,0 10,5 12,7 4,3 9,7 9,12 0,5 -8,12 -12,15 -6,6 -25,-1 -31,-4l-7 -4c-5,-3 -15,-9 -19,-13l-11 -10c0,0 0,-1 -1,-1 -1,-1 -1,-1 -1,-2l-9 -9c-4,-5 -5,-7 -9,-13 -6,-9 -13,-24 -13,-34zm16 -24l3 0c3,0 6,2 9,4 3,3 8,9 10,13 2,4 3,8 2,12 0,3 -3,6 -5,8 -2,2 -4,4 -4,6 0,4 5,10 8,14l16 16c0,1 0,1 1,1 3,4 13,12 18,12 5,0 9,-15 25,-8 6,3 18,12 18,20 0,5 -1,7 -4,11l-4 4c-7,7 -8,8 -17,8l-1 0c-8,0 -19,-5 -27,-9l-7 -4c-16,-10 -33,-26 -43,-41 -5,-7 -10,-14 -13,-22l-3 -9c-2,-6 -2,-8 -2,-13l0 -2c0,-2 1,-6 3,-8 1,-1 7,-7 9,-9l3 -2c2,-1 3,-2 5,-2z"/>
 </g>
</svg>
