<?xml version="1.0" encoding="UTF-8"?>
<!DOCTYPE svg PUBLIC "-//W3C//DTD SVG 1.1//EN" "http://www.w3.org/Graphics/SVG/1.1/DTD/svg11.dtd">
<!-- Creator: CorelDRAW 2017 -->
<svg xmlns="http://www.w3.org/2000/svg" xml:space="preserve" width="82px" height="82px" version="1.1" style="shape-rendering:geometricPrecision; text-rendering:geometricPrecision; image-rendering:optimizeQuality; fill-rule:evenodd; clip-rule:evenodd"
viewBox="0 0 14.23 14.23"
 xmlns:xlink="http://www.w3.org/1999/xlink">
 <defs>
  <style type="text/css">
   <![CDATA[
    .fil0 {fill:#9D9E9E}
   ]]>
  </style>
 </defs>
 <g id="Capa_x0020_1">
  <metadata id="CorelCorpID_0Corel-Layer"/>
  <path class="fil0" d="M0.5 2.83c0,-0.36 0.03,-0.73 0.24,-0.97 0.42,-0.47 1.2,-1.36 1.82,-1.36 0.36,0 0.63,0.16 0.88,0.37 0.43,0.37 1.31,1.5 1.31,2.1 0,1.02 -1.14,1.28 -1.14,1.95 0,0.5 0.12,0.75 0.37,1.18 0.18,0.3 0.37,0.55 0.58,0.81 0.49,0.6 0.66,0.76 1.16,1.27 0.07,0.07 0.09,0.12 0.16,0.19l0.88 0.82c0.49,0.49 1.73,1.42 2.41,1.42 0.58,0 0.71,-0.35 1.19,-0.75 0.3,-0.26 0.44,-0.38 0.89,-0.38 0.49,0 1.22,0.52 1.51,0.76 0.44,0.36 0.97,0.79 0.97,1.43 0,0.62 -0.89,1.4 -1.36,1.81 -0.76,0.69 -2.98,-0.17 -3.63,-0.49l-0.88 -0.48c-0.6,-0.33 -1.69,-1.1 -2.2,-1.55l-1.25 -1.14c-0.06,-0.07 -0.1,-0.11 -0.17,-0.17 -0.07,-0.07 -0.08,-0.11 -0.15,-0.18l-0.97 -1.09c-0.54,-0.66 -0.68,-0.89 -1.14,-1.58 -0.7,-1.03 -1.48,-2.77 -1.48,-3.97zm1.89 -2.83l0.33 0c0.35,0.04 0.7,0.19 1.01,0.44 0.42,0.34 0.96,1.08 1.22,1.55 0.26,0.45 0.39,0.92 0.28,1.43 -0.08,0.34 -0.38,0.72 -0.61,0.95 -0.2,0.2 -0.51,0.43 -0.51,0.66 0,0.5 0.62,1.25 0.92,1.64l1.86 1.94c0.08,0.06 0.11,0.1 0.17,0.16 0.4,0.4 1.59,1.34 2.14,1.34 0.56,0 1.06,-1.8 2.94,-0.89 0.75,0.37 2.09,1.4 2.09,2.28 0,0.68 -0.14,0.86 -0.51,1.36l-0.44 0.47c-0.8,0.8 -0.88,0.89 -2.03,0.9l-0.05 0c-1,0 -2.28,-0.59 -3.17,-1.03l-0.88 -0.51c-1.81,-1.11 -3.8,-3.06 -5.02,-4.76 -0.61,-0.84 -1.14,-1.66 -1.54,-2.65l-0.37 -1.02c-0.21,-0.67 -0.22,-0.99 -0.22,-1.6l0 -0.13c0,-0.32 0.16,-0.77 0.3,-0.95 0.14,-0.17 0.87,-0.93 1.08,-1.09l0.36 -0.25c0.21,-0.14 0.43,-0.22 0.65,-0.24z"/>
 </g>
</svg>
