<?xml version="1.0" encoding="UTF-8"?>
<!DOCTYPE svg PUBLIC "-//W3C//DTD SVG 1.1//EN" "http://www.w3.org/Graphics/SVG/1.1/DTD/svg11.dtd">
<!-- Creator: CorelDRAW X7 -->
<svg xmlns="http://www.w3.org/2000/svg" xml:space="preserve" width="4.9857mm" height="4.9857mm" version="1.1" style="shape-rendering:geometricPrecision; text-rendering:geometricPrecision; image-rendering:optimizeQuality; fill-rule:evenodd; clip-rule:evenodd"
viewBox="0 0 52 52"
 xmlns:xlink="http://www.w3.org/1999/xlink">
 <defs>
  <style type="text/css">
   <![CDATA[
    .fil0 {fill:#98A27F}
   ]]>
  </style>
 </defs>
 <g id="Capa_x0020_1">
  <metadata id="CorelCorpID_0Corel-Layer"/>
  <g id="_2258845757664">
   <path class="fil0" d="M2 27c0,-4 0,-6 1,-9 0,-1 1,-2 1,-2 1,-3 3,-5 5,-7 1,-1 2,-2 3,-3 1,0 1,0 2,-1 0,0 1,-1 2,-1 0,0 1,0 2,-1 5,-2 11,-2 16,0 2,1 4,2 6,3 2,2 4,3 6,6 2,4 4,9 4,13 0,3 0,4 -1,7 0,2 -1,4 -2,6 -1,1 -2,3 -3,4 -2,2 -2,2 -4,4 -1,0 -1,0 -2,1 -3,2 -7,3 -11,3 -5,0 -7,0 -11,-2 -3,-1 -5,-3 -7,-5 0,0 -1,0 -1,-1 -2,-2 -4,-5 -5,-8 0,0 0,-1 0,-2 -1,-1 -1,-3 -1,-5zm22 -27l3 0c3,0 6,1 9,2 2,1 5,3 7,4 2,2 2,2 4,4 0,1 2,4 2,5 1,2 2,2 2,4 1,2 1,4 1,5l0 3c0,3 -1,6 -2,9 -1,2 -3,6 -5,8 -2,2 -3,3 -6,4l-3 2c-5,2 -6,2 -11,2 -4,0 -9,-2 -12,-4 -1,0 -1,0 -2,-1 -1,0 -2,-1 -3,-2 0,0 0,0 0,-1 -3,-2 -5,-5 -6,-8 -2,-5 -2,-6 -2,-11 0,-3 1,-6 2,-8 1,-3 2,-5 3,-7 2,-2 3,-2 4,-4l2 -1c1,-1 2,-1 3,-2 0,0 0,0 1,-1 2,0 2,-1 4,-1 2,-1 4,-1 5,-1z"/>
   <path class="fil0" d="M21 37l0 -22c1,1 2,2 4,2l12 9 -5 3c0,1 -1,1 -1,1l-10 7zm-2 -24l0 26c0,1 1,1 2,1l8 -6c3,-2 7,-5 10,-7 2,-1 1,-2 -1,-3l-17 -11c0,-1 -1,-1 -1,-1 -1,0 -1,1 -1,1z"/>
  </g>
 </g>
</svg>
