<?xml version="1.0" encoding="UTF-8"?>
<!DOCTYPE svg PUBLIC "-//W3C//DTD SVG 1.1//EN" "http://www.w3.org/Graphics/SVG/1.1/DTD/svg11.dtd">
<!-- Creator: CorelDRAW X7 -->
<svg xmlns="http://www.w3.org/2000/svg" xml:space="preserve" width="4.1347mm" height="7.4491mm" version="1.1" style="shape-rendering:geometricPrecision; text-rendering:geometricPrecision; image-rendering:optimizeQuality; fill-rule:evenodd; clip-rule:evenodd"
viewBox="0 0 25 45"
 xmlns:xlink="http://www.w3.org/1999/xlink">
 <defs>
  <style type="text/css">
   <![CDATA[
    .fil0 {fill:#727271}
    .fil1 {fill:#2B2A29;fill-rule:nonzero}
   ]]>
  </style>
 </defs>
 <g id="Capa_x0020_1">
  <metadata id="CorelCorpID_0Corel-Layer"/>
  <g id="_2258845754272">
   <path class="fil0" d="M19 23c0,1 0,1 0,2 0,0 0,0 0,0 1,1 1,1 2,1 3,2 6,-2 3,-5l0 0c0,0 0,0 0,0 -2,-2 -5,0 -5,2z"/>
   <path class="fil0" d="M6 33c0,-1 0,-1 0,-2 0,0 -1,-1 -1,-1 -3,-1 -5,1 -5,3 1,3 4,4 6,2 0,-1 0,-1 0,-2z"/>
   <path class="fil0" d="M9 42c0,1 1,2 1,2l1 1c0,0 1,0 1,0l1 0c0,0 1,0 1,0l1 -1c0,0 0,0 0,0 2,-2 0,-6 -4,-5 0,0 0,1 -1,1 0,0 -1,1 -1,2z"/>
   <path class="fil0" d="M9 23c0,3 4,5 6,3 1,-2 1,-4 -1,-5 -2,-2 -5,0 -5,2z"/>
   <path class="fil0" d="M3 27c2,0 3,-2 3,-3 0,-1 0,-2 0,-3 -1,-1 -2,-1 -4,-1 0,0 -1,1 -1,1 0,1 -1,1 -1,2 0,2 1,4 3,4z"/>
   <path class="fil0" d="M6 14c0,0 0,-1 0,-1 0,-1 0,-1 0,-1 -1,0 -1,-1 -1,-1 -1,0 -1,0 -1,0l-1 0c-3,0 -4,3 -2,5 1,2 4,1 5,-1 0,0 0,0 0,-1z"/>
   <path class="fil0" d="M19 33c0,0 0,1 0,2 1,1 4,1 5,0 0,0 1,-1 1,-2 0,0 0,-1 0,-1 -1,-3 -4,-3 -6,-1 0,0 0,0 0,0 0,1 0,1 0,2z"/>
   <path class="fil0" d="M9 14c0,2 2,3 4,3 2,0 4,-3 2,-5 -1,-1 -1,-1 -2,-1l-1 0c0,0 -1,0 -2,1 0,0 -1,1 -1,2z"/>
   <path class="fil0" d="M19 14c0,0 0,1 0,1 0,1 1,2 2,2 2,1 5,-1 4,-4 0,-1 -1,-1 -1,-1 -1,-1 -1,-1 -2,-1l0 0c-1,0 -1,0 -1,0 -1,0 -1,0 -1,0 0,1 0,1 -1,1 0,0 0,0 0,1 0,0 0,0 0,1z"/>
   <path class="fil0" d="M9 33c0,0 1,1 1,1 0,0 0,1 1,1 0,0 0,0 0,0 0,0 0,1 0,1 1,0 2,0 3,-1 0,0 0,0 1,0 2,-2 1,-5 -2,-5 -2,0 -4,1 -4,3z"/>
  </g>
  <polygon class="fil1" points="3,2 5,1 5,1 3,2 5,3 5,4 3,3 3,4 2,4 2,3 1,4 0,3 2,2 0,1 1,1 2,2 2,0 3,0 "/>
  <polygon id="1" class="fil1" points="9,2 11,1 11,1 9,2 11,3 11,4 9,3 9,4 8,4 8,3 7,4 6,3 8,2 6,1 7,1 8,2 8,0 9,0 "/>
  <polygon id="2" class="fil1" points="15,2 17,1 17,1 15,2 17,3 17,4 15,3 15,4 14,4 14,3 13,4 12,3 14,2 12,1 13,1 14,2 14,0 15,0 "/>
  <polygon id="3" class="fil1" points="21,2 23,1 23,1 22,2 23,3 23,4 21,3 21,4 21,4 21,3 19,4 19,3 20,2 19,1 19,1 21,2 21,0 21,0 "/>
 </g>
</svg>
