<?xml version="1.0" encoding="UTF-8"?>
<!DOCTYPE svg PUBLIC "-//W3C//DTD SVG 1.1//EN" "http://www.w3.org/Graphics/SVG/1.1/DTD/svg11.dtd">
<!-- Creator: CorelDRAW X7 -->
<svg xmlns="http://www.w3.org/2000/svg" xml:space="preserve" width="8.9795mm" height="10.9989mm" version="1.1" style="shape-rendering:geometricPrecision; text-rendering:geometricPrecision; image-rendering:optimizeQuality; fill-rule:evenodd; clip-rule:evenodd"
viewBox="0 0 58 71"
 xmlns:xlink="http://www.w3.org/1999/xlink">
 <defs>
  <style type="text/css">
   <![CDATA[
    .fil0 {fill:#898989}
   ]]>
  </style>
 </defs>
 <g id="Capa_x0020_1">
  <metadata id="CorelCorpID_0Corel-Layer"/>
  <g id="_2588706453984">
   <path class="fil0" d="M3 62l0 -27c0,-1 1,-3 2,-4 0,0 0,0 0,0 1,-1 3,-2 5,-2l38 0c3,0 5,2 6,4 1,0 1,2 1,2l0 27c0,1 0,2 -1,3 0,0 -1,1 -1,1 -1,1 -1,1 -1,1 -1,0 -1,1 -2,1 -1,0 -2,0 -3,0l-36 0c-1,0 -3,0 -3,0 -3,-1 -5,-4 -5,-6zm8 -44c0,-1 0,-3 0,-3 0,-1 1,-1 1,-2 0,0 0,0 0,-1 6,-11 21,-12 29,-5 1,1 2,1 2,2l1 1c1,1 2,3 2,5 2,3 1,7 1,11l-36 0 0 -8zm-11 17l0 27c0,3 2,6 5,8 1,0 2,1 4,1l40 0c2,0 4,-1 5,-2 2,-2 4,-4 4,-7l0 -27c0,-3 -3,-7 -6,-8l-2 -1c0,-8 1,-14 -6,-20 -3,-3 -9,-6 -14,-6l0 0c-5,0 -7,0 -12,2 -4,3 -7,6 -9,11 -1,3 -1,8 -1,12 0,2 0,1 -1,2 -4,0 -7,4 -7,8z"/>
   <path class="fil0" d="M26 50l0 -8c0,-2 3,-3 5,-2 0,0 0,1 0,2l0 8c0,1 -1,2 -2,2 -1,0 -3,-1 -3,-2zm-2 -9l0 10c0,3 5,6 8,3 1,-1 2,-2 2,-3l0 -10c0,-1 -1,-3 -3,-4 -1,0 -3,0 -4,0 -1,0 -1,1 -2,1l-1 1c0,1 0,2 0,2z"/>
  </g>
 </g>
</svg>
