<?xml version="1.0" encoding="UTF-8"?>
<!DOCTYPE svg PUBLIC "-//W3C//DTD SVG 1.1//EN" "http://www.w3.org/Graphics/SVG/1.1/DTD/svg11.dtd">
<!-- Creator: CorelDRAW X7 -->
<svg xmlns="http://www.w3.org/2000/svg" xml:space="preserve" width="4.3414mm" height="4.3097mm" version="1.1" style="shape-rendering:geometricPrecision; text-rendering:geometricPrecision; image-rendering:optimizeQuality; fill-rule:evenodd; clip-rule:evenodd"
viewBox="0 0 7 7"
 xmlns:xlink="http://www.w3.org/1999/xlink">
 <defs>
  <style type="text/css">
   <![CDATA[
    .fil0 {fill:#FEFEFE}
   ]]>
  </style>
 </defs>
 <g id="Capa_x0020_1">
  <metadata id="CorelCorpID_0Corel-Layer"/>
  <g id="_2258857541888">
   <path class="fil0" d="M3 1c0,0 1,0 1,0 0,0 0,0 0,0 0,0 0,0 0,0 1,0 1,0 1,-1 0,0 0,0 0,0 0,0 0,1 0,1 0,0 0,0 0,0 1,0 1,0 1,0 0,0 0,0 0,0l0 0c0,0 0,0 0,0 0,1 0,1 0,1 1,0 1,0 1,0 -1,0 -1,0 -1,0 0,1 0,1 0,1 0,0 0,0 0,0 0,0 0,0 0,0 0,0 0,0 0,0 0,0 0,0 0,0 0,0 0,0 -1,0 0,0 0,0 0,0l0 1 0 0c0,-1 0,-1 -1,-1 0,0 0,0 0,0 0,0 0,0 0,0 0,0 -1,0 -1,0 1,0 1,0 1,0 0,0 0,0 0,-1l-1 0c0,0 0,0 0,0 0,0 0,0 0,0 0,0 0,0 0,0 1,-1 1,-1 1,-1 0,0 0,0 -1,0zm4 1l0 0c0,0 0,0 -1,0 0,1 0,1 0,1 0,0 0,0 0,0 0,0 0,0 0,0 0,1 0,1 0,1 0,0 0,0 0,-1 -1,1 -1,1 -1,1 0,0 0,0 0,0 -1,0 -1,0 -1,0 0,0 0,0 0,-1 0,1 0,1 0,1 0,0 -1,0 -1,-1 0,0 0,0 0,0 0,0 0,0 0,0 0,0 0,0 0,-1 0,0 0,0 0,0 0,0 0,0 0,0 0,0 0,0 0,0 0,0 0,0 0,0 0,-1 0,-1 0,-1 0,0 0,0 0,0 0,0 0,-1 1,-1 0,0 0,1 0,1 0,0 0,0 0,0l0 -1c0,0 0,0 0,0 0,0 1,0 1,0 0,0 0,0 0,0 0,0 0,0 0,0 0,0 0,0 0,1l1 0c0,0 0,-1 0,-1 0,0 0,1 0,1 0,0 0,0 0,0 0,0 0,0 0,1 0,0 1,0 1,0 0,0 0,0 0,0z"/>
   <path class="fil0" d="M1 2c0,0 0,1 0,1 0,0 -1,0 -1,0 0,0 0,0 0,0 0,1 0,1 0,1 0,0 0,0 0,0 0,0 0,0 0,0 0,0 0,1 0,1 0,0 0,0 0,0l0 0c0,0 0,0 0,0 0,0 0,0 0,0 0,1 1,0 1,0 0,1 0,1 0,1 0,0 0,1 1,1 0,0 0,0 0,0 0,0 0,-1 0,-1l1 0c0,0 0,0 0,0 0,1 0,1 0,1 0,0 1,0 1,-1 0,0 0,0 0,0 0,0 0,0 0,-1 0,0 1,1 1,0 0,0 0,0 0,0 0,0 0,0 0,0 0,0 0,0 0,0 0,0 0,-1 0,-1 -1,0 -1,1 0,1 0,0 0,0 0,0 0,0 -1,0 -1,0 0,0 0,0 0,0 0,0 0,0 0,0 0,1 -1,1 0,1 0,0 0,0 -1,0 0,0 0,0 0,0 0,0 0,0 -1,0 0,0 0,0 0,0 0,0 0,0 0,0 0,0 0,0 0,0 0,0 -1,0 -1,0 0,0 1,0 1,0 0,0 -1,0 -1,0 0,0 0,0 0,-1 0,0 0,0 0,0 0,0 -1,0 -1,0 0,0 0,0 0,0 0,0 0,0 1,0 0,0 0,-1 0,-1l0 0c0,0 0,0 0,0 -1,-1 -1,-1 -1,-1 0,0 0,0 0,0 0,0 0,0 1,0 0,0 0,0 0,0 1,-1 1,0 1,-1 -1,0 -1,0 0,0 0,0 0,0 0,0 0,0 0,0 0,0 0,0 0,0 0,0l0 0c0,0 0,0 0,0 0,0 -1,0 -1,0 0,0 0,0 0,0 0,0 0,0 0,0z"/>
   <path class="fil0" d="M1 4c0,1 1,1 1,1 0,0 0,0 0,0 1,1 2,0 2,-1 0,0 -1,0 -1,0 0,0 0,0 0,1 0,0 -1,0 -1,-1 0,0 0,-1 0,-1 0,0 1,0 1,0 0,0 0,0 -1,0 0,0 -1,1 -1,1z"/>
   <path class="fil0" d="M4 2c0,0 0,0 0,0 0,0 0,0 0,0 0,0 0,0 1,0 0,-1 0,-1 0,0 1,0 0,1 0,1 0,-1 -1,-1 -1,-1 0,0 0,0 0,0 0,0 0,0 0,0zm0 0c0,0 0,0 0,0 0,1 0,1 0,1 0,0 1,0 1,0 0,0 1,-1 1,-1 0,0 0,0 -1,-1 0,0 0,0 0,0 0,0 -1,0 -1,1z"/>
  </g>
 </g>
</svg>
