<?xml version="1.0" encoding="UTF-8"?>
<!DOCTYPE svg PUBLIC "-//W3C//DTD SVG 1.1//EN" "http://www.w3.org/Graphics/SVG/1.1/DTD/svg11.dtd">
<!-- Creator: CorelDRAW 2017 -->
<svg xmlns="http://www.w3.org/2000/svg" xml:space="preserve" width="47px" height="47px" version="1.1" style="shape-rendering:geometricPrecision; text-rendering:geometricPrecision; image-rendering:optimizeQuality; fill-rule:evenodd; clip-rule:evenodd"
viewBox="0 0 5.52 5.52"
 xmlns:xlink="http://www.w3.org/1999/xlink">
 <defs>
  <style type="text/css">
   <![CDATA[
    .fil1 {fill:#FEFEFE}
    .fil0 {fill:#834E98}
   ]]>
  </style>
 </defs>
 <g id="Capa_x0020_1">
  <metadata id="CorelCorpID_0Corel-Layer"/>
  <circle class="fil0" cx="2.76" cy="2.76" r="2.76"/>
  <path class="fil1" d="M3.8 4.36l-0.04 0c-0.22,0 -0.42,-0.2 -0.42,-0.42l0 -0.03c0,-0.37 0.48,-0.57 0.75,-0.3 0.28,0.28 0.07,0.75 -0.29,0.75zm-0.06 -3.15l0.06 0c0.18,0.01 0.35,0.1 0.44,0.25 0.15,0.23 0.12,0.51 -0.07,0.7 -0.24,0.25 -0.65,0.21 -0.85,-0.09 -0.02,0 -0.05,0.02 -0.07,0.03 -0.1,0.07 -0.86,0.53 -0.89,0.54 0.01,0.06 0.04,0.1 0.04,0.18 0,0.06 0,0.09 -0.01,0.14 -0.01,0.04 -0.02,0.06 -0.03,0.09 0.02,0.01 0.04,0.02 0.06,0.04l0.18 0.1c0.08,0.05 0.16,0.1 0.24,0.15 0.08,0.05 0.15,0.09 0.24,0.14 0.02,0.02 0.21,0.14 0.24,0.14 0.01,-0.01 0.02,-0.03 0.04,-0.05 0.04,-0.05 0.09,-0.09 0.14,-0.12 0.28,-0.17 0.63,-0.06 0.78,0.24 0.11,0.21 0.05,0.46 -0.1,0.63 -0.02,0.01 -0.02,0.01 -0.04,0.03 -0.11,0.09 -0.23,0.13 -0.38,0.13 -0.28,0 -0.53,-0.25 -0.53,-0.54 0,-0.15 0.02,-0.16 0.03,-0.21 -0.04,-0.02 -0.08,-0.05 -0.12,-0.08 -0.04,-0.02 -0.08,-0.04 -0.12,-0.07 -0.04,-0.02 -0.08,-0.05 -0.12,-0.07l-0.48 -0.29c-0.02,-0.02 -0.09,-0.06 -0.12,-0.07 -0.14,0.21 -0.39,0.3 -0.63,0.22 -0.1,-0.03 -0.2,-0.1 -0.26,-0.18 -0.14,-0.18 -0.15,-0.36 -0.07,-0.57 0.02,-0.07 0.08,-0.15 0.14,-0.19 0.14,-0.12 0.22,-0.14 0.41,-0.14 0.09,0 0.23,0.06 0.3,0.12 0.01,0.01 0.02,0.02 0.04,0.04l0.08 0.08c0.02,0 0.04,-0.02 0.06,-0.03l0.78 -0.47c0.19,-0.11 0.08,-0.01 0.08,-0.29 0,-0.17 0.1,-0.33 0.23,-0.43 0.03,-0.02 0.06,-0.03 0.09,-0.05 0.06,-0.03 0.13,-0.04 0.19,-0.05zm-2.34 1.64c0,-0.25 0.21,-0.44 0.41,-0.44 0.12,0 0.19,0.01 0.29,0.08 0.02,0.01 0.02,0.01 0.03,0.02 0.01,0.01 0.02,0.01 0.03,0.03 0.01,0.01 0.01,0.01 0.02,0.02 0.03,0.04 0.04,0.06 0.06,0.1 0.16,0.35 -0.17,0.75 -0.58,0.59 -0.14,-0.06 -0.26,-0.23 -0.26,-0.4zm2.38 -0.64c-0.13,0 -0.24,-0.06 -0.31,-0.13 -0.29,-0.29 -0.06,-0.75 0.29,-0.75 0.08,0 0.14,0.01 0.21,0.04 0.06,0.03 0.09,0.06 0.13,0.09 0.26,0.26 0.08,0.75 -0.32,0.75z"/>
 </g>
</svg>
