<?xml version="1.0" encoding="UTF-8"?>
<!DOCTYPE svg PUBLIC "-//W3C//DTD SVG 1.1//EN" "http://www.w3.org/Graphics/SVG/1.1/DTD/svg11.dtd">
<!-- Creator: CorelDRAW 2017 -->
<svg xmlns="http://www.w3.org/2000/svg" xml:space="preserve" width="34.9201mm" height="11.1637mm" version="1.1" style="shape-rendering:geometricPrecision; text-rendering:geometricPrecision; image-rendering:optimizeQuality; fill-rule:evenodd; clip-rule:evenodd"
viewBox="0 0 423.5 135.39"
 xmlns:xlink="http://www.w3.org/1999/xlink">
 <defs>
  <style type="text/css">
   <![CDATA[
    .str0 {stroke:#2B2A29;stroke-width:2.43;stroke-linecap:round;stroke-miterlimit:22.9256}
    .fil1 {fill:none}
    .fil0 {fill:#2B2A29}
   ]]>
  </style>
 </defs>
 <g id="Capa_x0020_1">
  <metadata id="CorelCorpID_0Corel-Layer"/>
  <g id="_3015714423040">
   <path class="fil0" d="M313.75 23.64c0,3.72 1.3,6.55 5.09,7.75 2.78,0.88 6.62,-0.39 9.44,-1.09 2.97,-0.74 6,-1.43 9.22,-2.16 1.89,-0.43 8.13,-2.16 9.52,-2.16 0.17,0 4.97,5.09 5.42,5.67l5.38 5.71 -14.53 15.54c-0.86,0.87 -1.14,1.46 -2.03,2.35 -0.75,0.75 -1.31,1.28 -2.05,2.03 -0.86,0.87 -1.14,1.46 -2.03,2.34l-6.43 6.7c-0.86,0.87 -1.14,1.46 -2.03,2.34 -2.36,2.32 -3,3.62 -3,6.93 0,2.13 0.83,3.94 1.95,5.05 0.95,0.94 3.04,2.07 4.27,2.73 7.35,3.96 19.1,9.27 25.97,13.14 0.96,0.54 1.39,0.99 2.53,1.26l-13.04 21.11c-2.39,4.02 -6.73,9.26 -1.49,14.44 0.72,0.71 1.02,1.01 2.09,1.42 3.47,1.34 6.36,0.55 8.88,-2 1.41,-1.43 16.01,-25.58 16.5,-26.41 2.05,-3.46 5.75,-8.06 5.75,-11.47 0,-3.39 -1.6,-5.45 -3.77,-6.74 -3.96,-2.35 -15.52,-7.86 -21.04,-10.78l20.14 -21.6c0.54,-0.72 0.69,-0.94 1.46,-1.46l14.72 12.43c2.69,2.1 3.03,3.04 7.17,3.04 3.02,0 5.88,-3.09 7.52,-4.74l9.64 -9.04c0.72,-0.63 1.03,-0.74 1.75,-1.46 5.03,-4.98 6.78,-4.93 6.78,-10.73 0,-3.17 -3.02,-5.87 -5.63,-6.35 -4.22,-0.78 -6.03,1.02 -8.31,3.22l-3.07 2.77c-0.54,0.54 -0.9,0.95 -1.46,1.46l-4.89 4.45c-1.19,0.91 -2.05,2.14 -3.21,2.92 -1.52,-1.33 -2.83,-2.68 -4.3,-4.16l-4.53 -4.23c-0.92,-0.93 -1.4,-1.22 -2.33,-2.04l-8.75 -8.47c-0.87,-0.86 -1.46,-1.14 -2.35,-2.03 -1.39,-1.4 -2.92,-3.14 -4.39,-4.37l-9.04 -8.48c-10.9,-10.92 -7.91,-9.32 -23.45,-5.79 -3.25,0.74 -18.72,3.93 -20.85,5.42 -1.44,1 -3.2,3.17 -3.2,5.56z"/>
   <path class="fil0" d="M274.05 105.96c0,2.49 0.1,4.52 2.25,6.5 3.66,3.38 8.63,1.58 13.34,0.62l24.28 -4.62c4.44,-0.86 6.72,-4.96 10.05,-9.22l8.46 -10.8c-1.98,-1.05 -5.23,-2.32 -6.79,-3.72 -0.86,-0.77 -1.88,-1.79 -2.51,-2.75 -0.58,-0.89 -1.48,-2.69 -1.51,-4.04 -1.21,0.32 -1.63,1.32 -2.4,2.27 -0.76,0.93 -1.28,1.7 -2.04,2.63l-7.23 9.12c-1.68,2.19 -1.28,1.77 -4.6,2.41 -1.24,0.24 -2.89,0.52 -4.19,0.77 -3.21,0.65 -21.33,3.7 -23.43,4.88 -1.68,0.94 -3.69,3.47 -3.69,5.95z"/>
   <path class="fil0" d="M374.75 15.18c0,5.87 0.61,9.3 4.84,13.55 8.29,8.33 22.04,5.35 26.79,-4.39 5.33,-10.94 -2.35,-24.33 -14.99,-24.33 -4.59,0 -8.95,2.1 -11.32,4.45 -2.69,2.67 -5.32,6.48 -5.32,10.73z"/>
  </g>
  <g id="_3015714425696">
   <path class="fil0" d="M154.24 9.18c28.91,-0.06 57.82,-0.12 86.73,-0.18 13.67,10.18 -4.54,113.76 -13.25,107.5l-86.73 0.18 13.25 -107.5zm19.56 11.85l49.05 0c1.79,0 3.06,1.46 2.84,3.24l-1.2 9.74c-0.22,1.79 -1.86,3.24 -3.64,3.24l-49.05 0c-1.79,0 -3.06,-1.46 -2.84,-3.24l1.2 -9.74c0.22,-1.79 1.86,-3.24 3.64,-3.24zm-4.71 68.89c3.37,0 5.76,2.82 5.33,6.31 -0.43,3.49 -3.51,6.31 -6.89,6.31 -3.37,0 -5.76,-2.83 -5.33,-6.31 0.43,-3.49 3.51,-6.31 6.89,-6.31zm20.38 0c3.38,0 5.76,2.82 5.33,6.31 -0.43,3.49 -3.51,6.31 -6.89,6.31 -3.37,0 -5.76,-2.83 -5.33,-6.31 0.43,-3.49 3.51,-6.31 6.88,-6.31zm20.54 0.18c3.37,0 5.76,2.83 5.33,6.31 -0.43,3.49 -3.51,6.31 -6.89,6.31 -3.37,0 -5.76,-2.82 -5.33,-6.31 0.43,-3.49 3.51,-6.31 6.88,-6.31zm2.55 -20.92c3.37,0 5.76,2.83 5.33,6.31 -0.43,3.49 -3.51,6.31 -6.88,6.31 -3.37,0 -5.76,-2.82 -5.33,-6.31 0.43,-3.49 3.51,-6.31 6.89,-6.31zm-40.88 -0.18c3.37,0 5.76,2.82 5.33,6.31 -0.43,3.49 -3.51,6.31 -6.88,6.31 -3.37,0 -5.76,-2.83 -5.33,-6.31 0.43,-3.49 3.51,-6.31 6.88,-6.31zm20.54 0.18c3.37,0 5.76,2.83 5.33,6.31 -0.43,3.49 -3.51,6.31 -6.88,6.31 -3.37,0 -5.76,-2.82 -5.33,-6.31 0.43,-3.49 3.51,-6.31 6.89,-6.31zm2.69 -20.38c3.37,0 5.76,2.83 5.33,6.31 -0.43,3.49 -3.51,6.31 -6.89,6.31 -3.37,0 -5.76,-2.83 -5.33,-6.31 0.43,-3.48 3.51,-6.31 6.89,-6.31zm-20.54 -0.18c3.37,0 5.76,2.83 5.33,6.31 -0.43,3.49 -3.51,6.31 -6.89,6.31 -3.37,0 -5.76,-2.83 -5.33,-6.31 0.43,-3.49 3.51,-6.31 6.88,-6.31zm40.88 0.18c3.37,0 5.76,2.83 5.33,6.31 -0.43,3.49 -3.51,6.31 -6.89,6.31 -3.37,0 -5.76,-2.83 -5.33,-6.31 0.43,-3.48 3.51,-6.31 6.88,-6.31z"/>
   <rect class="fil0" transform="matrix(0.0843013 -0 -0.0105723 0.0857696 113.306 0.0596558)" width="423.56" height="1473.89" rx="106.96" ry="106.96"/>
   <path class="fil0" d="M96.25 9.3l8.3 0 -13.29 107.84c-2.77,0 -5.53,0 -8.3,0 -8.38,-15.48 2.38,-102.38 13.29,-107.84z"/>
  </g>
  <line class="fil1 str0" x1="27.62" y1="21.43" x2="65.94" y2= "21.43" />
  <line class="fil1 str0" x1="3.79" y1="50.42" x2="42.11" y2= "50.42" />
  <line class="fil1 str0" x1="25.04" y1="79.4" x2="63.37" y2= "79.4" />
  <line class="fil1 str0" x1="1.21" y1="108.38" x2="39.54" y2= "108.38" />
 </g>
</svg>
