<?xml version="1.0" encoding="UTF-8"?>
<!DOCTYPE svg PUBLIC "-//W3C//DTD SVG 1.1//EN" "http://www.w3.org/Graphics/SVG/1.1/DTD/svg11.dtd">
<!-- Creator: CorelDRAW 2017 -->
<svg xmlns="http://www.w3.org/2000/svg" xml:space="preserve" width="28.6583mm" height="10.0066mm" version="1.1" style="shape-rendering:geometricPrecision; text-rendering:geometricPrecision; image-rendering:optimizeQuality; fill-rule:evenodd; clip-rule:evenodd"
viewBox="0 0 285.23 99.59"
 xmlns:xlink="http://www.w3.org/1999/xlink">
 <defs>
  <style type="text/css">
   <![CDATA[
    .str0 {stroke:#FEFEFE;stroke-width:1.99;stroke-linecap:round;stroke-miterlimit:22.9256}
    .fil1 {fill:none}
    .fil0 {fill:#FEFEFE}
   ]]>
  </style>
 </defs>
 <g id="Capa_x0020_1">
  <metadata id="CorelCorpID_0Corel-Layer"/>
  <g id="_3015903300960">
   <path class="fil0" d="M206.39 19.31c0,2.67 0.93,4.7 3.66,5.57 2,0.63 4.76,-0.28 6.79,-0.78 2.13,-0.53 4.31,-1.03 6.62,-1.55 1.36,-0.31 5.84,-1.55 6.84,-1.55 0.12,0 3.57,3.66 3.9,4.07l3.86 4.11 -10.44 11.16c-0.62,0.62 -0.82,1.05 -1.46,1.69 -0.54,0.54 -0.94,0.92 -1.48,1.46 -0.62,0.62 -0.82,1.05 -1.46,1.69l-4.62 4.82c-0.62,0.63 -0.82,1.05 -1.46,1.69 -1.7,1.67 -2.15,2.6 -2.15,4.98 0,1.53 0.6,2.83 1.4,3.63 0.68,0.68 2.18,1.49 3.07,1.96 5.28,2.84 13.72,6.66 18.66,9.44 0.69,0.39 1,0.72 1.82,0.91l-9.37 15.17c-1.72,2.89 -4.83,6.65 -1.07,10.37 0.51,0.51 0.74,0.72 1.5,1.02 2.49,0.96 4.57,0.39 6.38,-1.44 1.02,-1.03 11.5,-18.38 11.85,-18.97 1.47,-2.49 4.13,-5.79 4.13,-8.24 0,-2.43 -1.15,-3.91 -2.71,-4.84 -2.84,-1.69 -11.15,-5.64 -15.11,-7.74l14.47 -15.52c0.39,-0.52 0.5,-0.68 1.05,-1.05l10.57 8.93c1.93,1.51 2.18,2.19 5.15,2.19 2.17,0 4.22,-2.22 5.4,-3.41l6.92 -6.5c0.51,-0.45 0.74,-0.53 1.26,-1.05 3.62,-3.58 4.87,-3.54 4.87,-7.71 0,-2.28 -2.17,-4.22 -4.04,-4.56 -3.03,-0.56 -4.33,0.73 -5.97,2.32l-2.21 1.99c-0.39,0.39 -0.65,0.68 -1.05,1.05l-3.51 3.2c-0.86,0.65 -1.48,1.54 -2.31,2.1 -1.1,-0.95 -2.03,-1.93 -3.09,-2.99l-3.25 -3.04c-0.66,-0.67 -1.01,-0.88 -1.68,-1.47l-6.29 -6.08c-0.62,-0.62 -1.05,-0.82 -1.69,-1.46 -1,-1.01 -2.1,-2.26 -3.15,-3.14l-6.49 -6.09c-7.83,-7.85 -5.68,-6.69 -16.85,-4.16 -2.34,0.53 -13.45,2.83 -14.98,3.89 -1.03,0.72 -2.3,2.28 -2.3,3.99z"/>
   <path class="fil0" d="M177.87 78.45c0,1.79 0.07,3.25 1.62,4.67 2.63,2.43 6.2,1.13 9.58,0.45l17.44 -3.32c3.19,-0.62 4.83,-3.56 7.22,-6.62l6.08 -7.76c-1.42,-0.75 -3.76,-1.67 -4.88,-2.67 -0.62,-0.56 -1.35,-1.29 -1.8,-1.97 -0.42,-0.64 -1.06,-1.93 -1.08,-2.9 -0.87,0.23 -1.17,0.95 -1.73,1.63 -0.55,0.66 -0.92,1.22 -1.47,1.89l-5.19 6.55c-1.21,1.57 -0.92,1.27 -3.3,1.73 -0.89,0.17 -2.08,0.37 -3.01,0.56 -2.31,0.46 -15.32,2.66 -16.84,3.5 -1.21,0.68 -2.65,2.5 -2.65,4.27z"/>
   <path class="fil0" d="M250.21 13.23c0,4.21 0.44,6.68 3.48,9.73 5.96,5.98 15.84,3.84 19.24,-3.16 3.83,-7.86 -1.69,-17.48 -10.77,-17.48 -3.3,0 -6.43,1.51 -8.13,3.19 -1.93,1.92 -3.82,4.66 -3.82,7.71z"/>
   <path class="fil0" d="M110.93 6.55c20.77,-0.04 41.54,-0.09 62.31,-0.13 9.82,7.31 -3.26,81.73 -9.52,77.23l-62.31 0.13 9.52 -77.23zm14.05 8.51l35.24 0c1.28,0 2.2,1.05 2.04,2.33l-0.86 7c-0.16,1.28 -1.33,2.33 -2.62,2.33l-35.24 0c-1.28,0 -2.2,-1.05 -2.04,-2.33l0.86 -7c0.16,-1.28 1.33,-2.33 2.62,-2.33zm-3.38 49.49c2.42,0 4.14,2.03 3.83,4.53 -0.31,2.51 -2.52,4.53 -4.95,4.53 -2.42,0 -4.14,-2.03 -3.83,-4.53 0.31,-2.5 2.53,-4.53 4.95,-4.53zm14.64 0c2.43,0 4.14,2.03 3.83,4.53 -0.31,2.51 -2.52,4.53 -4.95,4.53 -2.42,0 -4.14,-2.03 -3.83,-4.53 0.31,-2.5 2.52,-4.53 4.95,-4.53zm14.75 0.13c2.42,0 4.14,2.03 3.83,4.53 -0.31,2.5 -2.53,4.53 -4.95,4.53 -2.42,0 -4.14,-2.03 -3.83,-4.53 0.31,-2.5 2.52,-4.53 4.95,-4.53zm1.83 -15.03c2.42,0 4.14,2.03 3.83,4.53 -0.31,2.51 -2.52,4.53 -4.95,4.53 -2.42,0 -4.14,-2.03 -3.83,-4.53 0.31,-2.5 2.52,-4.53 4.95,-4.53zm-29.37 -0.13c2.42,0 4.14,2.03 3.83,4.53 -0.31,2.51 -2.52,4.53 -4.95,4.53 -2.42,0 -4.14,-2.03 -3.83,-4.53 0.31,-2.5 2.52,-4.53 4.95,-4.53zm14.75 0.13c2.42,0 4.14,2.03 3.83,4.53 -0.31,2.51 -2.52,4.53 -4.95,4.53 -2.42,0 -4.14,-2.03 -3.83,-4.53 0.31,-2.5 2.53,-4.53 4.95,-4.53zm1.93 -14.64c2.42,0 4.14,2.03 3.83,4.53 -0.31,2.5 -2.52,4.54 -4.95,4.54 -2.42,0 -4.14,-2.03 -3.83,-4.54 0.31,-2.5 2.53,-4.53 4.95,-4.53zm-14.75 -0.13c2.42,0 4.14,2.03 3.83,4.53 -0.31,2.5 -2.52,4.54 -4.95,4.54 -2.42,0 -4.14,-2.03 -3.83,-4.54 0.31,-2.5 2.52,-4.53 4.95,-4.53zm29.37 0.13c2.42,0 4.14,2.03 3.83,4.53 -0.31,2.5 -2.52,4.54 -4.95,4.54 -2.42,0 -4.14,-2.03 -3.83,-4.54 0.31,-2.5 2.52,-4.53 4.95,-4.53z"/>
   <rect class="fil0" transform="matrix(0.0737985 -0 -0.00925513 0.0750838 81.5268 -0.000341988)" width="347.61" height="1209.6" rx="87.78" ry="87.78"/>
   <path class="fil0" d="M69.28 6.64l5.96 0 -9.55 77.48c-1.99,0 -3.97,0 -5.96,0 -6.02,-11.12 1.71,-73.55 9.55,-77.48z"/>
   <line class="fil1 str0" x1="19.97" y1="15.35" x2="47.5" y2= "15.35" />
   <line class="fil1 str0" x1="2.85" y1="36.18" x2="30.38" y2= "36.18" />
   <line class="fil1 str0" x1="18.12" y1="57" x2="45.65" y2= "57" />
   <line class="fil1 str0" x1="1" y1="77.82" x2="28.53" y2= "77.82" />
  </g>
 </g>
</svg>
