<?xml version="1.0" encoding="UTF-8"?>
<!DOCTYPE svg PUBLIC "-//W3C//DTD SVG 1.1//EN" "http://www.w3.org/Graphics/SVG/1.1/DTD/svg11.dtd">
<!-- Creator: CorelDRAW 2017 -->
<svg xmlns="http://www.w3.org/2000/svg" xml:space="preserve" width="51.916mm" height="16.6127mm" version="1.1" style="shape-rendering:geometricPrecision; text-rendering:geometricPrecision; image-rendering:optimizeQuality; fill-rule:evenodd; clip-rule:evenodd"
viewBox="0 0 1327.43 424.77"
 xmlns:xlink="http://www.w3.org/1999/xlink">
 <defs>
  <style type="text/css">
   <![CDATA[
    .str0 {stroke:#B2B3B3;stroke-width:5.11;stroke-linecap:round;stroke-miterlimit:22.9256}
    .fil1 {fill:none}
    .fil0 {fill:#B0CB1F}
   ]]>
  </style>
 </defs>
 <g id="Capa_x0020_1">
  <metadata id="CorelCorpID_0Corel-Layer"/>
  <g id="_3015899695280">
   <path class="fil0" d="M983.1 74.18c0,11.68 4.07,20.55 15.98,24.32 8.72,2.75 20.77,-1.22 29.63,-3.43 9.32,-2.32 18.83,-4.5 28.93,-6.79 5.93,-1.34 25.49,-6.77 29.85,-6.77 0.54,0 15.61,15.96 17.01,17.79l16.87 17.93 -45.58 48.75c-2.69,2.72 -3.58,4.57 -6.38,7.36 -2.37,2.35 -4.11,4.02 -6.44,6.38 -2.69,2.72 -3.58,4.57 -6.38,7.36l-20.18 21.03c-2.71,2.74 -3.56,4.58 -6.38,7.35 -7.4,7.29 -9.4,11.36 -9.4,21.74 0,6.69 2.61,12.35 6.13,15.84 2.97,2.95 9.53,6.5 13.4,8.58 23.07,12.42 59.92,29.08 81.5,41.22 3,1.69 4.37,3.12 7.95,3.96l-40.92 66.23c-7.51,12.62 -21.11,29.06 -4.68,45.3 2.25,2.22 3.21,3.16 6.55,4.44 10.89,4.2 19.95,1.72 27.86,-6.27 4.43,-4.48 50.22,-80.24 51.77,-82.85 6.44,-10.86 18.03,-25.27 18.03,-36 0,-10.63 -5.03,-17.09 -11.84,-21.13 -12.41,-7.37 -48.68,-24.65 -66,-33.81l63.18 -67.77c1.7,-2.25 2.18,-2.96 4.58,-4.57l46.17 38.99c8.45,6.6 9.52,9.54 22.51,9.54 9.47,0 18.43,-9.68 23.58,-14.89l30.23 -28.38c2.24,-1.98 3.24,-2.32 5.5,-4.57 15.79,-15.63 21.27,-15.46 21.27,-33.67 0,-9.94 -9.47,-18.43 -17.65,-19.94 -13.24,-2.44 -18.91,3.21 -26.06,10.11l-9.63 8.68c-1.7,1.7 -2.84,2.99 -4.57,4.59l-15.35 13.95c-3.74,2.85 -6.45,6.73 -10.07,9.16 -4.78,-4.16 -8.87,-8.42 -13.5,-13.06l-14.2 -13.27c-2.9,-2.92 -4.4,-3.84 -7.32,-6.42l-27.46 -26.57c-2.72,-2.69 -4.58,-3.58 -7.36,-6.38 -4.37,-4.39 -9.17,-9.87 -13.76,-13.71l-28.35 -26.6c-34.21,-34.27 -24.8,-29.23 -73.58,-18.18 -10.2,2.31 -58.74,12.34 -65.43,16.99 -4.52,3.14 -10.03,9.94 -10.03,17.44z"/>
   <path class="fil0" d="M858.56 332.42c0,7.81 0.32,14.17 7.07,20.4 11.49,10.59 27.07,4.95 41.84,1.96l76.16 -14.5c13.94,-2.69 21.07,-15.55 31.52,-28.92l26.56 -33.88c-6.22,-3.29 -16.4,-7.29 -21.29,-11.67 -2.71,-2.43 -5.9,-5.63 -7.86,-8.62 -1.83,-2.78 -4.63,-8.45 -4.73,-12.67 -3.8,1.02 -5.11,4.15 -7.54,7.12 -2.38,2.9 -4.01,5.33 -6.41,8.24l-22.68 28.6c-5.27,6.86 -4.02,5.57 -14.42,7.56 -3.9,0.75 -9.08,1.62 -13.14,2.43 -10.08,2.02 -66.92,11.61 -73.52,15.31 -5.27,2.95 -11.57,10.89 -11.57,18.65z"/>
   <path class="fil0" d="M1174.5 47.62c0,18.4 1.93,29.17 15.2,42.5 26.02,26.13 69.16,16.77 84.04,-13.78 16.71,-34.31 -7.37,-76.34 -47.04,-76.34 -14.4,0 -28.07,6.59 -35.5,13.95 -8.45,8.37 -16.69,20.34 -16.69,33.67z"/>
  </g>
  <g id="_3015899696432">
   <path class="fil0" d="M482.65 28.79c90.7,-0.18 181.4,-0.38 272.1,-0.56 42.89,31.93 -14.23,356.92 -41.57,337.27l-272.1 0.57 41.57 -337.27zm61.35 37.17l153.9 0c5.6,0 9.61,4.57 8.92,10.18l-3.77 30.56c-0.69,5.6 -5.83,10.18 -11.43,10.18l-153.9 0c-5.6,0 -9.62,-4.57 -8.92,-10.18l3.77 -30.56c0.69,-5.6 5.83,-10.18 11.43,-10.18zm-14.77 216.13c10.59,0 18.07,8.86 16.72,19.8 -1.35,10.94 -11.02,19.8 -21.6,19.8 -10.58,0 -18.08,-8.86 -16.73,-19.8 1.35,-10.94 11.03,-19.8 21.61,-19.8zm63.95 0c10.59,0 18.07,8.86 16.73,19.8 -1.35,10.94 -11.02,19.8 -21.61,19.8 -10.58,0 -18.07,-8.86 -16.72,-19.8 1.35,-10.94 11.02,-19.8 21.6,-19.8zm64.43 0.57c10.58,0 18.08,8.86 16.73,19.8 -1.35,10.94 -11.03,19.8 -21.61,19.8 -10.58,0 -18.07,-8.86 -16.72,-19.8 1.35,-10.94 11.02,-19.8 21.6,-19.8zm7.99 -65.63c10.58,0 18.07,8.86 16.72,19.8 -1.35,10.94 -11.02,19.8 -21.6,19.8 -10.58,0 -18.07,-8.86 -16.72,-19.8 1.35,-10.94 11.02,-19.8 21.6,-19.8zm-128.26 -0.56c10.58,0 18.07,8.86 16.72,19.8 -1.35,10.94 -11.02,19.8 -21.6,19.8 -10.58,0 -18.07,-8.86 -16.72,-19.8 1.35,-10.94 11.02,-19.8 21.6,-19.8zm64.43 0.56c10.58,0 18.07,8.86 16.72,19.8 -1.35,10.94 -11.02,19.8 -21.6,19.8 -10.58,0 -18.08,-8.86 -16.73,-19.8 1.35,-10.94 11.03,-19.8 21.61,-19.8zm8.45 -63.93c10.59,0 18.07,8.87 16.72,19.8 -1.35,10.94 -11.02,19.81 -21.6,19.81 -10.58,0 -18.07,-8.87 -16.73,-19.81 1.35,-10.93 11.03,-19.8 21.61,-19.8zm-64.43 -0.57c10.58,0 18.07,8.86 16.72,19.8 -1.35,10.94 -11.02,19.81 -21.6,19.81 -10.59,0 -18.07,-8.87 -16.72,-19.81 1.35,-10.94 11.02,-19.8 21.6,-19.8zm128.26 0.57c10.59,0 18.07,8.87 16.72,19.8 -1.35,10.94 -11.02,19.81 -21.6,19.81 -10.58,0 -18.07,-8.87 -16.72,-19.81 1.35,-10.93 11.02,-19.8 21.6,-19.8z"/>
   <rect class="fil0" transform="matrix(0.125449 -0 -0.0157327 0.127634 354.237 0.186224)" width="892.99" height="3107.43" rx="225.5" ry="225.5"/>
   <path class="fil0" d="M300.73 29.18l26.03 0 -41.71 338.34c-8.68,0 -17.35,0 -26.03,0 -26.28,-48.56 7.47,-321.22 41.71,-338.34z"/>
  </g>
  <line class="fil1 str0" x1="85.41" y1="67.24" x2="205.64" y2= "67.24" />
  <line class="fil1 str0" x1="10.64" y1="158.17" x2="130.87" y2= "158.17" />
  <line class="fil1 str0" x1="77.32" y1="249.1" x2="197.56" y2= "249.1" />
  <line class="fil1 str0" x1="2.56" y1="340.03" x2="122.79" y2= "340.03" />
 </g>
</svg>
