<?xml version="1.0" encoding="UTF-8"?>
<!DOCTYPE svg PUBLIC "-//W3C//DTD SVG 1.1//EN" "http://www.w3.org/Graphics/SVG/1.1/DTD/svg11.dtd">
<!-- Creator: CorelDRAW X7 -->
<svg xmlns="http://www.w3.org/2000/svg" xml:space="preserve" width="5.5197mm" height="5.5198mm" version="1.1" style="shape-rendering:geometricPrecision; text-rendering:geometricPrecision; image-rendering:optimizeQuality; fill-rule:evenodd; clip-rule:evenodd"
viewBox="0 0 170 170"
 xmlns:xlink="http://www.w3.org/1999/xlink">
 <defs>
  <style type="text/css">
   <![CDATA[
    .fil0 {fill:#B2B3B3}
   ]]>
  </style>
 </defs>
 <g id="Capa_x0020_1">
  <metadata id="CorelCorpID_0Corel-Layer"/>
  <g id="_2224200672944">
   <path class="fil0" d="M6 88c0,-12 1,-18 5,-30 0,-2 1,-4 2,-6 3,-8 10,-17 16,-23 4,-4 6,-5 10,-9 2,-1 4,-2 6,-3 2,-1 4,-3 6,-4 3,-1 5,-1 7,-2 17,-7 36,-7 54,0 6,2 14,6 19,9 8,6 13,11 19,19 8,12 14,28 14,43 0,9 0,14 -2,23 -2,6 -5,14 -8,20 -3,4 -7,10 -10,14 -5,5 -7,6 -13,11 -2,1 -4,2 -6,3 -11,7 -24,11 -37,11 -17,0 -22,-1 -36,-7 -8,-3 -17,-10 -23,-16 -1,-1 -1,-1 -2,-2 -7,-7 -13,-18 -16,-27 -1,-2 -2,-5 -3,-7 -1,-5 -2,-11 -2,-17zm74 -88l9 0c10,1 20,3 29,6 6,3 17,10 22,14 6,6 7,6 13,13 2,3 8,12 9,16 3,6 4,7 6,15 1,5 2,11 2,16l0 9c0,10 -2,20 -6,29 -3,8 -11,19 -16,25 -7,7 -11,10 -20,16l-10 5c-15,5 -19,6 -37,6 -13,0 -28,-5 -39,-11 -2,-2 -4,-3 -6,-4 -3,-2 -7,-5 -9,-7 -1,-1 -1,-2 -2,-3 -7,-7 -15,-18 -19,-27 -5,-15 -6,-19 -6,-37 0,-7 2,-19 5,-25 4,-9 7,-15 13,-23 4,-6 7,-8 12,-13l6 -5c4,-2 6,-3 9,-5 2,-1 3,-2 4,-2 6,-3 7,-4 15,-5 5,-2 11,-3 16,-3z"/>
   <path class="fil0" d="M29 102l0 -37c0,-1 0,-2 1,-2 1,0 2,0 3,-1l22 1c5,-1 8,-4 11,-8 7,-6 13,-11 19,-17l6 -6c1,-1 2,-2 4,-3 1,-1 1,-1 2,-2 0,0 1,-1 2,-1 2,0 3,2 3,4l0 108c0,2 -1,4 -3,4 -2,0 -8,-7 -9,-8l-27 -25c-3,-3 -4,-4 -10,-4l-20 0c-2,0 -4,0 -4,-3zm-6 -37l0 38c0,4 3,7 7,8 2,0 17,0 22,0 1,0 2,0 3,0 2,0 7,5 9,7l11 11c1,0 2,1 2,2l6 5c1,1 1,1 2,2 2,1 3,3 4,4 4,3 4,6 11,6 4,0 8,-5 8,-10l0 -108c0,-11 -10,-12 -14,-9l-9 9c-1,0 -1,1 -2,2 -1,1 -2,1 -3,2l-6 6c-1,1 -2,2 -3,2l-14 13c-2,2 -2,2 -7,2 -6,0 -12,-1 -18,0 -5,0 -9,3 -9,8z"/>
   <path class="fil0" d="M113 60c0,1 1,1 2,3 2,1 4,5 5,7 10,23 -7,34 -7,38 0,3 2,3 4,3 2,0 8,-9 9,-11 10,-22 -5,-43 -10,-43 -1,0 -3,1 -3,3z"/>
  </g>
 </g>
</svg>
