<?xml version="1.0" encoding="UTF-8"?>
<!DOCTYPE svg PUBLIC "-//W3C//DTD SVG 1.1//EN" "http://www.w3.org/Graphics/SVG/1.1/DTD/svg11.dtd">
<!-- Creator: CorelDRAW X7 -->
<svg xmlns="http://www.w3.org/2000/svg" xml:space="preserve" width="3.1071mm" height="3.1071mm" version="1.1" style="shape-rendering:geometricPrecision; text-rendering:geometricPrecision; image-rendering:optimizeQuality; fill-rule:evenodd; clip-rule:evenodd"
viewBox="0 0 36 36"
 xmlns:xlink="http://www.w3.org/1999/xlink">
 <defs>
  <style type="text/css">
   <![CDATA[
    .fil0 {fill:#FEFEFE}
   ]]>
  </style>
 </defs>
 <g id="Capa_x0020_1">
  <metadata id="CorelCorpID_0Corel-Layer"/>
  <g id="_2258848046864">
   <path class="fil0" d="M16 10c0,1 1,1 2,1 1,0 1,0 2,-1 0,0 4,-4 4,-4l0 27c0,1 0,1 0,2 1,0 1,0 2,1l0 0c1,-1 1,-1 1,-1 1,-1 0,-1 0,-2l0 -27c1,0 4,3 5,4 1,1 1,1 2,1 1,0 2,0 2,-1 0,-1 -1,-1 -1,-2l-7 -7c-1,-1 -1,-1 -2,-1 -1,0 -3,2 -3,2 -1,1 -6,6 -7,7 0,0 0,0 0,1z"/>
   <path class="fil0" d="M8 30c0,0 -4,-4 -4,-5 -1,0 -1,-1 -3,-1 0,0 -1,1 -1,2 0,1 0,1 1,1 0,1 1,1 1,2l6 6c1,0 1,1 2,1 1,0 2,-2 3,-3l6 -6c0,0 0,0 0,0 0,0 0,0 0,-1 1,-1 0,-2 -1,-2 -1,0 -2,1 -2,1 -1,1 -4,5 -5,5l0 -28c0,0 0,-1 0,-1 0,-1 -1,-1 -1,-1l-1 0c0,0 0,0 -1,1 0,0 0,1 0,1l0 28z"/>
  </g>
 </g>
</svg>
