<?xml version="1.0" encoding="UTF-8"?>
<!DOCTYPE svg PUBLIC "-//W3C//DTD SVG 1.1//EN" "http://www.w3.org/Graphics/SVG/1.1/DTD/svg11.dtd">
<!-- Creator: CorelDRAW X7 -->
<svg xmlns="http://www.w3.org/2000/svg" xml:space="preserve" width="8.9647mm" height="8.9647mm" version="1.1" style="shape-rendering:geometricPrecision; text-rendering:geometricPrecision; image-rendering:optimizeQuality; fill-rule:evenodd; clip-rule:evenodd"
viewBox="0 0 50 50"
 xmlns:xlink="http://www.w3.org/1999/xlink">
 <defs>
  <style type="text/css">
   <![CDATA[
    .fil0 {fill:#727271}
   ]]>
  </style>
 </defs>
 <g id="Capa_x0020_1">
  <metadata id="CorelCorpID_0Corel-Layer"/>
  <g id="_2588713452784">
   <path class="fil0" d="M2 26c0,-4 0,-6 1,-9 0,-1 1,-1 1,-2 1,-2 3,-5 5,-6 1,-2 1,-2 2,-3 1,0 2,-1 2,-1 1,0 1,-1 2,-1 1,0 1,-1 2,-1 5,-2 11,-2 16,0 1,1 4,2 5,3 2,2 4,3 6,5 2,4 4,9 4,13 0,3 0,4 -1,7 0,1 -1,4 -2,5 -1,2 -2,3 -3,4 -2,2 -2,2 -4,4 0,0 -1,0 -2,1 -3,2 -7,3 -10,3 -5,0 -7,-1 -11,-2 -2,-1 -5,-3 -6,-5 -1,0 -1,0 -1,-1 -2,-1 -4,-5 -5,-7 0,-1 0,-2 -1,-2 0,-2 0,-4 0,-5zm21 -26l3 0c3,0 6,1 8,2 2,1 6,3 7,4 2,2 2,2 4,4 0,1 2,3 2,4 1,2 1,2 2,5 0,1 1,3 1,4l0 3c-1,3 -1,6 -2,8 -1,3 -3,6 -5,8 -2,2 -3,3 -6,4l-3 2c-4,1 -5,2 -10,2 -4,0 -9,-2 -12,-4 0,0 -1,0 -2,-1 0,0 -1,-1 -2,-2 0,0 0,0 -1,-1 -2,-2 -4,-5 -5,-8 -2,-4 -2,-5 -2,-10 0,-3 1,-6 1,-8 2,-2 2,-4 4,-6 1,-2 2,-3 4,-4l1 -2c2,0 2,-1 3,-1 1,0 1,-1 1,-1 2,0 2,-1 5,-1 1,-1 3,-1 4,-1z"/>
   <path class="fil0" d="M24 6l0 19 -13 0c0,0 -1,2 1,2l13 0c0,0 1,-1 1,-1l0 -20c0,-1 -2,-1 -2,0z"/>
  </g>
 </g>
</svg>
