<?xml version="1.0" encoding="UTF-8"?>
<!DOCTYPE svg PUBLIC "-//W3C//DTD SVG 1.1//EN" "http://www.w3.org/Graphics/SVG/1.1/DTD/svg11.dtd">
<!-- Creator: CorelDRAW X7 -->
<svg xmlns="http://www.w3.org/2000/svg" xml:space="preserve" width="7.8614mm" height="3.7974mm" version="1.1" style="shape-rendering:geometricPrecision; text-rendering:geometricPrecision; image-rendering:optimizeQuality; fill-rule:evenodd; clip-rule:evenodd"
viewBox="0 0 597 288"
 xmlns:xlink="http://www.w3.org/1999/xlink">
 <defs>
  <style type="text/css">
   <![CDATA[
    .str0 {stroke:#FEFEFE;stroke-width:5.78614}
    .fil1 {fill:none}
    .fil0 {fill:#FEFEFE}
    .fil2 {fill:#FEFEFE;fill-rule:nonzero}
   ]]>
  </style>
 </defs>
 <g id="Capa_x0020_1">
  <metadata id="CorelCorpID_0Corel-Layer"/>
  <path class="fil0" d="M10 57c0,-7 1,-14 5,-19 9,-10 24,-28 37,-28 7,0 13,3 18,8 8,7 26,30 26,42 0,21 -23,26 -23,40 0,10 3,15 8,24 3,6 7,11 11,16 10,12 14,16 24,26 1,1 2,2 3,4l18 16c10,10 35,29 49,29 12,0 14,-7 24,-15 6,-5 9,-8 18,-8 10,0 25,11 31,16 9,7 19,15 19,29 0,12 -18,28 -27,36 -16,14 -61,-3 -74,-10l-18 -9c-12,-7 -34,-23 -44,-32l-26 -23c-1,-1 -2,-2 -3,-3 -1,-2 -2,-3 -3,-4l-20 -22c-11,-14 -14,-18 -23,-32 -14,-21 -30,-56 -30,-81zm38 -57l7 0c7,1 14,4 21,9 8,7 19,22 24,31 6,9 8,19 6,29 -2,7 -8,15 -12,20 -4,4 -11,8 -11,13 0,10 13,25 19,33l38 40c1,1 2,1 3,3 8,8 32,27 43,27 12,0 22,-37 60,-18 15,7 42,28 42,46 0,14 -2,18 -10,28l-9 9c-16,16 -18,18 -41,18l-1 0c-20,0 -46,-12 -64,-20l-18 -11c-37,-22 -77,-62 -102,-96 -12,-17 -23,-34 -31,-54l-8 -21c-4,-13 -4,-20 -4,-32l0 -3c0,-6 3,-15 6,-19 3,-3 18,-19 22,-22l7 -5c4,-3 9,-5 13,-5z"/>
  <g id="_2258857490816">
   <circle class="fil1 str0" cx="155" cy="138" r="17"/>
   <circle class="fil1 str0" cx="204" cy="138" r="17"/>
   <circle class="fil1 str0" cx="253" cy="138" r="17"/>
   <polygon class="fil2" points="284,110 284,102 322,140 284,179 284,171 314,140 "/>
  </g>
  <path class="fil0" d="M319 57c0,-7 0,-14 5,-19 8,-10 24,-28 36,-28 8,0 13,3 18,8 9,7 27,30 27,42 0,21 -23,26 -23,40 0,10 2,15 7,24 4,6 8,11 12,16 10,12 13,16 23,26 2,1 2,2 4,4l18 16c10,10 35,29 48,29 12,0 15,-7 24,-15 7,-5 9,-8 19,-8 10,0 24,11 30,16 9,7 20,15 20,29 0,12 -18,28 -28,36 -15,14 -60,-3 -73,-10l-18 -9c-12,-7 -34,-23 -45,-32l-25 -23c-1,-1 -2,-2 -3,-3 -2,-2 -2,-3 -3,-4l-20 -22c-11,-14 -14,-18 -23,-32 -14,-21 -30,-56 -30,-81zm38 -57l7 0c7,1 14,4 20,9 9,7 20,22 25,31 5,9 8,19 6,29 -2,7 -8,15 -13,20 -4,4 -10,8 -10,13 0,10 12,25 19,33l37 40c2,1 2,1 4,3 8,8 32,27 43,27 11,0 22,-37 60,-18 15,7 42,28 42,46 0,14 -3,18 -10,28l-9 9c-16,16 -18,18 -41,18l-1 0c-21,0 -47,-12 -65,-20l-17 -11c-37,-22 -78,-62 -102,-96 -13,-17 -23,-34 -32,-54l-7 -21c-4,-13 -4,-20 -4,-32l0 -3c0,-6 3,-15 6,-19 2,-3 17,-19 22,-22l7 -5c4,-3 9,-5 13,-5z"/>
 </g>
</svg>
