<?xml version="1.0" encoding="UTF-8"?>
<!DOCTYPE svg PUBLIC "-//W3C//DTD SVG 1.1//EN" "http://www.w3.org/Graphics/SVG/1.1/DTD/svg11.dtd">
<!-- Creator: CorelDRAW X7 -->
<svg xmlns="http://www.w3.org/2000/svg" xml:space="preserve" width="9.8107mm" height="7.0798mm" version="1.1" style="shape-rendering:geometricPrecision; text-rendering:geometricPrecision; image-rendering:optimizeQuality; fill-rule:evenodd; clip-rule:evenodd"
viewBox="0 0 60 43"
 xmlns:xlink="http://www.w3.org/1999/xlink">
 <defs>
  <style type="text/css">
   <![CDATA[
    .fil0 {fill:#9D9E9E}
   ]]>
  </style>
 </defs>
 <g id="Capa_x0020_1">
  <metadata id="CorelCorpID_0Corel-Layer"/>
  <path class="fil0" d="M13 26c3,0 2,0 4,1l3 4c0,0 1,1 2,1 0,-1 5,-6 6,-6 2,0 4,0 7,2 1,1 2,2 3,4 0,1 0,1 0,1l-1 2c-1,1 -3,3 -4,3l0 -3 -1 0 0 4 -2 1c-2,1 -5,2 -8,2 -2,0 -4,0 -6,-1 -1,0 -2,-1 -3,-1 -1,-1 -1,-1 -1,-1l0 -4 -2 0 0 3c-1,0 -4,-3 -5,-5 0,0 0,0 0,0 0,-1 1,-1 1,-2 0,-1 1,-1 1,-2 0,0 1,-1 2,-1 1,-1 2,-2 4,-2zm7 -26l3 0c2,0 5,1 7,2 2,0 4,2 6,3 1,2 1,2 3,3 1,1 2,3 2,4 0,1 1,1 1,1 1,4 1,5 1,10 0,2 -1,6 -2,8l-2 4c-1,0 -1,1 -2,2 -4,4 -9,6 -14,6l-1 0c-3,0 -4,0 -8,-1 -1,0 -1,-1 -2,-1 0,0 -1,0 -1,-1 -3,-1 -4,-2 -6,-4l-1 -2c0,0 -2,-2 -2,-3 0,-1 -1,-1 -1,-2l0 -2c-1,-2 -1,-3 -1,-5l0 0 0 -1 0 0c0,-2 1,-5 1,-7 1,-2 2,-4 4,-6 1,-1 1,-2 3,-3l1 -1c1,-1 2,-1 3,-2 0,0 0,0 0,0 2,-1 2,-1 4,-1 2,-1 3,-1 4,-1zm-8 11c0,0 0,0 1,-1 0,0 0,-1 1,-1 2,-1 4,0 6,0 1,0 2,0 3,-1 1,0 2,-1 2,-2 1,1 2,1 2,1 1,0 1,1 1,1 1,0 3,2 3,2 0,4 -1,6 -2,9 -1,1 -2,2 -3,2 -1,1 -2,1 -2,3 0,2 1,2 1,2l-3 4 -4 -4c0,0 0,0 1,0 0,0 0,0 0,-1 0,0 1,0 1,-1 0,-2 -2,-2 -3,-2 -3,-2 -5,-8 -5,-11zm1 -3l0 0zm0 0c0,-1 2,-4 3,-5 0,0 0,0 0,0 4,-3 10,-2 13,2 0,1 1,2 1,3 -1,-1 0,-1 -2,-2 -1,-1 -2,-1 -4,-1 0,1 0,1 -1,2 -1,1 -2,1 -4,1 -1,0 -3,-2 -5,-1 -1,1 -1,1 -1,1zm16 -5c1,0 3,1 4,2 2,2 5,4 6,7 0,0 1,0 1,1 0,0 0,0 0,1 1,2 2,5 2,9 0,1 0,2 -1,2 0,2 -1,5 -2,6 0,0 0,0 0,0 0,-1 -1,-2 -2,-3 0,-1 -1,-2 -2,-2 -5,-2 -7,-1 -10,-2 0,0 0,0 0,0 0,0 0,0 1,0 0,0 0,-1 0,-1 0,0 0,0 1,0 4,-3 6,-10 5,-15 0,-2 -1,-3 -2,-4 0,-1 -1,-1 -1,-1zm-15 0c0,1 -1,1 -2,2 0,1 -1,2 -1,3 0,2 0,5 0,7 1,3 3,7 6,8l1 1c0,0 0,0 0,0 -2,1 -4,0 -7,1 -3,1 -5,2 -6,5 0,0 -1,1 -1,1l0 0c-1,-2 -2,-4 -2,-6 -1,-4 0,-7 1,-11 2,-4 5,-8 9,-10 1,0 1,-1 2,-1zm15 0l0 0zm-15 0l0 0z"/>
  <g id="_2258845798272">
   <path class="fil0" d="M48 27c4,0 7,0 11,0 2,2 1,14 0,14l-11 0 0 -14zm3 2l6 0c0,0 0,0 0,0l0 1c0,1 0,1 0,1l-6 0c-1,0 -1,0 -1,-1l0 -1c0,0 0,0 1,0zm3 3c0,0 0,1 0,1 0,0 0,1 0,1 -1,0 -1,-1 -1,-1 0,0 0,-1 1,-1zm0 3c0,0 0,0 0,1 0,0 0,0 0,0 -1,0 -1,0 -1,0 0,-1 0,-1 1,-1zm-3 2c1,0 1,1 1,1 0,1 0,1 -1,1 0,0 -1,0 -1,-1 0,0 1,-1 1,-1zm3 0c0,0 0,1 0,1 0,1 0,1 0,1 -1,0 -1,0 -1,-1 0,0 0,-1 1,-1zm2 0c1,0 1,1 1,1 0,1 0,1 -1,1 0,0 -1,0 -1,-1 0,0 1,-1 1,-1zm0 -5c1,0 1,1 1,1 0,0 0,1 -1,1 0,0 -1,-1 -1,-1 0,0 1,-1 1,-1zm0 3c1,0 1,0 1,1 0,0 0,0 -1,0 0,0 -1,0 -1,0 0,-1 1,-1 1,-1zm-5 -3c1,0 1,1 1,1 0,0 0,1 -1,1 0,0 -1,-1 -1,-1 0,0 1,-1 1,-1zm0 3c1,0 1,0 1,0 0,1 0,1 -1,1 0,0 -1,0 -1,-1 0,0 1,0 1,0z"/>
   <rect class="fil0" x="43" y="26" width="4.44341" height="15.7315" rx="1" ry="1"/>
   <path class="fil0" d="M41 27l1 0 0 14c0,0 -1,0 -1,0 -1,-2 -1,-13 0,-14z"/>
  </g>
 </g>
</svg>
