<?xml version="1.0" encoding="UTF-8"?>
<!DOCTYPE svg PUBLIC "-//W3C//DTD SVG 1.1//EN" "http://www.w3.org/Graphics/SVG/1.1/DTD/svg11.dtd">
<!-- Creator: CorelDRAW X7 -->
<svg xmlns="http://www.w3.org/2000/svg" xml:space="preserve" width="5.591mm" height="3.538mm" version="1.1" style="shape-rendering:geometricPrecision; text-rendering:geometricPrecision; image-rendering:optimizeQuality; fill-rule:evenodd; clip-rule:evenodd"
viewBox="0 0 120 76"
 xmlns:xlink="http://www.w3.org/1999/xlink">
 <defs>
  <style type="text/css">
   <![CDATA[
    .fil0 {fill:#FEFEFE}
   ]]>
  </style>
 </defs>
 <g id="Capa_x0020_1">
  <metadata id="CorelCorpID_0Corel-Layer"/>
  <path class="fil0" d="M75 70l-62 0c-2,0 -3,-1 -4,-2 -2,-2 -2,-3 -2,-5l0 -50c0,-4 3,-6 6,-6l62 0c5,0 7,3 7,8l0 47c0,4 -2,8 -7,8zm14 -45c1,0 2,-1 3,-1 1,-1 2,-2 3,-2 2,-2 17,-12 19,-12l0 56c-2,0 -2,-1 -3,-1l-16 -10c-1,-1 -2,-2 -3,-2 -1,-1 -2,-2 -3,-2l0 -26zm-89 -14l0 54c0,5 6,11 11,11l66 0c4,0 8,-2 9,-5 3,-4 3,-6 3,-12 4,2 16,10 21,13 0,1 10,9 10,1l0 -71c0,-2 -1,-2 -3,-2 -2,0 -5,3 -7,4l-17 11c-2,1 -3,2 -4,2 0,-6 0,-8 -2,-12 -2,-3 -6,-5 -10,-5l-66 0c-5,0 -11,6 -11,11z"/>
 </g>
</svg>
