<?xml version="1.0" encoding="UTF-8"?>
<!DOCTYPE svg PUBLIC "-//W3C//DTD SVG 1.1//EN" "http://www.w3.org/Graphics/SVG/1.1/DTD/svg11.dtd">
<!-- Creator: CorelDRAW 2017 -->
<svg xmlns="http://www.w3.org/2000/svg" xml:space="preserve" width="128px" height="106px" version="1.1" style="shape-rendering:geometricPrecision; text-rendering:geometricPrecision; image-rendering:optimizeQuality; fill-rule:evenodd; clip-rule:evenodd"
viewBox="0 0 4.97 4.11"
 xmlns:xlink="http://www.w3.org/1999/xlink">
 <defs>
  <style type="text/css">
   <![CDATA[
    .fil0 {fill:#FEFEFE}
   ]]>
  </style>
 </defs>
 <g id="Capa_x0020_1">
  <metadata id="CorelCorpID_0Corel-Layer"/>
  <path class="fil0" d="M2.47 0.83c0.75,0 1.51,0 2.26,0 0.39,0.26 0.24,2.96 0,2.79l-2.26 0.01 0 -2.8zm0.55 0.31l1.27 0c0.05,0 0.09,0.04 0.09,0.09l0 0.25c0,0.05 -0.04,0.08 -0.09,0.08l-1.27 0c-0.05,0 -0.08,-0.03 -0.08,-0.08l0 -0.25c0,-0.05 0.03,-0.09 0.08,-0.09zm0.1 1.79c0.09,0 0.16,0.08 0.16,0.17 0,0.09 -0.07,0.16 -0.16,0.16 -0.09,0 -0.16,-0.07 -0.16,-0.16 0,-0.09 0.07,-0.17 0.16,-0.17zm0.53 0c0.09,0 0.16,0.08 0.16,0.17 0,0.09 -0.07,0.16 -0.16,0.16 -0.09,0 -0.16,-0.07 -0.16,-0.16 0,-0.09 0.07,-0.17 0.16,-0.17zm0.53 0.01c0.09,0 0.16,0.07 0.16,0.16 0,0.09 -0.07,0.17 -0.16,0.17 -0.09,0 -0.16,-0.08 -0.16,-0.17 0,-0.09 0.07,-0.16 0.16,-0.16zm0 -0.55c0.09,0 0.16,0.08 0.16,0.17 0,0.09 -0.07,0.16 -0.16,0.16 -0.09,0 -0.16,-0.07 -0.16,-0.16 0,-0.09 0.07,-0.17 0.16,-0.17zm-1.06 0c0.09,0 0.16,0.07 0.16,0.16 0,0.09 -0.07,0.17 -0.16,0.17 -0.09,0 -0.16,-0.08 -0.16,-0.17 0,-0.09 0.07,-0.16 0.16,-0.16zm0.53 0c0.09,0 0.16,0.08 0.16,0.17 0,0.09 -0.07,0.16 -0.16,0.16 -0.09,0 -0.16,-0.07 -0.16,-0.16 0,-0.09 0.07,-0.17 0.16,-0.17zm0.01 -0.53c0.08,0 0.16,0.08 0.16,0.17 0,0.09 -0.08,0.16 -0.16,0.16 -0.09,0 -0.16,-0.07 -0.16,-0.16 0,-0.09 0.07,-0.17 0.16,-0.17zm-0.54 0c0.09,0 0.16,0.07 0.16,0.16 0,0.09 -0.07,0.17 -0.16,0.17 -0.09,0 -0.16,-0.08 -0.16,-0.17 0,-0.09 0.07,-0.16 0.16,-0.16zm1.07 0c0.08,0 0.15,0.08 0.15,0.17 0,0.09 -0.07,0.16 -0.15,0.16 -0.09,0 -0.16,-0.07 -0.16,-0.16 0,-0.09 0.07,-0.17 0.16,-0.17z"/>
  <path class="fil0" d="M0.42 2.1c0,-0.17 0,-0.21 0.04,-0.37 0.09,0.06 0.27,0.26 0.36,0.35l0.56 0.56c0.1,0.09 0.02,0.14 0.05,0.31 0.04,0.19 0.2,0.34 0.4,0.35l0 0.37c-0.37,-0.01 -0.73,-0.27 -0.97,-0.51 -0.22,-0.22 -0.44,-0.63 -0.44,-1.06zm1.92 -2.08l0 1.01c-0.15,0.03 -0.33,0.01 -0.49,0.01 0,0.66 0.06,0.62 -0.62,0.62l0 0.38 1.11 0 0 2.05c-0.12,0.01 -0.26,0.02 -0.4,0.02 -0.51,0 -1.02,-0.27 -1.35,-0.6 -0.18,-0.18 -0.28,-0.33 -0.4,-0.57 -0.17,-0.35 -0.19,-0.6 -0.19,-1 0,-0.38 0.17,-0.8 0.38,-1.09 0.15,-0.21 0.19,-0.22 0.35,-0.37 0.39,-0.37 1.06,-0.54 1.61,-0.46z"/>
 </g>
</svg>
