<?xml version="1.0" encoding="UTF-8"?>
<!DOCTYPE svg PUBLIC "-//W3C//DTD SVG 1.1//EN" "http://www.w3.org/Graphics/SVG/1.1/DTD/svg11.dtd">
<!-- Creator: CorelDRAW X7 -->
<svg xmlns="http://www.w3.org/2000/svg" xml:space="preserve" width="7.1149mm" height="5.8794mm" version="1.1" style="shape-rendering:geometricPrecision; text-rendering:geometricPrecision; image-rendering:optimizeQuality; fill-rule:evenodd; clip-rule:evenodd"
viewBox="0 0 18 15"
 xmlns:xlink="http://www.w3.org/1999/xlink">
 <defs>
  <style type="text/css">
   <![CDATA[
    .fil0 {fill:#FEFEFE}
   ]]>
  </style>
 </defs>
 <g id="Capa_x0020_1">
  <metadata id="CorelCorpID_0Corel-Layer"/>
  <g id="_2258848035056">
   <path class="fil0" d="M9 3c3,0 6,0 8,0 2,1 1,11 0,10l-8 0 0 -10zm2 1l5 0c0,0 0,0 0,0l0 1c0,1 0,1 0,1l-5 0c0,0 0,0 0,-1l0 -1c0,0 0,0 0,0zm0 7c1,0 1,0 1,0 0,1 0,1 -1,1 0,0 0,0 0,-1 0,0 0,0 0,0zm2 0c1,0 1,0 1,0 0,1 0,1 -1,1 0,0 0,0 0,-1 0,0 0,0 0,0zm2 0c1,0 1,0 1,0 0,1 0,1 -1,1 0,0 0,0 0,-1 0,0 0,0 0,0zm0 -2c1,0 1,0 1,0 0,1 0,1 -1,1 0,0 0,0 0,-1 0,0 0,0 0,0zm-4 0c1,0 1,0 1,0 0,1 0,1 -1,1 0,0 0,0 0,-1 0,0 0,0 0,0zm2 0c1,0 1,0 1,0 0,1 0,1 -1,1 0,0 0,0 0,-1 0,0 0,0 0,0zm0 -2c1,0 1,0 1,0 0,1 0,1 -1,1 0,0 0,0 0,-1 0,0 0,0 0,0zm-2 0c1,0 1,0 1,0 0,1 0,1 -1,1 0,0 0,0 0,-1 0,0 0,0 0,0zm4 0c1,0 1,0 1,0 0,1 0,1 -1,1 0,0 0,0 0,-1 0,0 0,0 0,0z"/>
   <path class="fil0" d="M2 8c0,-1 0,-1 0,-2 0,1 1,1 1,2l2 2c0,0 0,0 0,1 0,0 1,1 2,1l0 1c-2,0 -3,-1 -4,-1 -1,-1 -1,-3 -1,-4zm7 -8l0 4c-1,0 -2,0 -2,0 0,2 0,2 -3,2l0 1 5 0 0 8c-1,0 -1,0 -2,0 -2,0 -4,-1 -5,-2 -1,-1 -1,-1 -1,-2 -1,-2 -1,-2 -1,-4 0,-1 1,-3 1,-4 1,-1 1,-1 2,-1 1,-2 4,-2 6,-2z"/>
  </g>
 </g>
</svg>
