<?xml version="1.0" encoding="UTF-8"?>
<!DOCTYPE svg PUBLIC "-//W3C//DTD SVG 1.1//EN" "http://www.w3.org/Graphics/SVG/1.1/DTD/svg11.dtd">
<!-- Creator: CorelDRAW 2017 -->
<svg xmlns="http://www.w3.org/2000/svg" xml:space="preserve" width="84px" height="69px" version="1.1" style="shape-rendering:geometricPrecision; text-rendering:geometricPrecision; image-rendering:optimizeQuality; fill-rule:evenodd; clip-rule:evenodd"
viewBox="0 0 2.14 1.77"
 xmlns:xlink="http://www.w3.org/1999/xlink">
 <defs>
  <style type="text/css">
   <![CDATA[
    .fil0 {fill:#2B2A29}
   ]]>
  </style>
 </defs>
 <g id="Capa_x0020_1">
  <metadata id="CorelCorpID_0Corel-Layer"/>
  <g id="_1975808654736">
   <path class="fil0" d="M1.07 0.36c0.32,0 0.64,0 0.97,0 0.16,0.11 0.1,1.27 0,1.2l-0.97 0 0 -1.2zm0.23 0.13l0.55 0c0.02,0 0.04,0.02 0.04,0.04l0 0.11c0,0.02 -0.02,0.03 -0.04,0.03l-0.55 0c-0.02,0 -0.04,-0.01 -0.04,-0.03l0 -0.11c0,-0.02 0.02,-0.04 0.04,-0.04zm0.04 0.77c0.04,0 0.07,0.04 0.07,0.07 0,0.04 -0.03,0.07 -0.07,0.07 -0.03,0 -0.07,-0.03 -0.07,-0.07 0,-0.03 0.04,-0.07 0.07,-0.07zm0.23 0c0.04,0 0.07,0.04 0.07,0.07 0,0.04 -0.03,0.07 -0.07,0.07 -0.04,0 -0.07,-0.03 -0.07,-0.07 0,-0.03 0.03,-0.07 0.07,-0.07zm0.23 0.01c0.04,0 0.07,0.03 0.07,0.07 0,0.04 -0.03,0.07 -0.07,0.07 -0.04,0 -0.07,-0.03 -0.07,-0.07 0,-0.04 0.03,-0.07 0.07,-0.07zm0 -0.24c0.04,0 0.07,0.03 0.07,0.07 0,0.04 -0.03,0.07 -0.07,0.07 -0.04,0 -0.07,-0.03 -0.07,-0.07 0,-0.04 0.03,-0.07 0.07,-0.07zm-0.46 0c0.04,0 0.07,0.03 0.07,0.07 0,0.04 -0.03,0.07 -0.07,0.07 -0.03,0 -0.07,-0.03 -0.07,-0.07 0,-0.04 0.04,-0.07 0.07,-0.07zm0.23 0c0.04,0 0.07,0.03 0.07,0.07 0,0.04 -0.03,0.07 -0.07,0.07 -0.03,0 -0.07,-0.03 -0.07,-0.07 0,-0.04 0.04,-0.07 0.07,-0.07zm0.01 -0.23c0.03,0 0.06,0.03 0.06,0.07 0,0.04 -0.03,0.07 -0.06,0.07 -0.04,0 -0.07,-0.03 -0.07,-0.07 0,-0.04 0.03,-0.07 0.07,-0.07zm-0.23 0c0.03,0 0.06,0.03 0.06,0.07 0,0.04 -0.03,0.07 -0.06,0.07 -0.04,0 -0.07,-0.03 -0.07,-0.07 0,-0.04 0.03,-0.07 0.07,-0.07zm0.45 0c0.04,0 0.07,0.03 0.07,0.07 0,0.04 -0.03,0.07 -0.07,0.07 -0.03,0 -0.07,-0.03 -0.07,-0.07 0,-0.04 0.04,-0.07 0.07,-0.07z"/>
   <path class="fil0" d="M0.18 0.9c0,-0.07 0,-0.09 0.02,-0.16 0.04,0.03 0.12,0.12 0.15,0.16l0.24 0.24c0.05,0.04 0.01,0.06 0.03,0.13 0.01,0.08 0.08,0.15 0.17,0.15l0 0.16c-0.16,0 -0.32,-0.12 -0.42,-0.22 -0.1,-0.09 -0.19,-0.27 -0.19,-0.46zm0.83 -0.89l0 0.43c-0.07,0.02 -0.14,0.01 -0.21,0.01 0,0.28 0.02,0.26 -0.27,0.26l0 0.17 0.48 0 0 0.88c-0.05,0.01 -0.11,0.01 -0.18,0.01 -0.21,0 -0.43,-0.12 -0.57,-0.26 -0.08,-0.08 -0.12,-0.14 -0.18,-0.24 -0.07,-0.15 -0.08,-0.26 -0.08,-0.43 0,-0.17 0.08,-0.35 0.16,-0.47 0.07,-0.09 0.09,-0.1 0.15,-0.16 0.17,-0.16 0.46,-0.24 0.7,-0.2z"/>
  </g>
 </g>
</svg>
