<?xml version="1.0" encoding="UTF-8"?>
<!DOCTYPE svg PUBLIC "-//W3C//DTD SVG 1.1//EN" "http://www.w3.org/Graphics/SVG/1.1/DTD/svg11.dtd">
<!-- Creator: CorelDRAW X7 -->
<svg xmlns="http://www.w3.org/2000/svg" xml:space="preserve" width="34.3975mm" height="7.1694mm" version="1.1" style="shape-rendering:geometricPrecision; text-rendering:geometricPrecision; image-rendering:optimizeQuality; fill-rule:evenodd; clip-rule:evenodd"
viewBox="0 0 2217 462"
 xmlns:xlink="http://www.w3.org/1999/xlink">
 <defs>
  <style type="text/css">
   <![CDATA[
    .str0 {stroke:#FEFEFE;stroke-width:4.91026}
    .fil0 {fill:#FEFEFE}
    .fil1 {fill:#FEFEFE;fill-rule:nonzero}
   ]]>
  </style>
    <clipPath id="id0">
     <path d="M2056 313l149 0 0 149 -149 0 0 -149z"/>
    </clipPath>
    <clipPath id="id1">
     <path d="M1870 131l234 0 0 234 -234 0 0 -234z"/>
    </clipPath>
    <clipPath id="id2">
     <path d="M2068 39l149 0 0 149 -149 0 0 -149z"/>
    </clipPath>
    <clipPath id="id3">
     <path d="M1767 312l148 0 0 149 -148 0 0 -149z"/>
    </clipPath>
    <clipPath id="id4">
     <path d="M1765 32l149 0 0 149 -149 0 0 -149z"/>
    </clipPath>
    <clipPath id="id5">
     <path d="M1045 355l730 -1 0 40 -730 0 0 -39z"/>
    </clipPath>
    <clipPath id="id6">
     <path d="M425 68l1380 -8 0 351 -1380 8 0 -351z"/>
    </clipPath>
    <clipPath id="id7">
     <path d="M0 0l410 0 0 412 -410 1 0 -413z"/>
    </clipPath>
 </defs>
 <g id="Capa_x0020_1">
  <metadata id="CorelCorpID_0Corel-Layer"/>
  <g id="_2224201600672">
   <g style="clip-path:url(#id0)">
    <image x="2056" y="313" width="149" height="149" xlink:href="whitelogo_Images\whitelogo_ImgID1.png"/>
   </g>
  </g>
  <path class="fil0 str0" d="M2082 410c3,-4 2,-9 2,-14l0 -43 92 91c4,4 8,9 15,3 4,-5 0,-10 -3,-13l-93 -93c10,-1 53,3 57,-1 4,-4 4,-8 0,-13 -2,-2 -7,-2 -9,-2l-61 0c-5,0 -9,1 -11,2l-1 2c-3,3 -2,9 -2,19l0 51c0,4 0,8 3,11 3,4 8,3 11,0z"/>
  <g id="_2258698760304">
   <g style="clip-path:url(#id1)">
    <image x="1870" y="131" width="235" height="234" xlink:href="whitelogo_Images\whitelogo_ImgID2.png"/>
   </g>
  </g>
  <path class="fil0" d="M1921 170c-48,48 -48,106 -1,154 34,35 97,36 144,-9 34,-34 36,-98 -10,-144 -32,-33 -100,-33 -133,-1z"/>
  <g id="_2258698761168">
   <g style="clip-path:url(#id2)">
    <image x="2068" y="39" width="149" height="149" xlink:href="whitelogo_Images\whitelogo_ImgID3.png"/>
   </g>
  </g>
  <path class="fil0 str0" d="M2165 163c-4,-4 -9,-3 -15,-3l-43 0 92 -92c4,-4 9,-8 2,-14 -5,-5 -9,-1 -13,3l-92 92c-2,-9 2,-53 -2,-57 -4,-4 -8,-4 -12,0 -3,3 -2,7 -2,10l0 61c0,5 1,8 2,10l1 1c4,3 10,2 20,2l51 0c4,0 7,1 11,-3 3,-3 3,-8 0,-10z"/>
  <g id="_2258698761296">
   <g style="clip-path:url(#id3)">
    <image x="1767" y="312" width="149" height="149" xlink:href="whitelogo_Images\whitelogo_ImgID4.png"/>
   </g>
  </g>
  <path class="fil0 str0" d="M1818 338c4,4 9,2 15,2l43 0 -92 92c-4,4 -8,8 -2,15 5,4 10,0 13,-3l92 -92c2,9 -2,52 2,56 4,4 8,4 12,0 3,-2 2,-6 2,-9l0 -61c0,-5 0,-9 -2,-11l-1 -1c-4,-3 -10,-2 -20,-2l-51 0c-4,0 -7,0 -10,3 -4,3 -4,8 -1,11z"/>
  <g id="_2258698761840">
   <g style="clip-path:url(#id4)">
    <image x="1765" y="32" width="149" height="149" xlink:href="whitelogo_Images\whitelogo_ImgID5.png"/>
   </g>
  </g>
  <path class="fil0 str0" d="M1889 84c-4,4 -3,9 -3,15l0 43 -92 -92c-4,-4 -8,-9 -14,-2 -5,4 -1,9 2,13l93 92c-10,2 -53,-2 -57,2 -4,4 -4,8 0,12 2,3 7,2 10,2l61 0c5,0 8,-1 10,-2l1 -2c3,-3 2,-9 2,-19l0 -51c0,-4 1,-7 -3,-11 -3,-3 -8,-3 -10,0z"/>
  <g id="_2258698762608">
   <g style="clip-path:url(#id5)">
    <image x="1045" y="354" width="729.806" height="40.1972" xlink:href="whitelogo_Images\whitelogo_ImgID6.png"/>
   </g>
  </g>
  <path class="fil1" d="M1067 390c-3,1 -6,2 -9,2l-12 0 0 -35 10 0c3,0 6,1 8,2 2,2 3,5 3,7 0,2 0,3 0,4 -1,2 -2,3 -3,3 0,1 0,1 0,1 1,0 2,0 3,1 1,1 1,2 2,3 1,1 1,3 1,4 0,3 -1,6 -3,8zm-3 -3c1,-1 2,-3 2,-5 0,-2 -1,-3 -2,-4 -2,-1 -4,-2 -6,-2l-8 0 0 13 8 0c2,0 4,-1 6,-2zm-2 -16c1,-1 2,-3 2,-5 0,-1 -1,-3 -2,-4 -2,-1 -4,-2 -6,-2l-6 0 0 13 7 0c2,0 3,-1 5,-2z"/>
  <path id="1" class="fil1" d="M1092 381l0 -14 3 0 0 14c0,1 0,3 0,4 -1,2 -2,3 -3,4 -1,1 -2,2 -3,2 -2,1 -3,1 -5,1 -1,0 -3,0 -4,-1 -2,0 -3,-1 -4,-2 -1,-1 -2,-2 -2,-4 -1,-1 -1,-3 -1,-4l0 0 0 -14 3 0 0 14 0 0c0,1 1,2 1,3 0,1 1,2 2,2 0,1 1,2 2,2 1,0 2,1 3,1 1,0 2,-1 3,-1 1,0 2,-1 3,-2 0,0 1,-1 1,-2 1,-1 1,-2 1,-3z"/>
  <path id="2" class="fil1" d="M1113 386c0,-1 0,-2 -1,-3 0,0 -1,-1 -1,-1 -1,-1 -2,-1 -4,-1 -1,-1 -2,-1 -3,-2 -2,0 -2,-1 -3,-2 -1,-1 -2,-2 -2,-3 0,-1 0,-2 1,-3 0,-1 1,-2 2,-3 0,-1 1,-1 2,-2 2,0 3,0 4,0 1,0 2,0 3,0 1,1 2,1 3,2 1,1 1,1 1,2 1,1 1,1 1,2l-4 0c0,-1 -1,-2 -1,-2 -1,-1 -2,-1 -3,-1 -1,0 -2,0 -2,0 -1,1 -2,1 -2,2 -1,1 -1,2 -1,3 0,0 0,1 1,1 1,1 1,1 2,2 1,0 3,0 4,1 1,0 2,1 3,1 1,1 2,2 3,3 1,1 1,2 1,4 0,1 0,2 -1,3 0,1 -1,2 -2,2 -1,1 -2,2 -3,2 -1,0 -2,0 -3,0 -1,0 -3,0 -4,0 -1,-1 -2,-1 -3,-2 -1,-1 -1,-2 -2,-3 0,-1 -1,-2 0,-3l3 0c0,0 0,1 1,2 0,1 1,1 1,2 1,1 3,1 4,1 2,0 3,0 4,-1 1,-1 1,-2 1,-3z"/>
  <path id="3" class="fil1" d="M1120 367l3 0 0 25 -3 0 0 -25zm-1 -8c0,-1 1,-1 1,-1 0,-1 1,-1 2,-1 0,0 1,0 1,1 0,0 1,0 1,1 0,1 -1,1 -1,2 0,0 -1,0 -1,0 -1,0 -2,0 -2,0 0,-1 -1,-1 -1,-2z"/>
  <path id="4" class="fil1" d="M1146 377c0,-1 0,-2 -1,-3 0,-1 -1,-2 -1,-2 -1,-1 -2,-2 -3,-2 -1,0 -2,-1 -3,-1 -1,0 -2,1 -3,1 -1,0 -2,1 -2,2 -1,0 -2,1 -2,2 0,1 -1,2 -1,3l0 15 -3 0 0 -25 3 0 0 2c1,0 1,-1 2,-1 0,-1 1,-1 2,-1 0,-1 1,-1 2,-1 1,0 1,0 2,0 2,0 3,0 5,1 1,0 2,1 3,2 1,1 2,2 3,4 0,1 0,3 0,4l1 15 -4 0 0 -15z"/>
  <path id="5" class="fil1" d="M1156 380c0,1 0,2 1,4 0,1 1,2 2,3 1,1 2,2 3,2 2,1 3,1 4,1 2,0 3,0 4,-1 2,0 3,-1 4,-2 0,-1 1,-2 1,-2l4 0 0 0c0,2 -1,3 -3,4 -1,2 -2,3 -4,3 -2,1 -4,1 -6,1 -1,0 -3,0 -5,-1 -2,0 -3,-1 -4,-3 -2,-1 -3,-2 -3,-4 -1,-2 -1,-3 -1,-5 0,-2 0,-4 1,-6 0,-1 1,-3 3,-4 1,-1 2,-2 4,-3 2,-1 4,-1 5,-1 2,0 4,0 6,1 2,1 3,2 4,3 2,1 3,3 3,4 1,2 1,3 1,5l-24 0c0,0 0,0 0,1zm18 -8c-1,-1 -2,-1 -4,-2 -1,0 -2,-1 -4,-1 -1,0 -2,1 -4,1 -1,1 -2,1 -3,2 -1,1 -1,2 -2,3l19 0c-1,-1 -1,-2 -2,-3z"/>
  <path id="6" class="fil1" d="M1197 386c0,-1 0,-2 0,-3 -1,0 -1,-1 -2,-1 -1,-1 -2,-1 -4,-1 -1,-1 -2,-1 -3,-2 -1,0 -2,-1 -3,-2 -1,-1 -1,-2 -2,-3 0,-1 0,-2 1,-3 0,-1 1,-2 2,-3 1,-1 1,-1 3,-2 1,0 2,0 3,0 1,0 3,0 4,0 1,1 1,1 2,2 1,1 1,1 2,2 0,1 0,1 0,2l-3 0c-1,-1 -1,-2 -2,-2 -1,-1 -2,-1 -3,-1 -1,0 -1,0 -2,0 -1,1 -2,1 -2,2 -1,1 -1,2 -1,3 0,0 1,1 1,1 1,1 2,1 3,2 1,0 2,0 3,1 1,0 2,1 4,1 1,1 1,2 2,3 1,1 1,2 1,4 0,1 0,2 -1,3 0,1 -1,2 -2,2 -1,1 -1,2 -3,2 -1,0 -2,0 -3,0 -1,0 -2,0 -3,0 -2,-1 -3,-1 -3,-2 -1,-1 -2,-2 -3,-3 0,-1 0,-2 0,-3l3 0c0,0 0,1 1,2 0,1 1,1 2,2 1,1 2,1 3,1 2,0 3,0 4,-1 1,-1 1,-2 1,-3z"/>
  <path id="7" class="fil1" d="M1218 386c0,-1 0,-2 0,-3 -1,0 -2,-1 -2,-1 -1,-1 -2,-1 -4,-1 -1,-1 -2,-1 -3,-2 -1,0 -2,-1 -3,-2 -1,-1 -1,-2 -2,-3 0,-1 0,-2 1,-3 0,-1 1,-2 2,-3 0,-1 1,-1 3,-2 1,0 2,0 3,0 1,0 2,0 3,0 1,1 2,1 3,2 1,1 1,1 2,2 0,1 0,1 0,2l-4 0c0,-1 0,-2 -1,-2 -1,-1 -2,-1 -3,-1 -1,0 -1,0 -2,0 -1,1 -2,1 -2,2 -1,1 -1,2 -1,3 0,0 0,1 1,1 1,1 2,1 3,2 1,0 2,0 3,1 1,0 2,1 3,1 2,1 2,2 3,3 1,1 1,2 1,4 0,1 0,2 -1,3 0,1 -1,2 -2,2 -1,1 -2,2 -3,2 -1,0 -2,0 -3,0 -1,0 -2,0 -4,0 -1,-1 -2,-1 -3,-2 0,-1 -1,-2 -2,-3 0,-1 0,-2 0,-3l3 0c0,0 0,1 1,2 0,1 1,1 2,2 1,1 2,1 3,1 2,0 3,0 4,-1 1,-1 1,-2 1,-3z"/>
  <path id="8" class="fil1" d="M1245 382c0,1 1,2 1,3 0,1 1,2 2,3 1,0 1,1 2,1 1,1 3,1 4,1 1,0 2,0 3,-1 1,0 2,-1 2,-1 1,-1 2,-2 2,-3 1,-1 1,-2 1,-3l0 -25 3 0 0 25c0,1 0,3 -1,4 0,2 -1,3 -2,4 -1,1 -2,2 -4,3 -1,0 -3,0 -4,0 -2,0 -4,0 -5,0 -1,-1 -3,-2 -4,-3 -1,-1 -2,-2 -2,-4 -1,-1 -1,-3 -1,-4l0 -25 3 0 0 25z"/>
  <path id="9" class="fil1" d="M1288 377c0,-1 0,-2 -1,-3 0,-1 -1,-2 -1,-2 -1,-1 -2,-2 -3,-2 -1,0 -2,-1 -3,-1 -1,0 -2,1 -3,1 -1,0 -2,1 -2,2 -1,0 -2,1 -2,2 0,1 -1,2 -1,3l0 15 -3 0 0 -25 3 0 0 2c1,0 1,-1 2,-1 0,-1 1,-1 2,-1 0,-1 1,-1 2,-1 1,0 1,0 2,0 2,0 3,0 5,1 1,0 2,1 3,2 1,1 2,2 3,4 0,1 1,3 1,4l0 15 -4 0 0 -15z"/>
  <path id="10" class="fil1" d="M1295 367l3 0 0 25 -3 0 0 -25zm0 -8c0,-1 0,-1 0,-1 1,-1 1,-1 2,-1 0,0 1,0 1,1 1,0 1,0 1,1 0,1 0,1 -1,2 0,0 -1,0 -1,0 -1,0 -1,0 -2,0 0,-1 0,-1 0,-2z"/>
  <path id="11" class="fil1" d="M1315 373l-6 0 0 19 -4 0 0 -19 -2 0 0 -3 2 0 0 -6c0,-1 0,-2 1,-3 0,-1 0,-1 1,-2 1,-1 1,-1 2,-2 1,0 2,0 3,0 1,0 2,0 3,0 0,1 1,1 2,2 0,1 1,1 1,2 0,1 1,2 1,3l-4 0c0,-1 0,-2 -1,-3 0,0 -1,-1 -2,-1 -1,0 -2,1 -2,1 -1,1 -1,2 -1,3l0 6 10 0 0 22 -4 0 0 -19z"/>
  <path id="12" class="fil1" d="M1325 380c0,1 1,2 1,4 1,1 1,2 2,3 1,1 2,2 4,2 1,1 2,1 4,1 1,0 2,0 4,-1 1,0 2,-1 3,-2 1,-1 1,-2 2,-2l4 0 -1 0c0,2 -1,3 -2,4 -2,2 -3,3 -5,3 -2,1 -3,1 -5,1 -2,0 -4,0 -6,-1 -1,0 -3,-1 -4,-3 -1,-1 -2,-2 -3,-4 -1,-2 -1,-3 -1,-5 0,-2 0,-4 1,-6 1,-1 2,-3 3,-4 1,-1 3,-2 4,-3 2,-1 4,-1 6,-1 2,0 3,0 5,1 2,1 3,2 5,3 1,1 2,3 2,4 1,2 1,3 2,5l-25 0c0,0 0,0 0,1zm18 -8c-1,-1 -2,-1 -3,-2 -2,0 -3,-1 -4,-1 -2,0 -3,1 -4,1 -2,1 -3,1 -4,2 0,1 -1,2 -2,3l19 0c-1,-1 -1,-2 -2,-3z"/>
  <path id="13" class="fil1" d="M1379 380c0,2 0,3 -1,5 -1,2 -2,3 -3,4 -1,2 -3,3 -5,3 -1,1 -3,1 -5,1 -2,0 -4,0 -5,-1 -2,0 -3,-1 -5,-3 -1,-1 -2,-2 -3,-4 0,-2 -1,-3 -1,-5 0,-2 1,-4 1,-6 1,-1 2,-3 3,-4 2,-1 3,-2 5,-3 1,-1 3,-1 5,-1 2,0 4,0 6,1 2,1 3,3 4,4l0 -14 4 0 0 23zm-4 0c0,-2 0,-3 0,-4 -1,-2 -2,-3 -3,-4 -1,-1 -2,-1 -3,-2 -1,0 -3,-1 -4,-1 -1,0 -3,1 -4,1 -1,1 -2,1 -3,2 -1,1 -2,2 -2,4 -1,1 -1,2 -1,4 0,1 0,2 1,4 0,1 1,2 2,3 1,1 2,2 3,2 1,1 3,1 4,1 1,0 3,0 4,-1 1,0 2,-1 3,-2 1,-1 2,-2 3,-3 0,-2 0,-3 0,-4z"/>
  <path id="14" class="fil1" d="M1402 375c0,2 1,4 2,6 1,1 2,3 3,4 1,2 3,3 5,4 2,1 4,1 6,1 2,0 4,0 6,-1 2,-1 3,-2 5,-4 0,0 1,-1 1,-2l4 0c0,2 -2,4 -3,5 -2,2 -4,3 -6,4 -2,1 -5,1 -7,1 -3,0 -5,0 -7,-1 -3,-1 -5,-2 -6,-4 -2,-2 -4,-4 -5,-6 -1,-2 -1,-5 -1,-7 0,-3 0,-5 1,-8 1,-2 3,-4 5,-6 1,-1 3,-3 6,-4 2,-1 4,-1 7,-1 2,0 5,0 7,1 2,1 4,3 6,4 1,2 3,3 3,5l-4 0c0,-1 -1,-2 -1,-2 -2,-2 -3,-3 -5,-4 -2,0 -4,-1 -6,-1 -2,0 -4,1 -6,1 -2,1 -4,2 -5,4 -1,1 -2,3 -3,5 -1,2 -2,3 -2,6z"/>
  <path id="15" class="fil1" d="M1437 380c0,-2 1,-4 1,-6 1,-1 2,-3 3,-4 2,-1 3,-2 5,-3 2,-1 3,-1 5,-1 2,0 4,0 6,1 1,1 3,2 4,3 1,1 2,3 3,4 1,2 1,4 1,6 0,2 0,3 -1,5 -1,2 -2,3 -3,4 -1,2 -3,3 -4,3 -2,1 -4,1 -6,1 -2,0 -3,0 -5,-1 -2,0 -3,-1 -5,-3 -1,-1 -2,-2 -3,-4 0,-2 -1,-3 -1,-5zm4 0c0,1 0,2 1,4 0,1 1,2 2,3 1,1 2,2 3,2 1,1 3,1 4,1 2,0 3,0 4,-1 2,0 3,-1 4,-2 0,-1 1,-2 2,-3 0,-2 1,-3 1,-4 0,-2 -1,-3 -1,-4 -1,-2 -2,-3 -2,-4 -1,-1 -2,-1 -4,-2 -1,0 -2,-1 -4,-1 -1,0 -3,1 -4,1 -1,1 -2,1 -3,2 -1,1 -2,2 -2,4 -1,1 -1,2 -1,4z"/>
  <path id="16" class="fil1" d="M1468 367l4 0 0 2c1,-1 2,-2 3,-2 2,-1 3,-1 5,-1 2,0 4,0 5,1 2,1 3,2 4,4 1,-2 2,-3 4,-4 2,-1 4,-1 6,-1 1,0 3,0 4,1 2,0 3,1 4,2 1,1 2,2 2,4 1,1 1,3 1,4l0 15 -3 0 -1 -15c0,-1 0,-2 0,-3 -1,-1 -1,-2 -2,-2 0,-1 -1,-2 -2,-2 -1,0 -2,-1 -3,-1 -1,0 -2,1 -3,1 -1,0 -2,1 -3,2 0,0 -1,1 -1,2 -1,1 -1,2 -1,3l0 15 -3 0 -1 -15c0,-1 0,-2 0,-3 -1,-1 -1,-2 -2,-2 -1,-1 -1,-2 -2,-2 -1,0 -2,-1 -3,-1 -1,0 -2,1 -3,1 -1,0 -2,1 -3,2 0,0 -1,1 -1,2 -1,1 -1,2 -1,3l0 15 -3 0 -1 -25z"/>
  <path id="17" class="fil1" d="M1514 367l4 0 0 2c0,-1 2,-2 3,-2 1,-1 3,-1 4,-1 2,0 4,0 6,1 1,1 3,2 4,4 1,-2 2,-3 4,-4 1,-1 3,-1 5,-1 2,0 3,0 5,1 1,0 2,1 3,2 1,1 2,2 3,4 0,1 1,3 1,4l0 15 -4 0 0 -15c0,-1 0,-2 -1,-3 0,-1 -1,-2 -1,-2 -1,-1 -2,-2 -3,-2 -1,0 -2,-1 -3,-1 -1,0 -2,1 -3,1 -1,0 -1,1 -2,2 -1,0 -1,1 -2,2 0,1 0,2 0,3l0 15 -4 0 0 -15c0,-1 0,-2 -1,-3 0,-1 -1,-2 -1,-2 -1,-1 -2,-2 -3,-2 -1,0 -2,-1 -3,-1 -1,0 -2,1 -3,1 -1,0 -1,1 -2,2 -1,0 -1,1 -2,2 0,1 0,2 0,3l0 15 -4 0 0 -25z"/>
  <path id="18" class="fil1" d="M1577 381l0 -14 3 0 0 14c0,1 0,3 -1,4 0,2 -1,3 -2,4 -1,1 -2,2 -4,2 -1,1 -2,1 -4,1 -2,0 -3,0 -4,-1 -2,0 -3,-1 -4,-2 -1,-1 -2,-2 -2,-4 -1,-1 -1,-3 -1,-4l0 0 0 -14 3 0 0 14 0 0c0,1 0,2 1,3 0,1 1,2 2,2 0,1 1,2 2,2 1,0 2,1 3,1 1,0 2,-1 3,-1 1,0 2,-1 2,-2 1,0 2,-1 2,-2 1,-1 1,-2 1,-3z"/>
  <path id="19" class="fil1" d="M1603 377c0,-1 0,-2 -1,-3 0,-1 -1,-2 -1,-2 -1,-1 -2,-2 -3,-2 -1,0 -2,-1 -3,-1 -1,0 -2,1 -3,1 -1,0 -1,1 -2,2 -1,0 -1,1 -2,2 0,1 -1,2 -1,3l1 15 -4 0 0 -25 3 0 0 2c1,0 1,-1 2,-1 0,-1 1,-1 2,-1 0,-1 1,-1 2,-1 1,0 1,0 2,0 2,0 3,0 5,1 1,0 2,1 3,2 1,1 2,2 3,4 0,1 1,3 1,4l0 15 -4 0 0 -15z"/>
  <path id="20" class="fil1" d="M1610 367l3 0 0 25 -3 0 0 -25zm0 -8c0,-1 0,-1 0,-1 1,-1 1,-1 2,-1 0,0 1,0 1,1 1,0 1,0 1,1 0,1 0,1 -1,2 0,0 -1,0 -1,0 -1,0 -1,0 -2,0 0,-1 0,-1 0,-2z"/>
  <path id="21" class="fil1" d="M1620 380c0,1 0,2 1,4 0,1 1,2 2,3 1,1 2,2 3,2 2,1 3,1 4,1 2,0 3,0 4,-1 2,0 3,-1 4,-2 0,-1 1,-2 1,-2l4 0 0 0c-1,2 -2,3 -3,4 -1,2 -3,3 -4,3 -2,1 -4,1 -6,1 -2,0 -3,0 -5,-1 -2,0 -3,-1 -4,-3 -2,-1 -3,-2 -3,-4 -1,-2 -2,-3 -2,-5 0,-2 1,-4 2,-6 0,-1 1,-3 3,-4 1,-1 2,-2 4,-3 2,-1 3,-1 5,-1 2,0 4,0 6,1 1,1 3,2 4,3 1,1 2,3 3,4l0 1 -4 0c0,-1 -1,-2 -1,-3 -1,-1 -2,-1 -4,-2 -1,0 -2,-1 -4,-1 -1,0 -2,1 -4,1 -1,1 -2,1 -3,2 -1,1 -2,2 -2,4 -1,1 -1,2 -1,4z"/>
  <path id="22" class="fil1" d="M1646 380c0,-2 0,-4 1,-6 0,-1 1,-3 3,-4 1,-1 2,-2 4,-3 2,-1 4,-1 6,-1 1,0 3,0 5,1 2,1 3,2 4,3 2,1 3,3 3,4 1,2 1,4 1,6l0 12 -3 0 0 -3c0,0 -1,0 -1,0 -1,2 -2,3 -4,3 -2,1 -4,1 -5,1 -2,0 -4,0 -6,-1 -2,0 -3,-1 -4,-3 -2,-1 -3,-2 -3,-4 -1,-2 -1,-3 -1,-5zm3 0c0,1 0,2 1,4 1,1 1,2 2,3 1,1 2,2 3,2 2,1 3,1 5,1 1,0 2,0 4,-1 1,0 2,-1 3,-2 1,-1 1,-2 2,-3 1,-2 1,-3 1,-4l0 0c0,-2 0,-3 -1,-4 -1,-2 -1,-3 -2,-4 -1,-1 -2,-1 -3,-2 -2,0 -3,-1 -4,-1 -2,0 -3,1 -5,1 -1,1 -2,1 -3,2 -1,1 -1,2 -2,4 -1,1 -1,2 -1,4z"/>
  <polygon id="23" class="fil1" points="1675,371 1675,367 1677,367 1677,357 1681,357 1681,367 1687,367 1687,371 1681,371 1681,392 1677,392 1677,371 "/>
  <path id="24" class="fil1" d="M1691 367l3 0 0 25 -3 0 0 -25zm-1 -8c0,-1 0,-1 1,-1 0,-1 1,-1 1,-1 1,0 1,0 2,1 0,0 0,0 0,1 0,1 0,1 0,2 -1,0 -1,0 -2,0 0,0 -1,0 -1,0 -1,-1 -1,-1 -1,-2z"/>
  <path id="25" class="fil1" d="M1697 380c0,-2 0,-4 1,-6 1,-1 2,-3 3,-4 1,-1 3,-2 4,-3 2,-1 4,-1 6,-1 2,0 4,0 5,1 2,1 3,2 5,3 1,1 2,3 3,4 0,2 1,4 1,6 0,2 -1,3 -1,5 -1,2 -2,3 -3,4 -2,2 -3,3 -5,3 -1,1 -3,1 -5,1 -2,0 -4,0 -6,-1 -1,0 -3,-1 -4,-3 -1,-1 -2,-2 -3,-4 -1,-2 -1,-3 -1,-5zm4 0c0,1 0,2 0,4 1,1 2,2 3,3 0,1 2,2 3,2 1,1 2,1 4,1 1,0 3,0 4,-1 1,0 2,-1 3,-2 1,-1 2,-2 2,-3 1,-2 1,-3 1,-4 0,-2 0,-3 -1,-4 0,-2 -1,-3 -2,-4 -1,-1 -2,-1 -3,-2 -1,0 -3,-1 -4,-1 -2,0 -3,1 -4,1 -1,1 -3,1 -3,2 -1,1 -2,2 -3,4 0,1 0,2 0,4z"/>
  <path id="26" class="fil1" d="M1747 377c0,-1 0,-2 -1,-3 0,-1 -1,-2 -1,-2 -1,-1 -2,-2 -3,-2 -1,0 -2,-1 -3,-1 -1,0 -2,1 -3,1 -1,0 -1,1 -2,2 -1,0 -1,1 -2,2 0,1 0,2 0,3l0 15 -4 0 0 -25 4 0 0 2c0,0 0,-1 1,-1 1,-1 1,-1 2,-1 1,-1 1,-1 2,-1 1,0 2,0 2,0 2,0 3,0 5,1 1,0 2,1 3,2 1,1 2,2 3,4 0,1 1,3 1,4l0 15 -4 0 0 -15z"/>
  <path id="27" class="fil1" d="M1768 386c0,-1 0,-2 0,-3 -1,0 -1,-1 -2,-1 -1,-1 -2,-1 -4,-1 -1,-1 -2,-1 -3,-2 -1,0 -2,-1 -3,-2 -1,-1 -1,-2 -1,-3 -1,-1 0,-2 0,-3 0,-1 1,-2 2,-3 1,-1 2,-1 3,-2 1,0 2,0 3,0 1,0 3,0 4,0 1,1 1,1 2,2 1,1 1,1 2,2 0,1 0,1 0,2l-3 0c-1,-1 -1,-2 -2,-2 -1,-1 -2,-1 -3,-1 -1,0 -1,0 -2,0 -1,1 -2,1 -2,2 -1,1 -1,2 -1,3 0,0 1,1 1,1 1,1 2,1 3,2 1,0 2,0 3,1 1,0 3,1 4,1 1,1 2,2 2,3 1,1 1,2 1,4 0,1 0,2 -1,3 0,1 -1,2 -2,2 0,1 -1,2 -3,2 -1,0 -2,0 -3,0 -1,0 -2,0 -3,0 -2,-1 -3,-1 -3,-2 -1,-1 -2,-2 -3,-3 0,-1 0,-2 0,-3l3 0c0,0 0,1 1,2 0,1 1,1 2,2 1,1 2,1 3,1 2,0 3,0 4,-1 1,-1 1,-2 1,-3z"/>
  <g id="_2258698764432">
   <g style="clip-path:url(#id6)">
    <image x="425" y="60" width="1380" height="359" xlink:href="whitelogo_Images\whitelogo_ImgID7.png"/>
   </g>
  </g>
  <path class="fil1" d="M571 221c0,-7 -2,-14 -5,-21 -2,-6 -6,-12 -11,-17 -5,-5 -11,-9 -17,-12 -7,-3 -14,-4 -21,-4 -7,0 -14,2 -21,5 -7,3 -12,7 -17,12 -5,5 -9,11 -12,17 -3,7 -4,13 -4,20l0 106 -25 0 0 -176 25 0 0 16c2,-4 5,-7 9,-10 4,-3 8,-6 13,-8 5,-3 10,-4 16,-5 5,-2 10,-2 16,-2 11,0 21,2 30,6 10,4 18,10 26,17 7,7 12,16 17,25 4,10 6,20 6,31l0 106 -25 0 0 -106z"/>
  <path id="1" class="fil1" d="M758 248l0 -97 25 0 0 97c0,10 -2,21 -6,30 -4,10 -10,18 -17,25 -7,8 -16,13 -25,17 -6,3 -12,5 -19,6l1 80 -25 0 -1 -80c-6,-1 -12,-3 -18,-6 -9,-4 -18,-9 -25,-17 -7,-7 -13,-15 -17,-25 -4,-9 -6,-20 -6,-30l0 -1 -1 -96 26 0 0 96 0 1c0,7 2,14 4,21 3,6 7,12 12,17 5,5 11,8 17,11 6,3 13,4 21,4 7,0 14,-1 21,-4 7,-3 12,-6 17,-11 5,-5 9,-11 12,-17 3,-7 4,-14 4,-21z"/>
  <path id="2" class="fil1" d="M1075 151l25 0 0 105c0,11 -2,21 -6,31 -4,9 -9,18 -17,25 -7,7 -15,13 -25,17 -10,4 -20,6 -31,6 -14,0 -27,-3 -38,-10 -12,-6 -21,-15 -28,-26 -7,11 -17,20 -29,26 -11,7 -24,10 -38,10 -11,0 -21,-2 -30,-6 -10,-4 -18,-10 -25,-17 -7,-7 -13,-16 -17,-25 -4,-10 -6,-20 -6,-31l0 -105 24 0 0 105c0,7 2,14 5,21 3,6 6,12 11,17 5,5 11,9 17,12 7,3 14,4 21,4 8,0 15,-1 21,-4 7,-3 12,-7 17,-12 5,-5 9,-11 12,-17 3,-7 5,-14 5,-21l0 -105 25 0 0 105c0,8 2,15 5,22 3,6 6,12 11,17 5,4 11,8 17,11 6,3 13,4 20,4 8,0 15,-1 21,-4 7,-3 13,-7 17,-12 5,-5 9,-11 12,-17 3,-7 4,-14 4,-21l0 -105z"/>
  <path id="3" class="fil1" d="M1114 81l26 0 0 85c2,-3 6,-7 10,-10 3,-3 8,-5 13,-8 4,-2 9,-3 15,-4 5,-2 10,-2 15,-2 11,0 21,2 31,6 9,4 18,10 25,17 7,7 13,16 17,25 4,10 6,20 6,31l0 0 1 106 -26 0 0 -106 0 0c0,-8 -2,-15 -4,-21 -3,-7 -7,-12 -12,-17 -5,-5 -11,-9 -17,-12 -7,-3 -14,-4 -21,-4 -7,0 -14,2 -20,5 -7,3 -12,7 -17,12 -5,5 -9,11 -12,17 -3,6 -4,13 -4,20l0 106 -26 0 0 -246z"/>
  <path id="4" class="fil1" d="M1321 239c0,9 2,19 5,27 4,9 9,17 16,24 6,6 14,11 23,15 9,4 18,6 28,6 10,0 19,-2 28,-6 9,-4 16,-9 23,-15 5,-5 9,-11 12,-17l27 0 -1 3c-5,12 -12,22 -21,31 -9,9 -19,16 -31,21 -11,5 -24,7 -37,7 -14,0 -26,-2 -38,-7 -12,-5 -22,-12 -31,-21 -8,-9 -15,-19 -20,-31 -5,-12 -8,-24 -8,-37 0,-14 3,-26 8,-38 5,-12 12,-22 20,-31 9,-9 19,-16 31,-21 12,-5 24,-7 38,-7 13,0 26,2 37,7 12,5 22,12 31,21 9,9 16,19 21,31 4,9 7,20 7,30l-168 0c0,3 0,5 0,8zm123 -52c-7,-6 -14,-11 -23,-15 -9,-4 -18,-6 -28,-6 -10,0 -19,2 -28,6 -9,4 -17,9 -23,15 -6,6 -10,12 -14,19l129 0c-3,-7 -8,-13 -13,-19z"/>
  <path id="5" class="fil1" d="M1511 151l24 0 0 33c2,-2 3,-4 4,-5 9,-9 19,-16 31,-21 12,-5 24,-8 38,-8l0 25c-10,0 -19,2 -28,5 -9,4 -17,9 -23,16 -7,7 -12,14 -16,23 -3,9 -5,18 -5,28l0 80 -25 0 0 -176z"/>
  <path id="6" class="fil1" d="M1628 239c0,9 2,19 5,27 4,9 9,17 16,24 7,6 14,11 23,15 9,4 18,6 28,6 10,0 19,-2 28,-6 9,-4 16,-9 23,-15 5,-5 9,-11 12,-17l27 0 -1 3c-5,12 -12,22 -21,31 -8,9 -19,16 -30,21 -12,5 -25,7 -38,7 -13,0 -26,-2 -38,-7 -11,-5 -22,-12 -30,-21 -9,-9 -16,-19 -21,-31 -5,-12 -8,-24 -8,-37 0,-14 3,-26 8,-38 5,-12 12,-22 21,-31 8,-9 19,-16 30,-21 12,-5 25,-7 38,-7 13,0 26,2 38,7 11,5 22,12 30,21 9,9 16,19 21,31 4,9 7,20 7,30l-168 0c0,3 0,5 0,8zm123 -52c-7,-6 -14,-11 -23,-15 -9,-4 -18,-6 -28,-6 -10,0 -19,2 -28,6 -9,4 -16,9 -23,15 -6,6 -10,12 -14,19l129 0c-3,-7 -8,-13 -13,-19z"/>
  <g id="_2258698755632">
   <g style="clip-path:url(#id7)">
    <image x="0" y="0" width="410" height="413" xlink:href="whitelogo_Images\whitelogo_ImgID8.png"/>
   </g>
  </g>
  <path class="fil1" d="M27 206c0,-24 4,-48 14,-69 9,-22 22,-41 38,-57 17,-17 36,-30 57,-39 22,-9 45,-14 70,-14 25,0 48,5 70,14 22,9 41,22 57,39 16,16 29,35 38,57 10,21 14,45 14,69l0 164 -45 0 0 -44c-2,3 -5,5 -7,8 -16,16 -35,28 -57,38 -22,9 -45,14 -70,14 -25,0 -48,-5 -70,-14 -21,-10 -40,-22 -57,-39 -16,-16 -29,-35 -38,-57 -10,-22 -14,-45 -14,-70zm45 0c0,19 4,36 11,52 7,17 16,31 29,43 12,12 26,22 42,29 17,7 34,10 52,10 18,0 36,-3 52,-10 16,-7 30,-17 43,-29 12,-12 21,-26 28,-42 6,-15 10,-31 11,-47l0 -6c0,-18 -4,-35 -11,-51 -7,-17 -16,-31 -28,-43 -13,-12 -27,-22 -43,-29 -16,-7 -34,-10 -52,-10 -18,0 -35,3 -52,10 -16,7 -30,17 -42,29 -13,12 -22,26 -29,43 -7,16 -11,33 -11,51z"/>
 </g>
</svg>
