<?xml version="1.0" encoding="UTF-8"?>
<!DOCTYPE svg PUBLIC "-//W3C//DTD SVG 1.1//EN" "http://www.w3.org/Graphics/SVG/1.1/DTD/svg11.dtd">
<!-- Creator: CorelDRAW 2017 -->
<svg xmlns="http://www.w3.org/2000/svg" xml:space="preserve" width="93px" height="45px" version="1.1" style="shape-rendering:geometricPrecision; text-rendering:geometricPrecision; image-rendering:optimizeQuality; fill-rule:evenodd; clip-rule:evenodd"
viewBox="0 0 70.62 34.11"
 xmlns:xlink="http://www.w3.org/1999/xlink">
 <defs>
  <style type="text/css">
   <![CDATA[
    .str0 {stroke:#FEFEFE;stroke-width:0.68;stroke-miterlimit:22.9256}
    .fil1 {fill:none}
    .fil0 {fill:#FEFEFE}
    .fil2 {fill:#FEFEFE;fill-rule:nonzero}
   ]]>
  </style>
 </defs>
 <g id="Capa_x0020_1">
  <metadata id="CorelCorpID_0Corel-Layer"/>
  <g id="_1975879290256">
   <path class="fil0" d="M1.2 6.8c0,-0.87 0.06,-1.77 0.58,-2.35 1.01,-1.12 2.88,-3.25 4.35,-3.25 0.86,0 1.51,0.38 2.11,0.88 1.04,0.88 3.15,3.61 3.15,5.05 0,2.44 -2.73,3.07 -2.73,4.66 0,1.21 0.27,1.81 0.9,2.84 0.43,0.72 0.87,1.32 1.38,1.94 1.17,1.43 1.58,1.83 2.77,3.03 0.18,0.19 0.22,0.3 0.39,0.47l2.11 1.97c1.17,1.17 4.13,3.41 5.78,3.41 1.4,0 1.71,-0.86 2.84,-1.82 0.72,-0.61 1.06,-0.91 2.15,-0.91 1.18,0 2.91,1.26 3.62,1.84 1.06,0.86 2.31,1.88 2.31,3.42 0,1.48 -2.12,3.35 -3.25,4.35 -1.83,1.64 -7.16,-0.42 -8.7,-1.19l-2.13 -1.14c-1.42,-0.79 -4.04,-2.65 -5.26,-3.73l-2.99 -2.73c-0.15,-0.15 -0.25,-0.25 -0.4,-0.4 -0.18,-0.18 -0.22,-0.26 -0.37,-0.44l-2.33 -2.6c-1.29,-1.59 -1.63,-2.14 -2.74,-3.79 -1.66,-2.48 -3.54,-6.64 -3.54,-9.51zm4.54 -6.8l0.77 0c0.86,0.09 1.7,0.47 2.43,1.06 1.02,0.82 2.31,2.58 2.94,3.72 0.6,1.07 0.92,2.19 0.65,3.42 -0.17,0.81 -0.89,1.72 -1.45,2.28 -0.49,0.48 -1.22,1.04 -1.22,1.58 0,1.19 1.47,2.99 2.2,3.93l4.46 4.66c0.18,0.14 0.25,0.22 0.42,0.39 0.94,0.93 3.8,3.21 5.11,3.21 1.34,0 2.55,-4.34 7.07,-2.13 1.78,0.87 4.99,3.33 4.99,5.46 0,1.63 -0.32,2.06 -1.21,3.26l-1.07 1.12c-1.91,1.91 -2.11,2.15 -4.85,2.15l-0.13 0c-2.4,0 -5.46,-1.41 -7.6,-2.46l-2.1 -1.23c-4.34,-2.65 -9.13,-7.34 -12.05,-11.4 -1.45,-2.03 -2.72,-3.99 -3.69,-6.37l-0.89 -2.45c-0.49,-1.59 -0.52,-2.36 -0.52,-3.83l0 -0.31c0,-0.76 0.38,-1.84 0.72,-2.27 0.33,-0.42 2.08,-2.23 2.59,-2.61l0.86 -0.61c0.49,-0.33 1.03,-0.51 1.57,-0.57z"/>
   <g>
    <circle class="fil1 str0" cx="18.47" cy="16.8" r="2.26"/>
    <circle class="fil1 str0" cx="24.88" cy="16.8" r="2.26"/>
    <circle class="fil1 str0" cx="31.29" cy="16.8" r="2.26"/>
    <polygon class="fil2" points="35.27,13.14 35.27,12.06 40.12,17.06 35.27,22.05 35.27,20.97 39.2,17.06 "/>
   </g>
   <path class="fil0" d="M37.71 6.8c0,-0.87 0.06,-1.77 0.58,-2.35 1,-1.12 2.87,-3.25 4.35,-3.25 0.86,0 1.51,0.38 2.11,0.88 1.04,0.88 3.15,3.61 3.15,5.05 0,2.44 -2.73,3.07 -2.73,4.66 0,1.21 0.27,1.81 0.89,2.84 0.43,0.72 0.88,1.32 1.39,1.94 1.16,1.43 1.58,1.83 2.77,3.03 0.18,0.19 0.22,0.3 0.39,0.47l2.1 1.97c1.18,1.17 4.14,3.41 5.78,3.41 1.41,0 1.71,-0.86 2.85,-1.82 0.72,-0.61 1.06,-0.91 2.15,-0.91 1.17,0 2.9,1.26 3.62,1.84 1.06,0.86 2.31,1.88 2.31,3.42 0,1.48 -2.13,3.35 -3.25,4.35 -1.83,1.64 -7.16,-0.42 -8.7,-1.19l-2.13 -1.14c-1.42,-0.79 -4.04,-2.65 -5.26,-3.73l-3 -2.73c-0.15,-0.15 -0.25,-0.25 -0.4,-0.4 -0.18,-0.18 -0.21,-0.26 -0.36,-0.44l-2.33 -2.6c-1.29,-1.59 -1.63,-2.14 -2.74,-3.79 -1.67,-2.48 -3.54,-6.64 -3.54,-9.51zm4.53 -6.8l0.78 0c0.85,0.09 1.69,0.47 2.42,1.06 1.02,0.82 2.31,2.58 2.95,3.72 0.6,1.07 0.92,2.19 0.65,3.42 -0.17,0.81 -0.9,1.72 -1.46,2.28 -0.49,0.48 -1.21,1.04 -1.21,1.58 0,1.19 1.47,2.99 2.2,3.93l4.46 4.66c0.18,0.14 0.25,0.22 0.41,0.39 0.95,0.93 3.81,3.21 5.12,3.21 1.34,0 2.55,-4.34 7.06,-2.13 1.79,0.87 5,3.33 5,5.46 0,1.63 -0.32,2.06 -1.21,3.26l-1.07 1.12c-1.91,1.91 -2.11,2.15 -4.85,2.15l-0.13 0c-2.41,0 -5.47,-1.41 -7.6,-2.46l-2.1 -1.23c-4.35,-2.65 -9.13,-7.34 -12.05,-11.4 -1.46,-2.03 -2.72,-3.99 -3.7,-6.37l-0.88 -2.45c-0.49,-1.59 -0.52,-2.36 -0.52,-3.83l0 -0.31c0,-0.76 0.38,-1.84 0.72,-2.27 0.33,-0.42 2.07,-2.23 2.59,-2.61l0.86 -0.61c0.49,-0.33 1.02,-0.51 1.56,-0.57z"/>
  </g>
 </g>
</svg>
